G04 #@! TF.GenerationSoftware,KiCad,Pcbnew,7.0.11*
G04 #@! TF.CreationDate,2024-02-24T15:31:06+03:00*
G04 #@! TF.ProjectId,GameboyCartridgeV1.1,47616d65-626f-4794-9361-727472696467,rev?*
G04 #@! TF.SameCoordinates,Original*
G04 #@! TF.FileFunction,Copper,L2,Bot*
G04 #@! TF.FilePolarity,Positive*
%FSLAX46Y46*%
G04 Gerber Fmt 4.6, Leading zero omitted, Abs format (unit mm)*
G04 Created by KiCad (PCBNEW 7.0.11) date 2024-02-24 15:31:06*
%MOMM*%
%LPD*%
G01*
G04 APERTURE LIST*
G04 Aperture macros list*
%AMFreePoly0*
4,1,6,0.750000,-6.800000,-0.350000,-6.800000,-0.750000,-6.400000,-0.750000,0.500000,0.750000,0.500000,0.750000,-6.800000,0.750000,-6.800000,$1*%
%AMFreePoly1*
4,1,5,0.500000,-6.500000,-0.500000,-6.500000,-0.500000,0.500000,0.500000,0.500000,0.500000,-6.500000,0.500000,-6.500000,$1*%
%AMFreePoly2*
4,1,6,0.750000,-6.300000,0.250000,-6.800000,-0.750000,-6.800000,-0.750000,0.500000,0.750000,0.500000,0.750000,-6.300000,0.750000,-6.300000,$1*%
G04 Aperture macros list end*
G04 #@! TA.AperFunction,ComponentPad*
%ADD10O,1.000000X2.100000*%
G04 #@! TD*
G04 #@! TA.AperFunction,ComponentPad*
%ADD11O,1.000000X1.800000*%
G04 #@! TD*
G04 #@! TA.AperFunction,ConnectorPad*
%ADD12FreePoly0,0.000000*%
G04 #@! TD*
G04 #@! TA.AperFunction,ComponentPad*
%ADD13C,0.860000*%
G04 #@! TD*
G04 #@! TA.AperFunction,ConnectorPad*
%ADD14FreePoly1,0.000000*%
G04 #@! TD*
G04 #@! TA.AperFunction,ConnectorPad*
%ADD15FreePoly2,0.000000*%
G04 #@! TD*
G04 #@! TA.AperFunction,ComponentPad*
%ADD16R,1.700000X1.700000*%
G04 #@! TD*
G04 #@! TA.AperFunction,ComponentPad*
%ADD17O,1.700000X1.700000*%
G04 #@! TD*
G04 #@! TA.AperFunction,ViaPad*
%ADD18C,0.600000*%
G04 #@! TD*
G04 #@! TA.AperFunction,Conductor*
%ADD19C,0.200000*%
G04 #@! TD*
G04 #@! TA.AperFunction,Conductor*
%ADD20C,0.800000*%
G04 #@! TD*
G04 #@! TA.AperFunction,Conductor*
%ADD21C,0.500000*%
G04 #@! TD*
G04 APERTURE END LIST*
D10*
G04 #@! TO.P,J1,S1,SHIELD*
G04 #@! TO.N,GND*
X118480000Y-62165000D03*
D11*
X118480000Y-57985000D03*
D10*
X109840000Y-62165000D03*
D11*
X109840000Y-57985000D03*
G04 #@! TD*
D12*
G04 #@! TO.P,U3,1,VCC*
G04 #@! TO.N,VCC*
X88266962Y-109283715D03*
D13*
X88266962Y-109283715D03*
D14*
G04 #@! TO.P,U3,2,CLK~{}*
G04 #@! TO.N,GB_CLK*
X90016962Y-109283715D03*
D13*
X90016962Y-109283715D03*
D14*
G04 #@! TO.P,U3,3,WR*
G04 #@! TO.N,unconnected-(U3-WR-Pad3)*
X91516962Y-109283715D03*
D13*
X91516962Y-109283715D03*
D14*
G04 #@! TO.P,U3,4,RD*
G04 #@! TO.N,GB_RD*
X93016962Y-109283715D03*
D13*
X93016962Y-109283715D03*
D14*
G04 #@! TO.P,U3,5,CS*
G04 #@! TO.N,unconnected-(U3-CS-Pad5)*
X94516962Y-109283715D03*
D13*
X94516962Y-109283715D03*
D14*
G04 #@! TO.P,U3,6,A0*
G04 #@! TO.N,GB_A0*
X96016962Y-109283715D03*
D13*
X96016962Y-109283715D03*
D14*
G04 #@! TO.P,U3,7,A1*
G04 #@! TO.N,GB_A1*
X97516962Y-109283715D03*
D13*
X97516962Y-109283715D03*
D14*
G04 #@! TO.P,U3,8,A2*
G04 #@! TO.N,GB_A2*
X99016962Y-109283715D03*
D13*
X99016962Y-109283715D03*
D14*
G04 #@! TO.P,U3,9,A3*
G04 #@! TO.N,GB_A3*
X100516962Y-109283715D03*
D13*
X100516962Y-109283715D03*
D14*
G04 #@! TO.P,U3,10,A4*
G04 #@! TO.N,GB_A4*
X102016962Y-109283715D03*
D13*
X102016962Y-109283715D03*
D14*
G04 #@! TO.P,U3,11,A5*
G04 #@! TO.N,GB_A5*
X103516962Y-109283715D03*
D13*
X103516962Y-109283715D03*
D14*
G04 #@! TO.P,U3,12,A6*
G04 #@! TO.N,GB_A6*
X105016962Y-109283715D03*
D13*
X105016962Y-109283715D03*
D14*
G04 #@! TO.P,U3,13,A7*
G04 #@! TO.N,GB_A7*
X106516962Y-109283715D03*
D13*
X106516962Y-109283715D03*
D14*
G04 #@! TO.P,U3,14,A8*
G04 #@! TO.N,GB_A8*
X108016962Y-109283715D03*
D13*
X108016962Y-109283715D03*
D14*
G04 #@! TO.P,U3,15,A9*
G04 #@! TO.N,GB_A9*
X109516962Y-109283715D03*
D13*
X109516962Y-109283715D03*
D14*
G04 #@! TO.P,U3,16,A10*
G04 #@! TO.N,GB_A10*
X111016962Y-109283715D03*
D13*
X111016962Y-109283715D03*
D14*
G04 #@! TO.P,U3,17,A11*
G04 #@! TO.N,GB_A11*
X112516962Y-109283715D03*
D13*
X112516962Y-109283715D03*
D14*
G04 #@! TO.P,U3,18,A12*
G04 #@! TO.N,GB_A12*
X114016962Y-109283715D03*
D13*
X114016962Y-109283715D03*
D14*
G04 #@! TO.P,U3,19,A13*
G04 #@! TO.N,GB_A13*
X115516962Y-109283715D03*
D13*
X115516962Y-109283715D03*
D14*
G04 #@! TO.P,U3,20,A14*
G04 #@! TO.N,GB_A14*
X117016962Y-109283715D03*
D13*
X117016962Y-109283715D03*
D14*
G04 #@! TO.P,U3,21,A15*
G04 #@! TO.N,GB_A15*
X118516962Y-109283715D03*
D13*
X118516962Y-109283715D03*
D14*
G04 #@! TO.P,U3,22,D0*
G04 #@! TO.N,GB_D0*
X120016962Y-109283715D03*
D13*
X120016962Y-109283715D03*
D14*
G04 #@! TO.P,U3,23,D1*
G04 #@! TO.N,GB_D1*
X121516962Y-109283715D03*
D13*
X121516962Y-109283715D03*
D14*
G04 #@! TO.P,U3,24,D2*
G04 #@! TO.N,GB_D2*
X123016962Y-109283715D03*
D13*
X123016962Y-109283715D03*
D14*
G04 #@! TO.P,U3,25,D3*
G04 #@! TO.N,GB_D3*
X124516962Y-109283715D03*
D13*
X124516962Y-109283715D03*
D14*
G04 #@! TO.P,U3,26,D4*
G04 #@! TO.N,GB_D4*
X126016962Y-109283715D03*
D13*
X126016962Y-109283715D03*
D14*
G04 #@! TO.P,U3,27,D5*
G04 #@! TO.N,GB_D5*
X127516962Y-109283715D03*
D13*
X127516962Y-109283715D03*
D14*
G04 #@! TO.P,U3,28,D6*
G04 #@! TO.N,GB_D6*
X129016962Y-109283715D03*
D13*
X129016962Y-109283715D03*
D14*
G04 #@! TO.P,U3,29,D7*
G04 #@! TO.N,GB_D7*
X130516962Y-109283715D03*
D13*
X130516962Y-109283715D03*
D14*
G04 #@! TO.P,U3,30,RST*
G04 #@! TO.N,GB_RST*
X132016962Y-109283715D03*
D13*
X132016962Y-109283715D03*
D14*
G04 #@! TO.P,U3,31,SND*
G04 #@! TO.N,unconnected-(U3-SND-Pad31)*
X133516962Y-109283715D03*
D13*
X133516962Y-109283715D03*
D15*
G04 #@! TO.P,U3,32,GND*
G04 #@! TO.N,GND*
X135266962Y-109283715D03*
D13*
X135266962Y-109283715D03*
G04 #@! TD*
D16*
G04 #@! TO.P,J2,1,Pin_1*
G04 #@! TO.N,Net-(J2-Pin_1)*
X125345000Y-61375000D03*
D17*
G04 #@! TO.P,J2,2,Pin_2*
G04 #@! TO.N,GND*
X127885000Y-61375000D03*
G04 #@! TD*
D18*
G04 #@! TO.N,+3V3*
X112141000Y-86487000D03*
G04 #@! TO.N,GND*
X95758000Y-79248000D03*
X124500000Y-85400000D03*
X124100000Y-65300000D03*
X137700000Y-104200000D03*
X112800000Y-79500000D03*
X85900000Y-76200000D03*
X114706400Y-88239600D03*
X127900000Y-56200000D03*
X105400000Y-105300000D03*
X85900000Y-94200000D03*
X85900000Y-100200000D03*
X135000000Y-67600000D03*
X137700000Y-106200000D03*
X133953022Y-87630570D03*
X106807000Y-100965000D03*
X108585000Y-97917000D03*
X85900000Y-92200000D03*
X118500000Y-71600000D03*
X92710000Y-75057000D03*
X95885000Y-98044000D03*
X121900000Y-56200000D03*
X110200000Y-83000000D03*
X108305600Y-84759800D03*
X116586000Y-101219000D03*
X99314000Y-78740000D03*
X85900000Y-62200000D03*
X90932000Y-74168000D03*
X135000000Y-60900000D03*
X116900000Y-66500000D03*
X85900000Y-102200000D03*
X85900000Y-78200000D03*
X98171000Y-68199000D03*
X85900000Y-66200000D03*
X129540000Y-100965000D03*
X85900000Y-68200000D03*
X130700000Y-76900000D03*
X91900000Y-56200000D03*
X85900000Y-64200000D03*
X134200000Y-96700000D03*
X137700000Y-70200000D03*
X121900000Y-58100000D03*
X134200000Y-105400000D03*
X125900000Y-56200000D03*
X96600000Y-94000000D03*
X137700000Y-86200000D03*
X117602000Y-104648000D03*
X96700000Y-67900000D03*
X105800000Y-98000000D03*
X111800000Y-71300000D03*
X120650000Y-75946000D03*
X129900000Y-58000000D03*
X111700000Y-80700000D03*
X119900000Y-56200000D03*
X101473000Y-59309000D03*
X126600000Y-105300000D03*
X137700000Y-84200000D03*
X98552000Y-100965000D03*
X137700000Y-60200000D03*
X135890000Y-107950000D03*
X92100000Y-106500000D03*
X114935000Y-98044000D03*
X107800000Y-90000000D03*
X137700000Y-72200000D03*
X132000000Y-60900000D03*
X125300000Y-105300000D03*
X137700000Y-76200000D03*
X93400000Y-77400000D03*
X116332000Y-99822000D03*
X127900000Y-100900000D03*
X122809000Y-93218000D03*
X93726000Y-71628000D03*
X135000000Y-79700000D03*
X87376000Y-68326000D03*
X137700000Y-68200000D03*
X135000000Y-69700000D03*
X85900000Y-56200000D03*
X94600000Y-106500000D03*
X85900000Y-70200000D03*
X137700000Y-100200000D03*
X114900000Y-57700000D03*
X137700000Y-98200000D03*
X123900000Y-72400000D03*
X111900000Y-56200000D03*
X91821000Y-75057000D03*
X109900000Y-56200000D03*
X112800000Y-57700000D03*
X91900000Y-76600000D03*
X137700000Y-94200000D03*
X85900000Y-90200000D03*
X89900000Y-56200000D03*
X118700000Y-100000000D03*
X134874000Y-108204000D03*
X112800000Y-68800000D03*
X123300000Y-81600000D03*
X129900000Y-65300000D03*
X135000000Y-77800000D03*
X103000000Y-82800000D03*
X92200000Y-101550000D03*
X115900000Y-56200000D03*
X85900000Y-74200000D03*
X137700000Y-78200000D03*
X85900000Y-104200000D03*
X113900000Y-56200000D03*
X104600000Y-68300000D03*
X95800000Y-90400000D03*
X126800000Y-89700000D03*
X99900000Y-59300000D03*
X111350000Y-88650000D03*
X115849400Y-85852000D03*
X137700000Y-66200000D03*
X105900000Y-56200000D03*
X124800000Y-76900000D03*
X85900000Y-86200000D03*
X107900000Y-56200000D03*
X129532265Y-74450793D03*
X135000000Y-75700000D03*
X137700000Y-88200000D03*
X127900000Y-58000000D03*
X111700000Y-79500000D03*
X117602000Y-77724000D03*
X137700000Y-74200000D03*
X112700000Y-66500000D03*
X101900000Y-56200000D03*
X94742000Y-103886000D03*
X129900000Y-56200000D03*
X106900000Y-57900000D03*
X92200000Y-94200000D03*
X137700000Y-90200000D03*
X112400000Y-94250000D03*
X110363000Y-63754000D03*
X117900000Y-56200000D03*
X112800000Y-81800000D03*
X85900000Y-60200000D03*
X137700000Y-82200000D03*
X121100000Y-100000000D03*
X91000000Y-68200000D03*
X107200000Y-106500000D03*
X85900000Y-82200000D03*
X89500000Y-102100000D03*
X99900000Y-56200000D03*
X117905474Y-63864476D03*
X91900000Y-78700000D03*
X92700000Y-89300000D03*
X136400000Y-58900000D03*
X100300000Y-65900000D03*
X106700000Y-60100000D03*
X85900000Y-96200000D03*
X97900000Y-56200000D03*
X92200000Y-98100000D03*
X85900000Y-80200000D03*
X116900000Y-68800000D03*
X100457000Y-101092000D03*
X95300000Y-105400000D03*
X85900000Y-98200000D03*
X135000000Y-63200000D03*
X103900000Y-56200000D03*
X90932000Y-75057000D03*
X137700000Y-96200000D03*
X137700000Y-62200000D03*
X111700000Y-81800000D03*
X92500000Y-85400000D03*
X93700000Y-105400000D03*
X85900000Y-106200000D03*
X100700000Y-74700000D03*
X109220000Y-94234000D03*
X91821000Y-74168000D03*
X123900000Y-56200000D03*
X110600000Y-81800000D03*
X110600000Y-79500000D03*
X135000000Y-65200000D03*
X102700000Y-100900000D03*
X135000000Y-71700000D03*
X97000000Y-105400000D03*
X85900000Y-58200000D03*
X93900000Y-56200000D03*
X95900000Y-56200000D03*
X135300000Y-100900000D03*
X85900000Y-84200000D03*
X131900000Y-56200000D03*
X137700000Y-80200000D03*
X133550000Y-58900000D03*
X85900000Y-72200000D03*
X137700000Y-92200000D03*
X126275838Y-74456437D03*
X88800000Y-82900000D03*
X110600000Y-80700000D03*
X131300000Y-100900000D03*
X131900000Y-58000000D03*
X133477000Y-94107000D03*
X125349000Y-93853000D03*
X117000000Y-71600000D03*
X112800000Y-80700000D03*
X104500000Y-71700000D03*
X102900000Y-77800000D03*
X92710000Y-74168000D03*
X87900000Y-56200000D03*
X127500000Y-77900000D03*
X125900000Y-58100000D03*
X116078000Y-89916000D03*
X137700000Y-102200000D03*
X137700000Y-64200000D03*
X89789000Y-72898000D03*
X105537000Y-58420000D03*
X85900000Y-88200000D03*
X135000000Y-73700000D03*
X125300000Y-97000000D03*
G04 #@! TO.N,+3V3*
X102700000Y-99600000D03*
X123200000Y-99600000D03*
X106700849Y-81844649D03*
X94488000Y-63246000D03*
X94488000Y-60452000D03*
X117500000Y-76300000D03*
X132100000Y-99400000D03*
X106200000Y-69800000D03*
X132500000Y-68100000D03*
X115100000Y-77200000D03*
X117460000Y-81600000D03*
X95200000Y-99450000D03*
X123000000Y-91800000D03*
X106700000Y-77800000D03*
X95631000Y-62357000D03*
X94488000Y-61468000D03*
X92700000Y-88200000D03*
X95631000Y-61468000D03*
X95631000Y-63246000D03*
X94500000Y-77700000D03*
X112800000Y-78200000D03*
X94488000Y-62357000D03*
X95631000Y-60452000D03*
G04 #@! TO.N,SWDIO*
X120800000Y-92650000D03*
X113543466Y-85156974D03*
G04 #@! TO.N,RST*
X126800000Y-78500000D03*
X113850000Y-82950000D03*
X126000000Y-89100000D03*
G04 #@! TO.N,SWCLK*
X118000000Y-89100000D03*
X114200000Y-85800500D03*
G04 #@! TO.N,VCC*
X123200000Y-102500000D03*
X132100000Y-102500000D03*
X88265112Y-106594801D03*
X88272528Y-105663384D03*
X102700000Y-102700000D03*
G04 #@! TO.N,VBUS*
X111705474Y-63864476D03*
X91000000Y-69300000D03*
X116605474Y-63864476D03*
G04 #@! TO.N,GB_A12*
X121174500Y-105400000D03*
G04 #@! TO.N,GB_A13*
X121200000Y-106400000D03*
G04 #@! TO.N,GB_A14*
X122500000Y-105400000D03*
G04 #@! TO.N,GB_A15*
X123800000Y-105400000D03*
G04 #@! TO.N,GB_D3*
X129424500Y-105400000D03*
G04 #@! TO.N,GB_D4*
X129904610Y-106039295D03*
G04 #@! TO.N,GB_D5*
X130724500Y-105400000D03*
G04 #@! TO.N,GB_D7*
X132700000Y-105400000D03*
G04 #@! TO.N,+1V1*
X111500000Y-78300000D03*
X113000000Y-82900000D03*
X113700000Y-78500000D03*
G04 #@! TO.N,POWER_GOOD*
X118000000Y-99500000D03*
X95800000Y-91500000D03*
X97500000Y-93600000D03*
G04 #@! TO.N,LED_DIN*
X122800000Y-72009000D03*
X98800000Y-66000000D03*
G04 #@! TD*
D19*
G04 #@! TO.N,LED_DIN*
X98800000Y-67200000D02*
X98800000Y-66000000D01*
X121700000Y-67600000D02*
X99200000Y-67600000D01*
X99200000Y-67600000D02*
X98800000Y-67200000D01*
X122800000Y-68700000D02*
X121700000Y-67600000D01*
X122800000Y-72009000D02*
X122800000Y-68700000D01*
G04 #@! TO.N,+3V3*
X106700000Y-77800000D02*
X106700000Y-77343000D01*
X105493500Y-76136500D02*
X106700000Y-77343000D01*
X104775000Y-76454000D02*
X105092500Y-76136500D01*
X105092500Y-76136500D02*
X105493500Y-76136500D01*
D20*
X105354000Y-85288000D02*
X105354000Y-80518000D01*
X106045000Y-85979000D02*
X105354000Y-85288000D01*
X112141000Y-86487000D02*
X111633000Y-85979000D01*
X111633000Y-85979000D02*
X106045000Y-85979000D01*
D19*
X112141000Y-86487000D02*
X111300000Y-85646000D01*
D20*
X92700000Y-87894000D02*
X94488000Y-86106000D01*
X92700000Y-88200000D02*
X92700000Y-87894000D01*
X123910000Y-92710000D02*
X123910000Y-99188000D01*
D19*
X117475000Y-79575000D02*
X117475000Y-81361000D01*
X117475000Y-81361000D02*
X117348000Y-81488000D01*
X115100000Y-77200000D02*
X117475000Y-79575000D01*
D20*
X105410000Y-70590000D02*
X106200000Y-69800000D01*
X105410000Y-73406000D02*
X105410000Y-70590000D01*
X106172000Y-72644000D02*
X109220000Y-72644000D01*
X109220000Y-72644000D02*
X113788000Y-77212000D01*
X105410000Y-75819000D02*
X105410000Y-73406000D01*
X105410000Y-73406000D02*
X106172000Y-72644000D01*
X104775000Y-76454000D02*
X105410000Y-75819000D01*
X95746000Y-76454000D02*
X94500000Y-77700000D01*
X104775000Y-76454000D02*
X95746000Y-76454000D01*
X104775000Y-76454000D02*
X105354000Y-77033000D01*
X105354000Y-77033000D02*
X105354000Y-80518000D01*
X105354000Y-81224000D02*
X105354000Y-80518000D01*
D19*
X106700849Y-81844649D02*
X105974649Y-81844649D01*
X105974649Y-81844649D02*
X105354000Y-81224000D01*
G04 #@! TO.N,+1V1*
X113400000Y-78800000D02*
X113700000Y-78500000D01*
X112000000Y-78800000D02*
X113400000Y-78800000D01*
X111500000Y-78300000D02*
X112000000Y-78800000D01*
X115189000Y-80711000D02*
X113000000Y-82900000D01*
X115189000Y-78994000D02*
X115189000Y-80711000D01*
X114695000Y-78500000D02*
X115189000Y-78994000D01*
X113700000Y-78500000D02*
X114695000Y-78500000D01*
X111500000Y-78300000D02*
X111500000Y-78500000D01*
G04 #@! TO.N,GND*
X134874000Y-108890753D02*
X135266962Y-109283715D01*
X135890000Y-107950000D02*
X135890000Y-108660677D01*
X135890000Y-108660677D02*
X135266962Y-109283715D01*
X134874000Y-108204000D02*
X134874000Y-108890753D01*
G04 #@! TO.N,+3V3*
X132500000Y-68100000D02*
X127194000Y-73406000D01*
X112800000Y-78200000D02*
X113788000Y-77212000D01*
D20*
X94488000Y-86106000D02*
X94488000Y-90932000D01*
D21*
X94500000Y-77700000D02*
X94488000Y-77712000D01*
X95189339Y-99450000D02*
X95200000Y-99450000D01*
D20*
X127194000Y-73406000D02*
X120394000Y-73406000D01*
X113800000Y-77200000D02*
X115100000Y-77200000D01*
X123910000Y-92710000D02*
X123000000Y-91800000D01*
D19*
X123400000Y-99400000D02*
X123200000Y-99600000D01*
D20*
X116602000Y-77200000D02*
X115100000Y-77200000D01*
D21*
X117500000Y-76300000D02*
X117500000Y-76302000D01*
D20*
X94488000Y-90932000D02*
X94234000Y-91186000D01*
X94488000Y-77712000D02*
X94488000Y-86106000D01*
X128524000Y-89662000D02*
X125476000Y-92710000D01*
X120394000Y-73406000D02*
X117500000Y-76300000D01*
D19*
X132100000Y-99400000D02*
X123698000Y-99400000D01*
D20*
X125476000Y-92710000D02*
X123910000Y-92710000D01*
X94234000Y-91186000D02*
X94234000Y-98494661D01*
D21*
X113788000Y-77212000D02*
X113800000Y-77200000D01*
D20*
X127194000Y-73406000D02*
X128524000Y-74736000D01*
X128524000Y-74736000D02*
X128524000Y-89662000D01*
X117500000Y-76302000D02*
X116602000Y-77200000D01*
X94234000Y-98494661D02*
X95189339Y-99450000D01*
D21*
X95350000Y-99600000D02*
X95200000Y-99450000D01*
D19*
X123698000Y-99400000D02*
X123400000Y-99400000D01*
D20*
X102700000Y-99600000D02*
X95350000Y-99600000D01*
D19*
G04 #@! TO.N,SWDIO*
X117796000Y-92650000D02*
X115316000Y-90170000D01*
X113543466Y-86073466D02*
X113543466Y-85156974D01*
X115316000Y-87846000D02*
X113543466Y-86073466D01*
X120800000Y-92650000D02*
X117796000Y-92650000D01*
X115316000Y-90170000D02*
X115316000Y-87846000D01*
G04 #@! TO.N,RST*
X126800000Y-88300000D02*
X126800000Y-83300000D01*
X113850000Y-82950000D02*
X114200000Y-83300000D01*
X126800000Y-83300000D02*
X126800000Y-78500000D01*
X126000000Y-89100000D02*
X126800000Y-88300000D01*
X114200000Y-83300000D02*
X126800000Y-83300000D01*
G04 #@! TO.N,SWCLK*
X114200000Y-85800500D02*
X117499500Y-89100000D01*
X118000000Y-89100000D02*
X117499500Y-89100000D01*
D20*
G04 #@! TO.N,VCC*
X132100000Y-102500000D02*
X123200000Y-102500000D01*
X109474000Y-105664000D02*
X106510000Y-102700000D01*
X102700000Y-102700000D02*
X92032000Y-102700000D01*
X92032000Y-102700000D02*
X89576000Y-105156000D01*
X89576000Y-105156000D02*
X88779912Y-105156000D01*
X123200000Y-102500000D02*
X116956000Y-102500000D01*
X106510000Y-102700000D02*
X102700000Y-102700000D01*
X116956000Y-102500000D02*
X113792000Y-105664000D01*
X113792000Y-105664000D02*
X109474000Y-105664000D01*
X88266962Y-105668950D02*
X88266962Y-109283715D01*
X88779912Y-105156000D02*
X88272528Y-105663384D01*
D21*
X88272528Y-105663384D02*
X88266962Y-105668950D01*
D20*
G04 #@! TO.N,VBUS*
X110799950Y-64770000D02*
X98171000Y-64770000D01*
X111705474Y-63864476D02*
X110799950Y-64770000D01*
X98171000Y-64770000D02*
X93641000Y-69300000D01*
X116605474Y-63864476D02*
X111705474Y-63864476D01*
X93641000Y-69300000D02*
X91000000Y-69300000D01*
D19*
G04 #@! TO.N,GB_A12*
X114016962Y-106683038D02*
X115000000Y-105700000D01*
X115000000Y-105700000D02*
X120874500Y-105700000D01*
X120874500Y-105700000D02*
X121174500Y-105400000D01*
X114016962Y-109283715D02*
X114016962Y-106683038D01*
G04 #@! TO.N,GB_A13*
X115516962Y-109283715D02*
X115516962Y-106983038D01*
X115516962Y-106983038D02*
X116100000Y-106400000D01*
X116100000Y-106400000D02*
X121200000Y-106400000D01*
G04 #@! TO.N,GB_A14*
X117016962Y-109283715D02*
X117016962Y-107783038D01*
X122500000Y-106200000D02*
X122500000Y-105400000D01*
X117016962Y-107783038D02*
X117600000Y-107200000D01*
X117600000Y-107200000D02*
X121500000Y-107200000D01*
X121500000Y-107200000D02*
X122500000Y-106200000D01*
G04 #@! TO.N,GB_A15*
X118516962Y-108383038D02*
X119100000Y-107800000D01*
X118516962Y-109283715D02*
X118516962Y-108383038D01*
X119100000Y-107800000D02*
X122600000Y-107800000D01*
X122600000Y-107800000D02*
X123800000Y-106600000D01*
X123800000Y-106600000D02*
X123800000Y-105400000D01*
G04 #@! TO.N,GB_D3*
X126000000Y-106300000D02*
X128524500Y-106300000D01*
X124516962Y-109283715D02*
X124516962Y-107783038D01*
X128524500Y-106300000D02*
X129424500Y-105400000D01*
X124516962Y-107783038D02*
X126000000Y-106300000D01*
G04 #@! TO.N,GB_D4*
X128843905Y-107100000D02*
X129904610Y-106039295D01*
X126016962Y-109283715D02*
X126016962Y-107783038D01*
X126016962Y-107783038D02*
X126700000Y-107100000D01*
X126700000Y-107100000D02*
X128843905Y-107100000D01*
G04 #@! TO.N,GB_D5*
X127516962Y-108383038D02*
X127516962Y-109283715D01*
X129400000Y-107800000D02*
X128100000Y-107800000D01*
X130724500Y-106475500D02*
X129400000Y-107800000D01*
X130724500Y-105400000D02*
X130724500Y-106475500D01*
X128100000Y-107800000D02*
X127516962Y-108383038D01*
G04 #@! TO.N,GB_D7*
X132700000Y-106500000D02*
X132700000Y-105400000D01*
X130516962Y-108683038D02*
X132700000Y-106500000D01*
X130516962Y-109283715D02*
X130516962Y-108683038D01*
G04 #@! TO.N,POWER_GOOD*
X114800000Y-93500000D02*
X113300000Y-92000000D01*
X97500000Y-93600000D02*
X97500000Y-92000000D01*
X113300000Y-92000000D02*
X97500000Y-92000000D01*
X97500000Y-92000000D02*
X96300000Y-92000000D01*
X118000000Y-94900000D02*
X116600000Y-93500000D01*
X116600000Y-93500000D02*
X114800000Y-93500000D01*
X118000000Y-99500000D02*
X118000000Y-94900000D01*
X96300000Y-92000000D02*
X95800000Y-91500000D01*
G04 #@! TD*
G04 #@! TA.AperFunction,Conductor*
G04 #@! TO.N,+3V3*
G36*
X96407433Y-57658847D02*
G01*
X96422739Y-57660862D01*
X96517489Y-57673336D01*
X96542447Y-57680023D01*
X96638960Y-57720000D01*
X96661336Y-57732918D01*
X96744216Y-57796515D01*
X96762484Y-57814783D01*
X96826079Y-57897660D01*
X96839001Y-57920042D01*
X96878975Y-58016548D01*
X96885664Y-58041512D01*
X96900153Y-58151566D01*
X96901000Y-58164488D01*
X96901000Y-64683404D01*
X96900153Y-64696326D01*
X96885664Y-64806380D01*
X96878975Y-64831344D01*
X96839000Y-64927852D01*
X96826078Y-64950233D01*
X96758507Y-65038293D01*
X96749969Y-65048030D01*
X94512030Y-67285969D01*
X94502293Y-67294507D01*
X94414233Y-67362078D01*
X94391852Y-67375000D01*
X94295344Y-67414975D01*
X94270380Y-67421664D01*
X94160327Y-67436153D01*
X94147405Y-67437000D01*
X88136488Y-67437000D01*
X88123566Y-67436153D01*
X88013512Y-67421664D01*
X87988548Y-67414975D01*
X87892042Y-67375001D01*
X87869660Y-67362079D01*
X87869659Y-67362078D01*
X87786783Y-67298484D01*
X87768515Y-67280216D01*
X87704918Y-67197336D01*
X87692000Y-67174960D01*
X87652023Y-67078447D01*
X87645336Y-67053489D01*
X87630847Y-66943432D01*
X87630000Y-66930511D01*
X87630000Y-58164488D01*
X87630847Y-58151567D01*
X87632511Y-58138923D01*
X87645336Y-58041508D01*
X87652022Y-58016554D01*
X87692001Y-57920035D01*
X87704916Y-57897666D01*
X87768518Y-57814779D01*
X87786779Y-57796518D01*
X87869666Y-57732916D01*
X87892035Y-57720001D01*
X87988554Y-57680022D01*
X88013508Y-57673336D01*
X88110923Y-57660511D01*
X88123567Y-57658847D01*
X88136488Y-57658000D01*
X96394512Y-57658000D01*
X96407433Y-57658847D01*
G37*
G04 #@! TD.AperFunction*
G04 #@! TD*
G04 #@! TA.AperFunction,Conductor*
G04 #@! TO.N,GND*
G36*
X126919520Y-74126185D02*
G01*
X126940162Y-74142819D01*
X127787181Y-74989838D01*
X127820666Y-75051161D01*
X127823500Y-75077519D01*
X127823500Y-89320480D01*
X127803815Y-89387519D01*
X127787181Y-89408161D01*
X126293631Y-90901711D01*
X126232308Y-90935196D01*
X126162616Y-90930212D01*
X126106683Y-90888340D01*
X126082266Y-90822876D01*
X126081950Y-90814030D01*
X126081950Y-90570518D01*
X126058653Y-90430909D01*
X126042617Y-90334809D01*
X125965025Y-90108790D01*
X125851289Y-89898625D01*
X125851287Y-89898623D01*
X125851287Y-89898622D01*
X125848483Y-89894330D01*
X125849912Y-89893396D01*
X125827030Y-89835428D01*
X125840585Y-89766885D01*
X125889044Y-89716552D01*
X125957023Y-89700408D01*
X125966702Y-89701298D01*
X126000000Y-89705682D01*
X126000001Y-89705682D01*
X126052254Y-89698802D01*
X126156762Y-89685044D01*
X126302841Y-89624536D01*
X126428282Y-89528282D01*
X126524536Y-89402841D01*
X126585044Y-89256762D01*
X126605682Y-89100000D01*
X126605681Y-89099997D01*
X126606144Y-89096485D01*
X126634410Y-89032589D01*
X126641389Y-89025002D01*
X127105484Y-88560909D01*
X127105484Y-88560908D01*
X127112552Y-88553841D01*
X127112557Y-88553834D01*
X127128050Y-88538342D01*
X127138109Y-88518598D01*
X127148269Y-88502018D01*
X127161296Y-88484089D01*
X127168142Y-88463017D01*
X127175588Y-88445043D01*
X127185645Y-88425305D01*
X127185646Y-88425304D01*
X127189112Y-88403416D01*
X127193651Y-88384510D01*
X127200500Y-88363433D01*
X127200500Y-88236567D01*
X127200500Y-83341275D01*
X127202027Y-83321876D01*
X127205492Y-83300000D01*
X127205492Y-83299999D01*
X127202027Y-83278123D01*
X127200500Y-83258724D01*
X127200500Y-79006580D01*
X127220185Y-78939541D01*
X127226124Y-78931093D01*
X127228279Y-78928283D01*
X127228282Y-78928282D01*
X127324536Y-78802841D01*
X127385044Y-78656762D01*
X127405682Y-78500000D01*
X127399989Y-78456760D01*
X127385044Y-78343239D01*
X127385044Y-78343238D01*
X127324536Y-78197159D01*
X127228282Y-78071718D01*
X127102841Y-77975464D01*
X127057690Y-77956762D01*
X126956762Y-77914956D01*
X126956760Y-77914955D01*
X126800001Y-77894318D01*
X126799999Y-77894318D01*
X126643239Y-77914955D01*
X126643237Y-77914956D01*
X126497160Y-77975463D01*
X126371718Y-78071718D01*
X126275463Y-78197160D01*
X126214956Y-78343237D01*
X126214955Y-78343239D01*
X126194318Y-78499998D01*
X126194318Y-78500001D01*
X126214955Y-78656760D01*
X126214956Y-78656762D01*
X126275464Y-78802841D01*
X126371718Y-78928282D01*
X126371720Y-78928283D01*
X126373876Y-78931093D01*
X126399070Y-78996263D01*
X126399500Y-79006580D01*
X126399500Y-82775500D01*
X126379815Y-82842539D01*
X126327011Y-82888294D01*
X126275500Y-82899500D01*
X114557778Y-82899500D01*
X114490739Y-82879815D01*
X114444984Y-82827011D01*
X114437512Y-82800990D01*
X114437147Y-82801088D01*
X114435044Y-82793243D01*
X114435044Y-82793238D01*
X114374536Y-82647159D01*
X114278282Y-82521718D01*
X114278280Y-82521717D01*
X114278280Y-82521716D01*
X114246184Y-82497088D01*
X114201691Y-82462948D01*
X114160490Y-82406522D01*
X114156335Y-82336776D01*
X114189496Y-82276895D01*
X115494483Y-80971909D01*
X115517050Y-80949342D01*
X115527109Y-80929597D01*
X115537271Y-80913014D01*
X115550296Y-80895090D01*
X115557141Y-80874022D01*
X115564586Y-80856045D01*
X115574646Y-80836304D01*
X115578112Y-80814415D01*
X115582652Y-80795501D01*
X115589499Y-80774433D01*
X115589499Y-80747654D01*
X115589500Y-80747629D01*
X115589500Y-78958080D01*
X115589499Y-78958065D01*
X115589499Y-78930568D01*
X115589499Y-78930567D01*
X115582653Y-78909501D01*
X115578111Y-78890580D01*
X115574646Y-78868696D01*
X115564586Y-78848952D01*
X115557140Y-78830974D01*
X115550297Y-78809913D01*
X115550296Y-78809912D01*
X115550296Y-78809910D01*
X115537269Y-78791981D01*
X115527104Y-78775392D01*
X115517050Y-78755658D01*
X115427342Y-78665950D01*
X114952813Y-78191419D01*
X114952782Y-78191390D01*
X114933342Y-78171950D01*
X114933340Y-78171949D01*
X114913600Y-78161890D01*
X114897014Y-78151726D01*
X114879092Y-78138705D01*
X114871792Y-78134986D01*
X114820995Y-78087012D01*
X114804199Y-78019192D01*
X114826735Y-77953056D01*
X114881449Y-77909604D01*
X114928085Y-77900500D01*
X115057628Y-77900500D01*
X115182745Y-77900500D01*
X115249784Y-77920185D01*
X115270426Y-77936819D01*
X117038181Y-79704573D01*
X117071666Y-79765896D01*
X117074500Y-79792254D01*
X117074500Y-81077739D01*
X117054815Y-81144778D01*
X117036357Y-81164856D01*
X117037468Y-81165967D01*
X117031724Y-81171711D01*
X117031719Y-81171716D01*
X117031718Y-81171718D01*
X116980116Y-81238967D01*
X116935463Y-81297160D01*
X116874956Y-81443237D01*
X116874955Y-81443239D01*
X116854318Y-81599998D01*
X116854318Y-81600001D01*
X116874955Y-81756760D01*
X116874956Y-81756762D01*
X116935464Y-81902841D01*
X117031718Y-82028282D01*
X117157159Y-82124536D01*
X117303238Y-82185044D01*
X117381619Y-82195363D01*
X117459999Y-82205682D01*
X117460000Y-82205682D01*
X117460001Y-82205682D01*
X117512254Y-82198802D01*
X117616762Y-82185044D01*
X117762841Y-82124536D01*
X117888282Y-82028282D01*
X117984536Y-81902841D01*
X118045044Y-81756762D01*
X118065682Y-81600000D01*
X118045044Y-81443238D01*
X117984536Y-81297159D01*
X117984535Y-81297158D01*
X117984535Y-81297157D01*
X117901124Y-81188454D01*
X117875930Y-81123285D01*
X117875500Y-81112968D01*
X117875500Y-79539080D01*
X117875499Y-79539065D01*
X117875499Y-79511568D01*
X117875499Y-79511567D01*
X117868653Y-79490501D01*
X117864111Y-79471580D01*
X117860646Y-79449696D01*
X117850586Y-79429952D01*
X117843140Y-79411974D01*
X117836297Y-79390913D01*
X117836296Y-79390912D01*
X117836296Y-79390910D01*
X117823269Y-79372981D01*
X117813104Y-79356392D01*
X117803050Y-79336658D01*
X117713342Y-79246950D01*
X116580226Y-78113833D01*
X116546741Y-78052510D01*
X116551725Y-77982818D01*
X116593597Y-77926885D01*
X116645554Y-77904184D01*
X116699392Y-77894318D01*
X116703780Y-77893514D01*
X116711185Y-77892387D01*
X116714921Y-77891933D01*
X116770872Y-77885140D01*
X116780335Y-77881550D01*
X116801961Y-77875522D01*
X116802893Y-77875351D01*
X116811932Y-77873695D01*
X116866808Y-77848996D01*
X116873678Y-77846150D01*
X116929930Y-77824818D01*
X116938266Y-77819062D01*
X116957821Y-77808034D01*
X116967057Y-77803878D01*
X117014413Y-77766775D01*
X117020404Y-77762366D01*
X117069929Y-77728183D01*
X117109822Y-77683151D01*
X117114924Y-77677731D01*
X118025290Y-76767367D01*
X118027899Y-76764035D01*
X118037826Y-76752829D01*
X120647838Y-74142819D01*
X120709161Y-74109334D01*
X120735519Y-74106500D01*
X126852481Y-74106500D01*
X126919520Y-74126185D01*
G37*
G04 #@! TD.AperFunction*
G04 #@! TA.AperFunction,Conductor*
G36*
X115921703Y-88089042D02*
G01*
X115928181Y-88095074D01*
X117242913Y-89409807D01*
X117242933Y-89409825D01*
X117261158Y-89428050D01*
X117280898Y-89438108D01*
X117297487Y-89448274D01*
X117315409Y-89461295D01*
X117315410Y-89461295D01*
X117315411Y-89461296D01*
X117336480Y-89468142D01*
X117354449Y-89475584D01*
X117374196Y-89485646D01*
X117396082Y-89489112D01*
X117414997Y-89493653D01*
X117436067Y-89500500D01*
X117467981Y-89500500D01*
X117493420Y-89500500D01*
X117560459Y-89520185D01*
X117568907Y-89526124D01*
X117571716Y-89528279D01*
X117571718Y-89528282D01*
X117697159Y-89624536D01*
X117843238Y-89685044D01*
X117921619Y-89695363D01*
X117999999Y-89705682D01*
X118000000Y-89705682D01*
X118000001Y-89705682D01*
X118052254Y-89698802D01*
X118156762Y-89685044D01*
X118251853Y-89645655D01*
X118321320Y-89638187D01*
X118383799Y-89669462D01*
X118419452Y-89729550D01*
X118416959Y-89799376D01*
X118397158Y-89836379D01*
X118348712Y-89898623D01*
X118234975Y-90108788D01*
X118234973Y-90108793D01*
X118157383Y-90334806D01*
X118134241Y-90473491D01*
X118118050Y-90570517D01*
X118118050Y-90809483D01*
X118119963Y-90820948D01*
X118157383Y-91045193D01*
X118234973Y-91271206D01*
X118234975Y-91271211D01*
X118348712Y-91481377D01*
X118348716Y-91481383D01*
X118495481Y-91669946D01*
X118495483Y-91669948D01*
X118495487Y-91669953D01*
X118671301Y-91831801D01*
X118771328Y-91897152D01*
X118818975Y-91928282D01*
X118871356Y-91962504D01*
X118979479Y-92009931D01*
X118984069Y-92011944D01*
X119037555Y-92056900D01*
X119058245Y-92123635D01*
X119039571Y-92190963D01*
X118987461Y-92237507D01*
X118934259Y-92249500D01*
X118013255Y-92249500D01*
X117946216Y-92229815D01*
X117925574Y-92213181D01*
X115752819Y-90040426D01*
X115719334Y-89979103D01*
X115716500Y-89952745D01*
X115716500Y-88182755D01*
X115736185Y-88115716D01*
X115788989Y-88069961D01*
X115858147Y-88060017D01*
X115921703Y-88089042D01*
G37*
G04 #@! TD.AperFunction*
G04 #@! TA.AperFunction,Conductor*
G36*
X133320740Y-55791069D02*
G01*
X133387738Y-55810881D01*
X133433392Y-55863772D01*
X133444500Y-55915068D01*
X133444500Y-58279937D01*
X133442398Y-58290505D01*
X133442399Y-58309673D01*
X133444498Y-58314741D01*
X133444498Y-58314744D01*
X133444500Y-58314744D01*
X133444500Y-58314745D01*
X133450483Y-58329190D01*
X133470000Y-58337274D01*
X133489177Y-58337274D01*
X133499739Y-58335173D01*
X137876000Y-58335173D01*
X137943039Y-58354858D01*
X137988794Y-58407662D01*
X138000000Y-58459173D01*
X138000000Y-106550500D01*
X137980315Y-106617539D01*
X137927511Y-106663294D01*
X137876000Y-106674500D01*
X136399738Y-106674500D01*
X136389176Y-106672399D01*
X136370001Y-106672399D01*
X136370000Y-106672399D01*
X136364928Y-106674500D01*
X136357705Y-106677491D01*
X136350482Y-106680483D01*
X136342399Y-106699999D01*
X136342399Y-106719177D01*
X136344500Y-106729738D01*
X136344500Y-108411043D01*
X136324815Y-108478082D01*
X136272011Y-108523837D01*
X136202853Y-108533781D01*
X136155222Y-108516470D01*
X136127214Y-108499128D01*
X136016959Y-108478518D01*
X134516964Y-108478518D01*
X134488806Y-108479819D01*
X134488796Y-108479821D01*
X134380927Y-108510512D01*
X134380923Y-108510514D01*
X134343115Y-108539065D01*
X134277753Y-108563755D01*
X134209419Y-108549189D01*
X134203113Y-108545536D01*
X134127397Y-108498655D01*
X134127396Y-108498654D01*
X134127395Y-108498654D01*
X134016962Y-108478010D01*
X133016962Y-108478010D01*
X133015405Y-108478082D01*
X132988758Y-108479313D01*
X132988749Y-108479315D01*
X132880701Y-108510057D01*
X132880693Y-108510061D01*
X132842660Y-108538782D01*
X132777298Y-108563473D01*
X132708964Y-108548907D01*
X132702658Y-108545254D01*
X132627397Y-108498655D01*
X132627396Y-108498654D01*
X132627395Y-108498654D01*
X132516962Y-108478010D01*
X131587744Y-108478010D01*
X131520705Y-108458325D01*
X131474950Y-108405521D01*
X131465006Y-108336363D01*
X131494031Y-108272807D01*
X131500063Y-108266329D01*
X132124246Y-107642147D01*
X133005484Y-106760909D01*
X133005484Y-106760908D01*
X133012552Y-106753841D01*
X133012557Y-106753834D01*
X133028050Y-106738342D01*
X133038114Y-106718588D01*
X133048263Y-106702026D01*
X133061296Y-106684090D01*
X133068144Y-106663011D01*
X133075586Y-106645044D01*
X133085646Y-106625304D01*
X133089112Y-106603417D01*
X133093655Y-106584498D01*
X133098599Y-106569283D01*
X133100500Y-106563433D01*
X133100500Y-106436567D01*
X133100500Y-105906580D01*
X133120185Y-105839541D01*
X133126124Y-105831093D01*
X133128279Y-105828283D01*
X133128282Y-105828282D01*
X133224536Y-105702841D01*
X133285044Y-105556762D01*
X133305682Y-105400000D01*
X133285044Y-105243238D01*
X133224536Y-105097159D01*
X133128282Y-104971718D01*
X133002841Y-104875464D01*
X132856762Y-104814956D01*
X132856760Y-104814955D01*
X132700001Y-104794318D01*
X132699999Y-104794318D01*
X132543239Y-104814955D01*
X132543237Y-104814956D01*
X132397160Y-104875463D01*
X132271718Y-104971718D01*
X132175463Y-105097160D01*
X132114956Y-105243237D01*
X132114955Y-105243239D01*
X132094318Y-105399998D01*
X132094318Y-105400001D01*
X132114955Y-105556760D01*
X132114956Y-105556762D01*
X132167735Y-105684183D01*
X132175464Y-105702841D01*
X132271718Y-105828282D01*
X132271720Y-105828283D01*
X132273876Y-105831093D01*
X132299070Y-105896263D01*
X132299500Y-105906580D01*
X132299500Y-106282745D01*
X132279815Y-106349784D01*
X132263181Y-106370426D01*
X130211474Y-108422133D01*
X130191919Y-108441689D01*
X130130597Y-108475176D01*
X130104236Y-108478010D01*
X130016962Y-108478010D01*
X130015405Y-108478082D01*
X129988758Y-108479313D01*
X129988749Y-108479315D01*
X129880701Y-108510057D01*
X129880693Y-108510061D01*
X129842660Y-108538782D01*
X129777298Y-108563473D01*
X129708964Y-108548907D01*
X129702658Y-108545254D01*
X129627397Y-108498655D01*
X129627396Y-108498654D01*
X129627395Y-108498654D01*
X129516962Y-108478010D01*
X128516962Y-108478010D01*
X128515405Y-108478082D01*
X128488758Y-108479313D01*
X128488749Y-108479315D01*
X128380701Y-108510057D01*
X128380693Y-108510061D01*
X128342660Y-108538782D01*
X128277298Y-108563473D01*
X128208964Y-108548907D01*
X128202667Y-108545260D01*
X128161890Y-108520012D01*
X128115255Y-108467984D01*
X128104151Y-108399002D01*
X128132104Y-108334968D01*
X128139460Y-108326932D01*
X128229575Y-108236816D01*
X128290897Y-108203334D01*
X128317254Y-108200500D01*
X129463431Y-108200500D01*
X129463433Y-108200500D01*
X129484501Y-108193654D01*
X129503417Y-108189112D01*
X129525304Y-108185646D01*
X129545044Y-108175586D01*
X129563011Y-108168144D01*
X129584090Y-108161296D01*
X129602026Y-108148263D01*
X129618588Y-108138114D01*
X129638342Y-108128050D01*
X129653834Y-108112557D01*
X129653841Y-108112552D01*
X131037052Y-106729341D01*
X131037057Y-106729334D01*
X131052550Y-106713842D01*
X131062609Y-106694098D01*
X131072769Y-106677518D01*
X131085796Y-106659589D01*
X131092642Y-106638517D01*
X131100088Y-106620543D01*
X131110145Y-106600805D01*
X131110146Y-106600804D01*
X131113612Y-106578916D01*
X131118151Y-106560010D01*
X131125000Y-106538933D01*
X131125000Y-106412067D01*
X131125000Y-105906580D01*
X131144685Y-105839541D01*
X131150624Y-105831093D01*
X131152779Y-105828283D01*
X131152782Y-105828282D01*
X131249036Y-105702841D01*
X131309544Y-105556762D01*
X131330182Y-105400000D01*
X131309544Y-105243238D01*
X131249036Y-105097159D01*
X131152782Y-104971718D01*
X131027341Y-104875464D01*
X130881262Y-104814956D01*
X130881260Y-104814955D01*
X130724501Y-104794318D01*
X130724499Y-104794318D01*
X130567739Y-104814955D01*
X130567737Y-104814956D01*
X130421660Y-104875463D01*
X130296218Y-104971718D01*
X130199963Y-105097160D01*
X130189061Y-105123481D01*
X130145220Y-105177884D01*
X130078925Y-105199949D01*
X130011226Y-105182670D01*
X129963616Y-105131532D01*
X129959939Y-105123481D01*
X129958699Y-105120488D01*
X129949036Y-105097159D01*
X129852782Y-104971718D01*
X129727341Y-104875464D01*
X129581262Y-104814956D01*
X129581260Y-104814955D01*
X129424501Y-104794318D01*
X129424499Y-104794318D01*
X129267739Y-104814955D01*
X129267737Y-104814956D01*
X129121660Y-104875463D01*
X128996218Y-104971718D01*
X128899963Y-105097160D01*
X128839456Y-105243237D01*
X128839456Y-105243238D01*
X128818355Y-105403513D01*
X128790088Y-105467409D01*
X128783097Y-105475008D01*
X128394926Y-105863181D01*
X128333603Y-105896666D01*
X128307245Y-105899500D01*
X125963370Y-105899500D01*
X125963346Y-105899501D01*
X125936564Y-105899501D01*
X125915499Y-105906346D01*
X125896582Y-105910887D01*
X125874700Y-105914352D01*
X125874695Y-105914354D01*
X125854950Y-105924414D01*
X125836986Y-105931855D01*
X125815907Y-105938705D01*
X125797984Y-105951727D01*
X125781399Y-105961890D01*
X125761659Y-105971948D01*
X125750864Y-105982744D01*
X125739091Y-105994517D01*
X124211478Y-107522129D01*
X124211475Y-107522131D01*
X124211475Y-107522132D01*
X124200193Y-107533414D01*
X124188910Y-107544697D01*
X124188910Y-107544698D01*
X124178853Y-107564435D01*
X124168693Y-107581015D01*
X124155668Y-107598943D01*
X124155665Y-107598948D01*
X124148816Y-107620026D01*
X124141375Y-107637990D01*
X124131316Y-107657733D01*
X124127849Y-107679620D01*
X124123309Y-107698529D01*
X124116462Y-107719605D01*
X124116462Y-108355009D01*
X124096777Y-108422048D01*
X124043973Y-108467803D01*
X123998194Y-108478876D01*
X123988768Y-108479312D01*
X123988749Y-108479315D01*
X123880701Y-108510057D01*
X123880693Y-108510061D01*
X123842660Y-108538782D01*
X123777298Y-108563473D01*
X123708964Y-108548907D01*
X123702658Y-108545254D01*
X123627397Y-108498655D01*
X123627396Y-108498654D01*
X123627395Y-108498654D01*
X123516962Y-108478010D01*
X122516962Y-108478010D01*
X122515405Y-108478082D01*
X122488758Y-108479313D01*
X122488749Y-108479315D01*
X122380701Y-108510057D01*
X122380693Y-108510061D01*
X122342660Y-108538782D01*
X122277298Y-108563473D01*
X122208964Y-108548907D01*
X122202658Y-108545254D01*
X122127397Y-108498655D01*
X122127396Y-108498654D01*
X122127395Y-108498654D01*
X122016962Y-108478010D01*
X121016962Y-108478010D01*
X121015405Y-108478082D01*
X120988758Y-108479313D01*
X120988749Y-108479315D01*
X120880701Y-108510057D01*
X120880693Y-108510061D01*
X120842660Y-108538782D01*
X120777298Y-108563473D01*
X120708964Y-108548907D01*
X120702658Y-108545254D01*
X120627397Y-108498655D01*
X120627396Y-108498654D01*
X120627395Y-108498654D01*
X120516962Y-108478010D01*
X119516962Y-108478010D01*
X119515405Y-108478082D01*
X119488758Y-108479313D01*
X119488749Y-108479315D01*
X119380701Y-108510057D01*
X119380693Y-108510061D01*
X119342660Y-108538782D01*
X119277298Y-108563473D01*
X119208964Y-108548907D01*
X119202667Y-108545260D01*
X119161890Y-108520012D01*
X119115255Y-108467984D01*
X119104151Y-108399002D01*
X119132104Y-108334968D01*
X119139460Y-108326932D01*
X119229575Y-108236816D01*
X119290897Y-108203334D01*
X119317254Y-108200500D01*
X122663431Y-108200500D01*
X122663433Y-108200500D01*
X122684501Y-108193654D01*
X122703417Y-108189112D01*
X122725304Y-108185646D01*
X122745044Y-108175586D01*
X122763011Y-108168144D01*
X122784090Y-108161296D01*
X122802026Y-108148263D01*
X122818588Y-108138114D01*
X122838342Y-108128050D01*
X122853834Y-108112557D01*
X122853841Y-108112552D01*
X124105483Y-106860909D01*
X124128050Y-106838342D01*
X124138109Y-106818597D01*
X124148271Y-106802014D01*
X124161296Y-106784090D01*
X124168141Y-106763022D01*
X124175586Y-106745045D01*
X124185646Y-106725304D01*
X124189112Y-106703415D01*
X124193652Y-106684501D01*
X124200499Y-106663433D01*
X124200499Y-106636654D01*
X124200500Y-106636629D01*
X124200500Y-105906580D01*
X124220185Y-105839541D01*
X124226124Y-105831093D01*
X124228279Y-105828283D01*
X124228282Y-105828282D01*
X124324536Y-105702841D01*
X124385044Y-105556762D01*
X124405682Y-105400000D01*
X124385044Y-105243238D01*
X124324536Y-105097159D01*
X124228282Y-104971718D01*
X124102841Y-104875464D01*
X123956762Y-104814956D01*
X123956760Y-104814955D01*
X123800001Y-104794318D01*
X123799999Y-104794318D01*
X123643239Y-104814955D01*
X123643237Y-104814956D01*
X123497160Y-104875463D01*
X123371718Y-104971718D01*
X123275463Y-105097160D01*
X123264561Y-105123481D01*
X123220720Y-105177884D01*
X123154425Y-105199949D01*
X123086726Y-105182670D01*
X123039116Y-105131532D01*
X123035439Y-105123481D01*
X123034199Y-105120488D01*
X123024536Y-105097159D01*
X122928282Y-104971718D01*
X122802841Y-104875464D01*
X122656762Y-104814956D01*
X122656760Y-104814955D01*
X122500001Y-104794318D01*
X122499999Y-104794318D01*
X122343239Y-104814955D01*
X122343237Y-104814956D01*
X122197160Y-104875463D01*
X122071718Y-104971718D01*
X121975463Y-105097160D01*
X121951811Y-105154262D01*
X121907970Y-105208665D01*
X121841675Y-105230730D01*
X121773976Y-105213451D01*
X121726366Y-105162313D01*
X121722689Y-105154262D01*
X121709939Y-105123481D01*
X121699036Y-105097159D01*
X121602782Y-104971718D01*
X121477341Y-104875464D01*
X121331262Y-104814956D01*
X121331260Y-104814955D01*
X121174501Y-104794318D01*
X121174499Y-104794318D01*
X121017739Y-104814955D01*
X121017737Y-104814956D01*
X120871660Y-104875463D01*
X120746218Y-104971718D01*
X120649962Y-105097161D01*
X120597859Y-105222952D01*
X120554018Y-105277356D01*
X120487724Y-105299421D01*
X120483298Y-105299500D01*
X115446519Y-105299500D01*
X115379480Y-105279815D01*
X115333725Y-105227011D01*
X115323781Y-105157853D01*
X115352806Y-105094297D01*
X115358838Y-105087819D01*
X117209838Y-103236819D01*
X117271161Y-103203334D01*
X117297519Y-103200500D01*
X132142374Y-103200500D01*
X132184538Y-103195380D01*
X132268872Y-103185140D01*
X132427930Y-103124818D01*
X132567929Y-103028183D01*
X132680734Y-102900852D01*
X132686656Y-102889570D01*
X132759789Y-102750226D01*
X132759790Y-102750225D01*
X132800500Y-102585056D01*
X132800500Y-102414944D01*
X132759790Y-102249775D01*
X132743971Y-102219634D01*
X132680736Y-102099150D01*
X132639433Y-102052529D01*
X132567929Y-101971817D01*
X132458267Y-101896122D01*
X132427931Y-101875182D01*
X132268874Y-101814860D01*
X132268868Y-101814859D01*
X132142374Y-101799500D01*
X132142372Y-101799500D01*
X123242372Y-101799500D01*
X116980921Y-101799500D01*
X116973433Y-101799274D01*
X116913396Y-101795642D01*
X116913388Y-101795642D01*
X116854227Y-101806483D01*
X116846827Y-101807610D01*
X116787128Y-101814860D01*
X116787121Y-101814861D01*
X116777647Y-101818454D01*
X116756049Y-101824475D01*
X116746069Y-101826304D01*
X116691227Y-101850987D01*
X116684309Y-101853852D01*
X116628072Y-101875181D01*
X116628066Y-101875184D01*
X116619722Y-101880943D01*
X116600187Y-101891961D01*
X116590947Y-101896120D01*
X116590945Y-101896121D01*
X116543609Y-101933205D01*
X116537582Y-101937639D01*
X116488070Y-101971817D01*
X116488068Y-101971819D01*
X116448183Y-102016838D01*
X116443051Y-102022290D01*
X115562400Y-102902941D01*
X115501077Y-102936426D01*
X115431385Y-102931442D01*
X115375452Y-102889570D01*
X115351035Y-102824106D01*
X115360769Y-102766359D01*
X115389205Y-102700096D01*
X115389205Y-102700095D01*
X115389211Y-102700082D01*
X115506249Y-102327055D01*
X115584948Y-101944102D01*
X115624500Y-101555151D01*
X115624500Y-101164195D01*
X115584948Y-100775244D01*
X115506249Y-100392291D01*
X115477449Y-100300500D01*
X115389216Y-100019279D01*
X115389214Y-100019274D01*
X115389211Y-100019264D01*
X115276562Y-99756762D01*
X115235037Y-99659996D01*
X115201737Y-99600001D01*
X115045303Y-99318161D01*
X114821963Y-98997278D01*
X114821961Y-98997275D01*
X114567309Y-98700642D01*
X114538234Y-98673004D01*
X114283942Y-98431281D01*
X113990970Y-98204504D01*
X113974787Y-98191977D01*
X113974786Y-98191976D01*
X113974783Y-98191974D01*
X113643001Y-97985172D01*
X113642999Y-97985171D01*
X113643000Y-97985171D01*
X113292003Y-97813000D01*
X113291989Y-97812994D01*
X112925386Y-97677218D01*
X112851597Y-97658113D01*
X112546902Y-97579222D01*
X112546899Y-97579221D01*
X112546897Y-97579221D01*
X112160453Y-97520020D01*
X111929398Y-97508302D01*
X111867683Y-97505173D01*
X111672317Y-97505173D01*
X111622944Y-97507676D01*
X111379546Y-97520020D01*
X110993102Y-97579221D01*
X110614613Y-97677218D01*
X110248010Y-97812994D01*
X110247996Y-97813000D01*
X109896999Y-97985171D01*
X109565212Y-98191977D01*
X109256063Y-98431276D01*
X108972690Y-98700642D01*
X108718038Y-98997275D01*
X108494698Y-99318159D01*
X108304962Y-99659996D01*
X108150791Y-100019258D01*
X108150783Y-100019279D01*
X108033753Y-100392280D01*
X108033752Y-100392286D01*
X107955051Y-100775248D01*
X107915500Y-101164193D01*
X107915500Y-101555152D01*
X107954394Y-101937639D01*
X107955052Y-101944102D01*
X108011675Y-102219634D01*
X108033752Y-102327059D01*
X108033753Y-102327065D01*
X108150783Y-102700066D01*
X108150791Y-102700087D01*
X108304964Y-103059353D01*
X108430949Y-103286334D01*
X108446272Y-103354502D01*
X108422308Y-103420134D01*
X108366665Y-103462391D01*
X108297010Y-103467856D01*
X108235457Y-103434796D01*
X108234849Y-103434192D01*
X107022940Y-102222283D01*
X107017805Y-102216828D01*
X106977929Y-102171816D01*
X106977924Y-102171812D01*
X106928438Y-102137655D01*
X106922403Y-102133215D01*
X106875060Y-102096124D01*
X106875055Y-102096120D01*
X106865813Y-102091961D01*
X106846266Y-102080936D01*
X106837931Y-102075183D01*
X106837932Y-102075183D01*
X106837930Y-102075182D01*
X106781694Y-102053854D01*
X106774790Y-102050994D01*
X106719932Y-102026305D01*
X106719930Y-102026304D01*
X106709946Y-102024474D01*
X106688343Y-102018451D01*
X106678874Y-102014860D01*
X106678871Y-102014859D01*
X106619171Y-102007610D01*
X106611770Y-102006483D01*
X106552609Y-101995642D01*
X106552603Y-101995642D01*
X106492567Y-101999274D01*
X106485079Y-101999500D01*
X92056921Y-101999500D01*
X92049433Y-101999274D01*
X91989396Y-101995642D01*
X91989388Y-101995642D01*
X91930227Y-102006483D01*
X91922827Y-102007610D01*
X91863128Y-102014860D01*
X91863121Y-102014861D01*
X91853647Y-102018454D01*
X91832049Y-102024475D01*
X91822069Y-102026304D01*
X91767227Y-102050987D01*
X91760309Y-102053852D01*
X91704072Y-102075181D01*
X91704063Y-102075185D01*
X91695721Y-102080943D01*
X91676189Y-102091960D01*
X91666946Y-102096120D01*
X91619609Y-102133206D01*
X91613579Y-102137643D01*
X91564072Y-102171816D01*
X91564064Y-102171823D01*
X91524176Y-102216846D01*
X91519044Y-102222298D01*
X89322162Y-104419181D01*
X89260839Y-104452666D01*
X89234481Y-104455500D01*
X88804822Y-104455500D01*
X88797335Y-104455274D01*
X88737308Y-104451643D01*
X88737301Y-104451643D01*
X88678155Y-104462481D01*
X88670755Y-104463608D01*
X88611037Y-104470860D01*
X88601554Y-104474456D01*
X88579950Y-104480478D01*
X88578447Y-104480754D01*
X88569977Y-104482306D01*
X88569975Y-104482307D01*
X88515146Y-104506983D01*
X88508231Y-104509848D01*
X88451980Y-104531182D01*
X88443636Y-104536942D01*
X88424095Y-104547964D01*
X88414856Y-104552122D01*
X88414851Y-104552125D01*
X88367506Y-104589216D01*
X88361478Y-104593652D01*
X88311984Y-104627816D01*
X88311976Y-104627823D01*
X88272095Y-104672838D01*
X88266963Y-104678290D01*
X87789252Y-105156001D01*
X87783800Y-105161133D01*
X87738780Y-105201018D01*
X87738775Y-105201024D01*
X87695684Y-105263452D01*
X87691248Y-105269481D01*
X87668650Y-105298325D01*
X87668649Y-105298328D01*
X87667718Y-105300397D01*
X87656702Y-105319926D01*
X87642144Y-105341020D01*
X87604427Y-105440471D01*
X87601562Y-105447387D01*
X87598833Y-105453449D01*
X87596848Y-105459819D01*
X87594411Y-105466878D01*
X87581822Y-105500077D01*
X87566462Y-105626575D01*
X87566462Y-108363564D01*
X87546777Y-108430603D01*
X87493973Y-108476358D01*
X87476396Y-108482830D01*
X87380698Y-108510058D01*
X87374768Y-108513011D01*
X87305982Y-108525270D01*
X87241488Y-108498395D01*
X87201762Y-108440917D01*
X87195500Y-108402009D01*
X87195500Y-106729738D01*
X87197601Y-106719177D01*
X87197601Y-106699999D01*
X87189517Y-106680483D01*
X87175072Y-106674500D01*
X87175071Y-106674499D01*
X87175071Y-106674498D01*
X87175067Y-106674498D01*
X87170000Y-106672399D01*
X87150824Y-106672399D01*
X87140262Y-106674500D01*
X85724000Y-106674500D01*
X85656961Y-106654815D01*
X85611206Y-106602011D01*
X85600000Y-106550500D01*
X85600000Y-66930498D01*
X87224500Y-66930498D01*
X87225368Y-66957039D01*
X87226214Y-66969955D01*
X87228817Y-66996371D01*
X87243305Y-67106415D01*
X87253648Y-67158420D01*
X87253650Y-67158428D01*
X87260341Y-67183403D01*
X87277385Y-67233613D01*
X87277393Y-67233633D01*
X87317368Y-67330141D01*
X87340822Y-67377704D01*
X87353736Y-67400073D01*
X87383216Y-67444194D01*
X87383217Y-67444195D01*
X87446806Y-67527064D01*
X87446811Y-67527069D01*
X87446812Y-67527071D01*
X87481783Y-67566948D01*
X87500051Y-67585216D01*
X87539928Y-67620187D01*
X87539934Y-67620192D01*
X87622799Y-67683778D01*
X87622802Y-67683779D01*
X87622804Y-67683781D01*
X87666907Y-67713250D01*
X87689290Y-67726173D01*
X87736864Y-67749634D01*
X87833370Y-67789608D01*
X87883598Y-67806658D01*
X87908562Y-67813347D01*
X87960583Y-67823695D01*
X88070637Y-67838184D01*
X88097044Y-67840785D01*
X88109966Y-67841632D01*
X88136488Y-67842500D01*
X93808481Y-67842500D01*
X93875520Y-67862185D01*
X93921275Y-67914989D01*
X93931219Y-67984147D01*
X93902194Y-68047703D01*
X93896162Y-68054181D01*
X93387162Y-68563181D01*
X93325839Y-68596666D01*
X93299481Y-68599500D01*
X90957626Y-68599500D01*
X90831131Y-68614859D01*
X90831125Y-68614860D01*
X90672068Y-68675182D01*
X90532072Y-68771816D01*
X90419263Y-68899150D01*
X90340210Y-69049773D01*
X90299500Y-69214944D01*
X90299500Y-69385055D01*
X90340210Y-69550226D01*
X90419263Y-69700849D01*
X90419266Y-69700852D01*
X90532071Y-69828183D01*
X90588000Y-69866788D01*
X90672068Y-69924817D01*
X90672069Y-69924817D01*
X90672070Y-69924818D01*
X90728290Y-69946139D01*
X90800949Y-69973695D01*
X90831128Y-69985140D01*
X90900094Y-69993514D01*
X90957626Y-70000500D01*
X90957628Y-70000500D01*
X93616079Y-70000500D01*
X93623566Y-70000725D01*
X93683606Y-70004358D01*
X93742782Y-69993513D01*
X93750185Y-69992387D01*
X93753921Y-69991933D01*
X93809872Y-69985140D01*
X93819335Y-69981550D01*
X93840961Y-69975522D01*
X93841893Y-69975351D01*
X93850932Y-69973695D01*
X93905808Y-69948996D01*
X93912678Y-69946150D01*
X93968930Y-69924818D01*
X93977266Y-69919062D01*
X93996821Y-69908034D01*
X94006057Y-69903878D01*
X94053413Y-69866775D01*
X94059404Y-69862366D01*
X94108929Y-69828183D01*
X94148822Y-69783151D01*
X94153924Y-69777731D01*
X97985962Y-65945693D01*
X98047284Y-65912210D01*
X98116976Y-65917194D01*
X98172909Y-65959066D01*
X98196581Y-66017191D01*
X98214955Y-66156760D01*
X98214956Y-66156762D01*
X98275464Y-66302841D01*
X98371718Y-66428282D01*
X98371720Y-66428283D01*
X98373876Y-66431093D01*
X98399070Y-66496263D01*
X98399500Y-66506580D01*
X98399500Y-67263429D01*
X98399501Y-67263439D01*
X98406346Y-67284507D01*
X98410887Y-67303418D01*
X98414354Y-67325304D01*
X98414355Y-67325307D01*
X98424412Y-67345045D01*
X98431857Y-67363018D01*
X98438704Y-67384090D01*
X98451726Y-67402014D01*
X98461890Y-67418600D01*
X98471949Y-67438340D01*
X98471950Y-67438342D01*
X98491390Y-67457782D01*
X98491419Y-67457813D01*
X98783240Y-67749632D01*
X98871950Y-67838342D01*
X98961658Y-67928050D01*
X98981395Y-67938106D01*
X98997981Y-67948269D01*
X99015910Y-67961296D01*
X99015912Y-67961296D01*
X99015913Y-67961297D01*
X99036974Y-67968140D01*
X99054953Y-67975586D01*
X99074696Y-67985646D01*
X99096585Y-67989112D01*
X99115501Y-67993653D01*
X99136567Y-68000499D01*
X99163346Y-68000499D01*
X99163370Y-68000500D01*
X99168481Y-68000500D01*
X121482745Y-68000500D01*
X121549784Y-68020185D01*
X121570426Y-68036819D01*
X122363181Y-68829574D01*
X122396666Y-68890897D01*
X122399500Y-68917255D01*
X122399500Y-71502419D01*
X122379815Y-71569458D01*
X122373876Y-71577905D01*
X122275464Y-71706157D01*
X122214956Y-71852237D01*
X122214955Y-71852239D01*
X122194318Y-72008998D01*
X122194318Y-72009001D01*
X122214955Y-72165760D01*
X122214956Y-72165762D01*
X122275464Y-72311841D01*
X122371718Y-72437282D01*
X122371719Y-72437283D01*
X122431461Y-72483124D01*
X122472664Y-72539552D01*
X122476819Y-72609298D01*
X122442607Y-72670218D01*
X122380890Y-72702971D01*
X122355975Y-72705500D01*
X120418921Y-72705500D01*
X120411433Y-72705274D01*
X120351396Y-72701642D01*
X120351389Y-72701642D01*
X120292227Y-72712483D01*
X120284827Y-72713610D01*
X120225128Y-72720860D01*
X120225127Y-72720860D01*
X120215653Y-72724453D01*
X120194042Y-72730477D01*
X120184068Y-72732305D01*
X120129220Y-72756989D01*
X120122305Y-72759853D01*
X120066076Y-72781179D01*
X120066061Y-72781187D01*
X120057723Y-72786942D01*
X120038188Y-72797960D01*
X120028948Y-72802119D01*
X120028938Y-72802124D01*
X119981597Y-72839213D01*
X119975569Y-72843649D01*
X119926068Y-72877819D01*
X119886183Y-72922838D01*
X119881051Y-72928290D01*
X116974707Y-75834635D01*
X116974703Y-75834639D01*
X116972091Y-75837974D01*
X116962169Y-75849172D01*
X116348162Y-76463181D01*
X116286839Y-76496666D01*
X116260481Y-76499500D01*
X114117518Y-76499500D01*
X114050479Y-76479815D01*
X114029837Y-76463181D01*
X111890253Y-74323597D01*
X109732940Y-72166283D01*
X109727805Y-72160828D01*
X109687929Y-72115816D01*
X109687924Y-72115812D01*
X109638438Y-72081655D01*
X109632403Y-72077215D01*
X109585060Y-72040124D01*
X109585055Y-72040120D01*
X109575813Y-72035961D01*
X109556266Y-72024936D01*
X109547931Y-72019183D01*
X109547932Y-72019183D01*
X109547930Y-72019182D01*
X109491694Y-71997854D01*
X109484790Y-71994994D01*
X109429932Y-71970305D01*
X109429930Y-71970304D01*
X109419946Y-71968474D01*
X109398343Y-71962451D01*
X109388874Y-71958860D01*
X109388871Y-71958859D01*
X109329171Y-71951610D01*
X109321770Y-71950483D01*
X109262609Y-71939642D01*
X109262603Y-71939642D01*
X109202567Y-71943274D01*
X109195079Y-71943500D01*
X106234500Y-71943500D01*
X106167461Y-71923815D01*
X106121706Y-71871011D01*
X106110500Y-71819500D01*
X106110500Y-70931519D01*
X106130185Y-70864480D01*
X106146819Y-70843838D01*
X106725277Y-70265380D01*
X106725290Y-70265367D01*
X106803878Y-70165056D01*
X106873695Y-70009931D01*
X106904358Y-69842606D01*
X106894086Y-69672804D01*
X106843478Y-69510394D01*
X106755472Y-69364815D01*
X106755470Y-69364813D01*
X106755469Y-69364811D01*
X106635188Y-69244530D01*
X106489606Y-69156522D01*
X106327196Y-69105914D01*
X106242295Y-69100778D01*
X106157396Y-69095642D01*
X106157392Y-69095642D01*
X105990069Y-69126304D01*
X105990065Y-69126306D01*
X105834944Y-69196121D01*
X105834941Y-69196123D01*
X105734632Y-69274711D01*
X105734619Y-69274722D01*
X104932290Y-70077051D01*
X104926838Y-70082183D01*
X104881819Y-70122068D01*
X104847649Y-70171569D01*
X104843213Y-70177597D01*
X104806124Y-70224938D01*
X104806119Y-70224948D01*
X104801960Y-70234188D01*
X104790942Y-70253723D01*
X104785187Y-70262061D01*
X104785179Y-70262076D01*
X104763853Y-70318305D01*
X104760989Y-70325220D01*
X104736305Y-70380068D01*
X104734477Y-70390042D01*
X104728453Y-70411653D01*
X104724860Y-70421127D01*
X104724860Y-70421128D01*
X104717610Y-70480827D01*
X104716483Y-70488227D01*
X104705642Y-70547389D01*
X104705642Y-70547395D01*
X104709274Y-70607432D01*
X104709500Y-70614920D01*
X104709500Y-73331073D01*
X104707469Y-73353424D01*
X104705642Y-73363392D01*
X104705642Y-73363395D01*
X104709274Y-73423432D01*
X104709500Y-73430920D01*
X104709500Y-75477481D01*
X104689815Y-75544520D01*
X104673181Y-75565162D01*
X104521162Y-75717181D01*
X104459839Y-75750666D01*
X104433481Y-75753500D01*
X95770910Y-75753500D01*
X95763423Y-75753274D01*
X95703396Y-75749643D01*
X95703389Y-75749643D01*
X95644240Y-75760482D01*
X95636839Y-75761609D01*
X95577128Y-75768859D01*
X95577127Y-75768860D01*
X95567653Y-75772453D01*
X95546042Y-75778477D01*
X95536068Y-75780305D01*
X95481220Y-75804989D01*
X95474305Y-75807853D01*
X95418076Y-75829179D01*
X95418061Y-75829187D01*
X95409723Y-75834942D01*
X95390188Y-75845960D01*
X95380948Y-75850119D01*
X95380938Y-75850124D01*
X95333597Y-75887213D01*
X95327569Y-75891649D01*
X95278068Y-75925819D01*
X95238183Y-75970838D01*
X95233051Y-75976290D01*
X94010290Y-77199051D01*
X94004838Y-77204183D01*
X93959823Y-77244064D01*
X93959813Y-77244075D01*
X93906405Y-77321449D01*
X93901974Y-77327472D01*
X93896121Y-77334943D01*
X93892242Y-77341361D01*
X93891909Y-77341159D01*
X93887905Y-77348252D01*
X93863182Y-77384069D01*
X93802860Y-77543125D01*
X93802859Y-77543131D01*
X93787500Y-77669625D01*
X93787500Y-85764480D01*
X93767815Y-85831519D01*
X93751181Y-85852161D01*
X92222290Y-87381051D01*
X92216838Y-87386183D01*
X92171819Y-87426068D01*
X92137649Y-87475569D01*
X92133213Y-87481597D01*
X92096124Y-87528938D01*
X92096119Y-87528948D01*
X92091960Y-87538188D01*
X92080942Y-87557723D01*
X92075187Y-87566061D01*
X92075179Y-87566076D01*
X92053853Y-87622305D01*
X92050989Y-87629220D01*
X92026305Y-87684068D01*
X92024477Y-87694042D01*
X92018453Y-87715653D01*
X92014860Y-87725127D01*
X92014860Y-87725128D01*
X92007610Y-87784827D01*
X92006483Y-87792227D01*
X91995642Y-87851389D01*
X91995642Y-87851395D01*
X91999274Y-87911432D01*
X91999500Y-87918920D01*
X91999500Y-88242374D01*
X92014859Y-88368868D01*
X92014860Y-88368874D01*
X92075182Y-88527931D01*
X92116687Y-88588060D01*
X92171817Y-88667929D01*
X92277505Y-88761560D01*
X92299150Y-88780736D01*
X92449773Y-88859789D01*
X92449775Y-88859790D01*
X92614944Y-88900500D01*
X92785056Y-88900500D01*
X92950225Y-88859790D01*
X93031285Y-88817246D01*
X93100849Y-88780736D01*
X93100850Y-88780734D01*
X93100852Y-88780734D01*
X93228183Y-88667929D01*
X93324818Y-88527930D01*
X93385140Y-88368872D01*
X93400500Y-88242372D01*
X93400500Y-88235519D01*
X93420185Y-88168480D01*
X93436819Y-88147838D01*
X93575819Y-88008838D01*
X93637142Y-87975353D01*
X93706834Y-87980337D01*
X93762767Y-88022209D01*
X93787184Y-88087673D01*
X93787500Y-88096519D01*
X93787500Y-90589897D01*
X93767815Y-90656936D01*
X93745729Y-90682711D01*
X93705817Y-90718070D01*
X93671649Y-90767569D01*
X93667213Y-90773597D01*
X93630124Y-90820938D01*
X93630119Y-90820948D01*
X93625960Y-90830188D01*
X93614942Y-90849723D01*
X93609187Y-90858061D01*
X93609179Y-90858076D01*
X93587853Y-90914305D01*
X93584989Y-90921220D01*
X93560305Y-90976068D01*
X93558477Y-90986042D01*
X93552453Y-91007653D01*
X93548860Y-91017127D01*
X93548860Y-91017128D01*
X93541610Y-91076827D01*
X93540483Y-91084227D01*
X93529642Y-91143389D01*
X93529642Y-91143395D01*
X93533274Y-91203432D01*
X93533500Y-91210920D01*
X93533500Y-98469739D01*
X93533274Y-98477227D01*
X93529642Y-98537264D01*
X93529642Y-98537266D01*
X93540483Y-98596431D01*
X93541610Y-98603832D01*
X93548859Y-98663532D01*
X93548860Y-98663535D01*
X93552451Y-98673004D01*
X93558474Y-98694607D01*
X93560304Y-98704591D01*
X93584991Y-98759443D01*
X93587854Y-98766355D01*
X93609182Y-98822591D01*
X93609183Y-98822592D01*
X93614936Y-98830927D01*
X93625961Y-98850474D01*
X93630120Y-98859716D01*
X93630124Y-98859721D01*
X93667215Y-98907064D01*
X93671655Y-98913099D01*
X93705812Y-98962585D01*
X93705816Y-98962590D01*
X93750828Y-99002466D01*
X93756283Y-99007601D01*
X94723958Y-99975277D01*
X94723968Y-99975286D01*
X94723972Y-99975290D01*
X94789132Y-100026338D01*
X94805469Y-100041718D01*
X94843853Y-100085044D01*
X94882071Y-100128183D01*
X94964446Y-100185043D01*
X95022068Y-100224817D01*
X95022069Y-100224817D01*
X95022070Y-100224818D01*
X95181128Y-100285140D01*
X95257028Y-100294356D01*
X95307626Y-100300500D01*
X95307628Y-100300500D01*
X102742374Y-100300500D01*
X102784538Y-100295380D01*
X102868872Y-100285140D01*
X103027930Y-100224818D01*
X103167929Y-100128183D01*
X103280734Y-100000852D01*
X103289032Y-99985043D01*
X103339190Y-99889475D01*
X103359790Y-99850225D01*
X103400500Y-99685056D01*
X103400500Y-99514944D01*
X103359790Y-99349775D01*
X103343198Y-99318161D01*
X103280736Y-99199150D01*
X103256433Y-99171718D01*
X103167929Y-99071817D01*
X103118177Y-99037475D01*
X103027931Y-98975182D01*
X102868874Y-98914860D01*
X102868868Y-98914859D01*
X102742374Y-98899500D01*
X102742372Y-98899500D01*
X95680858Y-98899500D01*
X95613819Y-98879815D01*
X95593177Y-98863181D01*
X94970819Y-98240823D01*
X94937334Y-98179500D01*
X94934500Y-98153142D01*
X94934500Y-91528100D01*
X94954185Y-91461061D01*
X94976268Y-91435289D01*
X94989214Y-91423820D01*
X95052444Y-91394101D01*
X95121708Y-91403285D01*
X95175011Y-91448457D01*
X95194377Y-91500452D01*
X95202205Y-91559907D01*
X95214956Y-91656762D01*
X95275464Y-91802841D01*
X95371718Y-91928282D01*
X95497159Y-92024536D01*
X95643238Y-92085044D01*
X95800000Y-92105682D01*
X95800001Y-92105681D01*
X95803513Y-92106144D01*
X95867410Y-92134410D01*
X95874997Y-92141390D01*
X95963422Y-92229815D01*
X96043422Y-92309815D01*
X96043433Y-92309825D01*
X96061658Y-92328050D01*
X96081398Y-92338108D01*
X96097987Y-92348274D01*
X96115909Y-92361295D01*
X96115910Y-92361295D01*
X96115911Y-92361296D01*
X96136980Y-92368142D01*
X96154949Y-92375584D01*
X96174696Y-92385646D01*
X96196582Y-92389112D01*
X96215497Y-92393653D01*
X96236567Y-92400500D01*
X96268481Y-92400500D01*
X96975500Y-92400500D01*
X97042539Y-92420185D01*
X97088294Y-92472989D01*
X97099500Y-92524500D01*
X97099500Y-93093419D01*
X97079815Y-93160458D01*
X97073876Y-93168905D01*
X96975464Y-93297157D01*
X96914956Y-93443237D01*
X96914955Y-93443239D01*
X96894318Y-93599998D01*
X96894318Y-93600001D01*
X96914955Y-93756760D01*
X96914956Y-93756762D01*
X96968341Y-93885646D01*
X96975464Y-93902841D01*
X97071718Y-94028282D01*
X97197159Y-94124536D01*
X97343238Y-94185044D01*
X97421619Y-94195363D01*
X97499999Y-94205682D01*
X97500000Y-94205682D01*
X97500001Y-94205682D01*
X97552254Y-94198802D01*
X97656762Y-94185044D01*
X97802841Y-94124536D01*
X97928282Y-94028282D01*
X98024536Y-93902841D01*
X98085044Y-93756762D01*
X98105682Y-93600000D01*
X98085044Y-93443238D01*
X98024536Y-93297159D01*
X98024535Y-93297158D01*
X98024535Y-93297157D01*
X97926124Y-93168905D01*
X97900930Y-93103736D01*
X97900500Y-93093419D01*
X97900500Y-92524500D01*
X97920185Y-92457461D01*
X97972989Y-92411706D01*
X98024500Y-92400500D01*
X113082745Y-92400500D01*
X113149784Y-92420185D01*
X113170426Y-92436819D01*
X113827027Y-93093419D01*
X114471950Y-93738342D01*
X114561658Y-93828050D01*
X114581395Y-93838106D01*
X114597981Y-93848269D01*
X114615910Y-93861296D01*
X114615912Y-93861296D01*
X114615913Y-93861297D01*
X114636974Y-93868140D01*
X114654953Y-93875586D01*
X114674696Y-93885646D01*
X114696585Y-93889112D01*
X114715501Y-93893653D01*
X114736567Y-93900499D01*
X114763346Y-93900499D01*
X114763370Y-93900500D01*
X114768481Y-93900500D01*
X116382745Y-93900500D01*
X116449784Y-93920185D01*
X116470426Y-93936819D01*
X117563181Y-95029574D01*
X117596666Y-95090897D01*
X117599500Y-95117255D01*
X117599500Y-98993419D01*
X117579815Y-99060458D01*
X117573876Y-99068905D01*
X117475464Y-99197157D01*
X117414956Y-99343237D01*
X117414955Y-99343239D01*
X117394318Y-99499998D01*
X117394318Y-99500001D01*
X117414955Y-99656760D01*
X117414956Y-99656762D01*
X117456376Y-99756760D01*
X117475464Y-99802841D01*
X117571718Y-99928282D01*
X117697159Y-100024536D01*
X117843238Y-100085044D01*
X117921619Y-100095363D01*
X117999999Y-100105682D01*
X118000000Y-100105682D01*
X118000001Y-100105682D01*
X118052254Y-100098802D01*
X118156762Y-100085044D01*
X118302841Y-100024536D01*
X118428282Y-99928282D01*
X118524536Y-99802841D01*
X118585044Y-99656762D01*
X118605682Y-99500000D01*
X118585044Y-99343238D01*
X118524536Y-99197159D01*
X118524535Y-99197158D01*
X118524535Y-99197157D01*
X118426124Y-99068905D01*
X118400930Y-99003736D01*
X118400500Y-98993419D01*
X118400500Y-94836568D01*
X118400500Y-94836567D01*
X118393652Y-94815491D01*
X118389111Y-94796578D01*
X118385646Y-94774696D01*
X118375588Y-94754958D01*
X118368140Y-94736976D01*
X118361296Y-94715910D01*
X118348271Y-94697982D01*
X118338106Y-94681394D01*
X118328049Y-94661656D01*
X118309825Y-94643433D01*
X118309807Y-94643413D01*
X116857813Y-93191419D01*
X116857782Y-93191390D01*
X116838342Y-93171950D01*
X116838340Y-93171949D01*
X116818600Y-93161890D01*
X116802014Y-93151726D01*
X116784090Y-93138704D01*
X116784091Y-93138704D01*
X116763018Y-93131857D01*
X116745045Y-93124412D01*
X116725307Y-93114355D01*
X116725304Y-93114354D01*
X116703418Y-93110887D01*
X116684507Y-93106346D01*
X116663439Y-93099501D01*
X116663434Y-93099500D01*
X116663433Y-93099500D01*
X116663429Y-93099500D01*
X115017254Y-93099500D01*
X114950215Y-93079815D01*
X114929573Y-93063181D01*
X113557813Y-91691419D01*
X113557782Y-91691390D01*
X113538342Y-91671950D01*
X113538340Y-91671949D01*
X113518600Y-91661890D01*
X113502014Y-91651726D01*
X113484090Y-91638704D01*
X113484091Y-91638704D01*
X113463018Y-91631857D01*
X113445045Y-91624412D01*
X113425307Y-91614355D01*
X113425304Y-91614354D01*
X113403418Y-91610887D01*
X113384507Y-91606346D01*
X113363439Y-91599501D01*
X113363434Y-91599500D01*
X113363433Y-91599500D01*
X113363429Y-91599500D01*
X97541275Y-91599500D01*
X97521879Y-91597973D01*
X97500000Y-91594508D01*
X97478120Y-91597973D01*
X97458725Y-91599500D01*
X96527526Y-91599500D01*
X96460487Y-91579815D01*
X96414732Y-91527011D01*
X96404587Y-91491685D01*
X96400555Y-91461061D01*
X96385044Y-91343238D01*
X96324536Y-91197159D01*
X96228282Y-91071718D01*
X96102841Y-90975464D01*
X95956762Y-90914956D01*
X95956760Y-90914955D01*
X95800001Y-90894318D01*
X95799999Y-90894318D01*
X95643239Y-90914955D01*
X95643237Y-90914956D01*
X95497157Y-90975464D01*
X95391094Y-91056850D01*
X95325925Y-91082044D01*
X95257480Y-91068006D01*
X95207491Y-91019192D01*
X95191834Y-90965961D01*
X95188726Y-90914577D01*
X95188500Y-90907090D01*
X95188500Y-86180927D01*
X95190531Y-86158575D01*
X95190919Y-86156458D01*
X95192358Y-86148606D01*
X95188726Y-86088565D01*
X95188500Y-86081078D01*
X95188500Y-78053519D01*
X95208185Y-77986480D01*
X95224819Y-77965838D01*
X95999838Y-77190819D01*
X96061161Y-77157334D01*
X96087519Y-77154500D01*
X104433481Y-77154500D01*
X104500520Y-77174185D01*
X104521162Y-77190819D01*
X104617181Y-77286838D01*
X104650666Y-77348161D01*
X104653500Y-77374519D01*
X104653500Y-85263078D01*
X104653274Y-85270566D01*
X104650663Y-85313736D01*
X104649642Y-85330606D01*
X104652719Y-85347400D01*
X104660483Y-85389770D01*
X104661610Y-85397171D01*
X104668859Y-85456871D01*
X104668860Y-85456874D01*
X104672451Y-85466343D01*
X104678474Y-85487946D01*
X104680304Y-85497930D01*
X104704991Y-85552782D01*
X104707854Y-85559694D01*
X104729182Y-85615930D01*
X104729183Y-85615931D01*
X104734936Y-85624266D01*
X104745961Y-85643813D01*
X104750120Y-85653055D01*
X104750124Y-85653060D01*
X104787215Y-85700403D01*
X104791655Y-85706438D01*
X104825812Y-85755924D01*
X104825816Y-85755929D01*
X104870828Y-85795805D01*
X104876283Y-85800940D01*
X105532051Y-86456707D01*
X105537171Y-86462145D01*
X105577071Y-86507183D01*
X105617439Y-86535047D01*
X105626574Y-86541352D01*
X105632603Y-86545788D01*
X105679944Y-86582878D01*
X105679946Y-86582879D01*
X105679949Y-86582881D01*
X105689177Y-86587034D01*
X105708731Y-86598062D01*
X105717070Y-86603818D01*
X105773331Y-86625154D01*
X105780208Y-86628003D01*
X105801563Y-86637615D01*
X105835063Y-86652693D01*
X105835066Y-86652693D01*
X105835069Y-86652695D01*
X105845034Y-86654521D01*
X105866656Y-86660548D01*
X105869777Y-86661731D01*
X105876128Y-86664140D01*
X105933689Y-86671128D01*
X105935815Y-86671387D01*
X105943222Y-86672514D01*
X106002394Y-86683358D01*
X106062433Y-86679725D01*
X106069921Y-86679500D01*
X111291481Y-86679500D01*
X111358520Y-86699185D01*
X111379162Y-86715819D01*
X111675629Y-87012286D01*
X111675633Y-87012289D01*
X111775943Y-87090877D01*
X111931068Y-87160694D01*
X112098394Y-87191357D01*
X112268195Y-87181086D01*
X112430606Y-87130477D01*
X112576184Y-87042472D01*
X112696472Y-86922184D01*
X112784477Y-86776606D01*
X112835086Y-86614195D01*
X112845357Y-86444394D01*
X112814694Y-86277068D01*
X112744877Y-86121943D01*
X112666289Y-86021633D01*
X112666286Y-86021629D01*
X112145940Y-85501283D01*
X112140805Y-85495828D01*
X112100929Y-85450816D01*
X112100924Y-85450812D01*
X112051438Y-85416655D01*
X112045403Y-85412215D01*
X111998060Y-85375124D01*
X111998055Y-85375120D01*
X111988813Y-85370961D01*
X111969266Y-85359936D01*
X111960931Y-85354183D01*
X111960932Y-85354183D01*
X111960930Y-85354182D01*
X111904694Y-85332854D01*
X111897790Y-85329994D01*
X111842932Y-85305305D01*
X111842930Y-85305304D01*
X111832946Y-85303474D01*
X111811343Y-85297451D01*
X111801874Y-85293860D01*
X111801871Y-85293859D01*
X111742171Y-85286610D01*
X111734770Y-85285483D01*
X111675609Y-85274642D01*
X111675603Y-85274642D01*
X111615567Y-85278274D01*
X111608079Y-85278500D01*
X111484636Y-85278500D01*
X111446318Y-85272431D01*
X111404412Y-85258815D01*
X111363434Y-85245500D01*
X111363433Y-85245500D01*
X111236567Y-85245500D01*
X111236565Y-85245500D01*
X111173799Y-85265894D01*
X111153681Y-85272431D01*
X111115364Y-85278500D01*
X106386518Y-85278500D01*
X106319479Y-85258815D01*
X106298837Y-85242181D01*
X106213631Y-85156975D01*
X112937784Y-85156975D01*
X112958421Y-85313734D01*
X112958422Y-85313736D01*
X113017710Y-85456871D01*
X113018930Y-85459815D01*
X113115184Y-85585256D01*
X113115186Y-85585257D01*
X113117342Y-85588067D01*
X113142536Y-85653237D01*
X113142966Y-85663554D01*
X113142966Y-86136895D01*
X113142967Y-86136905D01*
X113149812Y-86157973D01*
X113154353Y-86176884D01*
X113157820Y-86198770D01*
X113157821Y-86198773D01*
X113167878Y-86218511D01*
X113175323Y-86236484D01*
X113182170Y-86257556D01*
X113195192Y-86275480D01*
X113205356Y-86292066D01*
X113215415Y-86311806D01*
X113215416Y-86311808D01*
X113234856Y-86331248D01*
X113234885Y-86331279D01*
X114879181Y-87975574D01*
X114912666Y-88036897D01*
X114915500Y-88063255D01*
X114915500Y-90233429D01*
X114915501Y-90233439D01*
X114922346Y-90254507D01*
X114926887Y-90273418D01*
X114930354Y-90295304D01*
X114930355Y-90295307D01*
X114940412Y-90315045D01*
X114947857Y-90333018D01*
X114954704Y-90354090D01*
X114967726Y-90372014D01*
X114977890Y-90388600D01*
X114987949Y-90408340D01*
X114987950Y-90408342D01*
X115007390Y-90427782D01*
X115007419Y-90427813D01*
X117539413Y-92959807D01*
X117539433Y-92959825D01*
X117557658Y-92978050D01*
X117577398Y-92988108D01*
X117593987Y-92998274D01*
X117611909Y-93011295D01*
X117611910Y-93011295D01*
X117611911Y-93011296D01*
X117632980Y-93018142D01*
X117650949Y-93025584D01*
X117670696Y-93035646D01*
X117692582Y-93039112D01*
X117711497Y-93043653D01*
X117732567Y-93050500D01*
X117764481Y-93050500D01*
X120293420Y-93050500D01*
X120360459Y-93070185D01*
X120368907Y-93076124D01*
X120371716Y-93078279D01*
X120371718Y-93078282D01*
X120497159Y-93174536D01*
X120643238Y-93235044D01*
X120721619Y-93245363D01*
X120799999Y-93255682D01*
X120800000Y-93255682D01*
X120800001Y-93255682D01*
X120852254Y-93248802D01*
X120956762Y-93235044D01*
X121102841Y-93174536D01*
X121228282Y-93078282D01*
X121324536Y-92952841D01*
X121385044Y-92806762D01*
X121405682Y-92650000D01*
X121385044Y-92493238D01*
X121324536Y-92347159D01*
X121228282Y-92221718D01*
X121102841Y-92125464D01*
X121098425Y-92123635D01*
X120956762Y-92064956D01*
X120956760Y-92064955D01*
X120800001Y-92044318D01*
X120799999Y-92044318D01*
X120643239Y-92064955D01*
X120643237Y-92064956D01*
X120497160Y-92125463D01*
X120497159Y-92125464D01*
X120371718Y-92221718D01*
X120371716Y-92221720D01*
X120368907Y-92223876D01*
X120303737Y-92249070D01*
X120293420Y-92249500D01*
X120185741Y-92249500D01*
X120118702Y-92229815D01*
X120072947Y-92177011D01*
X120063003Y-92107853D01*
X120092028Y-92044297D01*
X120135931Y-92011944D01*
X120140518Y-92009932D01*
X120248644Y-91962504D01*
X120448699Y-91831801D01*
X120624513Y-91669953D01*
X120762731Y-91492370D01*
X120771283Y-91481383D01*
X120771287Y-91481377D01*
X120771289Y-91481375D01*
X120885025Y-91271210D01*
X120962617Y-91045191D01*
X121001950Y-90809483D01*
X121001950Y-90570517D01*
X120962617Y-90334809D01*
X120885025Y-90108790D01*
X120771289Y-89898625D01*
X120771287Y-89898623D01*
X120771287Y-89898622D01*
X120771283Y-89898616D01*
X120624518Y-89710053D01*
X120624515Y-89710050D01*
X120624513Y-89710047D01*
X120448699Y-89548199D01*
X120418214Y-89528282D01*
X120248645Y-89417496D01*
X120121426Y-89361693D01*
X120029805Y-89321505D01*
X120029803Y-89321504D01*
X119798154Y-89262842D01*
X119798142Y-89262840D01*
X119619650Y-89248050D01*
X119619640Y-89248050D01*
X119500360Y-89248050D01*
X119500349Y-89248050D01*
X119321857Y-89262840D01*
X119321845Y-89262842D01*
X119090196Y-89321504D01*
X118871359Y-89417494D01*
X118871356Y-89417496D01*
X118744310Y-89500500D01*
X118723486Y-89514105D01*
X118656596Y-89534292D01*
X118589411Y-89515112D01*
X118543260Y-89462654D01*
X118532797Y-89393572D01*
X118541101Y-89362848D01*
X118585044Y-89256762D01*
X118605682Y-89100000D01*
X118585044Y-88943238D01*
X118543941Y-88844008D01*
X118536473Y-88774542D01*
X118567748Y-88712063D01*
X118627837Y-88676410D01*
X118697662Y-88678903D01*
X118726325Y-88692750D01*
X118860996Y-88780736D01*
X118871356Y-88787504D01*
X119090195Y-88883495D01*
X119321849Y-88942158D01*
X119321852Y-88942158D01*
X119321857Y-88942159D01*
X119463231Y-88953873D01*
X119500360Y-88956950D01*
X119500364Y-88956950D01*
X119619636Y-88956950D01*
X119619640Y-88956950D01*
X119691519Y-88950993D01*
X119798142Y-88942159D01*
X119798145Y-88942158D01*
X119798151Y-88942158D01*
X120029805Y-88883495D01*
X120248644Y-88787504D01*
X120448699Y-88656801D01*
X120624513Y-88494953D01*
X120771289Y-88306375D01*
X120885025Y-88096210D01*
X120962617Y-87870191D01*
X121001950Y-87634483D01*
X121001950Y-87395517D01*
X120962617Y-87159809D01*
X120885025Y-86933790D01*
X120771289Y-86723625D01*
X120771287Y-86723622D01*
X120771283Y-86723616D01*
X120624518Y-86535053D01*
X120624515Y-86535050D01*
X120624513Y-86535047D01*
X120514848Y-86434094D01*
X120478860Y-86374209D01*
X120478983Y-86370103D01*
X120439341Y-86365044D01*
X120421234Y-86355255D01*
X120248645Y-86242496D01*
X120108280Y-86180927D01*
X120029805Y-86146505D01*
X120029803Y-86146504D01*
X119798154Y-86087842D01*
X119798142Y-86087840D01*
X119619650Y-86073050D01*
X119619640Y-86073050D01*
X119500360Y-86073050D01*
X119500349Y-86073050D01*
X119321857Y-86087840D01*
X119321845Y-86087842D01*
X119090196Y-86146504D01*
X118871354Y-86242496D01*
X118671303Y-86373197D01*
X118671299Y-86373200D01*
X118580587Y-86456707D01*
X118495492Y-86535043D01*
X118495484Y-86535050D01*
X118495481Y-86535053D01*
X118348716Y-86723616D01*
X118348712Y-86723622D01*
X118234975Y-86933788D01*
X118234973Y-86933793D01*
X118157383Y-87159806D01*
X118127883Y-87336590D01*
X118118050Y-87395517D01*
X118118050Y-87634483D01*
X118127989Y-87694042D01*
X118157383Y-87870193D01*
X118234973Y-88096206D01*
X118234975Y-88096211D01*
X118348712Y-88306377D01*
X118391414Y-88361240D01*
X118417057Y-88426234D01*
X118403491Y-88494774D01*
X118355022Y-88545099D01*
X118287041Y-88561231D01*
X118246109Y-88551964D01*
X118156765Y-88514957D01*
X118156760Y-88514955D01*
X118000001Y-88494318D01*
X117999999Y-88494318D01*
X117843239Y-88514955D01*
X117843237Y-88514956D01*
X117697156Y-88575465D01*
X117697154Y-88575466D01*
X117695266Y-88576915D01*
X117693387Y-88577641D01*
X117690119Y-88579528D01*
X117689824Y-88579018D01*
X117630095Y-88602104D01*
X117561651Y-88588060D01*
X117532107Y-88566214D01*
X114841402Y-85875509D01*
X114807917Y-85814186D01*
X114806144Y-85804013D01*
X114805063Y-85795805D01*
X114786381Y-85653894D01*
X120330373Y-85653894D01*
X120360808Y-85826502D01*
X120360809Y-85826505D01*
X120360810Y-85826509D01*
X120430234Y-85987452D01*
X120430236Y-85987454D01*
X120430240Y-85987462D01*
X120534895Y-86128038D01*
X120534903Y-86128047D01*
X120568762Y-86156458D01*
X120607464Y-86214629D01*
X120607606Y-86223620D01*
X120653712Y-86231671D01*
X120666970Y-86239264D01*
X120669171Y-86240711D01*
X120669173Y-86240713D01*
X120825808Y-86319378D01*
X120996361Y-86359800D01*
X120996363Y-86359800D01*
X121127659Y-86359800D01*
X121127667Y-86359800D01*
X121258093Y-86344555D01*
X121422800Y-86284607D01*
X121569243Y-86188290D01*
X121689526Y-86060797D01*
X121777165Y-85909002D01*
X121827435Y-85741088D01*
X121832514Y-85653894D01*
X122362373Y-85653894D01*
X122392808Y-85826502D01*
X122392809Y-85826505D01*
X122392810Y-85826509D01*
X122462234Y-85987452D01*
X122462236Y-85987454D01*
X122462240Y-85987462D01*
X122566895Y-86128038D01*
X122566903Y-86128047D01*
X122701173Y-86240713D01*
X122857808Y-86319378D01*
X123028361Y-86359800D01*
X123028363Y-86359800D01*
X123159659Y-86359800D01*
X123159667Y-86359800D01*
X123290093Y-86344555D01*
X123454800Y-86284607D01*
X123556270Y-86217868D01*
X123604387Y-86203185D01*
X123619723Y-86168925D01*
X123623815Y-86164364D01*
X123721526Y-86060797D01*
X123809165Y-85909002D01*
X123859435Y-85741088D01*
X123869627Y-85566106D01*
X123839190Y-85393491D01*
X123769766Y-85232548D01*
X123769762Y-85232542D01*
X123769759Y-85232537D01*
X123665104Y-85091961D01*
X123665096Y-85091952D01*
X123530827Y-84979287D01*
X123530825Y-84979286D01*
X123374195Y-84900623D01*
X123374193Y-84900622D01*
X123374192Y-84900622D01*
X123203639Y-84860200D01*
X123072333Y-84860200D01*
X122967992Y-84872396D01*
X122941905Y-84875445D01*
X122941903Y-84875446D01*
X122777202Y-84935391D01*
X122630756Y-85031710D01*
X122510474Y-85159201D01*
X122422836Y-85310995D01*
X122372565Y-85478910D01*
X122372564Y-85478916D01*
X122362373Y-85653893D01*
X122362373Y-85653894D01*
X121832514Y-85653894D01*
X121837627Y-85566106D01*
X121807190Y-85393491D01*
X121737766Y-85232548D01*
X121737762Y-85232542D01*
X121737759Y-85232537D01*
X121633104Y-85091961D01*
X121633096Y-85091952D01*
X121498827Y-84979287D01*
X121498825Y-84979286D01*
X121342195Y-84900623D01*
X121342193Y-84900622D01*
X121342192Y-84900622D01*
X121171639Y-84860200D01*
X121040333Y-84860200D01*
X120935992Y-84872396D01*
X120909905Y-84875445D01*
X120909903Y-84875446D01*
X120745202Y-84935391D01*
X120598756Y-85031710D01*
X120478474Y-85159201D01*
X120390836Y-85310995D01*
X120340565Y-85478910D01*
X120340564Y-85478916D01*
X120330373Y-85653893D01*
X120330373Y-85653894D01*
X114786381Y-85653894D01*
X114785044Y-85643738D01*
X114724536Y-85497659D01*
X114628282Y-85372218D01*
X114502841Y-85275964D01*
X114499649Y-85274642D01*
X114460054Y-85258241D01*
X114356762Y-85215456D01*
X114340187Y-85213273D01*
X114247654Y-85201091D01*
X114183757Y-85172824D01*
X114145287Y-85114499D01*
X114140902Y-85094342D01*
X114128510Y-85000212D01*
X114068002Y-84854133D01*
X113971748Y-84728692D01*
X113846307Y-84632438D01*
X113700228Y-84571930D01*
X113700226Y-84571929D01*
X113543467Y-84551292D01*
X113543465Y-84551292D01*
X113386705Y-84571929D01*
X113386703Y-84571930D01*
X113240626Y-84632437D01*
X113115184Y-84728692D01*
X113018929Y-84854134D01*
X112958422Y-85000211D01*
X112958421Y-85000213D01*
X112937784Y-85156972D01*
X112937784Y-85156975D01*
X106213631Y-85156975D01*
X106090819Y-85034162D01*
X106057334Y-84972839D01*
X106054500Y-84946481D01*
X106054500Y-82369149D01*
X106074185Y-82302110D01*
X106126989Y-82256355D01*
X106178500Y-82245149D01*
X106194269Y-82245149D01*
X106261308Y-82264834D01*
X106269756Y-82270773D01*
X106272565Y-82272928D01*
X106272567Y-82272931D01*
X106398008Y-82369185D01*
X106544087Y-82429693D01*
X106622468Y-82440012D01*
X106700848Y-82450331D01*
X106700849Y-82450331D01*
X106700850Y-82450331D01*
X106753103Y-82443451D01*
X106857611Y-82429693D01*
X107003690Y-82369185D01*
X107129131Y-82272931D01*
X107225385Y-82147490D01*
X107285893Y-82001411D01*
X107306531Y-81844649D01*
X107285893Y-81687887D01*
X107225385Y-81541808D01*
X107129131Y-81416367D01*
X107003690Y-81320113D01*
X106971414Y-81306744D01*
X106857611Y-81259605D01*
X106857609Y-81259604D01*
X106700850Y-81238967D01*
X106700848Y-81238967D01*
X106544088Y-81259604D01*
X106544086Y-81259605D01*
X106398009Y-81320112D01*
X106374739Y-81337967D01*
X106272567Y-81416367D01*
X106272565Y-81416369D01*
X106269756Y-81418525D01*
X106204586Y-81443719D01*
X106194269Y-81444149D01*
X106191904Y-81444149D01*
X106124865Y-81424464D01*
X106104219Y-81407827D01*
X106090815Y-81394422D01*
X106057333Y-81333098D01*
X106054500Y-81306744D01*
X106054500Y-78310426D01*
X106074185Y-78243387D01*
X106126989Y-78197632D01*
X106196147Y-78187688D01*
X106259703Y-78216713D01*
X106266181Y-78222745D01*
X106271713Y-78228277D01*
X106271715Y-78228279D01*
X106271718Y-78228282D01*
X106397159Y-78324536D01*
X106543238Y-78385044D01*
X106621619Y-78395363D01*
X106699999Y-78405682D01*
X106700000Y-78405682D01*
X106700001Y-78405682D01*
X106752254Y-78398802D01*
X106856762Y-78385044D01*
X107002841Y-78324536D01*
X107128282Y-78228282D01*
X107224536Y-78102841D01*
X107285044Y-77956762D01*
X107305682Y-77800000D01*
X107285044Y-77643238D01*
X107224536Y-77497159D01*
X107224535Y-77497158D01*
X107224535Y-77497157D01*
X107126124Y-77368905D01*
X107100930Y-77303736D01*
X107100500Y-77293419D01*
X107100500Y-77279569D01*
X107100500Y-77279567D01*
X107093653Y-77258497D01*
X107089111Y-77239577D01*
X107085646Y-77217696D01*
X107075584Y-77197949D01*
X107068140Y-77179976D01*
X107066258Y-77174185D01*
X107061296Y-77158911D01*
X107060150Y-77157334D01*
X107048274Y-77140987D01*
X107038108Y-77124398D01*
X107028050Y-77104658D01*
X107009825Y-77086433D01*
X107009807Y-77086413D01*
X106103442Y-76180049D01*
X106069957Y-76118726D01*
X106074941Y-76049035D01*
X106078041Y-76041492D01*
X106083695Y-76028931D01*
X106085522Y-76018959D01*
X106091546Y-75997347D01*
X106095140Y-75987872D01*
X106102387Y-75928184D01*
X106103514Y-75920777D01*
X106108852Y-75891649D01*
X106114358Y-75861606D01*
X106110726Y-75801565D01*
X106110500Y-75794078D01*
X106110500Y-73747519D01*
X106130185Y-73680480D01*
X106146819Y-73659838D01*
X106425838Y-73380819D01*
X106487161Y-73347334D01*
X106513519Y-73344500D01*
X108878481Y-73344500D01*
X108945520Y-73364185D01*
X108966162Y-73380819D01*
X112921793Y-77336450D01*
X112955278Y-77397773D01*
X112950294Y-77467465D01*
X112921793Y-77511812D01*
X112875008Y-77558597D01*
X112813685Y-77592082D01*
X112803513Y-77593855D01*
X112643238Y-77614956D01*
X112643237Y-77614956D01*
X112497160Y-77675463D01*
X112371718Y-77771718D01*
X112275464Y-77897159D01*
X112242748Y-77976142D01*
X112198906Y-78030545D01*
X112132612Y-78052609D01*
X112064913Y-78035329D01*
X112031815Y-78001819D01*
X112029484Y-78003608D01*
X112024536Y-77997160D01*
X112024536Y-77997159D01*
X111928282Y-77871718D01*
X111802841Y-77775464D01*
X111793797Y-77771718D01*
X111656762Y-77714956D01*
X111656760Y-77714955D01*
X111500001Y-77694318D01*
X111499999Y-77694318D01*
X111343239Y-77714955D01*
X111343237Y-77714956D01*
X111197160Y-77775463D01*
X111071718Y-77871718D01*
X110975463Y-77997160D01*
X110914956Y-78143237D01*
X110914955Y-78143239D01*
X110894318Y-78299998D01*
X110894318Y-78300001D01*
X110914955Y-78456760D01*
X110914956Y-78456762D01*
X110975464Y-78602841D01*
X111071718Y-78728282D01*
X111197159Y-78824536D01*
X111343238Y-78885044D01*
X111500000Y-78905682D01*
X111500001Y-78905681D01*
X111503513Y-78906144D01*
X111567410Y-78934410D01*
X111574997Y-78941390D01*
X111718650Y-79085043D01*
X111743422Y-79109815D01*
X111743433Y-79109825D01*
X111761658Y-79128050D01*
X111781390Y-79138104D01*
X111781398Y-79138108D01*
X111797987Y-79148274D01*
X111815909Y-79161295D01*
X111815910Y-79161295D01*
X111815911Y-79161296D01*
X111836980Y-79168142D01*
X111854949Y-79175584D01*
X111874696Y-79185646D01*
X111896582Y-79189112D01*
X111915497Y-79193653D01*
X111936567Y-79200500D01*
X111936569Y-79200500D01*
X113463431Y-79200500D01*
X113463433Y-79200500D01*
X113484501Y-79193654D01*
X113503417Y-79189112D01*
X113525304Y-79185646D01*
X113545044Y-79175586D01*
X113563011Y-79168144D01*
X113584090Y-79161296D01*
X113602026Y-79148263D01*
X113618588Y-79138114D01*
X113638342Y-79128050D01*
X113638344Y-79128047D01*
X113647041Y-79123617D01*
X113647659Y-79124831D01*
X113693519Y-79106535D01*
X113699999Y-79105681D01*
X113700000Y-79105682D01*
X113856762Y-79085044D01*
X114002841Y-79024536D01*
X114128282Y-78928282D01*
X114128283Y-78928279D01*
X114131093Y-78926124D01*
X114196263Y-78900930D01*
X114206580Y-78900500D01*
X114477745Y-78900500D01*
X114544784Y-78920185D01*
X114565426Y-78936819D01*
X114752181Y-79123573D01*
X114785666Y-79184896D01*
X114788500Y-79211254D01*
X114788500Y-80493744D01*
X114768815Y-80560783D01*
X114752181Y-80581425D01*
X113075008Y-82258597D01*
X113013685Y-82292082D01*
X113003513Y-82293855D01*
X112843238Y-82314956D01*
X112843237Y-82314956D01*
X112697160Y-82375463D01*
X112571718Y-82471718D01*
X112475463Y-82597160D01*
X112414956Y-82743237D01*
X112414955Y-82743239D01*
X112394318Y-82899998D01*
X112394318Y-82900001D01*
X112414955Y-83056760D01*
X112414956Y-83056762D01*
X112475464Y-83202841D01*
X112571718Y-83328282D01*
X112697159Y-83424536D01*
X112843238Y-83485044D01*
X112921619Y-83495363D01*
X112999999Y-83505682D01*
X113000000Y-83505682D01*
X113000001Y-83505682D01*
X113052254Y-83498802D01*
X113156762Y-83485044D01*
X113302841Y-83424536D01*
X113316932Y-83413722D01*
X113382098Y-83388528D01*
X113450544Y-83402565D01*
X113467896Y-83413715D01*
X113547159Y-83474536D01*
X113693238Y-83535044D01*
X113850000Y-83555682D01*
X113850001Y-83555681D01*
X113853512Y-83556144D01*
X113917409Y-83584410D01*
X113925008Y-83591402D01*
X113943413Y-83609807D01*
X113943433Y-83609825D01*
X113961658Y-83628050D01*
X113981398Y-83638108D01*
X113997987Y-83648274D01*
X114015909Y-83661295D01*
X114015910Y-83661295D01*
X114015911Y-83661296D01*
X114036980Y-83668142D01*
X114054949Y-83675584D01*
X114074696Y-83685646D01*
X114096582Y-83689112D01*
X114115497Y-83693653D01*
X114136567Y-83700500D01*
X114168481Y-83700500D01*
X126275500Y-83700500D01*
X126342539Y-83720185D01*
X126388294Y-83772989D01*
X126399500Y-83824500D01*
X126399500Y-88082744D01*
X126379815Y-88149783D01*
X126363181Y-88170425D01*
X126075008Y-88458597D01*
X126013685Y-88492082D01*
X126003513Y-88493855D01*
X125970595Y-88498189D01*
X125901560Y-88487424D01*
X125849304Y-88441044D01*
X125830418Y-88373775D01*
X125849452Y-88311212D01*
X125848848Y-88310885D01*
X125850455Y-88307914D01*
X125850606Y-88307420D01*
X125851280Y-88306385D01*
X125851289Y-88306375D01*
X125965025Y-88096210D01*
X126042617Y-87870191D01*
X126081950Y-87634483D01*
X126081950Y-87395517D01*
X126042617Y-87159809D01*
X125965025Y-86933790D01*
X125851289Y-86723625D01*
X125851287Y-86723622D01*
X125851283Y-86723616D01*
X125704518Y-86535053D01*
X125704515Y-86535050D01*
X125704513Y-86535047D01*
X125528699Y-86373199D01*
X125516217Y-86365044D01*
X125328645Y-86242496D01*
X125188280Y-86180927D01*
X125109805Y-86146505D01*
X125109803Y-86146504D01*
X124878154Y-86087842D01*
X124878142Y-86087840D01*
X124699650Y-86073050D01*
X124699640Y-86073050D01*
X124580360Y-86073050D01*
X124580349Y-86073050D01*
X124401857Y-86087840D01*
X124401845Y-86087842D01*
X124170196Y-86146504D01*
X123951359Y-86242494D01*
X123951356Y-86242496D01*
X123795146Y-86344554D01*
X123781866Y-86353230D01*
X123734081Y-86367651D01*
X123718976Y-86401676D01*
X123708392Y-86412698D01*
X123575490Y-86535043D01*
X123575481Y-86535053D01*
X123428716Y-86723616D01*
X123428712Y-86723622D01*
X123314975Y-86933788D01*
X123314973Y-86933793D01*
X123237383Y-87159806D01*
X123207883Y-87336590D01*
X123198050Y-87395517D01*
X123198050Y-87634483D01*
X123207989Y-87694042D01*
X123237383Y-87870193D01*
X123314973Y-88096206D01*
X123314975Y-88096211D01*
X123428712Y-88306377D01*
X123428716Y-88306383D01*
X123575481Y-88494946D01*
X123575483Y-88494948D01*
X123575487Y-88494953D01*
X123751301Y-88656801D01*
X123851328Y-88722152D01*
X123940996Y-88780736D01*
X123951356Y-88787504D01*
X124170195Y-88883495D01*
X124401849Y-88942158D01*
X124401852Y-88942158D01*
X124401857Y-88942159D01*
X124543231Y-88953873D01*
X124580360Y-88956950D01*
X124580364Y-88956950D01*
X124699636Y-88956950D01*
X124699640Y-88956950D01*
X124771519Y-88950993D01*
X124878142Y-88942159D01*
X124878145Y-88942158D01*
X124878151Y-88942158D01*
X125109805Y-88883495D01*
X125240541Y-88826148D01*
X125309841Y-88817246D01*
X125372953Y-88847223D01*
X125409840Y-88906563D01*
X125413290Y-88955890D01*
X125394318Y-89099998D01*
X125394318Y-89100001D01*
X125413989Y-89249416D01*
X125403223Y-89318451D01*
X125356843Y-89370707D01*
X125289575Y-89389592D01*
X125241240Y-89379157D01*
X125109803Y-89321504D01*
X124878154Y-89262842D01*
X124878142Y-89262840D01*
X124699650Y-89248050D01*
X124699640Y-89248050D01*
X124580360Y-89248050D01*
X124580349Y-89248050D01*
X124401857Y-89262840D01*
X124401845Y-89262842D01*
X124170196Y-89321504D01*
X123951354Y-89417496D01*
X123751303Y-89548197D01*
X123751299Y-89548200D01*
X123575484Y-89710050D01*
X123575481Y-89710053D01*
X123428716Y-89898616D01*
X123428712Y-89898622D01*
X123314975Y-90108788D01*
X123314973Y-90108793D01*
X123237383Y-90334806D01*
X123198050Y-90570518D01*
X123198050Y-90809482D01*
X123223139Y-90959838D01*
X123214757Y-91029203D01*
X123170204Y-91083025D01*
X123103625Y-91104215D01*
X123078481Y-91102216D01*
X123042606Y-91095642D01*
X123042604Y-91095642D01*
X122933239Y-91102258D01*
X122865133Y-91086657D01*
X122816273Y-91036712D01*
X122802172Y-90968281D01*
X122806958Y-90942929D01*
X122843435Y-90821088D01*
X122853627Y-90646106D01*
X122823190Y-90473491D01*
X122753766Y-90312548D01*
X122753762Y-90312542D01*
X122753759Y-90312537D01*
X122649104Y-90171961D01*
X122649096Y-90171952D01*
X122514827Y-90059287D01*
X122514825Y-90059286D01*
X122358195Y-89980623D01*
X122358193Y-89980622D01*
X122358192Y-89980622D01*
X122187639Y-89940200D01*
X122056333Y-89940200D01*
X121951992Y-89952396D01*
X121925905Y-89955445D01*
X121925903Y-89955446D01*
X121761202Y-90015391D01*
X121614756Y-90111710D01*
X121494474Y-90239201D01*
X121406836Y-90390995D01*
X121356565Y-90558910D01*
X121356564Y-90558916D01*
X121346373Y-90733893D01*
X121346373Y-90733894D01*
X121376808Y-90906502D01*
X121376809Y-90906505D01*
X121376810Y-90906509D01*
X121446234Y-91067452D01*
X121446236Y-91067454D01*
X121446240Y-91067462D01*
X121550895Y-91208038D01*
X121550903Y-91208047D01*
X121685173Y-91320713D01*
X121841808Y-91399378D01*
X122012361Y-91439800D01*
X122012363Y-91439800D01*
X122143660Y-91439800D01*
X122143667Y-91439800D01*
X122197838Y-91433468D01*
X122266709Y-91445236D01*
X122318285Y-91492370D01*
X122336191Y-91559907D01*
X122330620Y-91593517D01*
X122306181Y-91671949D01*
X122305914Y-91672805D01*
X122295642Y-91842603D01*
X122295642Y-91842605D01*
X122326304Y-92009931D01*
X122326306Y-92009935D01*
X122396121Y-92165055D01*
X122396122Y-92165057D01*
X122416418Y-92190963D01*
X122474712Y-92265370D01*
X123173181Y-92963838D01*
X123206666Y-93025161D01*
X123209500Y-93051519D01*
X123209500Y-98884322D01*
X123189815Y-98951361D01*
X123137011Y-98997116D01*
X123101686Y-99007261D01*
X123065410Y-99012036D01*
X123043238Y-99014956D01*
X123043237Y-99014956D01*
X122897160Y-99075463D01*
X122771718Y-99171718D01*
X122675463Y-99297160D01*
X122614956Y-99443237D01*
X122614955Y-99443239D01*
X122594318Y-99599998D01*
X122594318Y-99600001D01*
X122614955Y-99756760D01*
X122614956Y-99756762D01*
X122669927Y-99889475D01*
X122675464Y-99902841D01*
X122771718Y-100028282D01*
X122897159Y-100124536D01*
X123043238Y-100185044D01*
X123121619Y-100195363D01*
X123199999Y-100205682D01*
X123200000Y-100205682D01*
X123200001Y-100205682D01*
X123252254Y-100198802D01*
X123356762Y-100185044D01*
X123502841Y-100124536D01*
X123628282Y-100028282D01*
X123700414Y-99934276D01*
X123756841Y-99893075D01*
X123817269Y-99889475D01*
X123817498Y-99887596D01*
X123824943Y-99888500D01*
X123824944Y-99888500D01*
X123995056Y-99888500D01*
X124160221Y-99847791D01*
X124160221Y-99847790D01*
X124160225Y-99847790D01*
X124223268Y-99814702D01*
X124280891Y-99800500D01*
X131593420Y-99800500D01*
X131660459Y-99820185D01*
X131668907Y-99826124D01*
X131671716Y-99828279D01*
X131671718Y-99828282D01*
X131797159Y-99924536D01*
X131943238Y-99985044D01*
X132021619Y-99995363D01*
X132099999Y-100005682D01*
X132100000Y-100005682D01*
X132100001Y-100005682D01*
X132152254Y-99998802D01*
X132256762Y-99985044D01*
X132402841Y-99924536D01*
X132528282Y-99828282D01*
X132624536Y-99702841D01*
X132685044Y-99556762D01*
X132705682Y-99400000D01*
X132694907Y-99318159D01*
X132685044Y-99243239D01*
X132685044Y-99243238D01*
X132624536Y-99097159D01*
X132528282Y-98971718D01*
X132402841Y-98875464D01*
X132373187Y-98863181D01*
X132256762Y-98814956D01*
X132256760Y-98814955D01*
X132100001Y-98794318D01*
X132099999Y-98794318D01*
X131943239Y-98814955D01*
X131943237Y-98814956D01*
X131797160Y-98875463D01*
X131785615Y-98884322D01*
X131671718Y-98971718D01*
X131671716Y-98971720D01*
X131668907Y-98973876D01*
X131603737Y-98999070D01*
X131593420Y-98999500D01*
X124734500Y-98999500D01*
X124667461Y-98979815D01*
X124621706Y-98927011D01*
X124610500Y-98875500D01*
X124610500Y-93534500D01*
X124630185Y-93467461D01*
X124682989Y-93421706D01*
X124734500Y-93410500D01*
X125451079Y-93410500D01*
X125458566Y-93410725D01*
X125518606Y-93414358D01*
X125577782Y-93403513D01*
X125585185Y-93402387D01*
X125588921Y-93401933D01*
X125644872Y-93395140D01*
X125654335Y-93391550D01*
X125675961Y-93385522D01*
X125676893Y-93385351D01*
X125685932Y-93383695D01*
X125740808Y-93358996D01*
X125747678Y-93356150D01*
X125803930Y-93334818D01*
X125812266Y-93329062D01*
X125831821Y-93318034D01*
X125841057Y-93313878D01*
X125888413Y-93276775D01*
X125894404Y-93272366D01*
X125943929Y-93238183D01*
X125983822Y-93193151D01*
X125988924Y-93187731D01*
X129001731Y-90174924D01*
X129007151Y-90169822D01*
X129052183Y-90129929D01*
X129086366Y-90080404D01*
X129090775Y-90074413D01*
X129127878Y-90027057D01*
X129132034Y-90017821D01*
X129143062Y-89998266D01*
X129148818Y-89989930D01*
X129170150Y-89933678D01*
X129173010Y-89926776D01*
X129197693Y-89871936D01*
X129197693Y-89871934D01*
X129197695Y-89871931D01*
X129199522Y-89861959D01*
X129205546Y-89840347D01*
X129209140Y-89830872D01*
X129216387Y-89771184D01*
X129217514Y-89763777D01*
X129228358Y-89704606D01*
X129224726Y-89644565D01*
X129224500Y-89637078D01*
X129224500Y-74760920D01*
X129224726Y-74753432D01*
X129228358Y-74693394D01*
X129217514Y-74634219D01*
X129216387Y-74626814D01*
X129216074Y-74624241D01*
X129209140Y-74567128D01*
X129205548Y-74557656D01*
X129199522Y-74536042D01*
X129197695Y-74526068D01*
X129173006Y-74471212D01*
X129170142Y-74464297D01*
X129148819Y-74408071D01*
X129146723Y-74405035D01*
X129143063Y-74399733D01*
X129132036Y-74380182D01*
X129127879Y-74370946D01*
X129127878Y-74370943D01*
X129090785Y-74323597D01*
X129086355Y-74317577D01*
X129052183Y-74268071D01*
X129007153Y-74228178D01*
X129001715Y-74223058D01*
X128060205Y-73281548D01*
X128026720Y-73220225D01*
X128031704Y-73150533D01*
X128060205Y-73106186D01*
X130234872Y-70931519D01*
X132424989Y-68741401D01*
X132486310Y-68707918D01*
X132496483Y-68706145D01*
X132500000Y-68705682D01*
X132656762Y-68685044D01*
X132802841Y-68624536D01*
X132928282Y-68528282D01*
X133024536Y-68402841D01*
X133085044Y-68256762D01*
X133105682Y-68100000D01*
X133085044Y-67943238D01*
X133024536Y-67797159D01*
X132928282Y-67671718D01*
X132802841Y-67575464D01*
X132782291Y-67566952D01*
X132656762Y-67514956D01*
X132656760Y-67514955D01*
X132500001Y-67494318D01*
X132499999Y-67494318D01*
X132343239Y-67514955D01*
X132343237Y-67514956D01*
X132197160Y-67575463D01*
X132071718Y-67671718D01*
X131975463Y-67797160D01*
X131914956Y-67943237D01*
X131914956Y-67943238D01*
X131893855Y-68103514D01*
X131865588Y-68167410D01*
X131858597Y-68175009D01*
X127363214Y-72670391D01*
X127301891Y-72703876D01*
X127253185Y-72704680D01*
X127236606Y-72701642D01*
X127236604Y-72701642D01*
X127176567Y-72705274D01*
X127169079Y-72705500D01*
X123244025Y-72705500D01*
X123176986Y-72685815D01*
X123131231Y-72633011D01*
X123121287Y-72563853D01*
X123150312Y-72500297D01*
X123168539Y-72483124D01*
X123228282Y-72437282D01*
X123324536Y-72311841D01*
X123385044Y-72165762D01*
X123398802Y-72061254D01*
X123405682Y-72009001D01*
X123405682Y-72008998D01*
X123385044Y-71852239D01*
X123385044Y-71852238D01*
X123324536Y-71706159D01*
X123324535Y-71706158D01*
X123324535Y-71706157D01*
X123226124Y-71577905D01*
X123200930Y-71512736D01*
X123200500Y-71502419D01*
X123200500Y-68636568D01*
X123200500Y-68636567D01*
X123193652Y-68615491D01*
X123189111Y-68596578D01*
X123185646Y-68574696D01*
X123175588Y-68554958D01*
X123168140Y-68536976D01*
X123161296Y-68515910D01*
X123148271Y-68497982D01*
X123138106Y-68481394D01*
X123128049Y-68461656D01*
X123109825Y-68443433D01*
X123109807Y-68443413D01*
X121957813Y-67291419D01*
X121957782Y-67291390D01*
X121938342Y-67271950D01*
X121938340Y-67271949D01*
X121918600Y-67261890D01*
X121902014Y-67251726D01*
X121884090Y-67238704D01*
X121884091Y-67238704D01*
X121863018Y-67231857D01*
X121845045Y-67224412D01*
X121825307Y-67214355D01*
X121825304Y-67214354D01*
X121803418Y-67210887D01*
X121784507Y-67206346D01*
X121763439Y-67199501D01*
X121763434Y-67199500D01*
X121763433Y-67199500D01*
X121763429Y-67199500D01*
X99417255Y-67199500D01*
X99350216Y-67179815D01*
X99329573Y-67163181D01*
X99236818Y-67070425D01*
X99203334Y-67009101D01*
X99200500Y-66982744D01*
X99200500Y-66506580D01*
X99220185Y-66439541D01*
X99226124Y-66431093D01*
X99228279Y-66428283D01*
X99228282Y-66428282D01*
X99324536Y-66302841D01*
X99385044Y-66156762D01*
X99405682Y-66000000D01*
X99385044Y-65843238D01*
X99324536Y-65697159D01*
X99324535Y-65697158D01*
X99324535Y-65697157D01*
X99303686Y-65669986D01*
X99278492Y-65604817D01*
X99292531Y-65536372D01*
X99341345Y-65486382D01*
X99402062Y-65470500D01*
X110775029Y-65470500D01*
X110782516Y-65470725D01*
X110842556Y-65474358D01*
X110901732Y-65463513D01*
X110909135Y-65462387D01*
X110912871Y-65461933D01*
X110968822Y-65455140D01*
X110978285Y-65451550D01*
X110999911Y-65445522D01*
X111000843Y-65445351D01*
X111009882Y-65443695D01*
X111064758Y-65418996D01*
X111071628Y-65416150D01*
X111127880Y-65394818D01*
X111136216Y-65389062D01*
X111155771Y-65378034D01*
X111165007Y-65373878D01*
X111212363Y-65336775D01*
X111218354Y-65332366D01*
X111267879Y-65298183D01*
X111307772Y-65253151D01*
X111312874Y-65247731D01*
X111959312Y-64601295D01*
X112020635Y-64567810D01*
X112046993Y-64564976D01*
X116647848Y-64564976D01*
X116690012Y-64559856D01*
X116774346Y-64549616D01*
X116933404Y-64489294D01*
X117073403Y-64392659D01*
X117186208Y-64265328D01*
X117265264Y-64114701D01*
X117305974Y-63949532D01*
X117305974Y-63779420D01*
X117265264Y-63614251D01*
X117265263Y-63614249D01*
X117186210Y-63463626D01*
X117137238Y-63408348D01*
X117073403Y-63336293D01*
X117017480Y-63297692D01*
X116933405Y-63239658D01*
X116774348Y-63179336D01*
X116774342Y-63179335D01*
X116647848Y-63163976D01*
X116647846Y-63163976D01*
X111730384Y-63163976D01*
X111722897Y-63163750D01*
X111662870Y-63160119D01*
X111662863Y-63160119D01*
X111603717Y-63170957D01*
X111596317Y-63172084D01*
X111536599Y-63179336D01*
X111527116Y-63182932D01*
X111505512Y-63188954D01*
X111504009Y-63189230D01*
X111495539Y-63190782D01*
X111495537Y-63190783D01*
X111440708Y-63215459D01*
X111433793Y-63218324D01*
X111377542Y-63239658D01*
X111369198Y-63245418D01*
X111349657Y-63256440D01*
X111340418Y-63260598D01*
X111340413Y-63260601D01*
X111293068Y-63297692D01*
X111287040Y-63302128D01*
X111237546Y-63336292D01*
X111237538Y-63336299D01*
X111197657Y-63381314D01*
X111192525Y-63386766D01*
X110546112Y-64033181D01*
X110484789Y-64066666D01*
X110458431Y-64069500D01*
X98195909Y-64069500D01*
X98188422Y-64069274D01*
X98128396Y-64065643D01*
X98128389Y-64065643D01*
X98069243Y-64076481D01*
X98061843Y-64077608D01*
X98002125Y-64084860D01*
X97992642Y-64088456D01*
X97971038Y-64094478D01*
X97969535Y-64094754D01*
X97961065Y-64096306D01*
X97961063Y-64096307D01*
X97906234Y-64120983D01*
X97899319Y-64123848D01*
X97843068Y-64145182D01*
X97834724Y-64150942D01*
X97815183Y-64161964D01*
X97805944Y-64166122D01*
X97805939Y-64166125D01*
X97758594Y-64203216D01*
X97752566Y-64207652D01*
X97703072Y-64241816D01*
X97703064Y-64241823D01*
X97663183Y-64286838D01*
X97658051Y-64292290D01*
X97518180Y-64432161D01*
X97456859Y-64465646D01*
X97387167Y-64460662D01*
X97331233Y-64418791D01*
X97306816Y-64353327D01*
X97306500Y-64344480D01*
X97306500Y-62758677D01*
X109090000Y-62758677D01*
X109105248Y-62889139D01*
X109165212Y-63053889D01*
X109261556Y-63200373D01*
X109389078Y-63320685D01*
X109540916Y-63408348D01*
X109708880Y-63458634D01*
X109715000Y-63458990D01*
X109715000Y-62991341D01*
X109811840Y-63018895D01*
X109923521Y-63008546D01*
X109965000Y-62987891D01*
X109965000Y-63454528D01*
X110056563Y-63438384D01*
X110217554Y-63368940D01*
X110358185Y-63264243D01*
X110470881Y-63129938D01*
X110470882Y-63129936D01*
X110549566Y-62973264D01*
X110590000Y-62802660D01*
X110590000Y-62290000D01*
X110140000Y-62290000D01*
X110140000Y-62040000D01*
X110589998Y-62040000D01*
X110624290Y-62005708D01*
X110685613Y-61972223D01*
X110755305Y-61977207D01*
X110810347Y-62017902D01*
X110856693Y-62078301D01*
X110856694Y-62078302D01*
X110856696Y-62078304D01*
X110977750Y-62171192D01*
X111118720Y-62229584D01*
X111175370Y-62237042D01*
X111232019Y-62244500D01*
X111232020Y-62244500D01*
X111307981Y-62244500D01*
X111345746Y-62239528D01*
X111421280Y-62229584D01*
X111562250Y-62171192D01*
X111683304Y-62078304D01*
X111776192Y-61957250D01*
X111834584Y-61816280D01*
X111854500Y-61665001D01*
X116465500Y-61665001D01*
X116485415Y-61816278D01*
X116485416Y-61816280D01*
X116543806Y-61957247D01*
X116543807Y-61957249D01*
X116543808Y-61957250D01*
X116636696Y-62078304D01*
X116757750Y-62171192D01*
X116898720Y-62229584D01*
X116955370Y-62237042D01*
X117012019Y-62244500D01*
X117012020Y-62244500D01*
X117087981Y-62244500D01*
X117125746Y-62239528D01*
X117201280Y-62229584D01*
X117342250Y-62171192D01*
X117463304Y-62078304D01*
X117509651Y-62017902D01*
X117566079Y-61976700D01*
X117635825Y-61972545D01*
X117695708Y-62005708D01*
X117730000Y-62040000D01*
X118180000Y-62040000D01*
X118180000Y-62290000D01*
X117730000Y-62290000D01*
X117730000Y-62758677D01*
X117745248Y-62889139D01*
X117805212Y-63053889D01*
X117901556Y-63200373D01*
X118029078Y-63320685D01*
X118180916Y-63408348D01*
X118348880Y-63458634D01*
X118355000Y-63458990D01*
X118355000Y-62991341D01*
X118451840Y-63018895D01*
X118563521Y-63008546D01*
X118605000Y-62987891D01*
X118605000Y-63454528D01*
X118696563Y-63438384D01*
X118857554Y-63368940D01*
X118998185Y-63264243D01*
X119110881Y-63129938D01*
X119110882Y-63129936D01*
X119189566Y-62973264D01*
X119230000Y-62802660D01*
X119230000Y-62290000D01*
X118780000Y-62290000D01*
X118780000Y-62269856D01*
X124194500Y-62269856D01*
X124194502Y-62269882D01*
X124197413Y-62294987D01*
X124197415Y-62294991D01*
X124242793Y-62397764D01*
X124242794Y-62397765D01*
X124322235Y-62477206D01*
X124425009Y-62522585D01*
X124450135Y-62525500D01*
X126239864Y-62525499D01*
X126239879Y-62525497D01*
X126239882Y-62525497D01*
X126264987Y-62522586D01*
X126264988Y-62522585D01*
X126264991Y-62522585D01*
X126367765Y-62477206D01*
X126447206Y-62397765D01*
X126492585Y-62294991D01*
X126495500Y-62269865D01*
X126495499Y-61249999D01*
X126791869Y-61249999D01*
X126791870Y-61250000D01*
X127400595Y-61250000D01*
X127385000Y-61303111D01*
X127385000Y-61446889D01*
X127400595Y-61500000D01*
X126791870Y-61500000D01*
X126799097Y-61577989D01*
X126799097Y-61577992D01*
X126854883Y-61774063D01*
X126854886Y-61774069D01*
X126945754Y-61956556D01*
X127068608Y-62119242D01*
X127219260Y-62256578D01*
X127392584Y-62363897D01*
X127582678Y-62437539D01*
X127760000Y-62470686D01*
X127760000Y-61862169D01*
X127849237Y-61875000D01*
X127920763Y-61875000D01*
X128010000Y-61862169D01*
X128010000Y-62470686D01*
X128187321Y-62437539D01*
X128377415Y-62363897D01*
X128550739Y-62256578D01*
X128701391Y-62119242D01*
X128824245Y-61956556D01*
X128915113Y-61774069D01*
X128915116Y-61774063D01*
X128970902Y-61577992D01*
X128970902Y-61577989D01*
X128978130Y-61500000D01*
X128369405Y-61500000D01*
X128385000Y-61446889D01*
X128385000Y-61303111D01*
X128369405Y-61250000D01*
X128978130Y-61250000D01*
X128978130Y-61249999D01*
X128970902Y-61172010D01*
X128970902Y-61172007D01*
X128915116Y-60975936D01*
X128915113Y-60975930D01*
X128824245Y-60793443D01*
X128701391Y-60630757D01*
X128550739Y-60493421D01*
X128377415Y-60386102D01*
X128187321Y-60312460D01*
X128010000Y-60279312D01*
X128010000Y-60887830D01*
X127920763Y-60875000D01*
X127849237Y-60875000D01*
X127760000Y-60887830D01*
X127760000Y-60279312D01*
X127582678Y-60312460D01*
X127392584Y-60386102D01*
X127219260Y-60493421D01*
X127068608Y-60630757D01*
X126945754Y-60793443D01*
X126854886Y-60975930D01*
X126854883Y-60975936D01*
X126799097Y-61172007D01*
X126799097Y-61172010D01*
X126791869Y-61249999D01*
X126495499Y-61249999D01*
X126495499Y-60480136D01*
X126495497Y-60480117D01*
X126492586Y-60455012D01*
X126492585Y-60455010D01*
X126492585Y-60455009D01*
X126447206Y-60352235D01*
X126367765Y-60272794D01*
X126367763Y-60272793D01*
X126264992Y-60227415D01*
X126239865Y-60224500D01*
X124450143Y-60224500D01*
X124450117Y-60224502D01*
X124425012Y-60227413D01*
X124425008Y-60227415D01*
X124322235Y-60272793D01*
X124242794Y-60352234D01*
X124197415Y-60455006D01*
X124197415Y-60455008D01*
X124194500Y-60480131D01*
X124194500Y-62269856D01*
X118780000Y-62269856D01*
X118780000Y-62040000D01*
X119230000Y-62040000D01*
X119230000Y-61571323D01*
X119229999Y-61571322D01*
X119214751Y-61440860D01*
X119154787Y-61276110D01*
X119058443Y-61129626D01*
X118930921Y-61009314D01*
X118779084Y-60921651D01*
X118611118Y-60871365D01*
X118605001Y-60871008D01*
X118605000Y-60871010D01*
X118605000Y-61338658D01*
X118508160Y-61311105D01*
X118396479Y-61321454D01*
X118355000Y-61342108D01*
X118355000Y-60875470D01*
X118354999Y-60875470D01*
X118263434Y-60891615D01*
X118102445Y-60961059D01*
X117961814Y-61065756D01*
X117849118Y-61200061D01*
X117849117Y-61200063D01*
X117769593Y-61358408D01*
X117721915Y-61409482D01*
X117654193Y-61426672D01*
X117587928Y-61404519D01*
X117560407Y-61378244D01*
X117556192Y-61372752D01*
X117556192Y-61372750D01*
X117463304Y-61251696D01*
X117342250Y-61158808D01*
X117342249Y-61158807D01*
X117342247Y-61158806D01*
X117201280Y-61100416D01*
X117201278Y-61100415D01*
X117087981Y-61085500D01*
X117087980Y-61085500D01*
X117012020Y-61085500D01*
X117012019Y-61085500D01*
X116898721Y-61100415D01*
X116898719Y-61100416D01*
X116757752Y-61158806D01*
X116636696Y-61251696D01*
X116543806Y-61372752D01*
X116485416Y-61513719D01*
X116485415Y-61513721D01*
X116465500Y-61664998D01*
X116465500Y-61665001D01*
X111854500Y-61665001D01*
X111854500Y-61665000D01*
X111843947Y-61584844D01*
X111834584Y-61513721D01*
X111834584Y-61513720D01*
X111778468Y-61378244D01*
X111776193Y-61372752D01*
X111776192Y-61372751D01*
X111776192Y-61372750D01*
X111683304Y-61251696D01*
X111562250Y-61158808D01*
X111562249Y-61158807D01*
X111562247Y-61158806D01*
X111421280Y-61100416D01*
X111421278Y-61100415D01*
X111307981Y-61085500D01*
X111307980Y-61085500D01*
X111232020Y-61085500D01*
X111232019Y-61085500D01*
X111118721Y-61100415D01*
X111118719Y-61100416D01*
X110977752Y-61158806D01*
X110923988Y-61200061D01*
X110856696Y-61251696D01*
X110763808Y-61372750D01*
X110763807Y-61372751D01*
X110758861Y-61379198D01*
X110757044Y-61377804D01*
X110715017Y-61417861D01*
X110646407Y-61431070D01*
X110581548Y-61405089D01*
X110541697Y-61350044D01*
X110514788Y-61276111D01*
X110418443Y-61129626D01*
X110290921Y-61009314D01*
X110139084Y-60921651D01*
X109971118Y-60871365D01*
X109965001Y-60871008D01*
X109965000Y-60871010D01*
X109965000Y-61338658D01*
X109868160Y-61311105D01*
X109756479Y-61321454D01*
X109715000Y-61342108D01*
X109715000Y-60875470D01*
X109714999Y-60875470D01*
X109623434Y-60891615D01*
X109462445Y-60961059D01*
X109321814Y-61065756D01*
X109209118Y-61200061D01*
X109209117Y-61200063D01*
X109130433Y-61356735D01*
X109090000Y-61527339D01*
X109090000Y-62040000D01*
X109540000Y-62040000D01*
X109540000Y-62290000D01*
X109090000Y-62290000D01*
X109090000Y-62758677D01*
X97306500Y-62758677D01*
X97306500Y-58428677D01*
X109090000Y-58428677D01*
X109105248Y-58559139D01*
X109165212Y-58723889D01*
X109261556Y-58870373D01*
X109389078Y-58990685D01*
X109540916Y-59078348D01*
X109708880Y-59128634D01*
X109715000Y-59128990D01*
X109715000Y-58661341D01*
X109811840Y-58688895D01*
X109923521Y-58678546D01*
X109965000Y-58657891D01*
X109965000Y-59124528D01*
X110056563Y-59108384D01*
X110217554Y-59038940D01*
X110358185Y-58934243D01*
X110470881Y-58799938D01*
X110470882Y-58799936D01*
X110549566Y-58643264D01*
X110590000Y-58472660D01*
X110590000Y-58428677D01*
X117730000Y-58428677D01*
X117745248Y-58559139D01*
X117805212Y-58723889D01*
X117901556Y-58870373D01*
X118029078Y-58990685D01*
X118180916Y-59078348D01*
X118348880Y-59128634D01*
X118355000Y-59128990D01*
X118355000Y-58661341D01*
X118451840Y-58688895D01*
X118563521Y-58678546D01*
X118605000Y-58657891D01*
X118605000Y-59124528D01*
X118696563Y-59108384D01*
X118857554Y-59038940D01*
X118998185Y-58934243D01*
X119110881Y-58799938D01*
X119110882Y-58799936D01*
X119189566Y-58643264D01*
X119230000Y-58472660D01*
X119230000Y-58110000D01*
X118780000Y-58110000D01*
X118780000Y-57860000D01*
X119230000Y-57860000D01*
X119230000Y-57541323D01*
X119229999Y-57541322D01*
X119214751Y-57410860D01*
X119154787Y-57246110D01*
X119058443Y-57099626D01*
X118930921Y-56979314D01*
X118779084Y-56891651D01*
X118611118Y-56841365D01*
X118605001Y-56841008D01*
X118605000Y-56841010D01*
X118605000Y-57308658D01*
X118508160Y-57281105D01*
X118396479Y-57291454D01*
X118355000Y-57312108D01*
X118355000Y-56845470D01*
X118354999Y-56845470D01*
X118263434Y-56861615D01*
X118102445Y-56931059D01*
X117961814Y-57035756D01*
X117849118Y-57170061D01*
X117849117Y-57170063D01*
X117770433Y-57326735D01*
X117730000Y-57497339D01*
X117730000Y-57860000D01*
X118180000Y-57860000D01*
X118180000Y-58110000D01*
X117730000Y-58110000D01*
X117730000Y-58428677D01*
X110590000Y-58428677D01*
X110590000Y-58110000D01*
X110140000Y-58110000D01*
X110140000Y-57860000D01*
X110590000Y-57860000D01*
X110590000Y-57541323D01*
X110589999Y-57541322D01*
X110574751Y-57410860D01*
X110514787Y-57246110D01*
X110418443Y-57099626D01*
X110290921Y-56979314D01*
X110139084Y-56891651D01*
X109971118Y-56841365D01*
X109965001Y-56841008D01*
X109965000Y-56841010D01*
X109965000Y-57308658D01*
X109868160Y-57281105D01*
X109756479Y-57291454D01*
X109715000Y-57312108D01*
X109715000Y-56845470D01*
X109714999Y-56845470D01*
X109623434Y-56861615D01*
X109462445Y-56931059D01*
X109321814Y-57035756D01*
X109209118Y-57170061D01*
X109209117Y-57170063D01*
X109130433Y-57326735D01*
X109090000Y-57497339D01*
X109090000Y-57860000D01*
X109540000Y-57860000D01*
X109540000Y-58110000D01*
X109090000Y-58110000D01*
X109090000Y-58428677D01*
X97306500Y-58428677D01*
X97306500Y-58164499D01*
X97306500Y-58164488D01*
X97305632Y-58137966D01*
X97304785Y-58125044D01*
X97302184Y-58098637D01*
X97287695Y-57988583D01*
X97277347Y-57936562D01*
X97270658Y-57911598D01*
X97253608Y-57861370D01*
X97213634Y-57764864D01*
X97190176Y-57717295D01*
X97190171Y-57717286D01*
X97177263Y-57694927D01*
X97177250Y-57694907D01*
X97147787Y-57650813D01*
X97147786Y-57650812D01*
X97147781Y-57650804D01*
X97084186Y-57567927D01*
X97049216Y-57528051D01*
X97030948Y-57509783D01*
X96991071Y-57474812D01*
X96991066Y-57474808D01*
X96991064Y-57474806D01*
X96908195Y-57411217D01*
X96908194Y-57411216D01*
X96864073Y-57381736D01*
X96841704Y-57368822D01*
X96794141Y-57345368D01*
X96697633Y-57305393D01*
X96697613Y-57305385D01*
X96647403Y-57288341D01*
X96634912Y-57284994D01*
X96622433Y-57281651D01*
X96622429Y-57281650D01*
X96622421Y-57281648D01*
X96570412Y-57271304D01*
X96460377Y-57256817D01*
X96433955Y-57254214D01*
X96421040Y-57253368D01*
X96414795Y-57253163D01*
X96394512Y-57252500D01*
X88136488Y-57252500D01*
X88117331Y-57253126D01*
X88109959Y-57253368D01*
X88097046Y-57254214D01*
X88070621Y-57256818D01*
X87972712Y-57269708D01*
X87960582Y-57271305D01*
X87960580Y-57271305D01*
X87960575Y-57271306D01*
X87908572Y-57281649D01*
X87908568Y-57281649D01*
X87908563Y-57281651D01*
X87892174Y-57286042D01*
X87883597Y-57288340D01*
X87833380Y-57305387D01*
X87833357Y-57305395D01*
X87736860Y-57345365D01*
X87689308Y-57368815D01*
X87689277Y-57368831D01*
X87666920Y-57381739D01*
X87666903Y-57381749D01*
X87622813Y-57411211D01*
X87622790Y-57411227D01*
X87539931Y-57474808D01*
X87500042Y-57509790D01*
X87481790Y-57528042D01*
X87446808Y-57567931D01*
X87383227Y-57650790D01*
X87383211Y-57650813D01*
X87353749Y-57694903D01*
X87353739Y-57694920D01*
X87340831Y-57717277D01*
X87340815Y-57717308D01*
X87317365Y-57764860D01*
X87277395Y-57861357D01*
X87277387Y-57861380D01*
X87260340Y-57911597D01*
X87260337Y-57911609D01*
X87253652Y-57936562D01*
X87253649Y-57936572D01*
X87243306Y-57988575D01*
X87228818Y-58098621D01*
X87226214Y-58125046D01*
X87225368Y-58137959D01*
X87224500Y-58164500D01*
X87224500Y-66930498D01*
X85600000Y-66930498D01*
X85600000Y-55859173D01*
X85619685Y-55792134D01*
X85672489Y-55746379D01*
X85724000Y-55735173D01*
X104030809Y-55735173D01*
X133320740Y-55791069D01*
G37*
G04 #@! TD.AperFunction*
G04 #@! TA.AperFunction,Conductor*
G36*
X106235520Y-103420185D02*
G01*
X106256162Y-103436819D01*
X108961058Y-106141715D01*
X108966178Y-106147153D01*
X109006071Y-106192183D01*
X109055577Y-106226355D01*
X109061597Y-106230785D01*
X109103266Y-106263431D01*
X109108943Y-106267878D01*
X109115845Y-106270984D01*
X109118182Y-106272036D01*
X109137733Y-106283063D01*
X109139818Y-106284502D01*
X109146071Y-106288819D01*
X109202297Y-106310142D01*
X109209212Y-106313006D01*
X109264068Y-106337695D01*
X109274042Y-106339522D01*
X109295656Y-106345548D01*
X109298777Y-106346731D01*
X109305128Y-106349140D01*
X109362241Y-106356074D01*
X109364814Y-106356387D01*
X109372219Y-106357514D01*
X109393173Y-106361353D01*
X109431394Y-106368358D01*
X109491433Y-106364725D01*
X109498921Y-106364500D01*
X113527424Y-106364500D01*
X113594463Y-106384185D01*
X113640218Y-106436989D01*
X113650162Y-106506147D01*
X113637910Y-106544792D01*
X113631316Y-106557733D01*
X113627849Y-106579620D01*
X113623309Y-106598529D01*
X113616462Y-106619605D01*
X113616462Y-108355009D01*
X113596777Y-108422048D01*
X113543973Y-108467803D01*
X113498194Y-108478876D01*
X113488768Y-108479312D01*
X113488749Y-108479315D01*
X113380701Y-108510057D01*
X113380693Y-108510061D01*
X113342660Y-108538782D01*
X113277298Y-108563473D01*
X113208964Y-108548907D01*
X113202658Y-108545254D01*
X113127397Y-108498655D01*
X113127396Y-108498654D01*
X113127395Y-108498654D01*
X113016962Y-108478010D01*
X112016962Y-108478010D01*
X112015405Y-108478082D01*
X111988758Y-108479313D01*
X111988749Y-108479315D01*
X111880701Y-108510057D01*
X111880693Y-108510061D01*
X111842660Y-108538782D01*
X111777298Y-108563473D01*
X111708964Y-108548907D01*
X111702658Y-108545254D01*
X111627397Y-108498655D01*
X111627396Y-108498654D01*
X111627395Y-108498654D01*
X111516962Y-108478010D01*
X110516962Y-108478010D01*
X110515405Y-108478082D01*
X110488758Y-108479313D01*
X110488749Y-108479315D01*
X110380701Y-108510057D01*
X110380693Y-108510061D01*
X110342660Y-108538782D01*
X110277298Y-108563473D01*
X110208964Y-108548907D01*
X110202658Y-108545254D01*
X110127397Y-108498655D01*
X110127396Y-108498654D01*
X110127395Y-108498654D01*
X110016962Y-108478010D01*
X109016962Y-108478010D01*
X109015405Y-108478082D01*
X108988758Y-108479313D01*
X108988749Y-108479315D01*
X108880701Y-108510057D01*
X108880693Y-108510061D01*
X108842660Y-108538782D01*
X108777298Y-108563473D01*
X108708964Y-108548907D01*
X108702658Y-108545254D01*
X108627397Y-108498655D01*
X108627396Y-108498654D01*
X108627395Y-108498654D01*
X108516962Y-108478010D01*
X107516962Y-108478010D01*
X107515405Y-108478082D01*
X107488758Y-108479313D01*
X107488749Y-108479315D01*
X107380701Y-108510057D01*
X107380693Y-108510061D01*
X107342660Y-108538782D01*
X107277298Y-108563473D01*
X107208964Y-108548907D01*
X107202658Y-108545254D01*
X107127397Y-108498655D01*
X107127396Y-108498654D01*
X107127395Y-108498654D01*
X107016962Y-108478010D01*
X106016962Y-108478010D01*
X106015405Y-108478082D01*
X105988758Y-108479313D01*
X105988749Y-108479315D01*
X105880701Y-108510057D01*
X105880693Y-108510061D01*
X105842660Y-108538782D01*
X105777298Y-108563473D01*
X105708964Y-108548907D01*
X105702658Y-108545254D01*
X105627397Y-108498655D01*
X105627396Y-108498654D01*
X105627395Y-108498654D01*
X105516962Y-108478010D01*
X104516962Y-108478010D01*
X104515405Y-108478082D01*
X104488758Y-108479313D01*
X104488749Y-108479315D01*
X104380701Y-108510057D01*
X104380693Y-108510061D01*
X104342660Y-108538782D01*
X104277298Y-108563473D01*
X104208964Y-108548907D01*
X104202658Y-108545254D01*
X104127397Y-108498655D01*
X104127396Y-108498654D01*
X104127395Y-108498654D01*
X104016962Y-108478010D01*
X103016962Y-108478010D01*
X103015405Y-108478082D01*
X102988758Y-108479313D01*
X102988749Y-108479315D01*
X102880701Y-108510057D01*
X102880693Y-108510061D01*
X102842660Y-108538782D01*
X102777298Y-108563473D01*
X102708964Y-108548907D01*
X102702658Y-108545254D01*
X102627397Y-108498655D01*
X102627396Y-108498654D01*
X102627395Y-108498654D01*
X102516962Y-108478010D01*
X101516962Y-108478010D01*
X101515405Y-108478082D01*
X101488758Y-108479313D01*
X101488749Y-108479315D01*
X101380701Y-108510057D01*
X101380693Y-108510061D01*
X101342660Y-108538782D01*
X101277298Y-108563473D01*
X101208964Y-108548907D01*
X101202658Y-108545254D01*
X101127397Y-108498655D01*
X101127396Y-108498654D01*
X101127395Y-108498654D01*
X101016962Y-108478010D01*
X100016962Y-108478010D01*
X100015405Y-108478082D01*
X99988758Y-108479313D01*
X99988749Y-108479315D01*
X99880701Y-108510057D01*
X99880693Y-108510061D01*
X99842660Y-108538782D01*
X99777298Y-108563473D01*
X99708964Y-108548907D01*
X99702658Y-108545254D01*
X99627397Y-108498655D01*
X99627396Y-108498654D01*
X99627395Y-108498654D01*
X99516962Y-108478010D01*
X98516962Y-108478010D01*
X98515405Y-108478082D01*
X98488758Y-108479313D01*
X98488749Y-108479315D01*
X98380701Y-108510057D01*
X98380693Y-108510061D01*
X98342660Y-108538782D01*
X98277298Y-108563473D01*
X98208964Y-108548907D01*
X98202658Y-108545254D01*
X98127397Y-108498655D01*
X98127396Y-108498654D01*
X98127395Y-108498654D01*
X98016962Y-108478010D01*
X97016962Y-108478010D01*
X97015405Y-108478082D01*
X96988758Y-108479313D01*
X96988749Y-108479315D01*
X96880701Y-108510057D01*
X96880693Y-108510061D01*
X96842660Y-108538782D01*
X96777298Y-108563473D01*
X96708964Y-108548907D01*
X96702658Y-108545254D01*
X96627397Y-108498655D01*
X96627396Y-108498654D01*
X96627395Y-108498654D01*
X96516962Y-108478010D01*
X95516962Y-108478010D01*
X95515405Y-108478082D01*
X95488758Y-108479313D01*
X95488749Y-108479315D01*
X95380701Y-108510057D01*
X95380693Y-108510061D01*
X95342660Y-108538782D01*
X95277298Y-108563473D01*
X95208964Y-108548907D01*
X95202658Y-108545254D01*
X95127397Y-108498655D01*
X95127396Y-108498654D01*
X95127395Y-108498654D01*
X95016962Y-108478010D01*
X94016962Y-108478010D01*
X94015405Y-108478082D01*
X93988758Y-108479313D01*
X93988749Y-108479315D01*
X93880701Y-108510057D01*
X93880693Y-108510061D01*
X93842660Y-108538782D01*
X93777298Y-108563473D01*
X93708964Y-108548907D01*
X93702658Y-108545254D01*
X93627397Y-108498655D01*
X93627396Y-108498654D01*
X93627395Y-108498654D01*
X93516962Y-108478010D01*
X92516962Y-108478010D01*
X92515405Y-108478082D01*
X92488758Y-108479313D01*
X92488749Y-108479315D01*
X92380701Y-108510057D01*
X92380693Y-108510061D01*
X92342660Y-108538782D01*
X92277298Y-108563473D01*
X92208964Y-108548907D01*
X92202658Y-108545254D01*
X92127397Y-108498655D01*
X92127396Y-108498654D01*
X92127395Y-108498654D01*
X92016962Y-108478010D01*
X91016962Y-108478010D01*
X91015405Y-108478082D01*
X90988758Y-108479313D01*
X90988749Y-108479315D01*
X90880701Y-108510057D01*
X90880693Y-108510061D01*
X90842660Y-108538782D01*
X90777298Y-108563473D01*
X90708964Y-108548907D01*
X90702658Y-108545254D01*
X90627397Y-108498655D01*
X90627396Y-108498654D01*
X90627395Y-108498654D01*
X90516962Y-108478010D01*
X89516962Y-108478010D01*
X89515405Y-108478082D01*
X89488758Y-108479313D01*
X89488749Y-108479315D01*
X89380701Y-108510057D01*
X89380693Y-108510061D01*
X89342660Y-108538782D01*
X89277298Y-108563473D01*
X89208964Y-108548907D01*
X89202658Y-108545254D01*
X89127397Y-108498654D01*
X89127393Y-108498653D01*
X89068675Y-108487676D01*
X89006394Y-108456007D01*
X88971122Y-108395694D01*
X88967462Y-108365788D01*
X88967462Y-106010469D01*
X88987147Y-105943430D01*
X89003781Y-105922788D01*
X89033750Y-105892819D01*
X89095073Y-105859334D01*
X89121431Y-105856500D01*
X89551079Y-105856500D01*
X89558566Y-105856725D01*
X89618606Y-105860358D01*
X89677782Y-105849513D01*
X89685185Y-105848387D01*
X89688921Y-105847933D01*
X89744872Y-105841140D01*
X89754335Y-105837550D01*
X89775961Y-105831522D01*
X89778302Y-105831093D01*
X89785932Y-105829695D01*
X89840808Y-105804996D01*
X89847678Y-105802150D01*
X89903930Y-105780818D01*
X89912266Y-105775062D01*
X89931821Y-105764034D01*
X89941057Y-105759878D01*
X89988413Y-105722775D01*
X89994404Y-105718366D01*
X90043929Y-105684183D01*
X90083822Y-105639151D01*
X90088924Y-105633731D01*
X92285837Y-103436819D01*
X92347160Y-103403334D01*
X92373518Y-103400500D01*
X102657628Y-103400500D01*
X106168481Y-103400500D01*
X106235520Y-103420185D01*
G37*
G04 #@! TD.AperFunction*
G04 #@! TD*
M02*
