G04 #@! TF.GenerationSoftware,KiCad,Pcbnew,7.0.11*
G04 #@! TF.CreationDate,2024-02-24T15:31:06+03:00*
G04 #@! TF.ProjectId,GameboyCartridgeV1.1,47616d65-626f-4794-9361-727472696467,rev?*
G04 #@! TF.SameCoordinates,Original*
G04 #@! TF.FileFunction,Paste,Top*
G04 #@! TF.FilePolarity,Positive*
%FSLAX46Y46*%
G04 Gerber Fmt 4.6, Leading zero omitted, Abs format (unit mm)*
G04 Created by KiCad (PCBNEW 7.0.11) date 2024-02-24 15:31:06*
%MOMM*%
%LPD*%
G01*
G04 APERTURE LIST*
G04 Aperture macros list*
%AMRoundRect*
0 Rectangle with rounded corners*
0 $1 Rounding radius*
0 $2 $3 $4 $5 $6 $7 $8 $9 X,Y pos of 4 corners*
0 Add a 4 corners polygon primitive as box body*
4,1,4,$2,$3,$4,$5,$6,$7,$8,$9,$2,$3,0*
0 Add four circle primitives for the rounded corners*
1,1,$1+$1,$2,$3*
1,1,$1+$1,$4,$5*
1,1,$1+$1,$6,$7*
1,1,$1+$1,$8,$9*
0 Add four rect primitives between the rounded corners*
20,1,$1+$1,$2,$3,$4,$5,0*
20,1,$1+$1,$4,$5,$6,$7,0*
20,1,$1+$1,$6,$7,$8,$9,0*
20,1,$1+$1,$8,$9,$2,$3,0*%
G04 Aperture macros list end*
%ADD10R,0.600000X1.150000*%
%ADD11R,0.300000X1.150000*%
%ADD12RoundRect,0.237500X-0.300000X-0.237500X0.300000X-0.237500X0.300000X0.237500X-0.300000X0.237500X0*%
%ADD13RoundRect,0.237500X-0.237500X0.300000X-0.237500X-0.300000X0.237500X-0.300000X0.237500X0.300000X0*%
%ADD14RoundRect,0.237500X0.237500X-0.250000X0.237500X0.250000X-0.237500X0.250000X-0.237500X-0.250000X0*%
%ADD15RoundRect,0.237500X-0.237500X0.250000X-0.237500X-0.250000X0.237500X-0.250000X0.237500X0.250000X0*%
%ADD16RoundRect,0.375000X-0.625000X-0.375000X0.625000X-0.375000X0.625000X0.375000X-0.625000X0.375000X0*%
%ADD17RoundRect,0.500000X-0.500000X-1.400000X0.500000X-1.400000X0.500000X1.400000X-0.500000X1.400000X0*%
%ADD18RoundRect,0.237500X0.237500X-0.300000X0.237500X0.300000X-0.237500X0.300000X-0.237500X-0.300000X0*%
%ADD19RoundRect,0.237500X0.300000X0.237500X-0.300000X0.237500X-0.300000X-0.237500X0.300000X-0.237500X0*%
%ADD20R,1.700000X1.000000*%
%ADD21RoundRect,0.237500X0.250000X0.237500X-0.250000X0.237500X-0.250000X-0.237500X0.250000X-0.237500X0*%
%ADD22R,0.609600X1.625600*%
%ADD23R,3.175000X1.854200*%
%ADD24RoundRect,0.249999X-0.395001X-0.395001X0.395001X-0.395001X0.395001X0.395001X-0.395001X0.395001X0*%
%ADD25RoundRect,0.050000X-0.387500X-0.050000X0.387500X-0.050000X0.387500X0.050000X-0.387500X0.050000X0*%
%ADD26RoundRect,0.050000X-0.050000X-0.387500X0.050000X-0.387500X0.050000X0.387500X-0.050000X0.387500X0*%
%ADD27R,1.400000X1.200000*%
%ADD28RoundRect,0.237500X-0.250000X-0.237500X0.250000X-0.237500X0.250000X0.237500X-0.250000X0.237500X0*%
%ADD29R,1.500000X0.900000*%
%ADD30RoundRect,0.100000X-0.100000X0.637500X-0.100000X-0.637500X0.100000X-0.637500X0.100000X0.637500X0*%
%ADD31RoundRect,0.150000X-0.650000X-0.150000X0.650000X-0.150000X0.650000X0.150000X-0.650000X0.150000X0*%
%ADD32RoundRect,0.250000X-0.300000X-0.300000X0.300000X-0.300000X0.300000X0.300000X-0.300000X0.300000X0*%
%ADD33R,0.800000X1.900000*%
%ADD34RoundRect,0.250000X0.300000X0.300000X-0.300000X0.300000X-0.300000X-0.300000X0.300000X-0.300000X0*%
%ADD35R,0.750000X0.250000*%
G04 APERTURE END LIST*
D10*
G04 #@! TO.C,J1*
X117360000Y-62740000D03*
X116560000Y-62740000D03*
D11*
X115410000Y-62740000D03*
X114410000Y-62740000D03*
X113910000Y-62740000D03*
X112910000Y-62740000D03*
D10*
X111760000Y-62740000D03*
X110960000Y-62740000D03*
X110960000Y-62740000D03*
X111760000Y-62740000D03*
D11*
X112410000Y-62740000D03*
X113410000Y-62740000D03*
X114910000Y-62740000D03*
X115910000Y-62740000D03*
D10*
X116560000Y-62740000D03*
X117360000Y-62740000D03*
G04 #@! TD*
D12*
G04 #@! TO.C,C8*
X104014100Y-82270600D03*
X105739100Y-82270600D03*
G04 #@! TD*
D13*
G04 #@! TO.C,C18*
X134200000Y-97937500D03*
X134200000Y-99662500D03*
G04 #@! TD*
D14*
G04 #@! TO.C,R3*
X115824000Y-74445500D03*
X115824000Y-72620500D03*
G04 #@! TD*
D15*
G04 #@! TO.C,R4*
X114300000Y-89737500D03*
X114300000Y-91562500D03*
G04 #@! TD*
D16*
G04 #@! TO.C,U9*
X88798000Y-59574000D03*
X88798000Y-61874000D03*
D17*
X95098000Y-61874000D03*
D16*
X88798000Y-64174000D03*
G04 #@! TD*
D13*
G04 #@! TO.C,C12*
X111252000Y-72543500D03*
X111252000Y-74268500D03*
G04 #@! TD*
G04 #@! TO.C,C2*
X112776000Y-72543500D03*
X112776000Y-74268500D03*
G04 #@! TD*
D18*
G04 #@! TO.C,C13*
X115824000Y-88746500D03*
X115824000Y-87021500D03*
G04 #@! TD*
D19*
G04 #@! TO.C,C5*
X120750500Y-81788000D03*
X119025500Y-81788000D03*
G04 #@! TD*
D20*
G04 #@! TO.C,SW1*
X124760000Y-70650000D03*
X131060000Y-70650000D03*
X124760000Y-74450000D03*
X131060000Y-74450000D03*
G04 #@! TD*
D21*
G04 #@! TO.C,R9*
X135812500Y-85600000D03*
X133987500Y-85600000D03*
G04 #@! TD*
D22*
G04 #@! TO.C,U4*
X89360000Y-80873800D03*
X90630000Y-80873800D03*
X91900000Y-80873800D03*
X93170000Y-80873800D03*
X94440000Y-80873800D03*
D23*
X91900000Y-74600000D03*
G04 #@! TD*
D12*
G04 #@! TO.C,C3*
X108437500Y-93300000D03*
X110162500Y-93300000D03*
G04 #@! TD*
D13*
G04 #@! TO.C,C21*
X104800000Y-98037500D03*
X104800000Y-99762500D03*
G04 #@! TD*
D12*
G04 #@! TO.C,C4*
X112387500Y-93300000D03*
X114112500Y-93300000D03*
G04 #@! TD*
D18*
G04 #@! TO.C,C20*
X134200000Y-104062500D03*
X134200000Y-102337500D03*
G04 #@! TD*
G04 #@! TO.C,C17*
X95200000Y-102312500D03*
X95200000Y-100587500D03*
G04 #@! TD*
G04 #@! TO.C,C23*
X104800000Y-103762500D03*
X104800000Y-102037500D03*
G04 #@! TD*
D24*
G04 #@! TO.C,U2*
X110900000Y-79800000D03*
X110900000Y-81400000D03*
X112500000Y-79800000D03*
X112500000Y-81400000D03*
D25*
X108262500Y-78000000D03*
X108262500Y-78400000D03*
X108262500Y-78800000D03*
X108262500Y-79200000D03*
X108262500Y-79600000D03*
X108262500Y-80000000D03*
X108262500Y-80400000D03*
X108262500Y-80800000D03*
X108262500Y-81200000D03*
X108262500Y-81600000D03*
X108262500Y-82000000D03*
X108262500Y-82400000D03*
X108262500Y-82800000D03*
X108262500Y-83200000D03*
D26*
X109100000Y-84037500D03*
X109500000Y-84037500D03*
X109900000Y-84037500D03*
X110300000Y-84037500D03*
X110700000Y-84037500D03*
X111100000Y-84037500D03*
X111500000Y-84037500D03*
X111900000Y-84037500D03*
X112300000Y-84037500D03*
X112700000Y-84037500D03*
X113100000Y-84037500D03*
X113500000Y-84037500D03*
X113900000Y-84037500D03*
X114300000Y-84037500D03*
D25*
X115137500Y-83200000D03*
X115137500Y-82800000D03*
X115137500Y-82400000D03*
X115137500Y-82000000D03*
X115137500Y-81600000D03*
X115137500Y-81200000D03*
X115137500Y-80800000D03*
X115137500Y-80400000D03*
X115137500Y-80000000D03*
X115137500Y-79600000D03*
X115137500Y-79200000D03*
X115137500Y-78800000D03*
X115137500Y-78400000D03*
X115137500Y-78000000D03*
D26*
X114300000Y-77162500D03*
X113900000Y-77162500D03*
X113500000Y-77162500D03*
X113100000Y-77162500D03*
X112700000Y-77162500D03*
X112300000Y-77162500D03*
X111900000Y-77162500D03*
X111500000Y-77162500D03*
X111100000Y-77162500D03*
X110700000Y-77162500D03*
X110300000Y-77162500D03*
X109900000Y-77162500D03*
X109500000Y-77162500D03*
X109100000Y-77162500D03*
G04 #@! TD*
D12*
G04 #@! TO.C,C6*
X103887100Y-77393800D03*
X105612100Y-77393800D03*
G04 #@! TD*
D27*
G04 #@! TO.C,Y1*
X112400000Y-89800000D03*
X110200000Y-89800000D03*
X110200000Y-91500000D03*
X112400000Y-91500000D03*
G04 #@! TD*
D19*
G04 #@! TO.C,C19*
X90462500Y-103200000D03*
X88737500Y-103200000D03*
G04 #@! TD*
G04 #@! TO.C,C9*
X114298900Y-87325200D03*
X112573900Y-87325200D03*
G04 #@! TD*
D21*
G04 #@! TO.C,R8*
X135812500Y-82900000D03*
X133987500Y-82900000D03*
G04 #@! TD*
D28*
G04 #@! TO.C,R5*
X124387500Y-68100000D03*
X126212500Y-68100000D03*
G04 #@! TD*
D29*
G04 #@! TO.C,D1*
X103650000Y-62550000D03*
X103650000Y-59250000D03*
X98750000Y-59250000D03*
X98750000Y-62550000D03*
G04 #@! TD*
D18*
G04 #@! TO.C,C24*
X125300000Y-103862500D03*
X125300000Y-102137500D03*
G04 #@! TD*
D19*
G04 #@! TO.C,C10*
X120496500Y-77216000D03*
X118771500Y-77216000D03*
G04 #@! TD*
D30*
G04 #@! TO.C,U8*
X123825000Y-98237500D03*
X123175000Y-98237500D03*
X122525000Y-98237500D03*
X121875000Y-98237500D03*
X121225000Y-98237500D03*
X120575000Y-98237500D03*
X119925000Y-98237500D03*
X119275000Y-98237500D03*
X118625000Y-98237500D03*
X117975000Y-98237500D03*
X117975000Y-103962500D03*
X118625000Y-103962500D03*
X119275000Y-103962500D03*
X119925000Y-103962500D03*
X120575000Y-103962500D03*
X121225000Y-103962500D03*
X121875000Y-103962500D03*
X122525000Y-103962500D03*
X123175000Y-103962500D03*
X123825000Y-103962500D03*
G04 #@! TD*
D21*
G04 #@! TO.C,R7*
X94512500Y-87000000D03*
X92687500Y-87000000D03*
G04 #@! TD*
D13*
G04 #@! TO.C,C14*
X106700000Y-61137500D03*
X106700000Y-62862500D03*
G04 #@! TD*
D14*
G04 #@! TO.C,R2*
X114300000Y-74445500D03*
X114300000Y-72620500D03*
G04 #@! TD*
D12*
G04 #@! TO.C,C1*
X106237500Y-67900000D03*
X107962500Y-67900000D03*
G04 #@! TD*
G04 #@! TO.C,C16*
X92537500Y-84100000D03*
X94262500Y-84100000D03*
G04 #@! TD*
D13*
G04 #@! TO.C,C22*
X125300000Y-98037500D03*
X125300000Y-99762500D03*
G04 #@! TD*
D31*
G04 #@! TO.C,U1*
X100700000Y-69795000D03*
X100700000Y-71065000D03*
X100700000Y-72335000D03*
X100700000Y-73605000D03*
X107900000Y-73605000D03*
X107900000Y-72335000D03*
X107900000Y-71065000D03*
X107900000Y-69795000D03*
G04 #@! TD*
D28*
G04 #@! TO.C,R6*
X129627500Y-68100000D03*
X131452500Y-68100000D03*
G04 #@! TD*
D30*
G04 #@! TO.C,U7*
X103325000Y-98237500D03*
X102675000Y-98237500D03*
X102025000Y-98237500D03*
X101375000Y-98237500D03*
X100725000Y-98237500D03*
X100075000Y-98237500D03*
X99425000Y-98237500D03*
X98775000Y-98237500D03*
X98125000Y-98237500D03*
X97475000Y-98237500D03*
X97475000Y-103962500D03*
X98125000Y-103962500D03*
X98775000Y-103962500D03*
X99425000Y-103962500D03*
X100075000Y-103962500D03*
X100725000Y-103962500D03*
X101375000Y-103962500D03*
X102025000Y-103962500D03*
X102675000Y-103962500D03*
X103325000Y-103962500D03*
G04 #@! TD*
G04 #@! TO.C,U6*
X132725000Y-98137500D03*
X132075000Y-98137500D03*
X131425000Y-98137500D03*
X130775000Y-98137500D03*
X130125000Y-98137500D03*
X129475000Y-98137500D03*
X128825000Y-98137500D03*
X128175000Y-98137500D03*
X127525000Y-98137500D03*
X126875000Y-98137500D03*
X126875000Y-103862500D03*
X127525000Y-103862500D03*
X128175000Y-103862500D03*
X128825000Y-103862500D03*
X129475000Y-103862500D03*
X130125000Y-103862500D03*
X130775000Y-103862500D03*
X131425000Y-103862500D03*
X132075000Y-103862500D03*
X132725000Y-103862500D03*
G04 #@! TD*
D32*
G04 #@! TO.C,D3*
X88200000Y-71400000D03*
X91000000Y-71400000D03*
G04 #@! TD*
D12*
G04 #@! TO.C,C15*
X88837500Y-84100000D03*
X90562500Y-84100000D03*
G04 #@! TD*
D33*
G04 #@! TO.C,Q1*
X135850000Y-89700000D03*
X133950000Y-89700000D03*
X134900000Y-92700000D03*
G04 #@! TD*
D34*
G04 #@! TO.C,D2*
X90900000Y-87300000D03*
X88100000Y-87300000D03*
G04 #@! TD*
D28*
G04 #@! TO.C,R1*
X100687500Y-67900000D03*
X102512500Y-67900000D03*
G04 #@! TD*
D35*
G04 #@! TO.C,U5*
X93650000Y-101900000D03*
X93650000Y-101400000D03*
X93650000Y-100900000D03*
X93650000Y-100400000D03*
X90550000Y-100400000D03*
X90550000Y-100900000D03*
X90550000Y-101400000D03*
X90550000Y-101900000D03*
G04 #@! TD*
D13*
G04 #@! TO.C,C11*
X118872000Y-72670500D03*
X118872000Y-74395500D03*
G04 #@! TD*
G04 #@! TO.C,C7*
X117348000Y-72670500D03*
X117348000Y-74395500D03*
G04 #@! TD*
M02*
