G04 #@! TF.GenerationSoftware,KiCad,Pcbnew,7.0.11*
G04 #@! TF.CreationDate,2024-02-24T15:31:06+03:00*
G04 #@! TF.ProjectId,GameboyCartridgeV1.1,47616d65-626f-4794-9361-727472696467,rev?*
G04 #@! TF.SameCoordinates,Original*
G04 #@! TF.FileFunction,Legend,Bot*
G04 #@! TF.FilePolarity,Positive*
%FSLAX46Y46*%
G04 Gerber Fmt 4.6, Leading zero omitted, Abs format (unit mm)*
G04 Created by KiCad (PCBNEW 7.0.11) date 2024-02-24 15:31:06*
%MOMM*%
%LPD*%
G01*
G04 APERTURE LIST*
%ADD10C,0.300000*%
%ADD11C,0.650000*%
%ADD12O,1.000000X2.100000*%
%ADD13O,1.000000X1.800000*%
%ADD14C,0.860000*%
%ADD15C,2.374900*%
%ADD16C,0.990600*%
%ADD17C,7.200000*%
%ADD18R,1.700000X1.700000*%
%ADD19O,1.700000X1.700000*%
G04 APERTURE END LIST*
D10*
X98279796Y-59163400D02*
X98136939Y-59234828D01*
X98136939Y-59234828D02*
X97851225Y-59234828D01*
X97851225Y-59234828D02*
X97708368Y-59163400D01*
X97708368Y-59163400D02*
X97636939Y-59020542D01*
X97636939Y-59020542D02*
X97636939Y-58949114D01*
X97636939Y-58949114D02*
X97708368Y-58806257D01*
X97708368Y-58806257D02*
X97851225Y-58734828D01*
X97851225Y-58734828D02*
X98065511Y-58734828D01*
X98065511Y-58734828D02*
X98208368Y-58663400D01*
X98208368Y-58663400D02*
X98279796Y-58520542D01*
X98279796Y-58520542D02*
X98279796Y-58449114D01*
X98279796Y-58449114D02*
X98208368Y-58306257D01*
X98208368Y-58306257D02*
X98065511Y-58234828D01*
X98065511Y-58234828D02*
X97851225Y-58234828D01*
X97851225Y-58234828D02*
X97708368Y-58306257D01*
X96994082Y-58234828D02*
X96994082Y-59734828D01*
X96994082Y-58306257D02*
X96851225Y-58234828D01*
X96851225Y-58234828D02*
X96565510Y-58234828D01*
X96565510Y-58234828D02*
X96422653Y-58306257D01*
X96422653Y-58306257D02*
X96351225Y-58377685D01*
X96351225Y-58377685D02*
X96279796Y-58520542D01*
X96279796Y-58520542D02*
X96279796Y-58949114D01*
X96279796Y-58949114D02*
X96351225Y-59091971D01*
X96351225Y-59091971D02*
X96422653Y-59163400D01*
X96422653Y-59163400D02*
X96565510Y-59234828D01*
X96565510Y-59234828D02*
X96851225Y-59234828D01*
X96851225Y-59234828D02*
X96994082Y-59163400D01*
X95065510Y-59163400D02*
X95208367Y-59234828D01*
X95208367Y-59234828D02*
X95494082Y-59234828D01*
X95494082Y-59234828D02*
X95636939Y-59163400D01*
X95636939Y-59163400D02*
X95708367Y-59020542D01*
X95708367Y-59020542D02*
X95708367Y-58449114D01*
X95708367Y-58449114D02*
X95636939Y-58306257D01*
X95636939Y-58306257D02*
X95494082Y-58234828D01*
X95494082Y-58234828D02*
X95208367Y-58234828D01*
X95208367Y-58234828D02*
X95065510Y-58306257D01*
X95065510Y-58306257D02*
X94994082Y-58449114D01*
X94994082Y-58449114D02*
X94994082Y-58591971D01*
X94994082Y-58591971D02*
X95708367Y-58734828D01*
X93779796Y-59163400D02*
X93922653Y-59234828D01*
X93922653Y-59234828D02*
X94208368Y-59234828D01*
X94208368Y-59234828D02*
X94351225Y-59163400D01*
X94351225Y-59163400D02*
X94422653Y-59020542D01*
X94422653Y-59020542D02*
X94422653Y-58449114D01*
X94422653Y-58449114D02*
X94351225Y-58306257D01*
X94351225Y-58306257D02*
X94208368Y-58234828D01*
X94208368Y-58234828D02*
X93922653Y-58234828D01*
X93922653Y-58234828D02*
X93779796Y-58306257D01*
X93779796Y-58306257D02*
X93708368Y-58449114D01*
X93708368Y-58449114D02*
X93708368Y-58591971D01*
X93708368Y-58591971D02*
X94422653Y-58734828D01*
X92422654Y-59234828D02*
X92422654Y-57734828D01*
X92422654Y-59163400D02*
X92565511Y-59234828D01*
X92565511Y-59234828D02*
X92851225Y-59234828D01*
X92851225Y-59234828D02*
X92994082Y-59163400D01*
X92994082Y-59163400D02*
X93065511Y-59091971D01*
X93065511Y-59091971D02*
X93136939Y-58949114D01*
X93136939Y-58949114D02*
X93136939Y-58520542D01*
X93136939Y-58520542D02*
X93065511Y-58377685D01*
X93065511Y-58377685D02*
X92994082Y-58306257D01*
X92994082Y-58306257D02*
X92851225Y-58234828D01*
X92851225Y-58234828D02*
X92565511Y-58234828D01*
X92565511Y-58234828D02*
X92422654Y-58306257D01*
X91708368Y-59234828D02*
X91708368Y-57734828D01*
X91708368Y-58306257D02*
X91565511Y-58234828D01*
X91565511Y-58234828D02*
X91279796Y-58234828D01*
X91279796Y-58234828D02*
X91136939Y-58306257D01*
X91136939Y-58306257D02*
X91065511Y-58377685D01*
X91065511Y-58377685D02*
X90994082Y-58520542D01*
X90994082Y-58520542D02*
X90994082Y-58949114D01*
X90994082Y-58949114D02*
X91065511Y-59091971D01*
X91065511Y-59091971D02*
X91136939Y-59163400D01*
X91136939Y-59163400D02*
X91279796Y-59234828D01*
X91279796Y-59234828D02*
X91565511Y-59234828D01*
X91565511Y-59234828D02*
X91708368Y-59163400D01*
X90136939Y-59234828D02*
X90279796Y-59163400D01*
X90279796Y-59163400D02*
X90351225Y-59091971D01*
X90351225Y-59091971D02*
X90422653Y-58949114D01*
X90422653Y-58949114D02*
X90422653Y-58520542D01*
X90422653Y-58520542D02*
X90351225Y-58377685D01*
X90351225Y-58377685D02*
X90279796Y-58306257D01*
X90279796Y-58306257D02*
X90136939Y-58234828D01*
X90136939Y-58234828D02*
X89922653Y-58234828D01*
X89922653Y-58234828D02*
X89779796Y-58306257D01*
X89779796Y-58306257D02*
X89708368Y-58377685D01*
X89708368Y-58377685D02*
X89636939Y-58520542D01*
X89636939Y-58520542D02*
X89636939Y-58949114D01*
X89636939Y-58949114D02*
X89708368Y-59091971D01*
X89708368Y-59091971D02*
X89779796Y-59163400D01*
X89779796Y-59163400D02*
X89922653Y-59234828D01*
X89922653Y-59234828D02*
X90136939Y-59234828D01*
X89136939Y-58234828D02*
X88779796Y-59234828D01*
X88422653Y-58234828D02*
X88779796Y-59234828D01*
X88779796Y-59234828D02*
X88922653Y-59591971D01*
X88922653Y-59591971D02*
X88994082Y-59663400D01*
X88994082Y-59663400D02*
X89136939Y-59734828D01*
X105565513Y-61649828D02*
X105565513Y-60149828D01*
X104922656Y-61649828D02*
X104922656Y-60864114D01*
X104922656Y-60864114D02*
X104994084Y-60721257D01*
X104994084Y-60721257D02*
X105136941Y-60649828D01*
X105136941Y-60649828D02*
X105351227Y-60649828D01*
X105351227Y-60649828D02*
X105494084Y-60721257D01*
X105494084Y-60721257D02*
X105565513Y-60792685D01*
X104422655Y-60649828D02*
X103851227Y-60649828D01*
X104208370Y-60149828D02*
X104208370Y-61435542D01*
X104208370Y-61435542D02*
X104136941Y-61578400D01*
X104136941Y-61578400D02*
X103994084Y-61649828D01*
X103994084Y-61649828D02*
X103851227Y-61649828D01*
X103565512Y-60649828D02*
X102994084Y-60649828D01*
X103351227Y-60149828D02*
X103351227Y-61435542D01*
X103351227Y-61435542D02*
X103279798Y-61578400D01*
X103279798Y-61578400D02*
X103136941Y-61649828D01*
X103136941Y-61649828D02*
X102994084Y-61649828D01*
X102494084Y-60649828D02*
X102494084Y-62149828D01*
X102494084Y-60721257D02*
X102351227Y-60649828D01*
X102351227Y-60649828D02*
X102065512Y-60649828D01*
X102065512Y-60649828D02*
X101922655Y-60721257D01*
X101922655Y-60721257D02*
X101851227Y-60792685D01*
X101851227Y-60792685D02*
X101779798Y-60935542D01*
X101779798Y-60935542D02*
X101779798Y-61364114D01*
X101779798Y-61364114D02*
X101851227Y-61506971D01*
X101851227Y-61506971D02*
X101922655Y-61578400D01*
X101922655Y-61578400D02*
X102065512Y-61649828D01*
X102065512Y-61649828D02*
X102351227Y-61649828D01*
X102351227Y-61649828D02*
X102494084Y-61578400D01*
X101136941Y-61506971D02*
X101065512Y-61578400D01*
X101065512Y-61578400D02*
X101136941Y-61649828D01*
X101136941Y-61649828D02*
X101208369Y-61578400D01*
X101208369Y-61578400D02*
X101136941Y-61506971D01*
X101136941Y-61506971D02*
X101136941Y-61649828D01*
X101136941Y-60721257D02*
X101065512Y-60792685D01*
X101065512Y-60792685D02*
X101136941Y-60864114D01*
X101136941Y-60864114D02*
X101208369Y-60792685D01*
X101208369Y-60792685D02*
X101136941Y-60721257D01*
X101136941Y-60721257D02*
X101136941Y-60864114D01*
X99351226Y-60078400D02*
X100636940Y-62006971D01*
X97779797Y-60078400D02*
X99065511Y-62006971D01*
X96636940Y-60649828D02*
X96636940Y-61864114D01*
X96636940Y-61864114D02*
X96708368Y-62006971D01*
X96708368Y-62006971D02*
X96779797Y-62078400D01*
X96779797Y-62078400D02*
X96922654Y-62149828D01*
X96922654Y-62149828D02*
X97136940Y-62149828D01*
X97136940Y-62149828D02*
X97279797Y-62078400D01*
X96636940Y-61578400D02*
X96779797Y-61649828D01*
X96779797Y-61649828D02*
X97065511Y-61649828D01*
X97065511Y-61649828D02*
X97208368Y-61578400D01*
X97208368Y-61578400D02*
X97279797Y-61506971D01*
X97279797Y-61506971D02*
X97351225Y-61364114D01*
X97351225Y-61364114D02*
X97351225Y-60935542D01*
X97351225Y-60935542D02*
X97279797Y-60792685D01*
X97279797Y-60792685D02*
X97208368Y-60721257D01*
X97208368Y-60721257D02*
X97065511Y-60649828D01*
X97065511Y-60649828D02*
X96779797Y-60649828D01*
X96779797Y-60649828D02*
X96636940Y-60721257D01*
X95351225Y-61578400D02*
X95494082Y-61649828D01*
X95494082Y-61649828D02*
X95779797Y-61649828D01*
X95779797Y-61649828D02*
X95922654Y-61578400D01*
X95922654Y-61578400D02*
X95994082Y-61435542D01*
X95994082Y-61435542D02*
X95994082Y-60864114D01*
X95994082Y-60864114D02*
X95922654Y-60721257D01*
X95922654Y-60721257D02*
X95779797Y-60649828D01*
X95779797Y-60649828D02*
X95494082Y-60649828D01*
X95494082Y-60649828D02*
X95351225Y-60721257D01*
X95351225Y-60721257D02*
X95279797Y-60864114D01*
X95279797Y-60864114D02*
X95279797Y-61006971D01*
X95279797Y-61006971D02*
X95994082Y-61149828D01*
X94779797Y-60649828D02*
X93994083Y-60649828D01*
X93994083Y-60649828D02*
X94779797Y-61649828D01*
X94779797Y-61649828D02*
X93994083Y-61649828D01*
X93565511Y-60649828D02*
X92779797Y-60649828D01*
X92779797Y-60649828D02*
X93565511Y-61649828D01*
X93565511Y-61649828D02*
X92779797Y-61649828D01*
X92208368Y-61506971D02*
X92136939Y-61578400D01*
X92136939Y-61578400D02*
X92208368Y-61649828D01*
X92208368Y-61649828D02*
X92279796Y-61578400D01*
X92279796Y-61578400D02*
X92208368Y-61506971D01*
X92208368Y-61506971D02*
X92208368Y-61649828D01*
X91279796Y-61649828D02*
X91422653Y-61578400D01*
X91422653Y-61578400D02*
X91494082Y-61506971D01*
X91494082Y-61506971D02*
X91565510Y-61364114D01*
X91565510Y-61364114D02*
X91565510Y-60935542D01*
X91565510Y-60935542D02*
X91494082Y-60792685D01*
X91494082Y-60792685D02*
X91422653Y-60721257D01*
X91422653Y-60721257D02*
X91279796Y-60649828D01*
X91279796Y-60649828D02*
X91065510Y-60649828D01*
X91065510Y-60649828D02*
X90922653Y-60721257D01*
X90922653Y-60721257D02*
X90851225Y-60792685D01*
X90851225Y-60792685D02*
X90779796Y-60935542D01*
X90779796Y-60935542D02*
X90779796Y-61364114D01*
X90779796Y-61364114D02*
X90851225Y-61506971D01*
X90851225Y-61506971D02*
X90922653Y-61578400D01*
X90922653Y-61578400D02*
X91065510Y-61649828D01*
X91065510Y-61649828D02*
X91279796Y-61649828D01*
X90136939Y-61649828D02*
X90136939Y-60649828D01*
X90136939Y-60935542D02*
X90065510Y-60792685D01*
X90065510Y-60792685D02*
X89994082Y-60721257D01*
X89994082Y-60721257D02*
X89851224Y-60649828D01*
X89851224Y-60649828D02*
X89708367Y-60649828D01*
X88565511Y-60649828D02*
X88565511Y-61864114D01*
X88565511Y-61864114D02*
X88636939Y-62006971D01*
X88636939Y-62006971D02*
X88708368Y-62078400D01*
X88708368Y-62078400D02*
X88851225Y-62149828D01*
X88851225Y-62149828D02*
X89065511Y-62149828D01*
X89065511Y-62149828D02*
X89208368Y-62078400D01*
X88565511Y-61578400D02*
X88708368Y-61649828D01*
X88708368Y-61649828D02*
X88994082Y-61649828D01*
X88994082Y-61649828D02*
X89136939Y-61578400D01*
X89136939Y-61578400D02*
X89208368Y-61506971D01*
X89208368Y-61506971D02*
X89279796Y-61364114D01*
X89279796Y-61364114D02*
X89279796Y-60935542D01*
X89279796Y-60935542D02*
X89208368Y-60792685D01*
X89208368Y-60792685D02*
X89136939Y-60721257D01*
X89136939Y-60721257D02*
X88994082Y-60649828D01*
X88994082Y-60649828D02*
X88708368Y-60649828D01*
X88708368Y-60649828D02*
X88565511Y-60721257D01*
X133970346Y-99221971D02*
X134041774Y-99293400D01*
X134041774Y-99293400D02*
X134256060Y-99364828D01*
X134256060Y-99364828D02*
X134398917Y-99364828D01*
X134398917Y-99364828D02*
X134613203Y-99293400D01*
X134613203Y-99293400D02*
X134756060Y-99150542D01*
X134756060Y-99150542D02*
X134827489Y-99007685D01*
X134827489Y-99007685D02*
X134898917Y-98721971D01*
X134898917Y-98721971D02*
X134898917Y-98507685D01*
X134898917Y-98507685D02*
X134827489Y-98221971D01*
X134827489Y-98221971D02*
X134756060Y-98079114D01*
X134756060Y-98079114D02*
X134613203Y-97936257D01*
X134613203Y-97936257D02*
X134398917Y-97864828D01*
X134398917Y-97864828D02*
X134256060Y-97864828D01*
X134256060Y-97864828D02*
X134041774Y-97936257D01*
X134041774Y-97936257D02*
X133970346Y-98007685D01*
X133327489Y-99364828D02*
X133327489Y-98364828D01*
X133327489Y-98650542D02*
X133256060Y-98507685D01*
X133256060Y-98507685D02*
X133184632Y-98436257D01*
X133184632Y-98436257D02*
X133041774Y-98364828D01*
X133041774Y-98364828D02*
X132898917Y-98364828D01*
X132184632Y-99364828D02*
X132327489Y-99293400D01*
X132327489Y-99293400D02*
X132398918Y-99221971D01*
X132398918Y-99221971D02*
X132470346Y-99079114D01*
X132470346Y-99079114D02*
X132470346Y-98650542D01*
X132470346Y-98650542D02*
X132398918Y-98507685D01*
X132398918Y-98507685D02*
X132327489Y-98436257D01*
X132327489Y-98436257D02*
X132184632Y-98364828D01*
X132184632Y-98364828D02*
X131970346Y-98364828D01*
X131970346Y-98364828D02*
X131827489Y-98436257D01*
X131827489Y-98436257D02*
X131756061Y-98507685D01*
X131756061Y-98507685D02*
X131684632Y-98650542D01*
X131684632Y-98650542D02*
X131684632Y-99079114D01*
X131684632Y-99079114D02*
X131756061Y-99221971D01*
X131756061Y-99221971D02*
X131827489Y-99293400D01*
X131827489Y-99293400D02*
X131970346Y-99364828D01*
X131970346Y-99364828D02*
X132184632Y-99364828D01*
X130398918Y-99293400D02*
X130541775Y-99364828D01*
X130541775Y-99364828D02*
X130827489Y-99364828D01*
X130827489Y-99364828D02*
X130970346Y-99293400D01*
X130970346Y-99293400D02*
X131041775Y-99221971D01*
X131041775Y-99221971D02*
X131113203Y-99079114D01*
X131113203Y-99079114D02*
X131113203Y-98650542D01*
X131113203Y-98650542D02*
X131041775Y-98507685D01*
X131041775Y-98507685D02*
X130970346Y-98436257D01*
X130970346Y-98436257D02*
X130827489Y-98364828D01*
X130827489Y-98364828D02*
X130541775Y-98364828D01*
X130541775Y-98364828D02*
X130398918Y-98436257D01*
X129541775Y-99364828D02*
X129684632Y-99293400D01*
X129684632Y-99293400D02*
X129756061Y-99221971D01*
X129756061Y-99221971D02*
X129827489Y-99079114D01*
X129827489Y-99079114D02*
X129827489Y-98650542D01*
X129827489Y-98650542D02*
X129756061Y-98507685D01*
X129756061Y-98507685D02*
X129684632Y-98436257D01*
X129684632Y-98436257D02*
X129541775Y-98364828D01*
X129541775Y-98364828D02*
X129327489Y-98364828D01*
X129327489Y-98364828D02*
X129184632Y-98436257D01*
X129184632Y-98436257D02*
X129113204Y-98507685D01*
X129113204Y-98507685D02*
X129041775Y-98650542D01*
X129041775Y-98650542D02*
X129041775Y-99079114D01*
X129041775Y-99079114D02*
X129113204Y-99221971D01*
X129113204Y-99221971D02*
X129184632Y-99293400D01*
X129184632Y-99293400D02*
X129327489Y-99364828D01*
X129327489Y-99364828D02*
X129541775Y-99364828D01*
X126398918Y-99221971D02*
X126470346Y-99293400D01*
X126470346Y-99293400D02*
X126684632Y-99364828D01*
X126684632Y-99364828D02*
X126827489Y-99364828D01*
X126827489Y-99364828D02*
X127041775Y-99293400D01*
X127041775Y-99293400D02*
X127184632Y-99150542D01*
X127184632Y-99150542D02*
X127256061Y-99007685D01*
X127256061Y-99007685D02*
X127327489Y-98721971D01*
X127327489Y-98721971D02*
X127327489Y-98507685D01*
X127327489Y-98507685D02*
X127256061Y-98221971D01*
X127256061Y-98221971D02*
X127184632Y-98079114D01*
X127184632Y-98079114D02*
X127041775Y-97936257D01*
X127041775Y-97936257D02*
X126827489Y-97864828D01*
X126827489Y-97864828D02*
X126684632Y-97864828D01*
X126684632Y-97864828D02*
X126470346Y-97936257D01*
X126470346Y-97936257D02*
X126398918Y-98007685D01*
X125113204Y-99364828D02*
X125113204Y-98579114D01*
X125113204Y-98579114D02*
X125184632Y-98436257D01*
X125184632Y-98436257D02*
X125327489Y-98364828D01*
X125327489Y-98364828D02*
X125613204Y-98364828D01*
X125613204Y-98364828D02*
X125756061Y-98436257D01*
X125113204Y-99293400D02*
X125256061Y-99364828D01*
X125256061Y-99364828D02*
X125613204Y-99364828D01*
X125613204Y-99364828D02*
X125756061Y-99293400D01*
X125756061Y-99293400D02*
X125827489Y-99150542D01*
X125827489Y-99150542D02*
X125827489Y-99007685D01*
X125827489Y-99007685D02*
X125756061Y-98864828D01*
X125756061Y-98864828D02*
X125613204Y-98793400D01*
X125613204Y-98793400D02*
X125256061Y-98793400D01*
X125256061Y-98793400D02*
X125113204Y-98721971D01*
X124398918Y-99364828D02*
X124398918Y-98364828D01*
X124398918Y-98650542D02*
X124327489Y-98507685D01*
X124327489Y-98507685D02*
X124256061Y-98436257D01*
X124256061Y-98436257D02*
X124113203Y-98364828D01*
X124113203Y-98364828D02*
X123970346Y-98364828D01*
X123684632Y-98364828D02*
X123113204Y-98364828D01*
X123470347Y-97864828D02*
X123470347Y-99150542D01*
X123470347Y-99150542D02*
X123398918Y-99293400D01*
X123398918Y-99293400D02*
X123256061Y-99364828D01*
X123256061Y-99364828D02*
X123113204Y-99364828D01*
X122613204Y-99364828D02*
X122613204Y-98364828D01*
X122613204Y-98650542D02*
X122541775Y-98507685D01*
X122541775Y-98507685D02*
X122470347Y-98436257D01*
X122470347Y-98436257D02*
X122327489Y-98364828D01*
X122327489Y-98364828D02*
X122184632Y-98364828D01*
X121684633Y-99364828D02*
X121684633Y-98364828D01*
X121684633Y-97864828D02*
X121756061Y-97936257D01*
X121756061Y-97936257D02*
X121684633Y-98007685D01*
X121684633Y-98007685D02*
X121613204Y-97936257D01*
X121613204Y-97936257D02*
X121684633Y-97864828D01*
X121684633Y-97864828D02*
X121684633Y-98007685D01*
X120327490Y-99364828D02*
X120327490Y-97864828D01*
X120327490Y-99293400D02*
X120470347Y-99364828D01*
X120470347Y-99364828D02*
X120756061Y-99364828D01*
X120756061Y-99364828D02*
X120898918Y-99293400D01*
X120898918Y-99293400D02*
X120970347Y-99221971D01*
X120970347Y-99221971D02*
X121041775Y-99079114D01*
X121041775Y-99079114D02*
X121041775Y-98650542D01*
X121041775Y-98650542D02*
X120970347Y-98507685D01*
X120970347Y-98507685D02*
X120898918Y-98436257D01*
X120898918Y-98436257D02*
X120756061Y-98364828D01*
X120756061Y-98364828D02*
X120470347Y-98364828D01*
X120470347Y-98364828D02*
X120327490Y-98436257D01*
X118970347Y-98364828D02*
X118970347Y-99579114D01*
X118970347Y-99579114D02*
X119041775Y-99721971D01*
X119041775Y-99721971D02*
X119113204Y-99793400D01*
X119113204Y-99793400D02*
X119256061Y-99864828D01*
X119256061Y-99864828D02*
X119470347Y-99864828D01*
X119470347Y-99864828D02*
X119613204Y-99793400D01*
X118970347Y-99293400D02*
X119113204Y-99364828D01*
X119113204Y-99364828D02*
X119398918Y-99364828D01*
X119398918Y-99364828D02*
X119541775Y-99293400D01*
X119541775Y-99293400D02*
X119613204Y-99221971D01*
X119613204Y-99221971D02*
X119684632Y-99079114D01*
X119684632Y-99079114D02*
X119684632Y-98650542D01*
X119684632Y-98650542D02*
X119613204Y-98507685D01*
X119613204Y-98507685D02*
X119541775Y-98436257D01*
X119541775Y-98436257D02*
X119398918Y-98364828D01*
X119398918Y-98364828D02*
X119113204Y-98364828D01*
X119113204Y-98364828D02*
X118970347Y-98436257D01*
X117684632Y-99293400D02*
X117827489Y-99364828D01*
X117827489Y-99364828D02*
X118113204Y-99364828D01*
X118113204Y-99364828D02*
X118256061Y-99293400D01*
X118256061Y-99293400D02*
X118327489Y-99150542D01*
X118327489Y-99150542D02*
X118327489Y-98579114D01*
X118327489Y-98579114D02*
X118256061Y-98436257D01*
X118256061Y-98436257D02*
X118113204Y-98364828D01*
X118113204Y-98364828D02*
X117827489Y-98364828D01*
X117827489Y-98364828D02*
X117684632Y-98436257D01*
X117684632Y-98436257D02*
X117613204Y-98579114D01*
X117613204Y-98579114D02*
X117613204Y-98721971D01*
X117613204Y-98721971D02*
X118327489Y-98864828D01*
X135041774Y-100279828D02*
X134541774Y-101779828D01*
X134541774Y-101779828D02*
X134041774Y-100279828D01*
X132756060Y-101779828D02*
X133613203Y-101779828D01*
X133184632Y-101779828D02*
X133184632Y-100279828D01*
X133184632Y-100279828D02*
X133327489Y-100494114D01*
X133327489Y-100494114D02*
X133470346Y-100636971D01*
X133470346Y-100636971D02*
X133613203Y-100708400D01*
X132113204Y-101636971D02*
X132041775Y-101708400D01*
X132041775Y-101708400D02*
X132113204Y-101779828D01*
X132113204Y-101779828D02*
X132184632Y-101708400D01*
X132184632Y-101708400D02*
X132113204Y-101636971D01*
X132113204Y-101636971D02*
X132113204Y-101779828D01*
X130613203Y-101779828D02*
X131470346Y-101779828D01*
X131041775Y-101779828D02*
X131041775Y-100279828D01*
X131041775Y-100279828D02*
X131184632Y-100494114D01*
X131184632Y-100494114D02*
X131327489Y-100636971D01*
X131327489Y-100636971D02*
X131470346Y-100708400D01*
X128041775Y-101779828D02*
X128898918Y-101779828D01*
X128470347Y-101779828D02*
X128470347Y-100279828D01*
X128470347Y-100279828D02*
X128613204Y-100494114D01*
X128613204Y-100494114D02*
X128756061Y-100636971D01*
X128756061Y-100636971D02*
X128898918Y-100708400D01*
X126613204Y-101779828D02*
X127470347Y-101779828D01*
X127041776Y-101779828D02*
X127041776Y-100279828D01*
X127041776Y-100279828D02*
X127184633Y-100494114D01*
X127184633Y-100494114D02*
X127327490Y-100636971D01*
X127327490Y-100636971D02*
X127470347Y-100708400D01*
X124898919Y-100208400D02*
X126184633Y-102136971D01*
X124470347Y-100422685D02*
X124398919Y-100351257D01*
X124398919Y-100351257D02*
X124256062Y-100279828D01*
X124256062Y-100279828D02*
X123898919Y-100279828D01*
X123898919Y-100279828D02*
X123756062Y-100351257D01*
X123756062Y-100351257D02*
X123684633Y-100422685D01*
X123684633Y-100422685D02*
X123613204Y-100565542D01*
X123613204Y-100565542D02*
X123613204Y-100708400D01*
X123613204Y-100708400D02*
X123684633Y-100922685D01*
X123684633Y-100922685D02*
X124541776Y-101779828D01*
X124541776Y-101779828D02*
X123613204Y-101779828D01*
X122684633Y-100279828D02*
X122541776Y-100279828D01*
X122541776Y-100279828D02*
X122398919Y-100351257D01*
X122398919Y-100351257D02*
X122327491Y-100422685D01*
X122327491Y-100422685D02*
X122256062Y-100565542D01*
X122256062Y-100565542D02*
X122184633Y-100851257D01*
X122184633Y-100851257D02*
X122184633Y-101208400D01*
X122184633Y-101208400D02*
X122256062Y-101494114D01*
X122256062Y-101494114D02*
X122327491Y-101636971D01*
X122327491Y-101636971D02*
X122398919Y-101708400D01*
X122398919Y-101708400D02*
X122541776Y-101779828D01*
X122541776Y-101779828D02*
X122684633Y-101779828D01*
X122684633Y-101779828D02*
X122827491Y-101708400D01*
X122827491Y-101708400D02*
X122898919Y-101636971D01*
X122898919Y-101636971D02*
X122970348Y-101494114D01*
X122970348Y-101494114D02*
X123041776Y-101208400D01*
X123041776Y-101208400D02*
X123041776Y-100851257D01*
X123041776Y-100851257D02*
X122970348Y-100565542D01*
X122970348Y-100565542D02*
X122898919Y-100422685D01*
X122898919Y-100422685D02*
X122827491Y-100351257D01*
X122827491Y-100351257D02*
X122684633Y-100279828D01*
X121613205Y-100422685D02*
X121541777Y-100351257D01*
X121541777Y-100351257D02*
X121398920Y-100279828D01*
X121398920Y-100279828D02*
X121041777Y-100279828D01*
X121041777Y-100279828D02*
X120898920Y-100351257D01*
X120898920Y-100351257D02*
X120827491Y-100422685D01*
X120827491Y-100422685D02*
X120756062Y-100565542D01*
X120756062Y-100565542D02*
X120756062Y-100708400D01*
X120756062Y-100708400D02*
X120827491Y-100922685D01*
X120827491Y-100922685D02*
X121684634Y-101779828D01*
X121684634Y-101779828D02*
X120756062Y-101779828D01*
X120256063Y-100279828D02*
X119327491Y-100279828D01*
X119327491Y-100279828D02*
X119827491Y-100851257D01*
X119827491Y-100851257D02*
X119613206Y-100851257D01*
X119613206Y-100851257D02*
X119470349Y-100922685D01*
X119470349Y-100922685D02*
X119398920Y-100994114D01*
X119398920Y-100994114D02*
X119327491Y-101136971D01*
X119327491Y-101136971D02*
X119327491Y-101494114D01*
X119327491Y-101494114D02*
X119398920Y-101636971D01*
X119398920Y-101636971D02*
X119470349Y-101708400D01*
X119470349Y-101708400D02*
X119613206Y-101779828D01*
X119613206Y-101779828D02*
X120041777Y-101779828D01*
X120041777Y-101779828D02*
X120184634Y-101708400D01*
X120184634Y-101708400D02*
X120256063Y-101636971D01*
X134898917Y-104123400D02*
X134684632Y-104194828D01*
X134684632Y-104194828D02*
X134327489Y-104194828D01*
X134327489Y-104194828D02*
X134184632Y-104123400D01*
X134184632Y-104123400D02*
X134113203Y-104051971D01*
X134113203Y-104051971D02*
X134041774Y-103909114D01*
X134041774Y-103909114D02*
X134041774Y-103766257D01*
X134041774Y-103766257D02*
X134113203Y-103623400D01*
X134113203Y-103623400D02*
X134184632Y-103551971D01*
X134184632Y-103551971D02*
X134327489Y-103480542D01*
X134327489Y-103480542D02*
X134613203Y-103409114D01*
X134613203Y-103409114D02*
X134756060Y-103337685D01*
X134756060Y-103337685D02*
X134827489Y-103266257D01*
X134827489Y-103266257D02*
X134898917Y-103123400D01*
X134898917Y-103123400D02*
X134898917Y-102980542D01*
X134898917Y-102980542D02*
X134827489Y-102837685D01*
X134827489Y-102837685D02*
X134756060Y-102766257D01*
X134756060Y-102766257D02*
X134613203Y-102694828D01*
X134613203Y-102694828D02*
X134256060Y-102694828D01*
X134256060Y-102694828D02*
X134041774Y-102766257D01*
X132398918Y-104337685D02*
X132541775Y-104266257D01*
X132541775Y-104266257D02*
X132684632Y-104123400D01*
X132684632Y-104123400D02*
X132898918Y-103909114D01*
X132898918Y-103909114D02*
X133041775Y-103837685D01*
X133041775Y-103837685D02*
X133184632Y-103837685D01*
X133113203Y-104194828D02*
X133256061Y-104123400D01*
X133256061Y-104123400D02*
X133398918Y-103980542D01*
X133398918Y-103980542D02*
X133470346Y-103694828D01*
X133470346Y-103694828D02*
X133470346Y-103194828D01*
X133470346Y-103194828D02*
X133398918Y-102909114D01*
X133398918Y-102909114D02*
X133256061Y-102766257D01*
X133256061Y-102766257D02*
X133113203Y-102694828D01*
X133113203Y-102694828D02*
X132827489Y-102694828D01*
X132827489Y-102694828D02*
X132684632Y-102766257D01*
X132684632Y-102766257D02*
X132541775Y-102909114D01*
X132541775Y-102909114D02*
X132470346Y-103194828D01*
X132470346Y-103194828D02*
X132470346Y-103694828D01*
X132470346Y-103694828D02*
X132541775Y-103980542D01*
X132541775Y-103980542D02*
X132684632Y-104123400D01*
X132684632Y-104123400D02*
X132827489Y-104194828D01*
X132827489Y-104194828D02*
X133113203Y-104194828D01*
G04 #@! TO.C,G\u002A\u002A\u002A*
G36*
X97403070Y-70481047D02*
G01*
X97403070Y-72003070D01*
X95881046Y-72003070D01*
X94359023Y-72003070D01*
X94359023Y-71568207D01*
X94793887Y-71568207D01*
X95881046Y-71568207D01*
X96968206Y-71568207D01*
X96968206Y-70481047D01*
X96968206Y-69393888D01*
X95881046Y-69393888D01*
X94793887Y-69393888D01*
X94793887Y-70481047D01*
X94793887Y-71568207D01*
X94359023Y-71568207D01*
X94359023Y-70481047D01*
X94359023Y-68959024D01*
X95881046Y-68959024D01*
X97403070Y-68959024D01*
X97403070Y-69393888D01*
X97403070Y-70481047D01*
G37*
G36*
X90662681Y-70698479D02*
G01*
X90880112Y-70698479D01*
X90880112Y-70915911D01*
X90880112Y-71133343D01*
X90662681Y-71133343D01*
X90445249Y-71133343D01*
X90445249Y-71350775D01*
X90445249Y-71568207D01*
X90880112Y-71568207D01*
X91314976Y-71568207D01*
X91314976Y-71133343D01*
X91314976Y-70698479D01*
X91967272Y-70698479D01*
X92619568Y-70698479D01*
X92619568Y-70915911D01*
X92619568Y-71133343D01*
X92837000Y-71133343D01*
X93054432Y-71133343D01*
X93054432Y-70915911D01*
X93054432Y-70698479D01*
X93271863Y-70698479D01*
X93489295Y-70698479D01*
X93489295Y-70915911D01*
X93489295Y-71133343D01*
X93706727Y-71133343D01*
X93924159Y-71133343D01*
X93924159Y-71568207D01*
X93924159Y-72003070D01*
X93271863Y-72003070D01*
X92619568Y-72003070D01*
X92619568Y-71568207D01*
X92619568Y-71133343D01*
X92184704Y-71133343D01*
X91749840Y-71133343D01*
X91749840Y-71568207D01*
X91749840Y-72003070D01*
X90662681Y-72003070D01*
X89575521Y-72003070D01*
X89575521Y-71785638D01*
X89575521Y-71568207D01*
X89792953Y-71568207D01*
X90010385Y-71568207D01*
X90010385Y-71350775D01*
X90010385Y-71133343D01*
X89792953Y-71133343D01*
X89575521Y-71133343D01*
X89575521Y-71350775D01*
X89575521Y-71568207D01*
X89358089Y-71568207D01*
X89140657Y-71568207D01*
X89140657Y-71350775D01*
X89140657Y-71133343D01*
X88705793Y-71133343D01*
X88270930Y-71133343D01*
X88270930Y-70915911D01*
X88270930Y-70698479D01*
X88705793Y-70698479D01*
X89140657Y-70698479D01*
X89575521Y-70698479D01*
X89792953Y-70698479D01*
X90010385Y-70698479D01*
X90010385Y-70481047D01*
X90010385Y-70263615D01*
X89792953Y-70263615D01*
X89575521Y-70263615D01*
X89575521Y-70481047D01*
X89575521Y-70698479D01*
X89140657Y-70698479D01*
X89140657Y-70481047D01*
X89140657Y-70263615D01*
X89358089Y-70263615D01*
X89575521Y-70263615D01*
X89575521Y-70046183D01*
X89575521Y-69828751D01*
X89358089Y-69828751D01*
X89140657Y-69828751D01*
X89140657Y-70046183D01*
X89140657Y-70263615D01*
X88705793Y-70263615D01*
X88270930Y-70263615D01*
X88270930Y-70046183D01*
X88270930Y-69828751D01*
X88488362Y-69828751D01*
X88705793Y-69828751D01*
X88705793Y-69393888D01*
X88705793Y-68959024D01*
X88488362Y-68959024D01*
X88270930Y-68959024D01*
X88270930Y-68741592D01*
X88270930Y-68524160D01*
X88488362Y-68524160D01*
X88705793Y-68524160D01*
X88705793Y-68741592D01*
X88705793Y-68959024D01*
X88923225Y-68959024D01*
X89140657Y-68959024D01*
X89140657Y-68741592D01*
X89140657Y-68524160D01*
X89792953Y-68524160D01*
X90445249Y-68524160D01*
X90445249Y-68741592D01*
X90445249Y-68959024D01*
X90010385Y-68959024D01*
X89575521Y-68959024D01*
X89575521Y-69176456D01*
X89575521Y-69393888D01*
X89792953Y-69393888D01*
X90010385Y-69393888D01*
X90010385Y-69611319D01*
X90010385Y-69828751D01*
X90227817Y-69828751D01*
X90445249Y-69828751D01*
X90445249Y-69393888D01*
X90445249Y-68959024D01*
X90662681Y-68959024D01*
X90880112Y-68959024D01*
X90880112Y-69176456D01*
X90880112Y-69393888D01*
X91097544Y-69393888D01*
X91314976Y-69393888D01*
X91314976Y-68524160D01*
X91314976Y-67654432D01*
X91097544Y-67654432D01*
X90880112Y-67654432D01*
X90880112Y-67871864D01*
X90880112Y-68089296D01*
X90010385Y-68089296D01*
X89140657Y-68089296D01*
X89140657Y-67871864D01*
X89140657Y-67654432D01*
X88923225Y-67654432D01*
X88705793Y-67654432D01*
X88705793Y-67219568D01*
X88705793Y-66784705D01*
X89140657Y-66784705D01*
X89575521Y-66784705D01*
X89575521Y-66567273D01*
X89575521Y-66349841D01*
X90010385Y-66349841D01*
X90445249Y-66349841D01*
X90445249Y-66567273D01*
X90445249Y-66784705D01*
X90227817Y-66784705D01*
X90010385Y-66784705D01*
X90010385Y-67002137D01*
X90010385Y-67219568D01*
X89792953Y-67219568D01*
X89575521Y-67219568D01*
X89575521Y-67437000D01*
X89575521Y-67654432D01*
X90227817Y-67654432D01*
X90880112Y-67654432D01*
X90880112Y-67219568D01*
X90880112Y-66784705D01*
X91314976Y-66784705D01*
X91749840Y-66784705D01*
X91749840Y-67002137D01*
X91749840Y-67219568D01*
X91967272Y-67219568D01*
X92184704Y-67219568D01*
X92184704Y-67002137D01*
X92184704Y-66784705D01*
X92619568Y-66784705D01*
X93054432Y-66784705D01*
X93054432Y-67002137D01*
X93054432Y-67219568D01*
X93271863Y-67219568D01*
X93489295Y-67219568D01*
X93489295Y-67002137D01*
X93489295Y-66784705D01*
X93706727Y-66784705D01*
X93924159Y-66784705D01*
X93924159Y-66567273D01*
X93924159Y-66349841D01*
X94576455Y-66349841D01*
X95228751Y-66349841D01*
X95228751Y-66567273D01*
X95228751Y-66784705D01*
X94793887Y-66784705D01*
X94359023Y-66784705D01*
X94359023Y-67002137D01*
X94359023Y-67219568D01*
X94141591Y-67219568D01*
X93924159Y-67219568D01*
X93924159Y-67437000D01*
X93924159Y-67654432D01*
X93706727Y-67654432D01*
X93489295Y-67654432D01*
X93489295Y-67871864D01*
X93489295Y-68089296D01*
X93271863Y-68089296D01*
X93054432Y-68089296D01*
X93054432Y-67654432D01*
X93054432Y-67219568D01*
X92837000Y-67219568D01*
X92619568Y-67219568D01*
X92619568Y-67654432D01*
X92619568Y-68089296D01*
X92402136Y-68089296D01*
X92184704Y-68089296D01*
X92184704Y-67871864D01*
X92184704Y-67654432D01*
X91967272Y-67654432D01*
X91749840Y-67654432D01*
X91749840Y-68306728D01*
X91749840Y-68959024D01*
X92184704Y-68959024D01*
X92619568Y-68959024D01*
X92619568Y-69176456D01*
X92619568Y-69393888D01*
X92184704Y-69393888D01*
X91749840Y-69393888D01*
X91749840Y-69828751D01*
X91749840Y-70263615D01*
X91532408Y-70263615D01*
X91314976Y-70263615D01*
X91314976Y-70481047D01*
X91314976Y-70698479D01*
X91097544Y-70698479D01*
X90880112Y-70698479D01*
X90880112Y-70263615D01*
X90880112Y-69828751D01*
X90662681Y-69828751D01*
X90445249Y-69828751D01*
X90445249Y-70263615D01*
X90445249Y-70698479D01*
X90662681Y-70698479D01*
G37*
G36*
X93924159Y-69176456D02*
G01*
X93924159Y-69828751D01*
X93706727Y-69828751D01*
X93489295Y-69828751D01*
X93489295Y-70046183D01*
X93489295Y-70263615D01*
X93271863Y-70263615D01*
X93054432Y-70263615D01*
X93054432Y-70481047D01*
X93054432Y-70698479D01*
X92837000Y-70698479D01*
X92619568Y-70698479D01*
X92619568Y-70481047D01*
X92619568Y-70263615D01*
X92402136Y-70263615D01*
X92184704Y-70263615D01*
X92184704Y-70046183D01*
X92184704Y-69828751D01*
X92619568Y-69828751D01*
X93054432Y-69828751D01*
X93054432Y-69393888D01*
X93054432Y-68959024D01*
X93271863Y-68959024D01*
X93489295Y-68959024D01*
X93489295Y-68741592D01*
X93489295Y-68524160D01*
X93706727Y-68524160D01*
X93924159Y-68524160D01*
X93924159Y-69176456D01*
G37*
G36*
X89140657Y-68306728D02*
G01*
X89140657Y-68524160D01*
X88923225Y-68524160D01*
X88705793Y-68524160D01*
X88705793Y-68306728D01*
X88705793Y-68089296D01*
X88923225Y-68089296D01*
X89140657Y-68089296D01*
X89140657Y-68306728D01*
G37*
G36*
X94141591Y-67654432D02*
G01*
X94359023Y-67654432D01*
X94359023Y-67871864D01*
X94359023Y-68089296D01*
X94576455Y-68089296D01*
X94793887Y-68089296D01*
X94793887Y-67871864D01*
X94793887Y-67654432D01*
X95011319Y-67654432D01*
X95228751Y-67654432D01*
X95228751Y-67871864D01*
X95228751Y-68089296D01*
X95881046Y-68089296D01*
X96533342Y-68089296D01*
X96533342Y-68306728D01*
X96533342Y-68524160D01*
X95228751Y-68524160D01*
X93924159Y-68524160D01*
X93924159Y-68089296D01*
X93924159Y-67654432D01*
X94141591Y-67654432D01*
G37*
G36*
X97403070Y-67219568D02*
G01*
X97403070Y-68089296D01*
X96968206Y-68089296D01*
X96533342Y-68089296D01*
X96533342Y-67871864D01*
X96533342Y-67654432D01*
X95881046Y-67654432D01*
X95228751Y-67654432D01*
X95228751Y-67219568D01*
X95228751Y-66784705D01*
X95446183Y-66784705D01*
X95663614Y-66784705D01*
X95663614Y-67002137D01*
X95663614Y-67219568D01*
X96315910Y-67219568D01*
X96968206Y-67219568D01*
X96968206Y-67002137D01*
X96968206Y-66784705D01*
X96750774Y-66784705D01*
X96533342Y-66784705D01*
X96533342Y-66567273D01*
X96533342Y-66349841D01*
X96968206Y-66349841D01*
X97403070Y-66349841D01*
X97403070Y-67219568D01*
G37*
G36*
X92184704Y-66567273D02*
G01*
X92184704Y-66784705D01*
X91967272Y-66784705D01*
X91749840Y-66784705D01*
X91749840Y-66567273D01*
X91749840Y-66349841D01*
X91967272Y-66349841D01*
X92184704Y-66349841D01*
X92184704Y-66567273D01*
G37*
G36*
X89140657Y-71785638D02*
G01*
X89140657Y-72003070D01*
X88923225Y-72003070D01*
X88705793Y-72003070D01*
X88705793Y-71785638D01*
X88705793Y-71568207D01*
X88923225Y-71568207D01*
X89140657Y-71568207D01*
X89140657Y-71785638D01*
G37*
G36*
X97403070Y-64392954D02*
G01*
X97403070Y-65914977D01*
X95881046Y-65914977D01*
X94359023Y-65914977D01*
X94359023Y-65480113D01*
X94793887Y-65480113D01*
X95881046Y-65480113D01*
X96968206Y-65480113D01*
X96968206Y-64392954D01*
X96968206Y-63305794D01*
X95881046Y-63305794D01*
X94793887Y-63305794D01*
X94793887Y-64392954D01*
X94793887Y-65480113D01*
X94359023Y-65480113D01*
X94359023Y-64392954D01*
X94359023Y-62870930D01*
X95881046Y-62870930D01*
X97403070Y-62870930D01*
X97403070Y-63305794D01*
X97403070Y-64392954D01*
G37*
G36*
X92619568Y-63088362D02*
G01*
X92619568Y-63305794D01*
X92402136Y-63305794D01*
X92184704Y-63305794D01*
X92184704Y-63523226D01*
X92184704Y-63740658D01*
X92402136Y-63740658D01*
X92619568Y-63740658D01*
X92619568Y-63523226D01*
X92619568Y-63305794D01*
X92837000Y-63305794D01*
X93054432Y-63305794D01*
X93054432Y-63958090D01*
X93054432Y-64610386D01*
X93271863Y-64610386D01*
X93489295Y-64610386D01*
X93489295Y-64392954D01*
X93489295Y-64175522D01*
X93706727Y-64175522D01*
X93924159Y-64175522D01*
X93924159Y-64610386D01*
X93924159Y-65045249D01*
X93706727Y-65045249D01*
X93489295Y-65045249D01*
X93489295Y-65262681D01*
X93489295Y-65480113D01*
X93271863Y-65480113D01*
X93054432Y-65480113D01*
X93054432Y-65697545D01*
X93054432Y-65914977D01*
X92837000Y-65914977D01*
X92619568Y-65914977D01*
X92619568Y-65697545D01*
X92619568Y-65480113D01*
X92402136Y-65480113D01*
X92184704Y-65480113D01*
X92184704Y-65697545D01*
X92184704Y-65914977D01*
X91967272Y-65914977D01*
X91749840Y-65914977D01*
X91749840Y-65480113D01*
X91749840Y-65045249D01*
X92184704Y-65045249D01*
X92619568Y-65045249D01*
X92619568Y-65262681D01*
X92619568Y-65480113D01*
X92837000Y-65480113D01*
X93054432Y-65480113D01*
X93054432Y-65045249D01*
X93054432Y-64610386D01*
X92402136Y-64610386D01*
X91749840Y-64610386D01*
X91749840Y-64392954D01*
X91749840Y-64175522D01*
X91967272Y-64175522D01*
X92184704Y-64175522D01*
X92184704Y-63958090D01*
X92184704Y-63740658D01*
X91967272Y-63740658D01*
X91749840Y-63740658D01*
X91749840Y-63305794D01*
X91749840Y-62870930D01*
X92184704Y-62870930D01*
X92619568Y-62870930D01*
X92619568Y-63088362D01*
G37*
G36*
X93706727Y-65480113D02*
G01*
X93924159Y-65480113D01*
X93924159Y-65697545D01*
X93924159Y-65914977D01*
X93706727Y-65914977D01*
X93489295Y-65914977D01*
X93489295Y-65697545D01*
X93489295Y-65480113D01*
X93706727Y-65480113D01*
G37*
G36*
X91314976Y-64392954D02*
G01*
X91314976Y-65914977D01*
X89792953Y-65914977D01*
X88270930Y-65914977D01*
X88270930Y-65480113D01*
X88705793Y-65480113D01*
X89792953Y-65480113D01*
X90880112Y-65480113D01*
X90880112Y-64392954D01*
X90880112Y-63305794D01*
X89792953Y-63305794D01*
X88705793Y-63305794D01*
X88705793Y-64392954D01*
X88705793Y-65480113D01*
X88270930Y-65480113D01*
X88270930Y-64392954D01*
X88270930Y-62870930D01*
X89792953Y-62870930D01*
X91314976Y-62870930D01*
X91314976Y-63305794D01*
X91314976Y-64392954D01*
G37*
G36*
X96533342Y-70481047D02*
G01*
X96533342Y-71133343D01*
X95881046Y-71133343D01*
X95228751Y-71133343D01*
X95228751Y-70481047D01*
X95228751Y-69828751D01*
X95881046Y-69828751D01*
X96533342Y-69828751D01*
X96533342Y-70481047D01*
G37*
G36*
X93054432Y-68306728D02*
G01*
X93054432Y-68524160D01*
X92837000Y-68524160D01*
X92619568Y-68524160D01*
X92619568Y-68306728D01*
X92619568Y-68089296D01*
X92837000Y-68089296D01*
X93054432Y-68089296D01*
X93054432Y-68306728D01*
G37*
G36*
X94793887Y-67437000D02*
G01*
X94793887Y-67654432D01*
X94576455Y-67654432D01*
X94359023Y-67654432D01*
X94359023Y-67437000D01*
X94359023Y-67219568D01*
X94576455Y-67219568D01*
X94793887Y-67219568D01*
X94793887Y-67437000D01*
G37*
G36*
X96533342Y-64392954D02*
G01*
X96533342Y-65045249D01*
X95881046Y-65045249D01*
X95228751Y-65045249D01*
X95228751Y-64392954D01*
X95228751Y-63740658D01*
X95881046Y-63740658D01*
X96533342Y-63740658D01*
X96533342Y-64392954D01*
G37*
G36*
X90445249Y-64392954D02*
G01*
X90445249Y-65045249D01*
X89792953Y-65045249D01*
X89140657Y-65045249D01*
X89140657Y-64392954D01*
X89140657Y-63740658D01*
X89792953Y-63740658D01*
X90445249Y-63740658D01*
X90445249Y-64392954D01*
G37*
G36*
X134251334Y-91218735D02*
G01*
X134251334Y-91653665D01*
X133843000Y-91644294D01*
X133434667Y-91634922D01*
X133425338Y-91209364D01*
X133416009Y-90783805D01*
X133833671Y-90783805D01*
X134251334Y-90783805D01*
X134251334Y-91218735D01*
G37*
G36*
X134251334Y-86194449D02*
G01*
X134251334Y-86611663D01*
X133834667Y-86611663D01*
X133418000Y-86611663D01*
X133418000Y-86194449D01*
X133418000Y-85777235D01*
X133834667Y-85777235D01*
X134251334Y-85777235D01*
X134251334Y-86194449D01*
G37*
G36*
X132584667Y-91484725D02*
G01*
X132584667Y-92185645D01*
X132451334Y-92185645D01*
X132318000Y-92185645D01*
X132318000Y-91484725D01*
X132318000Y-90783805D01*
X132451334Y-90783805D01*
X132584667Y-90783805D01*
X132584667Y-91484725D01*
G37*
G36*
X132584667Y-86878680D02*
G01*
X132584667Y-87145697D01*
X132451334Y-87145697D01*
X132318000Y-87145697D01*
X132318000Y-86878680D01*
X132318000Y-86611663D01*
X132451334Y-86611663D01*
X132584667Y-86611663D01*
X132584667Y-86878680D01*
G37*
G36*
X129784667Y-90383280D02*
G01*
X129784667Y-90516788D01*
X129651334Y-90516788D01*
X129518000Y-90516788D01*
X129518000Y-90383280D01*
X129518000Y-90249771D01*
X129651334Y-90249771D01*
X129784667Y-90249771D01*
X129784667Y-90383280D01*
G37*
G36*
X128684667Y-88147012D02*
G01*
X128684667Y-88280520D01*
X128534667Y-88280520D01*
X128384667Y-88280520D01*
X128384667Y-88147012D01*
X128384667Y-88013503D01*
X128534667Y-88013503D01*
X128684667Y-88013503D01*
X128684667Y-88147012D01*
G37*
G36*
X128384667Y-87579600D02*
G01*
X128384667Y-87713109D01*
X128251334Y-87713109D01*
X128118000Y-87713109D01*
X128118000Y-87579600D01*
X128118000Y-87446092D01*
X128251334Y-87446092D01*
X128384667Y-87446092D01*
X128384667Y-87579600D01*
G37*
G36*
X128384667Y-88697734D02*
G01*
X128384667Y-88847931D01*
X128118000Y-88847931D01*
X127851334Y-88847931D01*
X127851334Y-88697734D01*
X127851334Y-88547537D01*
X128118000Y-88547537D01*
X128384667Y-88547537D01*
X128384667Y-88697734D01*
G37*
G36*
X128118000Y-87863306D02*
G01*
X128118000Y-88013503D01*
X127984667Y-88013503D01*
X127851334Y-88013503D01*
X127851334Y-87863306D01*
X127851334Y-87713109D01*
X127984667Y-87713109D01*
X128118000Y-87713109D01*
X128118000Y-87863306D01*
G37*
G36*
X129251334Y-86172198D02*
G01*
X129249581Y-86324184D01*
X129244612Y-86456289D01*
X129237206Y-86549699D01*
X129228138Y-86590387D01*
X129228046Y-86590476D01*
X129186938Y-86598718D01*
X129093186Y-86604070D01*
X128960637Y-86606080D01*
X128803138Y-86604294D01*
X128401334Y-86594975D01*
X128391975Y-86186105D01*
X128382615Y-85777235D01*
X128816975Y-85777235D01*
X129251334Y-85777235D01*
X129251334Y-86172198D01*
G37*
G36*
X134818000Y-91217708D02*
G01*
X134818000Y-92185645D01*
X133834667Y-92185645D01*
X132851334Y-92185645D01*
X132851334Y-91918628D01*
X133151334Y-91918628D01*
X133851334Y-91918628D01*
X134551334Y-91918628D01*
X134551334Y-91217708D01*
X134551334Y-90516788D01*
X133851334Y-90516788D01*
X133151334Y-90516788D01*
X133151334Y-91217708D01*
X133151334Y-91918628D01*
X132851334Y-91918628D01*
X132851334Y-91217708D01*
X132851334Y-90249771D01*
X133834667Y-90249771D01*
X134818000Y-90249771D01*
X134818000Y-90516788D01*
X134818000Y-91217708D01*
G37*
G36*
X134818000Y-86177761D02*
G01*
X134818000Y-87145697D01*
X133834667Y-87145697D01*
X132851334Y-87145697D01*
X132851334Y-86878680D01*
X133151334Y-86878680D01*
X133851334Y-86878680D01*
X134551334Y-86878680D01*
X134551334Y-86177761D01*
X134551334Y-85476841D01*
X133851334Y-85476841D01*
X133151334Y-85476841D01*
X133151334Y-86177761D01*
X133151334Y-86878680D01*
X132851334Y-86878680D01*
X132851334Y-86177761D01*
X132851334Y-85209824D01*
X133834667Y-85209824D01*
X134818000Y-85209824D01*
X134818000Y-85476841D01*
X134818000Y-86177761D01*
G37*
G36*
X129784667Y-86177761D02*
G01*
X129784667Y-87145697D01*
X128818000Y-87145697D01*
X127851334Y-87145697D01*
X127851334Y-86878680D01*
X128118000Y-86878680D01*
X128818000Y-86878680D01*
X129518000Y-86878680D01*
X129518000Y-86177761D01*
X129518000Y-85476841D01*
X128818000Y-85476841D01*
X128118000Y-85476841D01*
X128118000Y-86177761D01*
X128118000Y-86878680D01*
X127851334Y-86878680D01*
X127851334Y-86177761D01*
X127851334Y-85209824D01*
X128818000Y-85209824D01*
X129784667Y-85209824D01*
X129784667Y-85476841D01*
X129784667Y-86177761D01*
G37*
G36*
X132301976Y-94388807D02*
G01*
X132318656Y-94423026D01*
X132348963Y-94503365D01*
X132386827Y-94613831D01*
X132388144Y-94617825D01*
X132427131Y-94735412D01*
X132458814Y-94829788D01*
X132476444Y-94880849D01*
X132469550Y-94903321D01*
X132414511Y-94918076D01*
X132301334Y-94922570D01*
X132199964Y-94919248D01*
X132137483Y-94906002D01*
X132126223Y-94880849D01*
X132126507Y-94880075D01*
X132144701Y-94827286D01*
X132176729Y-94731837D01*
X132215841Y-94613831D01*
X132219506Y-94602752D01*
X132256925Y-94494406D01*
X132286224Y-94417669D01*
X132301334Y-94388536D01*
X132301976Y-94388807D01*
G37*
G36*
X132451334Y-86044252D02*
G01*
X132584667Y-86044252D01*
X132584667Y-86177761D01*
X132584667Y-86311269D01*
X132301334Y-86311269D01*
X132018000Y-86311269D01*
X132018000Y-86728483D01*
X132018000Y-87145697D01*
X131884667Y-87145697D01*
X131751334Y-87145697D01*
X131751334Y-86728483D01*
X131751334Y-86311269D01*
X131884667Y-86311269D01*
X132018000Y-86311269D01*
X132018000Y-86177761D01*
X132018000Y-86044252D01*
X131884667Y-86044252D01*
X131751334Y-86044252D01*
X131751334Y-86177761D01*
X131751334Y-86311269D01*
X131618806Y-86311269D01*
X131486279Y-86311269D01*
X131477140Y-86870336D01*
X131468000Y-87429403D01*
X131326334Y-87439666D01*
X131184667Y-87449930D01*
X131184667Y-87164305D01*
X131184667Y-86878680D01*
X131051334Y-86878680D01*
X130918000Y-86878680D01*
X130918000Y-87012189D01*
X130918000Y-87145697D01*
X130768000Y-87145697D01*
X130618000Y-87145697D01*
X130618000Y-86878680D01*
X130618000Y-86611663D01*
X130484667Y-86611663D01*
X130351334Y-86611663D01*
X130351334Y-86327958D01*
X130351334Y-86044252D01*
X130484667Y-86044252D01*
X130618000Y-86044252D01*
X130618000Y-86327958D01*
X130618000Y-86611663D01*
X130901334Y-86611663D01*
X131184667Y-86611663D01*
X131184667Y-86329877D01*
X131184667Y-86048090D01*
X131326334Y-86037827D01*
X131374625Y-86033863D01*
X131439809Y-86019106D01*
X131467702Y-85981237D01*
X131478346Y-85902399D01*
X131488692Y-85777235D01*
X131203346Y-85777235D01*
X130918000Y-85777235D01*
X130918000Y-85910743D01*
X130918000Y-86044252D01*
X130768000Y-86044252D01*
X130618000Y-86044252D01*
X130618000Y-85760546D01*
X130618000Y-85476841D01*
X130351334Y-85476841D01*
X130084667Y-85476841D01*
X130084667Y-85343332D01*
X130084667Y-85209824D01*
X130501334Y-85209824D01*
X130918000Y-85209824D01*
X130918000Y-85343332D01*
X130918000Y-85476841D01*
X131334667Y-85476841D01*
X131751334Y-85476841D01*
X131751334Y-85627038D01*
X131751334Y-85777235D01*
X131884667Y-85777235D01*
X132018000Y-85777235D01*
X132018000Y-85493529D01*
X132018000Y-85209824D01*
X132168000Y-85209824D01*
X132318000Y-85209824D01*
X132318000Y-85343332D01*
X132318000Y-85476841D01*
X132451334Y-85476841D01*
X132584667Y-85476841D01*
X132584667Y-85627038D01*
X132584667Y-85777235D01*
X132451334Y-85777235D01*
X132318000Y-85777235D01*
X132318000Y-85910743D01*
X132318000Y-86044252D01*
X132451334Y-86044252D01*
G37*
G36*
X136318044Y-91055705D02*
G01*
X136318101Y-91695252D01*
X136318054Y-92275622D01*
X136317818Y-92799766D01*
X136317306Y-93270631D01*
X136316435Y-93691169D01*
X136315118Y-94064329D01*
X136313272Y-94393060D01*
X136310810Y-94680312D01*
X136307648Y-94929035D01*
X136303701Y-95142178D01*
X136301724Y-95216263D01*
X136298883Y-95322691D01*
X136296143Y-95394284D01*
X136293110Y-95473524D01*
X136286295Y-95597627D01*
X136278355Y-95697948D01*
X136269205Y-95777439D01*
X136258758Y-95839047D01*
X136246929Y-95885724D01*
X136233635Y-95920418D01*
X136218789Y-95946079D01*
X136202307Y-95965658D01*
X136184104Y-95982103D01*
X136164093Y-95998364D01*
X136142191Y-96017391D01*
X136058962Y-96078382D01*
X135964024Y-96123235D01*
X135943888Y-96125397D01*
X135859884Y-96128700D01*
X135715553Y-96131795D01*
X135514797Y-96134662D01*
X135261517Y-96137282D01*
X134959614Y-96139635D01*
X134612988Y-96141703D01*
X134225543Y-96143465D01*
X133801178Y-96144903D01*
X133343795Y-96145997D01*
X132857295Y-96146728D01*
X132345579Y-96147076D01*
X131812549Y-96147023D01*
X131262105Y-96146548D01*
X126656210Y-96140835D01*
X126562105Y-96071012D01*
X126554432Y-96065148D01*
X126469175Y-95984530D01*
X126393000Y-95890846D01*
X126318000Y-95780504D01*
X126318013Y-94288404D01*
X127780239Y-94288404D01*
X128099120Y-94288404D01*
X128418000Y-94288404D01*
X128418000Y-94471979D01*
X128418000Y-94655553D01*
X128151334Y-94655553D01*
X128038950Y-94656059D01*
X127951048Y-94660399D01*
X127905102Y-94672831D01*
X127887509Y-94697612D01*
X127884667Y-94738996D01*
X127886285Y-94774162D01*
X127900156Y-94801667D01*
X127939886Y-94816044D01*
X128019078Y-94821549D01*
X128151334Y-94822439D01*
X128418000Y-94822439D01*
X128418000Y-95006013D01*
X128418000Y-95189587D01*
X128101334Y-95189587D01*
X127784667Y-95189587D01*
X127784667Y-95289718D01*
X127784667Y-95389850D01*
X128185713Y-95389850D01*
X128206073Y-95389831D01*
X128384746Y-95387261D01*
X128505336Y-95379795D01*
X128575572Y-95366641D01*
X128603179Y-95347006D01*
X128607509Y-95309319D01*
X128610919Y-95213931D01*
X128612635Y-95073621D01*
X128884667Y-95073621D01*
X128884667Y-95389850D01*
X128968000Y-95389850D01*
X129051334Y-95389850D01*
X129051334Y-95004043D01*
X129053281Y-94858733D01*
X129058815Y-94737859D01*
X129067070Y-94658883D01*
X129077179Y-94634230D01*
X129084309Y-94642392D01*
X129116281Y-94699447D01*
X129162939Y-94797000D01*
X129216876Y-94919905D01*
X129244624Y-94984794D01*
X129294700Y-95092200D01*
X129334109Y-95154173D01*
X129371627Y-95182584D01*
X129416031Y-95189304D01*
X129438582Y-95187879D01*
X129478455Y-95171988D01*
X129515892Y-95128910D01*
X129559529Y-95046878D01*
X129618000Y-94914130D01*
X129734667Y-94639239D01*
X129751334Y-95006200D01*
X129768000Y-95373161D01*
X129859667Y-95383723D01*
X129951334Y-95394284D01*
X129951334Y-95373161D01*
X130668000Y-95373161D01*
X130751334Y-95382862D01*
X130753817Y-95383130D01*
X130788680Y-95380412D01*
X130825160Y-95359823D01*
X130869795Y-95313487D01*
X130929121Y-95233532D01*
X131009678Y-95112084D01*
X131118000Y-94941272D01*
X131401334Y-94489981D01*
X131410608Y-94939916D01*
X131419882Y-95389850D01*
X131519661Y-95389850D01*
X131619440Y-95389850D01*
X131619322Y-95381506D01*
X131752221Y-95381506D01*
X131778823Y-95387326D01*
X131846805Y-95389850D01*
X131860602Y-95389624D01*
X131917908Y-95376760D01*
X131958646Y-95332258D01*
X131999562Y-95239653D01*
X132056848Y-95089456D01*
X132299759Y-95089456D01*
X132542670Y-95089456D01*
X132584667Y-95239653D01*
X132593342Y-95269802D01*
X132623467Y-95347958D01*
X132661211Y-95382242D01*
X132722333Y-95389850D01*
X132789104Y-95382593D01*
X132818000Y-95364437D01*
X132816364Y-95356351D01*
X132797889Y-95296865D01*
X132762358Y-95191702D01*
X132714154Y-95053127D01*
X132712246Y-95047734D01*
X132851458Y-95047734D01*
X132851488Y-95049320D01*
X132877632Y-95121587D01*
X132940187Y-95208864D01*
X133020769Y-95289487D01*
X133100993Y-95341793D01*
X133171689Y-95364437D01*
X133201155Y-95373875D01*
X133366752Y-95378555D01*
X133521890Y-95317678D01*
X133668000Y-95190862D01*
X133696981Y-95150924D01*
X133716511Y-95098861D01*
X133727950Y-95021585D01*
X133728123Y-95017836D01*
X133918000Y-95017836D01*
X133935850Y-95137590D01*
X134009259Y-95258893D01*
X134137953Y-95343310D01*
X134169640Y-95355447D01*
X134359794Y-95386906D01*
X134564835Y-95355349D01*
X134780395Y-95261335D01*
X134859456Y-95216263D01*
X134791176Y-95147893D01*
X134778064Y-95134928D01*
X134732671Y-95100720D01*
X134685202Y-95101286D01*
X134607077Y-95134555D01*
X134512953Y-95167599D01*
X134382482Y-95187085D01*
X134262844Y-95180766D01*
X134179029Y-95147866D01*
X134123014Y-95086321D01*
X134104064Y-95004543D01*
X134143908Y-94928647D01*
X134238231Y-94865535D01*
X134382715Y-94822111D01*
X134500549Y-94795138D01*
X134624552Y-94743529D01*
X134704410Y-94668976D01*
X134753215Y-94562296D01*
X134769081Y-94481479D01*
X134753553Y-94336767D01*
X134682407Y-94216428D01*
X134561376Y-94133285D01*
X134469038Y-94107154D01*
X134312304Y-94097489D01*
X134156116Y-94119551D01*
X134030591Y-94171189D01*
X133996565Y-94195536D01*
X133971022Y-94236303D01*
X133993141Y-94290515D01*
X134031722Y-94332064D01*
X134101334Y-94337429D01*
X134196788Y-94313203D01*
X134338427Y-94296072D01*
X134455185Y-94304064D01*
X134528626Y-94337189D01*
X134568010Y-94387057D01*
X134585611Y-94469751D01*
X134541137Y-94544269D01*
X134437476Y-94606968D01*
X134277515Y-94654202D01*
X134176630Y-94681957D01*
X134078274Y-94736048D01*
X134034134Y-94760323D01*
X133947331Y-94872883D01*
X133918000Y-95017836D01*
X133728123Y-95017836D01*
X133733326Y-94905260D01*
X133734667Y-94736048D01*
X133734667Y-94356271D01*
X133614987Y-94236433D01*
X133605068Y-94226769D01*
X133466604Y-94134420D01*
X133313954Y-94096282D01*
X133161916Y-94111116D01*
X133025284Y-94177681D01*
X132918855Y-94294740D01*
X132876683Y-94367692D01*
X132856761Y-94424822D01*
X132879005Y-94449789D01*
X132945523Y-94455290D01*
X133022576Y-94438410D01*
X133118000Y-94371847D01*
X133139275Y-94351227D01*
X133246944Y-94294916D01*
X133361486Y-94301265D01*
X133469516Y-94370330D01*
X133489316Y-94391118D01*
X133522449Y-94438572D01*
X133541163Y-94499546D01*
X133549458Y-94591772D01*
X133551334Y-94732977D01*
X133548929Y-94872286D01*
X133538873Y-94974510D01*
X133517773Y-95044948D01*
X133482248Y-95101643D01*
X133430103Y-95150903D01*
X133322359Y-95191005D01*
X133207238Y-95176163D01*
X133104253Y-95106144D01*
X133085774Y-95088864D01*
X133015411Y-95046922D01*
X132938545Y-95022769D01*
X132876716Y-95021381D01*
X132851458Y-95047734D01*
X132712246Y-95047734D01*
X132657661Y-94893407D01*
X132597264Y-94724807D01*
X132537345Y-94559593D01*
X132482289Y-94410030D01*
X132436479Y-94288384D01*
X132404299Y-94206920D01*
X132380577Y-94155954D01*
X132336538Y-94102368D01*
X132281523Y-94094073D01*
X132270525Y-94096898D01*
X132242450Y-94116817D01*
X132211158Y-94161235D01*
X132173044Y-94237906D01*
X132124502Y-94354587D01*
X132061928Y-94519032D01*
X131981716Y-94738996D01*
X131966283Y-94781821D01*
X131898507Y-94970227D01*
X131839814Y-95133912D01*
X131793604Y-95263362D01*
X131763274Y-95349064D01*
X131752221Y-95381506D01*
X131619322Y-95381506D01*
X131610387Y-94747340D01*
X131601334Y-94104830D01*
X131518699Y-94104830D01*
X131495017Y-94107924D01*
X131456074Y-94128484D01*
X131408751Y-94175099D01*
X131346600Y-94255587D01*
X131263176Y-94377764D01*
X131152033Y-94549446D01*
X130868000Y-94994062D01*
X130858713Y-94538977D01*
X130849425Y-94083892D01*
X130758713Y-94094361D01*
X130668000Y-94104830D01*
X130668000Y-94738996D01*
X130668000Y-95373161D01*
X129951334Y-95373161D01*
X129951334Y-94738996D01*
X129951334Y-94083708D01*
X129863317Y-94094269D01*
X129856766Y-94095089D01*
X129827797Y-94101419D01*
X129801239Y-94117028D01*
X129773007Y-94149361D01*
X129739017Y-94205862D01*
X129695184Y-94293976D01*
X129637423Y-94421147D01*
X129561650Y-94594819D01*
X129463779Y-94822439D01*
X129413665Y-94939259D01*
X129235309Y-94522044D01*
X129192959Y-94423730D01*
X129129836Y-94283188D01*
X129082082Y-94189710D01*
X129043674Y-94133557D01*
X129008590Y-94104989D01*
X128970810Y-94094269D01*
X128884667Y-94083708D01*
X128884667Y-94736779D01*
X128884667Y-95073621D01*
X128612635Y-95073621D01*
X128612528Y-94899954D01*
X128610466Y-94704497D01*
X128601334Y-94104830D01*
X128201334Y-94104830D01*
X127801334Y-94104830D01*
X127790786Y-94196617D01*
X127780239Y-94288404D01*
X126318013Y-94288404D01*
X126318023Y-93185105D01*
X126701334Y-93185105D01*
X126777256Y-93261130D01*
X126853178Y-93337156D01*
X131277256Y-93345208D01*
X131424085Y-93345470D01*
X132068741Y-93346473D01*
X132650255Y-93347101D01*
X133171528Y-93347332D01*
X133635461Y-93347144D01*
X134044955Y-93346516D01*
X134402911Y-93345425D01*
X134712231Y-93343849D01*
X134975816Y-93341767D01*
X135196566Y-93339157D01*
X135377383Y-93335996D01*
X135521168Y-93332264D01*
X135630822Y-93327937D01*
X135709247Y-93322994D01*
X135759342Y-93317413D01*
X135784010Y-93311173D01*
X135786176Y-93310080D01*
X135809539Y-93299035D01*
X135830585Y-93288231D01*
X135849428Y-93274319D01*
X135866184Y-93253949D01*
X135880967Y-93223771D01*
X135893892Y-93180435D01*
X135905073Y-93120592D01*
X135914625Y-93040891D01*
X135922662Y-92937984D01*
X135929300Y-92808520D01*
X135934652Y-92649149D01*
X135938834Y-92456522D01*
X135941960Y-92227288D01*
X135944144Y-91958099D01*
X135945502Y-91645604D01*
X135946148Y-91286453D01*
X135946196Y-90877297D01*
X135945762Y-90414786D01*
X135944959Y-89895571D01*
X135943903Y-89316300D01*
X135942708Y-88673625D01*
X135934667Y-84243733D01*
X135858741Y-84167712D01*
X135782815Y-84091690D01*
X131318000Y-84091690D01*
X126853186Y-84091690D01*
X126777260Y-84167715D01*
X126701334Y-84243741D01*
X126701334Y-88714423D01*
X126701334Y-93185105D01*
X126318023Y-93185105D01*
X126318052Y-89936097D01*
X126318062Y-89557340D01*
X126318129Y-88855785D01*
X126318284Y-88216535D01*
X126318555Y-87636635D01*
X126318972Y-87113129D01*
X126319564Y-86643060D01*
X126320359Y-86223472D01*
X126321387Y-85851410D01*
X126322676Y-85523916D01*
X126324255Y-85238036D01*
X126326154Y-84990812D01*
X126328400Y-84779289D01*
X126331024Y-84600510D01*
X126334054Y-84451520D01*
X126337519Y-84329362D01*
X126341448Y-84231080D01*
X126345870Y-84153718D01*
X126350814Y-84094319D01*
X126356308Y-84049929D01*
X126362382Y-84017590D01*
X126369065Y-83994346D01*
X126376386Y-83977242D01*
X126379750Y-83970812D01*
X126447993Y-83872754D01*
X126528778Y-83793668D01*
X126622889Y-83724541D01*
X131318000Y-83724541D01*
X136013112Y-83724541D01*
X136107223Y-83793668D01*
X136112512Y-83797662D01*
X136193593Y-83879483D01*
X136259615Y-83977242D01*
X136263256Y-83984976D01*
X136270268Y-84004707D01*
X136276656Y-84032016D01*
X136282449Y-84069863D01*
X136287675Y-84121206D01*
X136292363Y-84189004D01*
X136296543Y-84276215D01*
X136300243Y-84385799D01*
X136303493Y-84520714D01*
X136306322Y-84683919D01*
X136308758Y-84878373D01*
X136310830Y-85107035D01*
X136312568Y-85372863D01*
X136314001Y-85678816D01*
X136315157Y-86027853D01*
X136316066Y-86422933D01*
X136316757Y-86867014D01*
X136317258Y-87363056D01*
X136317598Y-87914017D01*
X136317808Y-88522855D01*
X136317915Y-89192531D01*
X136317949Y-89926001D01*
X136317968Y-90354031D01*
X136318025Y-90877297D01*
X136318044Y-91055705D01*
G37*
G36*
X133418000Y-88547537D02*
G01*
X134251334Y-88547537D01*
X134251334Y-88414029D01*
X134251334Y-88280520D01*
X134118000Y-88280520D01*
X133984667Y-88280520D01*
X133984667Y-88147012D01*
X133984667Y-88013503D01*
X133568000Y-88013503D01*
X133151334Y-88013503D01*
X133151334Y-87861387D01*
X133151334Y-87713109D01*
X133284667Y-87713109D01*
X133418000Y-87713109D01*
X133418000Y-87579600D01*
X133418000Y-87446092D01*
X134118000Y-87446092D01*
X134818000Y-87446092D01*
X134818000Y-87729797D01*
X134818000Y-88013503D01*
X134684667Y-88013503D01*
X134551334Y-88013503D01*
X134551334Y-87865225D01*
X134551334Y-87713109D01*
X134399417Y-87713109D01*
X134247501Y-87713109D01*
X134257751Y-87854962D01*
X134262419Y-87911502D01*
X134278258Y-87972183D01*
X134320686Y-87997378D01*
X134409667Y-88007078D01*
X134551334Y-88017341D01*
X134551334Y-88147012D01*
X134551334Y-88280520D01*
X134684667Y-88280520D01*
X134818000Y-88280520D01*
X134818000Y-88847931D01*
X134818000Y-89114948D01*
X134818000Y-89949377D01*
X134684667Y-89949377D01*
X134551334Y-89949377D01*
X134551334Y-89532163D01*
X134551334Y-89114948D01*
X134401334Y-89114948D01*
X134251334Y-89114948D01*
X134251334Y-89265146D01*
X134251334Y-89415343D01*
X134118000Y-89415343D01*
X133984667Y-89415343D01*
X133984667Y-89265146D01*
X133984667Y-89114948D01*
X134118000Y-89114948D01*
X134251334Y-89114948D01*
X134251334Y-88981440D01*
X134251334Y-88847931D01*
X134118000Y-88847931D01*
X133984667Y-88847931D01*
X133984667Y-88981440D01*
X133984667Y-89114948D01*
X133701334Y-89114948D01*
X133418000Y-89114948D01*
X133418000Y-88981440D01*
X133418000Y-88847931D01*
X133134667Y-88847931D01*
X132851334Y-88847931D01*
X132851334Y-88981440D01*
X132851334Y-89114948D01*
X132718000Y-89114948D01*
X132584667Y-89114948D01*
X132584667Y-89248457D01*
X132584667Y-89381966D01*
X132718000Y-89381966D01*
X132851334Y-89381966D01*
X132851334Y-89248457D01*
X132851334Y-89114948D01*
X133001334Y-89114948D01*
X133151334Y-89114948D01*
X133151334Y-89247107D01*
X133151334Y-89379266D01*
X133426334Y-89388960D01*
X133701334Y-89398654D01*
X133711584Y-89540507D01*
X133721834Y-89682360D01*
X133986584Y-89682360D01*
X134251334Y-89682360D01*
X134251334Y-89815868D01*
X134251334Y-89949377D01*
X133984667Y-89949377D01*
X133718000Y-89949377D01*
X133718000Y-89815868D01*
X133718000Y-89682360D01*
X133434667Y-89682360D01*
X133151334Y-89682360D01*
X133151334Y-89550770D01*
X133151334Y-89415343D01*
X132999322Y-89415343D01*
X132847309Y-89415343D01*
X132857655Y-89540507D01*
X132861708Y-89583177D01*
X132877834Y-89640859D01*
X132920473Y-89665825D01*
X133009667Y-89675935D01*
X133151334Y-89686198D01*
X133151334Y-89815868D01*
X133151334Y-89949377D01*
X132868000Y-89949377D01*
X132584667Y-89949377D01*
X132584667Y-90233082D01*
X132584667Y-90516788D01*
X132451334Y-90516788D01*
X132405335Y-90516472D01*
X132343986Y-90506854D01*
X132321289Y-90469427D01*
X132318000Y-90385199D01*
X132317413Y-90332701D01*
X132305891Y-90276381D01*
X132265067Y-90252806D01*
X132176334Y-90243346D01*
X132119867Y-90238671D01*
X132059266Y-90222811D01*
X132034104Y-90180327D01*
X132024417Y-90091230D01*
X132019786Y-90034683D01*
X132004776Y-89974871D01*
X131965300Y-89952645D01*
X131882751Y-89949377D01*
X131751334Y-89949377D01*
X131751334Y-90233082D01*
X131751334Y-90516788D01*
X131884667Y-90516788D01*
X132018000Y-90516788D01*
X132018000Y-90800494D01*
X132018000Y-91084199D01*
X131884667Y-91084199D01*
X131751334Y-91084199D01*
X131751334Y-90934002D01*
X131751334Y-90783805D01*
X131618000Y-90783805D01*
X131484667Y-90783805D01*
X131484667Y-90934002D01*
X131484667Y-91084199D01*
X131334667Y-91084199D01*
X131184667Y-91084199D01*
X131184667Y-90934002D01*
X131184667Y-90783805D01*
X131051334Y-90783805D01*
X130918000Y-90783805D01*
X130918000Y-90650297D01*
X130918000Y-90516788D01*
X130768000Y-90516788D01*
X130618000Y-90516788D01*
X130618000Y-90384277D01*
X130618000Y-90251765D01*
X131043000Y-90242424D01*
X131468000Y-90233082D01*
X131468000Y-90099574D01*
X131467411Y-90045548D01*
X131455886Y-89988845D01*
X131415060Y-89965223D01*
X131326334Y-89955802D01*
X131269862Y-89951165D01*
X131210128Y-89936135D01*
X131187931Y-89896607D01*
X131184667Y-89813949D01*
X131184667Y-89682360D01*
X131334667Y-89682360D01*
X131484667Y-89682360D01*
X131484667Y-89815868D01*
X131484667Y-89949377D01*
X131618000Y-89949377D01*
X131751334Y-89949377D01*
X131751334Y-89815868D01*
X131751334Y-89682360D01*
X131884667Y-89682360D01*
X132018000Y-89682360D01*
X132018000Y-89815868D01*
X132018000Y-89949377D01*
X132301334Y-89949377D01*
X132584667Y-89949377D01*
X132584667Y-89815868D01*
X132584667Y-89682360D01*
X132301334Y-89682360D01*
X132018000Y-89682360D01*
X132018000Y-89548851D01*
X132018000Y-89415343D01*
X131884667Y-89415343D01*
X131751334Y-89415343D01*
X131751334Y-89548851D01*
X131751334Y-89682360D01*
X131618000Y-89682360D01*
X131484667Y-89682360D01*
X131484667Y-89548851D01*
X131484667Y-89415343D01*
X131201334Y-89415343D01*
X130918000Y-89415343D01*
X130918000Y-89682360D01*
X130918000Y-89949377D01*
X130634667Y-89949377D01*
X130351334Y-89949377D01*
X130351334Y-90233082D01*
X130351334Y-90516788D01*
X130483319Y-90516788D01*
X130615304Y-90516788D01*
X130624693Y-90783805D01*
X130624986Y-90792149D01*
X130634667Y-91067511D01*
X130776334Y-91077774D01*
X130832806Y-91082411D01*
X130892540Y-91097441D01*
X130914736Y-91136970D01*
X130918000Y-91219627D01*
X130918000Y-91351216D01*
X131201334Y-91351216D01*
X131484667Y-91351216D01*
X131484667Y-91217708D01*
X131484667Y-91084199D01*
X131618000Y-91084199D01*
X131751334Y-91084199D01*
X131751334Y-91217708D01*
X131751334Y-91351216D01*
X131884667Y-91351216D01*
X132018000Y-91351216D01*
X132018000Y-91501414D01*
X132018000Y-91651611D01*
X131884667Y-91651611D01*
X131751334Y-91651611D01*
X131751334Y-91785119D01*
X131751334Y-91918628D01*
X131618000Y-91918628D01*
X131484667Y-91918628D01*
X131484667Y-91785119D01*
X131484667Y-91651611D01*
X131334667Y-91651611D01*
X131184667Y-91651611D01*
X131184667Y-91918628D01*
X131184667Y-92185645D01*
X130901334Y-92185645D01*
X130618000Y-92185645D01*
X130618000Y-92052136D01*
X130618000Y-91918628D01*
X130768000Y-91918628D01*
X130918000Y-91918628D01*
X130918000Y-91787038D01*
X130917413Y-91734541D01*
X130905891Y-91678221D01*
X130865067Y-91654646D01*
X130776334Y-91645186D01*
X130719867Y-91640511D01*
X130659266Y-91624651D01*
X130634104Y-91582167D01*
X130624417Y-91493069D01*
X130614167Y-91351216D01*
X130349417Y-91351216D01*
X130084667Y-91351216D01*
X130084667Y-91217708D01*
X130084667Y-91084199D01*
X129934667Y-91084199D01*
X129784667Y-91084199D01*
X129784667Y-91217708D01*
X129784667Y-91351216D01*
X129651334Y-91351216D01*
X129518000Y-91351216D01*
X129518000Y-91217708D01*
X129518000Y-91084199D01*
X129384667Y-91084199D01*
X129251334Y-91084199D01*
X129251334Y-91367905D01*
X129251334Y-91651611D01*
X129801334Y-91651611D01*
X130351334Y-91651611D01*
X130351334Y-91918628D01*
X130351334Y-92185645D01*
X130218000Y-92185645D01*
X130084667Y-92185645D01*
X130084667Y-92052136D01*
X130084667Y-91918628D01*
X129384667Y-91918628D01*
X128684667Y-91918628D01*
X128684667Y-92052136D01*
X128684667Y-92185645D01*
X128268000Y-92185645D01*
X127851334Y-92185645D01*
X127851334Y-92052136D01*
X127851334Y-91918628D01*
X127984667Y-91918628D01*
X128118000Y-91918628D01*
X128118000Y-91785119D01*
X128118000Y-91651611D01*
X128251334Y-91651611D01*
X128384667Y-91651611D01*
X128384667Y-91785119D01*
X128384667Y-91918628D01*
X128534667Y-91918628D01*
X128684667Y-91918628D01*
X128684667Y-91785119D01*
X128684667Y-91651611D01*
X128534667Y-91651611D01*
X128384667Y-91651611D01*
X128384667Y-91501414D01*
X128384667Y-91351216D01*
X128534667Y-91351216D01*
X128684667Y-91351216D01*
X128684667Y-91501414D01*
X128684667Y-91651611D01*
X128818000Y-91651611D01*
X128951334Y-91651611D01*
X128951334Y-91367905D01*
X128951334Y-91084199D01*
X128818000Y-91084199D01*
X128684667Y-91084199D01*
X128684667Y-90800494D01*
X128684667Y-90783805D01*
X129251334Y-90783805D01*
X129669026Y-90783805D01*
X130086719Y-90783805D01*
X130077360Y-90374935D01*
X130068000Y-89966065D01*
X129659667Y-89956694D01*
X129251334Y-89947322D01*
X129251334Y-90365564D01*
X129251334Y-90783805D01*
X128684667Y-90783805D01*
X128684667Y-90516788D01*
X128268000Y-90516788D01*
X127851334Y-90516788D01*
X127851334Y-89949377D01*
X127851334Y-89381966D01*
X128118000Y-89381966D01*
X128384667Y-89381966D01*
X128384667Y-89248457D01*
X128384667Y-89114948D01*
X128536584Y-89114948D01*
X128688500Y-89114948D01*
X128678250Y-89256801D01*
X128673582Y-89313342D01*
X128657743Y-89374022D01*
X128615315Y-89399218D01*
X128526334Y-89408917D01*
X128469862Y-89413555D01*
X128410128Y-89428584D01*
X128387931Y-89468113D01*
X128384667Y-89550770D01*
X128384347Y-89596168D01*
X128374601Y-89656714D01*
X128336678Y-89679114D01*
X128251334Y-89682360D01*
X128118000Y-89682360D01*
X128118000Y-89966065D01*
X128118000Y-90249771D01*
X128401334Y-90249771D01*
X128684667Y-90249771D01*
X128684667Y-90383280D01*
X128684667Y-90516788D01*
X128818000Y-90516788D01*
X128951334Y-90516788D01*
X128951334Y-90233082D01*
X128951334Y-89949377D01*
X128818000Y-89949377D01*
X128684667Y-89949377D01*
X128684667Y-89815868D01*
X128684667Y-89682360D01*
X129234667Y-89682360D01*
X129784667Y-89682360D01*
X129784667Y-89548851D01*
X129784667Y-89415343D01*
X129651334Y-89415343D01*
X129518000Y-89415343D01*
X129518000Y-89381966D01*
X130084667Y-89381966D01*
X130218000Y-89381966D01*
X130351334Y-89381966D01*
X130351334Y-89532163D01*
X130351334Y-89682360D01*
X130484667Y-89682360D01*
X130618000Y-89682360D01*
X130618000Y-89398654D01*
X130618000Y-89114948D01*
X131051334Y-89114948D01*
X131484667Y-89114948D01*
X131484667Y-89248457D01*
X131484667Y-89381966D01*
X131618000Y-89381966D01*
X131751334Y-89381966D01*
X131751334Y-89114948D01*
X131751334Y-88847931D01*
X131884667Y-88847931D01*
X132018000Y-88847931D01*
X132018000Y-88697734D01*
X132018000Y-88547537D01*
X131751334Y-88547537D01*
X131488500Y-88547537D01*
X131478250Y-88689390D01*
X131468000Y-88831243D01*
X130909667Y-88840394D01*
X130351334Y-88849545D01*
X130351334Y-88982247D01*
X130351013Y-89028453D01*
X130341267Y-89089275D01*
X130303345Y-89111722D01*
X130218000Y-89114948D01*
X130084667Y-89114948D01*
X130084667Y-89248457D01*
X130084667Y-89381966D01*
X129518000Y-89381966D01*
X129518000Y-89265146D01*
X129518000Y-89114948D01*
X129386584Y-89114948D01*
X129334155Y-89115537D01*
X129277909Y-89127074D01*
X129254365Y-89167952D01*
X129244917Y-89256801D01*
X129240218Y-89314159D01*
X129225081Y-89373518D01*
X129185071Y-89395474D01*
X129101334Y-89398654D01*
X128968000Y-89398654D01*
X128958319Y-89123293D01*
X128948638Y-88847931D01*
X128816652Y-88847931D01*
X128684667Y-88847931D01*
X128684667Y-88697734D01*
X128684667Y-88547537D01*
X129234667Y-88547537D01*
X129784667Y-88547537D01*
X129784667Y-88699653D01*
X129784667Y-88847931D01*
X129651334Y-88847931D01*
X129518000Y-88847931D01*
X129518000Y-88981440D01*
X129518000Y-89114948D01*
X129651334Y-89114948D01*
X129784667Y-89114948D01*
X129784667Y-88981440D01*
X129784667Y-88851770D01*
X129926334Y-88841506D01*
X129982800Y-88836832D01*
X130043401Y-88820972D01*
X130068564Y-88778488D01*
X130078250Y-88689390D01*
X130088500Y-88547537D01*
X130503250Y-88547537D01*
X130918000Y-88547537D01*
X130918000Y-88414029D01*
X130918000Y-88280520D01*
X130768000Y-88280520D01*
X130618000Y-88280520D01*
X130618000Y-87996814D01*
X130618000Y-87713109D01*
X130768000Y-87713109D01*
X130918000Y-87713109D01*
X130918000Y-87863306D01*
X130918000Y-88013503D01*
X131201334Y-88013503D01*
X131484667Y-88013503D01*
X131484667Y-88147012D01*
X131484667Y-88280520D01*
X131334667Y-88280520D01*
X131184667Y-88280520D01*
X131184667Y-88414029D01*
X131184667Y-88547537D01*
X131336584Y-88547537D01*
X131484667Y-88547537D01*
X131484667Y-88414029D01*
X131484667Y-88280520D01*
X131751334Y-88280520D01*
X132018000Y-88280520D01*
X132018000Y-87996814D01*
X132018000Y-87713109D01*
X131884667Y-87713109D01*
X131751334Y-87713109D01*
X131751334Y-87579600D01*
X131751334Y-87446092D01*
X132451334Y-87446092D01*
X133151334Y-87446092D01*
X133151334Y-87579600D01*
X133151334Y-87709271D01*
X133009667Y-87719534D01*
X132952385Y-87724239D01*
X132893104Y-87739396D01*
X132871176Y-87779459D01*
X132868000Y-87863306D01*
X132868590Y-87917332D01*
X132880115Y-87974034D01*
X132920941Y-87997657D01*
X133009667Y-88007078D01*
X133066139Y-88011715D01*
X133125873Y-88026745D01*
X133148070Y-88066273D01*
X133151334Y-88148931D01*
X133151334Y-88280520D01*
X133001334Y-88280520D01*
X132851334Y-88280520D01*
X132851334Y-88147012D01*
X132851334Y-88013503D01*
X132718000Y-88013503D01*
X132584667Y-88013503D01*
X132584667Y-88280520D01*
X132584667Y-88547537D01*
X133418000Y-88547537D01*
G37*
G36*
X128384667Y-91217708D02*
G01*
X128384667Y-91351216D01*
X128251334Y-91351216D01*
X128118000Y-91351216D01*
X128118000Y-91501414D01*
X128118000Y-91651611D01*
X127984667Y-91651611D01*
X127851334Y-91651611D01*
X127851334Y-91367905D01*
X127851334Y-91084199D01*
X128118000Y-91084199D01*
X128384667Y-91084199D01*
X128384667Y-91217708D01*
G37*
G36*
X128951334Y-87579600D02*
G01*
X128951334Y-87713109D01*
X129084667Y-87713109D01*
X129218000Y-87713109D01*
X129218000Y-87579600D01*
X129218000Y-87446092D01*
X129368000Y-87446092D01*
X129518000Y-87446092D01*
X129518000Y-87729797D01*
X129518000Y-88013503D01*
X129651334Y-88013503D01*
X129784667Y-88013503D01*
X129784667Y-87729797D01*
X129784667Y-87446092D01*
X129934667Y-87446092D01*
X130084667Y-87446092D01*
X130084667Y-87579600D01*
X130084667Y-87713109D01*
X130218000Y-87713109D01*
X130351334Y-87713109D01*
X130351334Y-87579600D01*
X130351334Y-87446092D01*
X130484667Y-87446092D01*
X130618000Y-87446092D01*
X130618000Y-87579600D01*
X130618000Y-87713109D01*
X130484667Y-87713109D01*
X130351334Y-87713109D01*
X130351334Y-87863306D01*
X130351334Y-88013503D01*
X130218000Y-88013503D01*
X130084667Y-88013503D01*
X130084667Y-88147012D01*
X130084667Y-88280520D01*
X129801334Y-88280520D01*
X129518000Y-88280520D01*
X129518000Y-88147012D01*
X129518000Y-88013503D01*
X129384667Y-88013503D01*
X129251334Y-88013503D01*
X129251334Y-88147012D01*
X129251334Y-88280520D01*
X129101334Y-88280520D01*
X128951334Y-88280520D01*
X128951334Y-87996814D01*
X128951334Y-87713109D01*
X128818000Y-87713109D01*
X128684667Y-87713109D01*
X128684667Y-87579600D01*
X128684667Y-87446092D01*
X128818000Y-87446092D01*
X128951334Y-87446092D01*
X128951334Y-87579600D01*
G37*
G36*
X130351334Y-87028877D02*
G01*
X130351334Y-87446092D01*
X130218000Y-87446092D01*
X130084667Y-87446092D01*
X130084667Y-87028877D01*
X130084667Y-86611663D01*
X130218000Y-86611663D01*
X130351334Y-86611663D01*
X130351334Y-87028877D01*
G37*
G04 #@! TD*
%LPC*%
D11*
G04 #@! TO.C,J1*
X117050000Y-61665000D03*
X111270000Y-61665000D03*
D12*
X118480000Y-62165000D03*
D13*
X118480000Y-57985000D03*
D12*
X109840000Y-62165000D03*
D13*
X109840000Y-57985000D03*
G04 #@! TD*
D14*
G04 #@! TO.C,U3*
X88266962Y-109283715D03*
X90016962Y-109283715D03*
X91516962Y-109283715D03*
X93016962Y-109283715D03*
X94516962Y-109283715D03*
X96016962Y-109283715D03*
X97516962Y-109283715D03*
X99016962Y-109283715D03*
X100516962Y-109283715D03*
X102016962Y-109283715D03*
X103516962Y-109283715D03*
X105016962Y-109283715D03*
X106516962Y-109283715D03*
X108016962Y-109283715D03*
X109516962Y-109283715D03*
X111016962Y-109283715D03*
X112516962Y-109283715D03*
X114016962Y-109283715D03*
X115516962Y-109283715D03*
X117016962Y-109283715D03*
X118516962Y-109283715D03*
X120016962Y-109283715D03*
X121516962Y-109283715D03*
X123016962Y-109283715D03*
X124516962Y-109283715D03*
X126016962Y-109283715D03*
X127516962Y-109283715D03*
X129016962Y-109283715D03*
X130516962Y-109283715D03*
X132016962Y-109283715D03*
X133516962Y-109283715D03*
X135266962Y-109283715D03*
G04 #@! TD*
D15*
G04 #@! TO.C,J3*
X119560000Y-90690000D03*
D16*
X122100000Y-90690000D03*
D15*
X124640000Y-90690000D03*
X119560000Y-87515000D03*
X124640000Y-87515000D03*
D16*
X121084000Y-85610000D03*
X123116000Y-85610000D03*
G04 #@! TD*
D17*
G04 #@! TO.C,*
X111770000Y-101359673D03*
G04 #@! TD*
D18*
G04 #@! TO.C,J2*
X125345000Y-61375000D03*
D19*
X127885000Y-61375000D03*
G04 #@! TD*
%LPD*%
M02*
