G04 #@! TF.GenerationSoftware,KiCad,Pcbnew,7.0.11*
G04 #@! TF.CreationDate,2024-02-24T15:31:06+03:00*
G04 #@! TF.ProjectId,GameboyCartridgeV1.1,47616d65-626f-4794-9361-727472696467,rev?*
G04 #@! TF.SameCoordinates,Original*
G04 #@! TF.FileFunction,Legend,Top*
G04 #@! TF.FilePolarity,Positive*
%FSLAX46Y46*%
G04 Gerber Fmt 4.6, Leading zero omitted, Abs format (unit mm)*
G04 Created by KiCad (PCBNEW 7.0.11) date 2024-02-24 15:31:06*
%MOMM*%
%LPD*%
G01*
G04 APERTURE LIST*
G04 Aperture macros list*
%AMRoundRect*
0 Rectangle with rounded corners*
0 $1 Rounding radius*
0 $2 $3 $4 $5 $6 $7 $8 $9 X,Y pos of 4 corners*
0 Add a 4 corners polygon primitive as box body*
4,1,4,$2,$3,$4,$5,$6,$7,$8,$9,$2,$3,0*
0 Add four circle primitives for the rounded corners*
1,1,$1+$1,$2,$3*
1,1,$1+$1,$4,$5*
1,1,$1+$1,$6,$7*
1,1,$1+$1,$8,$9*
0 Add four rect primitives between the rounded corners*
20,1,$1+$1,$2,$3,$4,$5,0*
20,1,$1+$1,$4,$5,$6,$7,0*
20,1,$1+$1,$6,$7,$8,$9,0*
20,1,$1+$1,$8,$9,$2,$3,0*%
%AMFreePoly0*
4,1,19,0.550000,-0.750000,0.000000,-0.750000,0.000000,-0.744911,-0.071157,-0.744911,-0.207708,-0.704816,-0.327430,-0.627875,-0.420627,-0.520320,-0.479746,-0.390866,-0.500000,-0.250000,-0.500000,0.250000,-0.479746,0.390866,-0.420627,0.520320,-0.327430,0.627875,-0.207708,0.704816,-0.071157,0.744911,0.000000,0.744911,0.000000,0.750000,0.550000,0.750000,0.550000,-0.750000,0.550000,-0.750000,
$1*%
%AMFreePoly1*
4,1,19,0.000000,0.744911,0.071157,0.744911,0.207708,0.704816,0.327430,0.627875,0.420627,0.520320,0.479746,0.390866,0.500000,0.250000,0.500000,-0.250000,0.479746,-0.390866,0.420627,-0.520320,0.327430,-0.627875,0.207708,-0.704816,0.071157,-0.744911,0.000000,-0.744911,0.000000,-0.750000,-0.550000,-0.750000,-0.550000,0.750000,0.000000,0.750000,0.000000,0.744911,0.000000,0.744911,
$1*%
%AMFreePoly2*
4,1,19,0.500000,-0.750000,0.000000,-0.750000,0.000000,-0.744911,-0.071157,-0.744911,-0.207708,-0.704816,-0.327430,-0.627875,-0.420627,-0.520320,-0.479746,-0.390866,-0.500000,-0.250000,-0.500000,0.250000,-0.479746,0.390866,-0.420627,0.520320,-0.327430,0.627875,-0.207708,0.704816,-0.071157,0.744911,0.000000,0.744911,0.000000,0.750000,0.500000,0.750000,0.500000,-0.750000,0.500000,-0.750000,
$1*%
%AMFreePoly3*
4,1,19,0.000000,0.744911,0.071157,0.744911,0.207708,0.704816,0.327430,0.627875,0.420627,0.520320,0.479746,0.390866,0.500000,0.250000,0.500000,-0.250000,0.479746,-0.390866,0.420627,-0.520320,0.327430,-0.627875,0.207708,-0.704816,0.071157,-0.744911,0.000000,-0.744911,0.000000,-0.750000,-0.500000,-0.750000,-0.500000,0.750000,0.000000,0.750000,0.000000,0.744911,0.000000,0.744911,
$1*%
G04 Aperture macros list end*
%ADD10C,0.300000*%
%ADD11C,0.200000*%
%ADD12C,0.150000*%
%ADD13C,0.120000*%
%ADD14C,0.152400*%
%ADD15C,0.650000*%
%ADD16R,0.600000X1.150000*%
%ADD17R,0.300000X1.150000*%
%ADD18O,1.000000X2.100000*%
%ADD19O,1.000000X1.800000*%
%ADD20RoundRect,0.237500X-0.300000X-0.237500X0.300000X-0.237500X0.300000X0.237500X-0.300000X0.237500X0*%
%ADD21FreePoly0,90.000000*%
%ADD22FreePoly1,90.000000*%
%ADD23RoundRect,0.237500X-0.237500X0.300000X-0.237500X-0.300000X0.237500X-0.300000X0.237500X0.300000X0*%
%ADD24RoundRect,0.237500X0.237500X-0.250000X0.237500X0.250000X-0.237500X0.250000X-0.237500X-0.250000X0*%
%ADD25RoundRect,0.237500X-0.237500X0.250000X-0.237500X-0.250000X0.237500X-0.250000X0.237500X0.250000X0*%
%ADD26RoundRect,0.375000X-0.625000X-0.375000X0.625000X-0.375000X0.625000X0.375000X-0.625000X0.375000X0*%
%ADD27RoundRect,0.500000X-0.500000X-1.400000X0.500000X-1.400000X0.500000X1.400000X-0.500000X1.400000X0*%
%ADD28RoundRect,0.237500X0.237500X-0.300000X0.237500X0.300000X-0.237500X0.300000X-0.237500X-0.300000X0*%
%ADD29C,0.860000*%
%ADD30RoundRect,0.237500X0.300000X0.237500X-0.300000X0.237500X-0.300000X-0.237500X0.300000X-0.237500X0*%
%ADD31R,1.700000X1.000000*%
%ADD32RoundRect,0.237500X0.250000X0.237500X-0.250000X0.237500X-0.250000X-0.237500X0.250000X-0.237500X0*%
%ADD33R,0.609600X1.625600*%
%ADD34R,3.175000X1.854200*%
%ADD35C,2.374900*%
%ADD36C,0.990600*%
%ADD37C,0.787400*%
%ADD38C,2.000000*%
%ADD39C,7.200000*%
%ADD40RoundRect,0.050000X-0.387500X-0.050000X0.387500X-0.050000X0.387500X0.050000X-0.387500X0.050000X0*%
%ADD41RoundRect,0.050000X-0.050000X-0.387500X0.050000X-0.387500X0.050000X0.387500X-0.050000X0.387500X0*%
%ADD42R,3.200000X3.200000*%
%ADD43R,1.700000X1.700000*%
%ADD44O,1.700000X1.700000*%
%ADD45R,1.400000X1.200000*%
%ADD46RoundRect,0.237500X-0.250000X-0.237500X0.250000X-0.237500X0.250000X0.237500X-0.250000X0.237500X0*%
%ADD47R,1.500000X0.900000*%
%ADD48RoundRect,0.100000X-0.100000X0.637500X-0.100000X-0.637500X0.100000X-0.637500X0.100000X0.637500X0*%
%ADD49FreePoly2,90.000000*%
%ADD50FreePoly3,90.000000*%
%ADD51RoundRect,0.150000X-0.650000X-0.150000X0.650000X-0.150000X0.650000X0.150000X-0.650000X0.150000X0*%
%ADD52RoundRect,0.250000X-0.300000X-0.300000X0.300000X-0.300000X0.300000X0.300000X-0.300000X0.300000X0*%
%ADD53R,0.800000X1.900000*%
%ADD54RoundRect,0.250000X0.300000X0.300000X-0.300000X0.300000X-0.300000X-0.300000X0.300000X-0.300000X0*%
%ADD55R,0.750000X0.250000*%
G04 APERTURE END LIST*
D10*
X123950000Y-96700000D02*
G75*
G03*
X123650000Y-96700000I-150000J0D01*
G01*
X123650000Y-96700000D02*
G75*
G03*
X123950000Y-96700000I150000J0D01*
G01*
D11*
X94400000Y-101900000D02*
G75*
G03*
X94200000Y-101900000I-100000J0D01*
G01*
X94200000Y-101900000D02*
G75*
G03*
X94400000Y-101900000I100000J0D01*
G01*
D10*
X107250000Y-77200000D02*
G75*
G03*
X106950000Y-77200000I-150000J0D01*
G01*
X106950000Y-77200000D02*
G75*
G03*
X107250000Y-77200000I150000J0D01*
G01*
X103450000Y-96700000D02*
G75*
G03*
X103150000Y-96700000I-150000J0D01*
G01*
X103150000Y-96700000D02*
G75*
G03*
X103450000Y-96700000I150000J0D01*
G01*
X104290000Y-64262000D02*
G75*
G03*
X103990000Y-64262000I-150000J0D01*
G01*
X103990000Y-64262000D02*
G75*
G03*
X104290000Y-64262000I150000J0D01*
G01*
X132850000Y-96700000D02*
G75*
G03*
X132550000Y-96700000I-150000J0D01*
G01*
X132550000Y-96700000D02*
G75*
G03*
X132850000Y-96700000I150000J0D01*
G01*
X99550000Y-69800000D02*
G75*
G03*
X99250000Y-69800000I-150000J0D01*
G01*
X99250000Y-69800000D02*
G75*
G03*
X99550000Y-69800000I150000J0D01*
G01*
D12*
X113826666Y-64014819D02*
X113826666Y-64729104D01*
X113826666Y-64729104D02*
X113779047Y-64871961D01*
X113779047Y-64871961D02*
X113683809Y-64967200D01*
X113683809Y-64967200D02*
X113540952Y-65014819D01*
X113540952Y-65014819D02*
X113445714Y-65014819D01*
X114826666Y-65014819D02*
X114255238Y-65014819D01*
X114540952Y-65014819D02*
X114540952Y-64014819D01*
X114540952Y-64014819D02*
X114445714Y-64157676D01*
X114445714Y-64157676D02*
X114350476Y-64252914D01*
X114350476Y-64252914D02*
X114255238Y-64300533D01*
X104709933Y-81200180D02*
X104662314Y-81247800D01*
X104662314Y-81247800D02*
X104519457Y-81295419D01*
X104519457Y-81295419D02*
X104424219Y-81295419D01*
X104424219Y-81295419D02*
X104281362Y-81247800D01*
X104281362Y-81247800D02*
X104186124Y-81152561D01*
X104186124Y-81152561D02*
X104138505Y-81057323D01*
X104138505Y-81057323D02*
X104090886Y-80866847D01*
X104090886Y-80866847D02*
X104090886Y-80723990D01*
X104090886Y-80723990D02*
X104138505Y-80533514D01*
X104138505Y-80533514D02*
X104186124Y-80438276D01*
X104186124Y-80438276D02*
X104281362Y-80343038D01*
X104281362Y-80343038D02*
X104424219Y-80295419D01*
X104424219Y-80295419D02*
X104519457Y-80295419D01*
X104519457Y-80295419D02*
X104662314Y-80343038D01*
X104662314Y-80343038D02*
X104709933Y-80390657D01*
X105281362Y-80723990D02*
X105186124Y-80676371D01*
X105186124Y-80676371D02*
X105138505Y-80628752D01*
X105138505Y-80628752D02*
X105090886Y-80533514D01*
X105090886Y-80533514D02*
X105090886Y-80485895D01*
X105090886Y-80485895D02*
X105138505Y-80390657D01*
X105138505Y-80390657D02*
X105186124Y-80343038D01*
X105186124Y-80343038D02*
X105281362Y-80295419D01*
X105281362Y-80295419D02*
X105471838Y-80295419D01*
X105471838Y-80295419D02*
X105567076Y-80343038D01*
X105567076Y-80343038D02*
X105614695Y-80390657D01*
X105614695Y-80390657D02*
X105662314Y-80485895D01*
X105662314Y-80485895D02*
X105662314Y-80533514D01*
X105662314Y-80533514D02*
X105614695Y-80628752D01*
X105614695Y-80628752D02*
X105567076Y-80676371D01*
X105567076Y-80676371D02*
X105471838Y-80723990D01*
X105471838Y-80723990D02*
X105281362Y-80723990D01*
X105281362Y-80723990D02*
X105186124Y-80771609D01*
X105186124Y-80771609D02*
X105138505Y-80819228D01*
X105138505Y-80819228D02*
X105090886Y-80914466D01*
X105090886Y-80914466D02*
X105090886Y-81104942D01*
X105090886Y-81104942D02*
X105138505Y-81200180D01*
X105138505Y-81200180D02*
X105186124Y-81247800D01*
X105186124Y-81247800D02*
X105281362Y-81295419D01*
X105281362Y-81295419D02*
X105471838Y-81295419D01*
X105471838Y-81295419D02*
X105567076Y-81247800D01*
X105567076Y-81247800D02*
X105614695Y-81200180D01*
X105614695Y-81200180D02*
X105662314Y-81104942D01*
X105662314Y-81104942D02*
X105662314Y-80914466D01*
X105662314Y-80914466D02*
X105614695Y-80819228D01*
X105614695Y-80819228D02*
X105567076Y-80771609D01*
X105567076Y-80771609D02*
X105471838Y-80723990D01*
X99022819Y-79446333D02*
X99737104Y-79446333D01*
X99737104Y-79446333D02*
X99879961Y-79493952D01*
X99879961Y-79493952D02*
X99975200Y-79589190D01*
X99975200Y-79589190D02*
X100022819Y-79732047D01*
X100022819Y-79732047D02*
X100022819Y-79827285D01*
X100022819Y-78970142D02*
X99022819Y-78970142D01*
X99022819Y-78970142D02*
X99022819Y-78589190D01*
X99022819Y-78589190D02*
X99070438Y-78493952D01*
X99070438Y-78493952D02*
X99118057Y-78446333D01*
X99118057Y-78446333D02*
X99213295Y-78398714D01*
X99213295Y-78398714D02*
X99356152Y-78398714D01*
X99356152Y-78398714D02*
X99451390Y-78446333D01*
X99451390Y-78446333D02*
X99499009Y-78493952D01*
X99499009Y-78493952D02*
X99546628Y-78589190D01*
X99546628Y-78589190D02*
X99546628Y-78970142D01*
X99118057Y-78017761D02*
X99070438Y-77970142D01*
X99070438Y-77970142D02*
X99022819Y-77874904D01*
X99022819Y-77874904D02*
X99022819Y-77636809D01*
X99022819Y-77636809D02*
X99070438Y-77541571D01*
X99070438Y-77541571D02*
X99118057Y-77493952D01*
X99118057Y-77493952D02*
X99213295Y-77446333D01*
X99213295Y-77446333D02*
X99308533Y-77446333D01*
X99308533Y-77446333D02*
X99451390Y-77493952D01*
X99451390Y-77493952D02*
X100022819Y-78065380D01*
X100022819Y-78065380D02*
X100022819Y-77446333D01*
X98244819Y-81816285D02*
X98244819Y-82387713D01*
X98244819Y-82101999D02*
X97244819Y-82101999D01*
X97244819Y-82101999D02*
X97387676Y-82197237D01*
X97387676Y-82197237D02*
X97482914Y-82292475D01*
X97482914Y-82292475D02*
X97530533Y-82387713D01*
X97244819Y-77235332D02*
X97244819Y-76616285D01*
X97244819Y-76616285D02*
X97625771Y-76949618D01*
X97625771Y-76949618D02*
X97625771Y-76806761D01*
X97625771Y-76806761D02*
X97673390Y-76711523D01*
X97673390Y-76711523D02*
X97721009Y-76663904D01*
X97721009Y-76663904D02*
X97816247Y-76616285D01*
X97816247Y-76616285D02*
X98054342Y-76616285D01*
X98054342Y-76616285D02*
X98149580Y-76663904D01*
X98149580Y-76663904D02*
X98197200Y-76711523D01*
X98197200Y-76711523D02*
X98244819Y-76806761D01*
X98244819Y-76806761D02*
X98244819Y-77092475D01*
X98244819Y-77092475D02*
X98197200Y-77187713D01*
X98197200Y-77187713D02*
X98149580Y-77235332D01*
X135501142Y-99038580D02*
X135453523Y-99086200D01*
X135453523Y-99086200D02*
X135310666Y-99133819D01*
X135310666Y-99133819D02*
X135215428Y-99133819D01*
X135215428Y-99133819D02*
X135072571Y-99086200D01*
X135072571Y-99086200D02*
X134977333Y-98990961D01*
X134977333Y-98990961D02*
X134929714Y-98895723D01*
X134929714Y-98895723D02*
X134882095Y-98705247D01*
X134882095Y-98705247D02*
X134882095Y-98562390D01*
X134882095Y-98562390D02*
X134929714Y-98371914D01*
X134929714Y-98371914D02*
X134977333Y-98276676D01*
X134977333Y-98276676D02*
X135072571Y-98181438D01*
X135072571Y-98181438D02*
X135215428Y-98133819D01*
X135215428Y-98133819D02*
X135310666Y-98133819D01*
X135310666Y-98133819D02*
X135453523Y-98181438D01*
X135453523Y-98181438D02*
X135501142Y-98229057D01*
X136453523Y-99133819D02*
X135882095Y-99133819D01*
X136167809Y-99133819D02*
X136167809Y-98133819D01*
X136167809Y-98133819D02*
X136072571Y-98276676D01*
X136072571Y-98276676D02*
X135977333Y-98371914D01*
X135977333Y-98371914D02*
X135882095Y-98419533D01*
X137024952Y-98562390D02*
X136929714Y-98514771D01*
X136929714Y-98514771D02*
X136882095Y-98467152D01*
X136882095Y-98467152D02*
X136834476Y-98371914D01*
X136834476Y-98371914D02*
X136834476Y-98324295D01*
X136834476Y-98324295D02*
X136882095Y-98229057D01*
X136882095Y-98229057D02*
X136929714Y-98181438D01*
X136929714Y-98181438D02*
X137024952Y-98133819D01*
X137024952Y-98133819D02*
X137215428Y-98133819D01*
X137215428Y-98133819D02*
X137310666Y-98181438D01*
X137310666Y-98181438D02*
X137358285Y-98229057D01*
X137358285Y-98229057D02*
X137405904Y-98324295D01*
X137405904Y-98324295D02*
X137405904Y-98371914D01*
X137405904Y-98371914D02*
X137358285Y-98467152D01*
X137358285Y-98467152D02*
X137310666Y-98514771D01*
X137310666Y-98514771D02*
X137215428Y-98562390D01*
X137215428Y-98562390D02*
X137024952Y-98562390D01*
X137024952Y-98562390D02*
X136929714Y-98610009D01*
X136929714Y-98610009D02*
X136882095Y-98657628D01*
X136882095Y-98657628D02*
X136834476Y-98752866D01*
X136834476Y-98752866D02*
X136834476Y-98943342D01*
X136834476Y-98943342D02*
X136882095Y-99038580D01*
X136882095Y-99038580D02*
X136929714Y-99086200D01*
X136929714Y-99086200D02*
X137024952Y-99133819D01*
X137024952Y-99133819D02*
X137215428Y-99133819D01*
X137215428Y-99133819D02*
X137310666Y-99086200D01*
X137310666Y-99086200D02*
X137358285Y-99038580D01*
X137358285Y-99038580D02*
X137405904Y-98943342D01*
X137405904Y-98943342D02*
X137405904Y-98752866D01*
X137405904Y-98752866D02*
X137358285Y-98657628D01*
X137358285Y-98657628D02*
X137310666Y-98610009D01*
X137310666Y-98610009D02*
X137215428Y-98562390D01*
X116378819Y-71159666D02*
X115902628Y-71492999D01*
X116378819Y-71731094D02*
X115378819Y-71731094D01*
X115378819Y-71731094D02*
X115378819Y-71350142D01*
X115378819Y-71350142D02*
X115426438Y-71254904D01*
X115426438Y-71254904D02*
X115474057Y-71207285D01*
X115474057Y-71207285D02*
X115569295Y-71159666D01*
X115569295Y-71159666D02*
X115712152Y-71159666D01*
X115712152Y-71159666D02*
X115807390Y-71207285D01*
X115807390Y-71207285D02*
X115855009Y-71254904D01*
X115855009Y-71254904D02*
X115902628Y-71350142D01*
X115902628Y-71350142D02*
X115902628Y-71731094D01*
X115378819Y-70826332D02*
X115378819Y-70207285D01*
X115378819Y-70207285D02*
X115759771Y-70540618D01*
X115759771Y-70540618D02*
X115759771Y-70397761D01*
X115759771Y-70397761D02*
X115807390Y-70302523D01*
X115807390Y-70302523D02*
X115855009Y-70254904D01*
X115855009Y-70254904D02*
X115950247Y-70207285D01*
X115950247Y-70207285D02*
X116188342Y-70207285D01*
X116188342Y-70207285D02*
X116283580Y-70254904D01*
X116283580Y-70254904D02*
X116331200Y-70302523D01*
X116331200Y-70302523D02*
X116378819Y-70397761D01*
X116378819Y-70397761D02*
X116378819Y-70683475D01*
X116378819Y-70683475D02*
X116331200Y-70778713D01*
X116331200Y-70778713D02*
X116283580Y-70826332D01*
X116151819Y-91479666D02*
X115675628Y-91812999D01*
X116151819Y-92051094D02*
X115151819Y-92051094D01*
X115151819Y-92051094D02*
X115151819Y-91670142D01*
X115151819Y-91670142D02*
X115199438Y-91574904D01*
X115199438Y-91574904D02*
X115247057Y-91527285D01*
X115247057Y-91527285D02*
X115342295Y-91479666D01*
X115342295Y-91479666D02*
X115485152Y-91479666D01*
X115485152Y-91479666D02*
X115580390Y-91527285D01*
X115580390Y-91527285D02*
X115628009Y-91574904D01*
X115628009Y-91574904D02*
X115675628Y-91670142D01*
X115675628Y-91670142D02*
X115675628Y-92051094D01*
X115485152Y-90622523D02*
X116151819Y-90622523D01*
X115104200Y-90860618D02*
X115818485Y-91098713D01*
X115818485Y-91098713D02*
X115818485Y-90479666D01*
X94234095Y-64986819D02*
X94234095Y-65796342D01*
X94234095Y-65796342D02*
X94281714Y-65891580D01*
X94281714Y-65891580D02*
X94329333Y-65939200D01*
X94329333Y-65939200D02*
X94424571Y-65986819D01*
X94424571Y-65986819D02*
X94615047Y-65986819D01*
X94615047Y-65986819D02*
X94710285Y-65939200D01*
X94710285Y-65939200D02*
X94757904Y-65891580D01*
X94757904Y-65891580D02*
X94805523Y-65796342D01*
X94805523Y-65796342D02*
X94805523Y-64986819D01*
X95329333Y-65986819D02*
X95519809Y-65986819D01*
X95519809Y-65986819D02*
X95615047Y-65939200D01*
X95615047Y-65939200D02*
X95662666Y-65891580D01*
X95662666Y-65891580D02*
X95757904Y-65748723D01*
X95757904Y-65748723D02*
X95805523Y-65558247D01*
X95805523Y-65558247D02*
X95805523Y-65177295D01*
X95805523Y-65177295D02*
X95757904Y-65082057D01*
X95757904Y-65082057D02*
X95710285Y-65034438D01*
X95710285Y-65034438D02*
X95615047Y-64986819D01*
X95615047Y-64986819D02*
X95424571Y-64986819D01*
X95424571Y-64986819D02*
X95329333Y-65034438D01*
X95329333Y-65034438D02*
X95281714Y-65082057D01*
X95281714Y-65082057D02*
X95234095Y-65177295D01*
X95234095Y-65177295D02*
X95234095Y-65415390D01*
X95234095Y-65415390D02*
X95281714Y-65510628D01*
X95281714Y-65510628D02*
X95329333Y-65558247D01*
X95329333Y-65558247D02*
X95424571Y-65605866D01*
X95424571Y-65605866D02*
X95615047Y-65605866D01*
X95615047Y-65605866D02*
X95710285Y-65558247D01*
X95710285Y-65558247D02*
X95757904Y-65510628D01*
X95757904Y-65510628D02*
X95805523Y-65415390D01*
X111611580Y-71000857D02*
X111659200Y-71048476D01*
X111659200Y-71048476D02*
X111706819Y-71191333D01*
X111706819Y-71191333D02*
X111706819Y-71286571D01*
X111706819Y-71286571D02*
X111659200Y-71429428D01*
X111659200Y-71429428D02*
X111563961Y-71524666D01*
X111563961Y-71524666D02*
X111468723Y-71572285D01*
X111468723Y-71572285D02*
X111278247Y-71619904D01*
X111278247Y-71619904D02*
X111135390Y-71619904D01*
X111135390Y-71619904D02*
X110944914Y-71572285D01*
X110944914Y-71572285D02*
X110849676Y-71524666D01*
X110849676Y-71524666D02*
X110754438Y-71429428D01*
X110754438Y-71429428D02*
X110706819Y-71286571D01*
X110706819Y-71286571D02*
X110706819Y-71191333D01*
X110706819Y-71191333D02*
X110754438Y-71048476D01*
X110754438Y-71048476D02*
X110802057Y-71000857D01*
X111706819Y-70048476D02*
X111706819Y-70619904D01*
X111706819Y-70334190D02*
X110706819Y-70334190D01*
X110706819Y-70334190D02*
X110849676Y-70429428D01*
X110849676Y-70429428D02*
X110944914Y-70524666D01*
X110944914Y-70524666D02*
X110992533Y-70619904D01*
X110802057Y-69667523D02*
X110754438Y-69619904D01*
X110754438Y-69619904D02*
X110706819Y-69524666D01*
X110706819Y-69524666D02*
X110706819Y-69286571D01*
X110706819Y-69286571D02*
X110754438Y-69191333D01*
X110754438Y-69191333D02*
X110802057Y-69143714D01*
X110802057Y-69143714D02*
X110897295Y-69096095D01*
X110897295Y-69096095D02*
X110992533Y-69096095D01*
X110992533Y-69096095D02*
X111135390Y-69143714D01*
X111135390Y-69143714D02*
X111706819Y-69715142D01*
X111706819Y-69715142D02*
X111706819Y-69096095D01*
X113135580Y-71032666D02*
X113183200Y-71080285D01*
X113183200Y-71080285D02*
X113230819Y-71223142D01*
X113230819Y-71223142D02*
X113230819Y-71318380D01*
X113230819Y-71318380D02*
X113183200Y-71461237D01*
X113183200Y-71461237D02*
X113087961Y-71556475D01*
X113087961Y-71556475D02*
X112992723Y-71604094D01*
X112992723Y-71604094D02*
X112802247Y-71651713D01*
X112802247Y-71651713D02*
X112659390Y-71651713D01*
X112659390Y-71651713D02*
X112468914Y-71604094D01*
X112468914Y-71604094D02*
X112373676Y-71556475D01*
X112373676Y-71556475D02*
X112278438Y-71461237D01*
X112278438Y-71461237D02*
X112230819Y-71318380D01*
X112230819Y-71318380D02*
X112230819Y-71223142D01*
X112230819Y-71223142D02*
X112278438Y-71080285D01*
X112278438Y-71080285D02*
X112326057Y-71032666D01*
X112326057Y-70651713D02*
X112278438Y-70604094D01*
X112278438Y-70604094D02*
X112230819Y-70508856D01*
X112230819Y-70508856D02*
X112230819Y-70270761D01*
X112230819Y-70270761D02*
X112278438Y-70175523D01*
X112278438Y-70175523D02*
X112326057Y-70127904D01*
X112326057Y-70127904D02*
X112421295Y-70080285D01*
X112421295Y-70080285D02*
X112516533Y-70080285D01*
X112516533Y-70080285D02*
X112659390Y-70127904D01*
X112659390Y-70127904D02*
X113230819Y-70699332D01*
X113230819Y-70699332D02*
X113230819Y-70080285D01*
X117453580Y-88526857D02*
X117501200Y-88574476D01*
X117501200Y-88574476D02*
X117548819Y-88717333D01*
X117548819Y-88717333D02*
X117548819Y-88812571D01*
X117548819Y-88812571D02*
X117501200Y-88955428D01*
X117501200Y-88955428D02*
X117405961Y-89050666D01*
X117405961Y-89050666D02*
X117310723Y-89098285D01*
X117310723Y-89098285D02*
X117120247Y-89145904D01*
X117120247Y-89145904D02*
X116977390Y-89145904D01*
X116977390Y-89145904D02*
X116786914Y-89098285D01*
X116786914Y-89098285D02*
X116691676Y-89050666D01*
X116691676Y-89050666D02*
X116596438Y-88955428D01*
X116596438Y-88955428D02*
X116548819Y-88812571D01*
X116548819Y-88812571D02*
X116548819Y-88717333D01*
X116548819Y-88717333D02*
X116596438Y-88574476D01*
X116596438Y-88574476D02*
X116644057Y-88526857D01*
X117548819Y-87574476D02*
X117548819Y-88145904D01*
X117548819Y-87860190D02*
X116548819Y-87860190D01*
X116548819Y-87860190D02*
X116691676Y-87955428D01*
X116691676Y-87955428D02*
X116786914Y-88050666D01*
X116786914Y-88050666D02*
X116834533Y-88145904D01*
X116548819Y-87241142D02*
X116548819Y-86622095D01*
X116548819Y-86622095D02*
X116929771Y-86955428D01*
X116929771Y-86955428D02*
X116929771Y-86812571D01*
X116929771Y-86812571D02*
X116977390Y-86717333D01*
X116977390Y-86717333D02*
X117025009Y-86669714D01*
X117025009Y-86669714D02*
X117120247Y-86622095D01*
X117120247Y-86622095D02*
X117358342Y-86622095D01*
X117358342Y-86622095D02*
X117453580Y-86669714D01*
X117453580Y-86669714D02*
X117501200Y-86717333D01*
X117501200Y-86717333D02*
X117548819Y-86812571D01*
X117548819Y-86812571D02*
X117548819Y-87098285D01*
X117548819Y-87098285D02*
X117501200Y-87193523D01*
X117501200Y-87193523D02*
X117453580Y-87241142D01*
X134619342Y-107396010D02*
X135114580Y-107396010D01*
X135114580Y-107396010D02*
X134847914Y-107700772D01*
X134847914Y-107700772D02*
X134962199Y-107700772D01*
X134962199Y-107700772D02*
X135038390Y-107738867D01*
X135038390Y-107738867D02*
X135076485Y-107776962D01*
X135076485Y-107776962D02*
X135114580Y-107853153D01*
X135114580Y-107853153D02*
X135114580Y-108043629D01*
X135114580Y-108043629D02*
X135076485Y-108119819D01*
X135076485Y-108119819D02*
X135038390Y-108157915D01*
X135038390Y-108157915D02*
X134962199Y-108196010D01*
X134962199Y-108196010D02*
X134733628Y-108196010D01*
X134733628Y-108196010D02*
X134657437Y-108157915D01*
X134657437Y-108157915D02*
X134619342Y-108119819D01*
X135419342Y-107472200D02*
X135457438Y-107434105D01*
X135457438Y-107434105D02*
X135533628Y-107396010D01*
X135533628Y-107396010D02*
X135724104Y-107396010D01*
X135724104Y-107396010D02*
X135800295Y-107434105D01*
X135800295Y-107434105D02*
X135838390Y-107472200D01*
X135838390Y-107472200D02*
X135876485Y-107548391D01*
X135876485Y-107548391D02*
X135876485Y-107624581D01*
X135876485Y-107624581D02*
X135838390Y-107738867D01*
X135838390Y-107738867D02*
X135381247Y-108196010D01*
X135381247Y-108196010D02*
X135876485Y-108196010D01*
X88495533Y-108196010D02*
X88038390Y-108196010D01*
X88266962Y-108196010D02*
X88266962Y-107396010D01*
X88266962Y-107396010D02*
X88190771Y-107510295D01*
X88190771Y-107510295D02*
X88114581Y-107586486D01*
X88114581Y-107586486D02*
X88038390Y-107624581D01*
X119721333Y-83577580D02*
X119673714Y-83625200D01*
X119673714Y-83625200D02*
X119530857Y-83672819D01*
X119530857Y-83672819D02*
X119435619Y-83672819D01*
X119435619Y-83672819D02*
X119292762Y-83625200D01*
X119292762Y-83625200D02*
X119197524Y-83529961D01*
X119197524Y-83529961D02*
X119149905Y-83434723D01*
X119149905Y-83434723D02*
X119102286Y-83244247D01*
X119102286Y-83244247D02*
X119102286Y-83101390D01*
X119102286Y-83101390D02*
X119149905Y-82910914D01*
X119149905Y-82910914D02*
X119197524Y-82815676D01*
X119197524Y-82815676D02*
X119292762Y-82720438D01*
X119292762Y-82720438D02*
X119435619Y-82672819D01*
X119435619Y-82672819D02*
X119530857Y-82672819D01*
X119530857Y-82672819D02*
X119673714Y-82720438D01*
X119673714Y-82720438D02*
X119721333Y-82768057D01*
X120626095Y-82672819D02*
X120149905Y-82672819D01*
X120149905Y-82672819D02*
X120102286Y-83149009D01*
X120102286Y-83149009D02*
X120149905Y-83101390D01*
X120149905Y-83101390D02*
X120245143Y-83053771D01*
X120245143Y-83053771D02*
X120483238Y-83053771D01*
X120483238Y-83053771D02*
X120578476Y-83101390D01*
X120578476Y-83101390D02*
X120626095Y-83149009D01*
X120626095Y-83149009D02*
X120673714Y-83244247D01*
X120673714Y-83244247D02*
X120673714Y-83482342D01*
X120673714Y-83482342D02*
X120626095Y-83577580D01*
X120626095Y-83577580D02*
X120578476Y-83625200D01*
X120578476Y-83625200D02*
X120483238Y-83672819D01*
X120483238Y-83672819D02*
X120245143Y-83672819D01*
X120245143Y-83672819D02*
X120149905Y-83625200D01*
X120149905Y-83625200D02*
X120102286Y-83577580D01*
X120846667Y-70767200D02*
X120989524Y-70814819D01*
X120989524Y-70814819D02*
X121227619Y-70814819D01*
X121227619Y-70814819D02*
X121322857Y-70767200D01*
X121322857Y-70767200D02*
X121370476Y-70719580D01*
X121370476Y-70719580D02*
X121418095Y-70624342D01*
X121418095Y-70624342D02*
X121418095Y-70529104D01*
X121418095Y-70529104D02*
X121370476Y-70433866D01*
X121370476Y-70433866D02*
X121322857Y-70386247D01*
X121322857Y-70386247D02*
X121227619Y-70338628D01*
X121227619Y-70338628D02*
X121037143Y-70291009D01*
X121037143Y-70291009D02*
X120941905Y-70243390D01*
X120941905Y-70243390D02*
X120894286Y-70195771D01*
X120894286Y-70195771D02*
X120846667Y-70100533D01*
X120846667Y-70100533D02*
X120846667Y-70005295D01*
X120846667Y-70005295D02*
X120894286Y-69910057D01*
X120894286Y-69910057D02*
X120941905Y-69862438D01*
X120941905Y-69862438D02*
X121037143Y-69814819D01*
X121037143Y-69814819D02*
X121275238Y-69814819D01*
X121275238Y-69814819D02*
X121418095Y-69862438D01*
X121751429Y-69814819D02*
X121989524Y-70814819D01*
X121989524Y-70814819D02*
X122180000Y-70100533D01*
X122180000Y-70100533D02*
X122370476Y-70814819D01*
X122370476Y-70814819D02*
X122608572Y-69814819D01*
X123513333Y-70814819D02*
X122941905Y-70814819D01*
X123227619Y-70814819D02*
X123227619Y-69814819D01*
X123227619Y-69814819D02*
X123132381Y-69957676D01*
X123132381Y-69957676D02*
X123037143Y-70052914D01*
X123037143Y-70052914D02*
X122941905Y-70100533D01*
X134733333Y-84854819D02*
X134400000Y-84378628D01*
X134161905Y-84854819D02*
X134161905Y-83854819D01*
X134161905Y-83854819D02*
X134542857Y-83854819D01*
X134542857Y-83854819D02*
X134638095Y-83902438D01*
X134638095Y-83902438D02*
X134685714Y-83950057D01*
X134685714Y-83950057D02*
X134733333Y-84045295D01*
X134733333Y-84045295D02*
X134733333Y-84188152D01*
X134733333Y-84188152D02*
X134685714Y-84283390D01*
X134685714Y-84283390D02*
X134638095Y-84331009D01*
X134638095Y-84331009D02*
X134542857Y-84378628D01*
X134542857Y-84378628D02*
X134161905Y-84378628D01*
X135209524Y-84854819D02*
X135400000Y-84854819D01*
X135400000Y-84854819D02*
X135495238Y-84807200D01*
X135495238Y-84807200D02*
X135542857Y-84759580D01*
X135542857Y-84759580D02*
X135638095Y-84616723D01*
X135638095Y-84616723D02*
X135685714Y-84426247D01*
X135685714Y-84426247D02*
X135685714Y-84045295D01*
X135685714Y-84045295D02*
X135638095Y-83950057D01*
X135638095Y-83950057D02*
X135590476Y-83902438D01*
X135590476Y-83902438D02*
X135495238Y-83854819D01*
X135495238Y-83854819D02*
X135304762Y-83854819D01*
X135304762Y-83854819D02*
X135209524Y-83902438D01*
X135209524Y-83902438D02*
X135161905Y-83950057D01*
X135161905Y-83950057D02*
X135114286Y-84045295D01*
X135114286Y-84045295D02*
X135114286Y-84283390D01*
X135114286Y-84283390D02*
X135161905Y-84378628D01*
X135161905Y-84378628D02*
X135209524Y-84426247D01*
X135209524Y-84426247D02*
X135304762Y-84473866D01*
X135304762Y-84473866D02*
X135495238Y-84473866D01*
X135495238Y-84473866D02*
X135590476Y-84426247D01*
X135590476Y-84426247D02*
X135638095Y-84378628D01*
X135638095Y-84378628D02*
X135685714Y-84283390D01*
X93872966Y-73913536D02*
X93872966Y-75241696D01*
X93872966Y-75241696D02*
X93951093Y-75397950D01*
X93951093Y-75397950D02*
X94029220Y-75476078D01*
X94029220Y-75476078D02*
X94185474Y-75554205D01*
X94185474Y-75554205D02*
X94497983Y-75554205D01*
X94497983Y-75554205D02*
X94654237Y-75476078D01*
X94654237Y-75476078D02*
X94732364Y-75397950D01*
X94732364Y-75397950D02*
X94810491Y-75241696D01*
X94810491Y-75241696D02*
X94810491Y-73913536D01*
X96294906Y-74460425D02*
X96294906Y-75554205D01*
X95904270Y-73835409D02*
X95513635Y-75007315D01*
X95513635Y-75007315D02*
X96529287Y-75007315D01*
X110196333Y-95101580D02*
X110148714Y-95149200D01*
X110148714Y-95149200D02*
X110005857Y-95196819D01*
X110005857Y-95196819D02*
X109910619Y-95196819D01*
X109910619Y-95196819D02*
X109767762Y-95149200D01*
X109767762Y-95149200D02*
X109672524Y-95053961D01*
X109672524Y-95053961D02*
X109624905Y-94958723D01*
X109624905Y-94958723D02*
X109577286Y-94768247D01*
X109577286Y-94768247D02*
X109577286Y-94625390D01*
X109577286Y-94625390D02*
X109624905Y-94434914D01*
X109624905Y-94434914D02*
X109672524Y-94339676D01*
X109672524Y-94339676D02*
X109767762Y-94244438D01*
X109767762Y-94244438D02*
X109910619Y-94196819D01*
X109910619Y-94196819D02*
X110005857Y-94196819D01*
X110005857Y-94196819D02*
X110148714Y-94244438D01*
X110148714Y-94244438D02*
X110196333Y-94292057D01*
X110529667Y-94196819D02*
X111148714Y-94196819D01*
X111148714Y-94196819D02*
X110815381Y-94577771D01*
X110815381Y-94577771D02*
X110958238Y-94577771D01*
X110958238Y-94577771D02*
X111053476Y-94625390D01*
X111053476Y-94625390D02*
X111101095Y-94673009D01*
X111101095Y-94673009D02*
X111148714Y-94768247D01*
X111148714Y-94768247D02*
X111148714Y-95006342D01*
X111148714Y-95006342D02*
X111101095Y-95101580D01*
X111101095Y-95101580D02*
X111053476Y-95149200D01*
X111053476Y-95149200D02*
X110958238Y-95196819D01*
X110958238Y-95196819D02*
X110672524Y-95196819D01*
X110672524Y-95196819D02*
X110577286Y-95149200D01*
X110577286Y-95149200D02*
X110529667Y-95101580D01*
X106291142Y-99259580D02*
X106243523Y-99307200D01*
X106243523Y-99307200D02*
X106100666Y-99354819D01*
X106100666Y-99354819D02*
X106005428Y-99354819D01*
X106005428Y-99354819D02*
X105862571Y-99307200D01*
X105862571Y-99307200D02*
X105767333Y-99211961D01*
X105767333Y-99211961D02*
X105719714Y-99116723D01*
X105719714Y-99116723D02*
X105672095Y-98926247D01*
X105672095Y-98926247D02*
X105672095Y-98783390D01*
X105672095Y-98783390D02*
X105719714Y-98592914D01*
X105719714Y-98592914D02*
X105767333Y-98497676D01*
X105767333Y-98497676D02*
X105862571Y-98402438D01*
X105862571Y-98402438D02*
X106005428Y-98354819D01*
X106005428Y-98354819D02*
X106100666Y-98354819D01*
X106100666Y-98354819D02*
X106243523Y-98402438D01*
X106243523Y-98402438D02*
X106291142Y-98450057D01*
X106672095Y-98450057D02*
X106719714Y-98402438D01*
X106719714Y-98402438D02*
X106814952Y-98354819D01*
X106814952Y-98354819D02*
X107053047Y-98354819D01*
X107053047Y-98354819D02*
X107148285Y-98402438D01*
X107148285Y-98402438D02*
X107195904Y-98450057D01*
X107195904Y-98450057D02*
X107243523Y-98545295D01*
X107243523Y-98545295D02*
X107243523Y-98640533D01*
X107243523Y-98640533D02*
X107195904Y-98783390D01*
X107195904Y-98783390D02*
X106624476Y-99354819D01*
X106624476Y-99354819D02*
X107243523Y-99354819D01*
X108195904Y-99354819D02*
X107624476Y-99354819D01*
X107910190Y-99354819D02*
X107910190Y-98354819D01*
X107910190Y-98354819D02*
X107814952Y-98497676D01*
X107814952Y-98497676D02*
X107719714Y-98592914D01*
X107719714Y-98592914D02*
X107624476Y-98640533D01*
X125523666Y-84671819D02*
X125523666Y-85386104D01*
X125523666Y-85386104D02*
X125476047Y-85528961D01*
X125476047Y-85528961D02*
X125380809Y-85624200D01*
X125380809Y-85624200D02*
X125237952Y-85671819D01*
X125237952Y-85671819D02*
X125142714Y-85671819D01*
X125904619Y-84671819D02*
X126523666Y-84671819D01*
X126523666Y-84671819D02*
X126190333Y-85052771D01*
X126190333Y-85052771D02*
X126333190Y-85052771D01*
X126333190Y-85052771D02*
X126428428Y-85100390D01*
X126428428Y-85100390D02*
X126476047Y-85148009D01*
X126476047Y-85148009D02*
X126523666Y-85243247D01*
X126523666Y-85243247D02*
X126523666Y-85481342D01*
X126523666Y-85481342D02*
X126476047Y-85576580D01*
X126476047Y-85576580D02*
X126428428Y-85624200D01*
X126428428Y-85624200D02*
X126333190Y-85671819D01*
X126333190Y-85671819D02*
X126047476Y-85671819D01*
X126047476Y-85671819D02*
X125952238Y-85624200D01*
X125952238Y-85624200D02*
X125904619Y-85576580D01*
X113625333Y-94974580D02*
X113577714Y-95022200D01*
X113577714Y-95022200D02*
X113434857Y-95069819D01*
X113434857Y-95069819D02*
X113339619Y-95069819D01*
X113339619Y-95069819D02*
X113196762Y-95022200D01*
X113196762Y-95022200D02*
X113101524Y-94926961D01*
X113101524Y-94926961D02*
X113053905Y-94831723D01*
X113053905Y-94831723D02*
X113006286Y-94641247D01*
X113006286Y-94641247D02*
X113006286Y-94498390D01*
X113006286Y-94498390D02*
X113053905Y-94307914D01*
X113053905Y-94307914D02*
X113101524Y-94212676D01*
X113101524Y-94212676D02*
X113196762Y-94117438D01*
X113196762Y-94117438D02*
X113339619Y-94069819D01*
X113339619Y-94069819D02*
X113434857Y-94069819D01*
X113434857Y-94069819D02*
X113577714Y-94117438D01*
X113577714Y-94117438D02*
X113625333Y-94165057D01*
X114482476Y-94403152D02*
X114482476Y-95069819D01*
X114244381Y-94022200D02*
X114006286Y-94736485D01*
X114006286Y-94736485D02*
X114625333Y-94736485D01*
X135501142Y-103610580D02*
X135453523Y-103658200D01*
X135453523Y-103658200D02*
X135310666Y-103705819D01*
X135310666Y-103705819D02*
X135215428Y-103705819D01*
X135215428Y-103705819D02*
X135072571Y-103658200D01*
X135072571Y-103658200D02*
X134977333Y-103562961D01*
X134977333Y-103562961D02*
X134929714Y-103467723D01*
X134929714Y-103467723D02*
X134882095Y-103277247D01*
X134882095Y-103277247D02*
X134882095Y-103134390D01*
X134882095Y-103134390D02*
X134929714Y-102943914D01*
X134929714Y-102943914D02*
X134977333Y-102848676D01*
X134977333Y-102848676D02*
X135072571Y-102753438D01*
X135072571Y-102753438D02*
X135215428Y-102705819D01*
X135215428Y-102705819D02*
X135310666Y-102705819D01*
X135310666Y-102705819D02*
X135453523Y-102753438D01*
X135453523Y-102753438D02*
X135501142Y-102801057D01*
X135882095Y-102801057D02*
X135929714Y-102753438D01*
X135929714Y-102753438D02*
X136024952Y-102705819D01*
X136024952Y-102705819D02*
X136263047Y-102705819D01*
X136263047Y-102705819D02*
X136358285Y-102753438D01*
X136358285Y-102753438D02*
X136405904Y-102801057D01*
X136405904Y-102801057D02*
X136453523Y-102896295D01*
X136453523Y-102896295D02*
X136453523Y-102991533D01*
X136453523Y-102991533D02*
X136405904Y-103134390D01*
X136405904Y-103134390D02*
X135834476Y-103705819D01*
X135834476Y-103705819D02*
X136453523Y-103705819D01*
X137072571Y-102705819D02*
X137167809Y-102705819D01*
X137167809Y-102705819D02*
X137263047Y-102753438D01*
X137263047Y-102753438D02*
X137310666Y-102801057D01*
X137310666Y-102801057D02*
X137358285Y-102896295D01*
X137358285Y-102896295D02*
X137405904Y-103086771D01*
X137405904Y-103086771D02*
X137405904Y-103324866D01*
X137405904Y-103324866D02*
X137358285Y-103515342D01*
X137358285Y-103515342D02*
X137310666Y-103610580D01*
X137310666Y-103610580D02*
X137263047Y-103658200D01*
X137263047Y-103658200D02*
X137167809Y-103705819D01*
X137167809Y-103705819D02*
X137072571Y-103705819D01*
X137072571Y-103705819D02*
X136977333Y-103658200D01*
X136977333Y-103658200D02*
X136929714Y-103610580D01*
X136929714Y-103610580D02*
X136882095Y-103515342D01*
X136882095Y-103515342D02*
X136834476Y-103324866D01*
X136834476Y-103324866D02*
X136834476Y-103086771D01*
X136834476Y-103086771D02*
X136882095Y-102896295D01*
X136882095Y-102896295D02*
X136929714Y-102801057D01*
X136929714Y-102801057D02*
X136977333Y-102753438D01*
X136977333Y-102753438D02*
X137072571Y-102705819D01*
X96752580Y-101861857D02*
X96800200Y-101909476D01*
X96800200Y-101909476D02*
X96847819Y-102052333D01*
X96847819Y-102052333D02*
X96847819Y-102147571D01*
X96847819Y-102147571D02*
X96800200Y-102290428D01*
X96800200Y-102290428D02*
X96704961Y-102385666D01*
X96704961Y-102385666D02*
X96609723Y-102433285D01*
X96609723Y-102433285D02*
X96419247Y-102480904D01*
X96419247Y-102480904D02*
X96276390Y-102480904D01*
X96276390Y-102480904D02*
X96085914Y-102433285D01*
X96085914Y-102433285D02*
X95990676Y-102385666D01*
X95990676Y-102385666D02*
X95895438Y-102290428D01*
X95895438Y-102290428D02*
X95847819Y-102147571D01*
X95847819Y-102147571D02*
X95847819Y-102052333D01*
X95847819Y-102052333D02*
X95895438Y-101909476D01*
X95895438Y-101909476D02*
X95943057Y-101861857D01*
X96847819Y-100909476D02*
X96847819Y-101480904D01*
X96847819Y-101195190D02*
X95847819Y-101195190D01*
X95847819Y-101195190D02*
X95990676Y-101290428D01*
X95990676Y-101290428D02*
X96085914Y-101385666D01*
X96085914Y-101385666D02*
X96133533Y-101480904D01*
X95847819Y-100576142D02*
X95847819Y-99909476D01*
X95847819Y-99909476D02*
X96847819Y-100338047D01*
X106164142Y-103737580D02*
X106116523Y-103785200D01*
X106116523Y-103785200D02*
X105973666Y-103832819D01*
X105973666Y-103832819D02*
X105878428Y-103832819D01*
X105878428Y-103832819D02*
X105735571Y-103785200D01*
X105735571Y-103785200D02*
X105640333Y-103689961D01*
X105640333Y-103689961D02*
X105592714Y-103594723D01*
X105592714Y-103594723D02*
X105545095Y-103404247D01*
X105545095Y-103404247D02*
X105545095Y-103261390D01*
X105545095Y-103261390D02*
X105592714Y-103070914D01*
X105592714Y-103070914D02*
X105640333Y-102975676D01*
X105640333Y-102975676D02*
X105735571Y-102880438D01*
X105735571Y-102880438D02*
X105878428Y-102832819D01*
X105878428Y-102832819D02*
X105973666Y-102832819D01*
X105973666Y-102832819D02*
X106116523Y-102880438D01*
X106116523Y-102880438D02*
X106164142Y-102928057D01*
X106545095Y-102928057D02*
X106592714Y-102880438D01*
X106592714Y-102880438D02*
X106687952Y-102832819D01*
X106687952Y-102832819D02*
X106926047Y-102832819D01*
X106926047Y-102832819D02*
X107021285Y-102880438D01*
X107021285Y-102880438D02*
X107068904Y-102928057D01*
X107068904Y-102928057D02*
X107116523Y-103023295D01*
X107116523Y-103023295D02*
X107116523Y-103118533D01*
X107116523Y-103118533D02*
X107068904Y-103261390D01*
X107068904Y-103261390D02*
X106497476Y-103832819D01*
X106497476Y-103832819D02*
X107116523Y-103832819D01*
X107449857Y-102832819D02*
X108068904Y-102832819D01*
X108068904Y-102832819D02*
X107735571Y-103213771D01*
X107735571Y-103213771D02*
X107878428Y-103213771D01*
X107878428Y-103213771D02*
X107973666Y-103261390D01*
X107973666Y-103261390D02*
X108021285Y-103309009D01*
X108021285Y-103309009D02*
X108068904Y-103404247D01*
X108068904Y-103404247D02*
X108068904Y-103642342D01*
X108068904Y-103642342D02*
X108021285Y-103737580D01*
X108021285Y-103737580D02*
X107973666Y-103785200D01*
X107973666Y-103785200D02*
X107878428Y-103832819D01*
X107878428Y-103832819D02*
X107592714Y-103832819D01*
X107592714Y-103832819D02*
X107497476Y-103785200D01*
X107497476Y-103785200D02*
X107449857Y-103737580D01*
X107338095Y-75454819D02*
X107338095Y-76264342D01*
X107338095Y-76264342D02*
X107385714Y-76359580D01*
X107385714Y-76359580D02*
X107433333Y-76407200D01*
X107433333Y-76407200D02*
X107528571Y-76454819D01*
X107528571Y-76454819D02*
X107719047Y-76454819D01*
X107719047Y-76454819D02*
X107814285Y-76407200D01*
X107814285Y-76407200D02*
X107861904Y-76359580D01*
X107861904Y-76359580D02*
X107909523Y-76264342D01*
X107909523Y-76264342D02*
X107909523Y-75454819D01*
X108338095Y-75550057D02*
X108385714Y-75502438D01*
X108385714Y-75502438D02*
X108480952Y-75454819D01*
X108480952Y-75454819D02*
X108719047Y-75454819D01*
X108719047Y-75454819D02*
X108814285Y-75502438D01*
X108814285Y-75502438D02*
X108861904Y-75550057D01*
X108861904Y-75550057D02*
X108909523Y-75645295D01*
X108909523Y-75645295D02*
X108909523Y-75740533D01*
X108909523Y-75740533D02*
X108861904Y-75883390D01*
X108861904Y-75883390D02*
X108290476Y-76454819D01*
X108290476Y-76454819D02*
X108909523Y-76454819D01*
X104582933Y-76323380D02*
X104535314Y-76371000D01*
X104535314Y-76371000D02*
X104392457Y-76418619D01*
X104392457Y-76418619D02*
X104297219Y-76418619D01*
X104297219Y-76418619D02*
X104154362Y-76371000D01*
X104154362Y-76371000D02*
X104059124Y-76275761D01*
X104059124Y-76275761D02*
X104011505Y-76180523D01*
X104011505Y-76180523D02*
X103963886Y-75990047D01*
X103963886Y-75990047D02*
X103963886Y-75847190D01*
X103963886Y-75847190D02*
X104011505Y-75656714D01*
X104011505Y-75656714D02*
X104059124Y-75561476D01*
X104059124Y-75561476D02*
X104154362Y-75466238D01*
X104154362Y-75466238D02*
X104297219Y-75418619D01*
X104297219Y-75418619D02*
X104392457Y-75418619D01*
X104392457Y-75418619D02*
X104535314Y-75466238D01*
X104535314Y-75466238D02*
X104582933Y-75513857D01*
X105440076Y-75418619D02*
X105249600Y-75418619D01*
X105249600Y-75418619D02*
X105154362Y-75466238D01*
X105154362Y-75466238D02*
X105106743Y-75513857D01*
X105106743Y-75513857D02*
X105011505Y-75656714D01*
X105011505Y-75656714D02*
X104963886Y-75847190D01*
X104963886Y-75847190D02*
X104963886Y-76228142D01*
X104963886Y-76228142D02*
X105011505Y-76323380D01*
X105011505Y-76323380D02*
X105059124Y-76371000D01*
X105059124Y-76371000D02*
X105154362Y-76418619D01*
X105154362Y-76418619D02*
X105344838Y-76418619D01*
X105344838Y-76418619D02*
X105440076Y-76371000D01*
X105440076Y-76371000D02*
X105487695Y-76323380D01*
X105487695Y-76323380D02*
X105535314Y-76228142D01*
X105535314Y-76228142D02*
X105535314Y-75990047D01*
X105535314Y-75990047D02*
X105487695Y-75894809D01*
X105487695Y-75894809D02*
X105440076Y-75847190D01*
X105440076Y-75847190D02*
X105344838Y-75799571D01*
X105344838Y-75799571D02*
X105154362Y-75799571D01*
X105154362Y-75799571D02*
X105059124Y-75847190D01*
X105059124Y-75847190D02*
X105011505Y-75894809D01*
X105011505Y-75894809D02*
X104963886Y-75990047D01*
X122535293Y-56987809D02*
X123249578Y-56987809D01*
X123249578Y-56987809D02*
X123392435Y-57035428D01*
X123392435Y-57035428D02*
X123487674Y-57130666D01*
X123487674Y-57130666D02*
X123535293Y-57273523D01*
X123535293Y-57273523D02*
X123535293Y-57368761D01*
X122630531Y-56559237D02*
X122582912Y-56511618D01*
X122582912Y-56511618D02*
X122535293Y-56416380D01*
X122535293Y-56416380D02*
X122535293Y-56178285D01*
X122535293Y-56178285D02*
X122582912Y-56083047D01*
X122582912Y-56083047D02*
X122630531Y-56035428D01*
X122630531Y-56035428D02*
X122725769Y-55987809D01*
X122725769Y-55987809D02*
X122821007Y-55987809D01*
X122821007Y-55987809D02*
X122963864Y-56035428D01*
X122963864Y-56035428D02*
X123535293Y-56606856D01*
X123535293Y-56606856D02*
X123535293Y-55987809D01*
X109251809Y-88116628D02*
X109251809Y-88592819D01*
X108918476Y-87592819D02*
X109251809Y-88116628D01*
X109251809Y-88116628D02*
X109585142Y-87592819D01*
X110442285Y-88592819D02*
X109870857Y-88592819D01*
X110156571Y-88592819D02*
X110156571Y-87592819D01*
X110156571Y-87592819D02*
X110061333Y-87735676D01*
X110061333Y-87735676D02*
X109966095Y-87830914D01*
X109966095Y-87830914D02*
X109870857Y-87878533D01*
X87857142Y-102259580D02*
X87809523Y-102307200D01*
X87809523Y-102307200D02*
X87666666Y-102354819D01*
X87666666Y-102354819D02*
X87571428Y-102354819D01*
X87571428Y-102354819D02*
X87428571Y-102307200D01*
X87428571Y-102307200D02*
X87333333Y-102211961D01*
X87333333Y-102211961D02*
X87285714Y-102116723D01*
X87285714Y-102116723D02*
X87238095Y-101926247D01*
X87238095Y-101926247D02*
X87238095Y-101783390D01*
X87238095Y-101783390D02*
X87285714Y-101592914D01*
X87285714Y-101592914D02*
X87333333Y-101497676D01*
X87333333Y-101497676D02*
X87428571Y-101402438D01*
X87428571Y-101402438D02*
X87571428Y-101354819D01*
X87571428Y-101354819D02*
X87666666Y-101354819D01*
X87666666Y-101354819D02*
X87809523Y-101402438D01*
X87809523Y-101402438D02*
X87857142Y-101450057D01*
X88809523Y-102354819D02*
X88238095Y-102354819D01*
X88523809Y-102354819D02*
X88523809Y-101354819D01*
X88523809Y-101354819D02*
X88428571Y-101497676D01*
X88428571Y-101497676D02*
X88333333Y-101592914D01*
X88333333Y-101592914D02*
X88238095Y-101640533D01*
X89285714Y-102354819D02*
X89476190Y-102354819D01*
X89476190Y-102354819D02*
X89571428Y-102307200D01*
X89571428Y-102307200D02*
X89619047Y-102259580D01*
X89619047Y-102259580D02*
X89714285Y-102116723D01*
X89714285Y-102116723D02*
X89761904Y-101926247D01*
X89761904Y-101926247D02*
X89761904Y-101545295D01*
X89761904Y-101545295D02*
X89714285Y-101450057D01*
X89714285Y-101450057D02*
X89666666Y-101402438D01*
X89666666Y-101402438D02*
X89571428Y-101354819D01*
X89571428Y-101354819D02*
X89380952Y-101354819D01*
X89380952Y-101354819D02*
X89285714Y-101402438D01*
X89285714Y-101402438D02*
X89238095Y-101450057D01*
X89238095Y-101450057D02*
X89190476Y-101545295D01*
X89190476Y-101545295D02*
X89190476Y-101783390D01*
X89190476Y-101783390D02*
X89238095Y-101878628D01*
X89238095Y-101878628D02*
X89285714Y-101926247D01*
X89285714Y-101926247D02*
X89380952Y-101973866D01*
X89380952Y-101973866D02*
X89571428Y-101973866D01*
X89571428Y-101973866D02*
X89666666Y-101926247D01*
X89666666Y-101926247D02*
X89714285Y-101878628D01*
X89714285Y-101878628D02*
X89761904Y-101783390D01*
X111974333Y-86338580D02*
X111926714Y-86386200D01*
X111926714Y-86386200D02*
X111783857Y-86433819D01*
X111783857Y-86433819D02*
X111688619Y-86433819D01*
X111688619Y-86433819D02*
X111545762Y-86386200D01*
X111545762Y-86386200D02*
X111450524Y-86290961D01*
X111450524Y-86290961D02*
X111402905Y-86195723D01*
X111402905Y-86195723D02*
X111355286Y-86005247D01*
X111355286Y-86005247D02*
X111355286Y-85862390D01*
X111355286Y-85862390D02*
X111402905Y-85671914D01*
X111402905Y-85671914D02*
X111450524Y-85576676D01*
X111450524Y-85576676D02*
X111545762Y-85481438D01*
X111545762Y-85481438D02*
X111688619Y-85433819D01*
X111688619Y-85433819D02*
X111783857Y-85433819D01*
X111783857Y-85433819D02*
X111926714Y-85481438D01*
X111926714Y-85481438D02*
X111974333Y-85529057D01*
X112450524Y-86433819D02*
X112641000Y-86433819D01*
X112641000Y-86433819D02*
X112736238Y-86386200D01*
X112736238Y-86386200D02*
X112783857Y-86338580D01*
X112783857Y-86338580D02*
X112879095Y-86195723D01*
X112879095Y-86195723D02*
X112926714Y-86005247D01*
X112926714Y-86005247D02*
X112926714Y-85624295D01*
X112926714Y-85624295D02*
X112879095Y-85529057D01*
X112879095Y-85529057D02*
X112831476Y-85481438D01*
X112831476Y-85481438D02*
X112736238Y-85433819D01*
X112736238Y-85433819D02*
X112545762Y-85433819D01*
X112545762Y-85433819D02*
X112450524Y-85481438D01*
X112450524Y-85481438D02*
X112402905Y-85529057D01*
X112402905Y-85529057D02*
X112355286Y-85624295D01*
X112355286Y-85624295D02*
X112355286Y-85862390D01*
X112355286Y-85862390D02*
X112402905Y-85957628D01*
X112402905Y-85957628D02*
X112450524Y-86005247D01*
X112450524Y-86005247D02*
X112545762Y-86052866D01*
X112545762Y-86052866D02*
X112736238Y-86052866D01*
X112736238Y-86052866D02*
X112831476Y-86005247D01*
X112831476Y-86005247D02*
X112879095Y-85957628D01*
X112879095Y-85957628D02*
X112926714Y-85862390D01*
X134733333Y-82054819D02*
X134400000Y-81578628D01*
X134161905Y-82054819D02*
X134161905Y-81054819D01*
X134161905Y-81054819D02*
X134542857Y-81054819D01*
X134542857Y-81054819D02*
X134638095Y-81102438D01*
X134638095Y-81102438D02*
X134685714Y-81150057D01*
X134685714Y-81150057D02*
X134733333Y-81245295D01*
X134733333Y-81245295D02*
X134733333Y-81388152D01*
X134733333Y-81388152D02*
X134685714Y-81483390D01*
X134685714Y-81483390D02*
X134638095Y-81531009D01*
X134638095Y-81531009D02*
X134542857Y-81578628D01*
X134542857Y-81578628D02*
X134161905Y-81578628D01*
X135304762Y-81483390D02*
X135209524Y-81435771D01*
X135209524Y-81435771D02*
X135161905Y-81388152D01*
X135161905Y-81388152D02*
X135114286Y-81292914D01*
X135114286Y-81292914D02*
X135114286Y-81245295D01*
X135114286Y-81245295D02*
X135161905Y-81150057D01*
X135161905Y-81150057D02*
X135209524Y-81102438D01*
X135209524Y-81102438D02*
X135304762Y-81054819D01*
X135304762Y-81054819D02*
X135495238Y-81054819D01*
X135495238Y-81054819D02*
X135590476Y-81102438D01*
X135590476Y-81102438D02*
X135638095Y-81150057D01*
X135638095Y-81150057D02*
X135685714Y-81245295D01*
X135685714Y-81245295D02*
X135685714Y-81292914D01*
X135685714Y-81292914D02*
X135638095Y-81388152D01*
X135638095Y-81388152D02*
X135590476Y-81435771D01*
X135590476Y-81435771D02*
X135495238Y-81483390D01*
X135495238Y-81483390D02*
X135304762Y-81483390D01*
X135304762Y-81483390D02*
X135209524Y-81531009D01*
X135209524Y-81531009D02*
X135161905Y-81578628D01*
X135161905Y-81578628D02*
X135114286Y-81673866D01*
X135114286Y-81673866D02*
X135114286Y-81864342D01*
X135114286Y-81864342D02*
X135161905Y-81959580D01*
X135161905Y-81959580D02*
X135209524Y-82007200D01*
X135209524Y-82007200D02*
X135304762Y-82054819D01*
X135304762Y-82054819D02*
X135495238Y-82054819D01*
X135495238Y-82054819D02*
X135590476Y-82007200D01*
X135590476Y-82007200D02*
X135638095Y-81959580D01*
X135638095Y-81959580D02*
X135685714Y-81864342D01*
X135685714Y-81864342D02*
X135685714Y-81673866D01*
X135685714Y-81673866D02*
X135638095Y-81578628D01*
X135638095Y-81578628D02*
X135590476Y-81531009D01*
X135590476Y-81531009D02*
X135495238Y-81483390D01*
X125033333Y-67254819D02*
X124700000Y-66778628D01*
X124461905Y-67254819D02*
X124461905Y-66254819D01*
X124461905Y-66254819D02*
X124842857Y-66254819D01*
X124842857Y-66254819D02*
X124938095Y-66302438D01*
X124938095Y-66302438D02*
X124985714Y-66350057D01*
X124985714Y-66350057D02*
X125033333Y-66445295D01*
X125033333Y-66445295D02*
X125033333Y-66588152D01*
X125033333Y-66588152D02*
X124985714Y-66683390D01*
X124985714Y-66683390D02*
X124938095Y-66731009D01*
X124938095Y-66731009D02*
X124842857Y-66778628D01*
X124842857Y-66778628D02*
X124461905Y-66778628D01*
X125938095Y-66254819D02*
X125461905Y-66254819D01*
X125461905Y-66254819D02*
X125414286Y-66731009D01*
X125414286Y-66731009D02*
X125461905Y-66683390D01*
X125461905Y-66683390D02*
X125557143Y-66635771D01*
X125557143Y-66635771D02*
X125795238Y-66635771D01*
X125795238Y-66635771D02*
X125890476Y-66683390D01*
X125890476Y-66683390D02*
X125938095Y-66731009D01*
X125938095Y-66731009D02*
X125985714Y-66826247D01*
X125985714Y-66826247D02*
X125985714Y-67064342D01*
X125985714Y-67064342D02*
X125938095Y-67159580D01*
X125938095Y-67159580D02*
X125890476Y-67207200D01*
X125890476Y-67207200D02*
X125795238Y-67254819D01*
X125795238Y-67254819D02*
X125557143Y-67254819D01*
X125557143Y-67254819D02*
X125461905Y-67207200D01*
X125461905Y-67207200D02*
X125414286Y-67159580D01*
X103020905Y-57858819D02*
X103020905Y-56858819D01*
X103020905Y-56858819D02*
X103259000Y-56858819D01*
X103259000Y-56858819D02*
X103401857Y-56906438D01*
X103401857Y-56906438D02*
X103497095Y-57001676D01*
X103497095Y-57001676D02*
X103544714Y-57096914D01*
X103544714Y-57096914D02*
X103592333Y-57287390D01*
X103592333Y-57287390D02*
X103592333Y-57430247D01*
X103592333Y-57430247D02*
X103544714Y-57620723D01*
X103544714Y-57620723D02*
X103497095Y-57715961D01*
X103497095Y-57715961D02*
X103401857Y-57811200D01*
X103401857Y-57811200D02*
X103259000Y-57858819D01*
X103259000Y-57858819D02*
X103020905Y-57858819D01*
X104544714Y-57858819D02*
X103973286Y-57858819D01*
X104259000Y-57858819D02*
X104259000Y-56858819D01*
X104259000Y-56858819D02*
X104163762Y-57001676D01*
X104163762Y-57001676D02*
X104068524Y-57096914D01*
X104068524Y-57096914D02*
X103973286Y-57144533D01*
X125759580Y-106742857D02*
X125807200Y-106790476D01*
X125807200Y-106790476D02*
X125854819Y-106933333D01*
X125854819Y-106933333D02*
X125854819Y-107028571D01*
X125854819Y-107028571D02*
X125807200Y-107171428D01*
X125807200Y-107171428D02*
X125711961Y-107266666D01*
X125711961Y-107266666D02*
X125616723Y-107314285D01*
X125616723Y-107314285D02*
X125426247Y-107361904D01*
X125426247Y-107361904D02*
X125283390Y-107361904D01*
X125283390Y-107361904D02*
X125092914Y-107314285D01*
X125092914Y-107314285D02*
X124997676Y-107266666D01*
X124997676Y-107266666D02*
X124902438Y-107171428D01*
X124902438Y-107171428D02*
X124854819Y-107028571D01*
X124854819Y-107028571D02*
X124854819Y-106933333D01*
X124854819Y-106933333D02*
X124902438Y-106790476D01*
X124902438Y-106790476D02*
X124950057Y-106742857D01*
X124950057Y-106361904D02*
X124902438Y-106314285D01*
X124902438Y-106314285D02*
X124854819Y-106219047D01*
X124854819Y-106219047D02*
X124854819Y-105980952D01*
X124854819Y-105980952D02*
X124902438Y-105885714D01*
X124902438Y-105885714D02*
X124950057Y-105838095D01*
X124950057Y-105838095D02*
X125045295Y-105790476D01*
X125045295Y-105790476D02*
X125140533Y-105790476D01*
X125140533Y-105790476D02*
X125283390Y-105838095D01*
X125283390Y-105838095D02*
X125854819Y-106409523D01*
X125854819Y-106409523D02*
X125854819Y-105790476D01*
X125188152Y-104933333D02*
X125854819Y-104933333D01*
X124807200Y-105171428D02*
X125521485Y-105409523D01*
X125521485Y-105409523D02*
X125521485Y-104790476D01*
X118991142Y-79005580D02*
X118943523Y-79053200D01*
X118943523Y-79053200D02*
X118800666Y-79100819D01*
X118800666Y-79100819D02*
X118705428Y-79100819D01*
X118705428Y-79100819D02*
X118562571Y-79053200D01*
X118562571Y-79053200D02*
X118467333Y-78957961D01*
X118467333Y-78957961D02*
X118419714Y-78862723D01*
X118419714Y-78862723D02*
X118372095Y-78672247D01*
X118372095Y-78672247D02*
X118372095Y-78529390D01*
X118372095Y-78529390D02*
X118419714Y-78338914D01*
X118419714Y-78338914D02*
X118467333Y-78243676D01*
X118467333Y-78243676D02*
X118562571Y-78148438D01*
X118562571Y-78148438D02*
X118705428Y-78100819D01*
X118705428Y-78100819D02*
X118800666Y-78100819D01*
X118800666Y-78100819D02*
X118943523Y-78148438D01*
X118943523Y-78148438D02*
X118991142Y-78196057D01*
X119943523Y-79100819D02*
X119372095Y-79100819D01*
X119657809Y-79100819D02*
X119657809Y-78100819D01*
X119657809Y-78100819D02*
X119562571Y-78243676D01*
X119562571Y-78243676D02*
X119467333Y-78338914D01*
X119467333Y-78338914D02*
X119372095Y-78386533D01*
X120562571Y-78100819D02*
X120657809Y-78100819D01*
X120657809Y-78100819D02*
X120753047Y-78148438D01*
X120753047Y-78148438D02*
X120800666Y-78196057D01*
X120800666Y-78196057D02*
X120848285Y-78291295D01*
X120848285Y-78291295D02*
X120895904Y-78481771D01*
X120895904Y-78481771D02*
X120895904Y-78719866D01*
X120895904Y-78719866D02*
X120848285Y-78910342D01*
X120848285Y-78910342D02*
X120800666Y-79005580D01*
X120800666Y-79005580D02*
X120753047Y-79053200D01*
X120753047Y-79053200D02*
X120657809Y-79100819D01*
X120657809Y-79100819D02*
X120562571Y-79100819D01*
X120562571Y-79100819D02*
X120467333Y-79053200D01*
X120467333Y-79053200D02*
X120419714Y-79005580D01*
X120419714Y-79005580D02*
X120372095Y-78910342D01*
X120372095Y-78910342D02*
X120324476Y-78719866D01*
X120324476Y-78719866D02*
X120324476Y-78481771D01*
X120324476Y-78481771D02*
X120372095Y-78291295D01*
X120372095Y-78291295D02*
X120419714Y-78196057D01*
X120419714Y-78196057D02*
X120467333Y-78148438D01*
X120467333Y-78148438D02*
X120562571Y-78100819D01*
X117338095Y-96154819D02*
X117338095Y-96964342D01*
X117338095Y-96964342D02*
X117385714Y-97059580D01*
X117385714Y-97059580D02*
X117433333Y-97107200D01*
X117433333Y-97107200D02*
X117528571Y-97154819D01*
X117528571Y-97154819D02*
X117719047Y-97154819D01*
X117719047Y-97154819D02*
X117814285Y-97107200D01*
X117814285Y-97107200D02*
X117861904Y-97059580D01*
X117861904Y-97059580D02*
X117909523Y-96964342D01*
X117909523Y-96964342D02*
X117909523Y-96154819D01*
X118528571Y-96583390D02*
X118433333Y-96535771D01*
X118433333Y-96535771D02*
X118385714Y-96488152D01*
X118385714Y-96488152D02*
X118338095Y-96392914D01*
X118338095Y-96392914D02*
X118338095Y-96345295D01*
X118338095Y-96345295D02*
X118385714Y-96250057D01*
X118385714Y-96250057D02*
X118433333Y-96202438D01*
X118433333Y-96202438D02*
X118528571Y-96154819D01*
X118528571Y-96154819D02*
X118719047Y-96154819D01*
X118719047Y-96154819D02*
X118814285Y-96202438D01*
X118814285Y-96202438D02*
X118861904Y-96250057D01*
X118861904Y-96250057D02*
X118909523Y-96345295D01*
X118909523Y-96345295D02*
X118909523Y-96392914D01*
X118909523Y-96392914D02*
X118861904Y-96488152D01*
X118861904Y-96488152D02*
X118814285Y-96535771D01*
X118814285Y-96535771D02*
X118719047Y-96583390D01*
X118719047Y-96583390D02*
X118528571Y-96583390D01*
X118528571Y-96583390D02*
X118433333Y-96631009D01*
X118433333Y-96631009D02*
X118385714Y-96678628D01*
X118385714Y-96678628D02*
X118338095Y-96773866D01*
X118338095Y-96773866D02*
X118338095Y-96964342D01*
X118338095Y-96964342D02*
X118385714Y-97059580D01*
X118385714Y-97059580D02*
X118433333Y-97107200D01*
X118433333Y-97107200D02*
X118528571Y-97154819D01*
X118528571Y-97154819D02*
X118719047Y-97154819D01*
X118719047Y-97154819D02*
X118814285Y-97107200D01*
X118814285Y-97107200D02*
X118861904Y-97059580D01*
X118861904Y-97059580D02*
X118909523Y-96964342D01*
X118909523Y-96964342D02*
X118909523Y-96773866D01*
X118909523Y-96773866D02*
X118861904Y-96678628D01*
X118861904Y-96678628D02*
X118814285Y-96631009D01*
X118814285Y-96631009D02*
X118719047Y-96583390D01*
X93146666Y-69431819D02*
X93146666Y-70146104D01*
X93146666Y-70146104D02*
X93099047Y-70288961D01*
X93099047Y-70288961D02*
X93003809Y-70384200D01*
X93003809Y-70384200D02*
X92860952Y-70431819D01*
X92860952Y-70431819D02*
X92765714Y-70431819D01*
X93622857Y-70431819D02*
X93622857Y-69431819D01*
X93622857Y-69431819D02*
X94003809Y-69431819D01*
X94003809Y-69431819D02*
X94099047Y-69479438D01*
X94099047Y-69479438D02*
X94146666Y-69527057D01*
X94146666Y-69527057D02*
X94194285Y-69622295D01*
X94194285Y-69622295D02*
X94194285Y-69765152D01*
X94194285Y-69765152D02*
X94146666Y-69860390D01*
X94146666Y-69860390D02*
X94099047Y-69908009D01*
X94099047Y-69908009D02*
X94003809Y-69955628D01*
X94003809Y-69955628D02*
X93622857Y-69955628D01*
X95146666Y-70431819D02*
X94575238Y-70431819D01*
X94860952Y-70431819D02*
X94860952Y-69431819D01*
X94860952Y-69431819D02*
X94765714Y-69574676D01*
X94765714Y-69574676D02*
X94670476Y-69669914D01*
X94670476Y-69669914D02*
X94575238Y-69717533D01*
X93940333Y-88846819D02*
X93607000Y-88370628D01*
X93368905Y-88846819D02*
X93368905Y-87846819D01*
X93368905Y-87846819D02*
X93749857Y-87846819D01*
X93749857Y-87846819D02*
X93845095Y-87894438D01*
X93845095Y-87894438D02*
X93892714Y-87942057D01*
X93892714Y-87942057D02*
X93940333Y-88037295D01*
X93940333Y-88037295D02*
X93940333Y-88180152D01*
X93940333Y-88180152D02*
X93892714Y-88275390D01*
X93892714Y-88275390D02*
X93845095Y-88323009D01*
X93845095Y-88323009D02*
X93749857Y-88370628D01*
X93749857Y-88370628D02*
X93368905Y-88370628D01*
X94273667Y-87846819D02*
X94940333Y-87846819D01*
X94940333Y-87846819D02*
X94511762Y-88846819D01*
X106799142Y-60049580D02*
X106751523Y-60097200D01*
X106751523Y-60097200D02*
X106608666Y-60144819D01*
X106608666Y-60144819D02*
X106513428Y-60144819D01*
X106513428Y-60144819D02*
X106370571Y-60097200D01*
X106370571Y-60097200D02*
X106275333Y-60001961D01*
X106275333Y-60001961D02*
X106227714Y-59906723D01*
X106227714Y-59906723D02*
X106180095Y-59716247D01*
X106180095Y-59716247D02*
X106180095Y-59573390D01*
X106180095Y-59573390D02*
X106227714Y-59382914D01*
X106227714Y-59382914D02*
X106275333Y-59287676D01*
X106275333Y-59287676D02*
X106370571Y-59192438D01*
X106370571Y-59192438D02*
X106513428Y-59144819D01*
X106513428Y-59144819D02*
X106608666Y-59144819D01*
X106608666Y-59144819D02*
X106751523Y-59192438D01*
X106751523Y-59192438D02*
X106799142Y-59240057D01*
X107751523Y-60144819D02*
X107180095Y-60144819D01*
X107465809Y-60144819D02*
X107465809Y-59144819D01*
X107465809Y-59144819D02*
X107370571Y-59287676D01*
X107370571Y-59287676D02*
X107275333Y-59382914D01*
X107275333Y-59382914D02*
X107180095Y-59430533D01*
X108608666Y-59478152D02*
X108608666Y-60144819D01*
X108370571Y-59097200D02*
X108132476Y-59811485D01*
X108132476Y-59811485D02*
X108751523Y-59811485D01*
X114754819Y-71159666D02*
X114278628Y-71492999D01*
X114754819Y-71731094D02*
X113754819Y-71731094D01*
X113754819Y-71731094D02*
X113754819Y-71350142D01*
X113754819Y-71350142D02*
X113802438Y-71254904D01*
X113802438Y-71254904D02*
X113850057Y-71207285D01*
X113850057Y-71207285D02*
X113945295Y-71159666D01*
X113945295Y-71159666D02*
X114088152Y-71159666D01*
X114088152Y-71159666D02*
X114183390Y-71207285D01*
X114183390Y-71207285D02*
X114231009Y-71254904D01*
X114231009Y-71254904D02*
X114278628Y-71350142D01*
X114278628Y-71350142D02*
X114278628Y-71731094D01*
X113850057Y-70778713D02*
X113802438Y-70731094D01*
X113802438Y-70731094D02*
X113754819Y-70635856D01*
X113754819Y-70635856D02*
X113754819Y-70397761D01*
X113754819Y-70397761D02*
X113802438Y-70302523D01*
X113802438Y-70302523D02*
X113850057Y-70254904D01*
X113850057Y-70254904D02*
X113945295Y-70207285D01*
X113945295Y-70207285D02*
X114040533Y-70207285D01*
X114040533Y-70207285D02*
X114183390Y-70254904D01*
X114183390Y-70254904D02*
X114754819Y-70826332D01*
X114754819Y-70826332D02*
X114754819Y-70207285D01*
X106933333Y-66829580D02*
X106885714Y-66877200D01*
X106885714Y-66877200D02*
X106742857Y-66924819D01*
X106742857Y-66924819D02*
X106647619Y-66924819D01*
X106647619Y-66924819D02*
X106504762Y-66877200D01*
X106504762Y-66877200D02*
X106409524Y-66781961D01*
X106409524Y-66781961D02*
X106361905Y-66686723D01*
X106361905Y-66686723D02*
X106314286Y-66496247D01*
X106314286Y-66496247D02*
X106314286Y-66353390D01*
X106314286Y-66353390D02*
X106361905Y-66162914D01*
X106361905Y-66162914D02*
X106409524Y-66067676D01*
X106409524Y-66067676D02*
X106504762Y-65972438D01*
X106504762Y-65972438D02*
X106647619Y-65924819D01*
X106647619Y-65924819D02*
X106742857Y-65924819D01*
X106742857Y-65924819D02*
X106885714Y-65972438D01*
X106885714Y-65972438D02*
X106933333Y-66020057D01*
X107885714Y-66924819D02*
X107314286Y-66924819D01*
X107600000Y-66924819D02*
X107600000Y-65924819D01*
X107600000Y-65924819D02*
X107504762Y-66067676D01*
X107504762Y-66067676D02*
X107409524Y-66162914D01*
X107409524Y-66162914D02*
X107314286Y-66210533D01*
X92757142Y-83029580D02*
X92709523Y-83077200D01*
X92709523Y-83077200D02*
X92566666Y-83124819D01*
X92566666Y-83124819D02*
X92471428Y-83124819D01*
X92471428Y-83124819D02*
X92328571Y-83077200D01*
X92328571Y-83077200D02*
X92233333Y-82981961D01*
X92233333Y-82981961D02*
X92185714Y-82886723D01*
X92185714Y-82886723D02*
X92138095Y-82696247D01*
X92138095Y-82696247D02*
X92138095Y-82553390D01*
X92138095Y-82553390D02*
X92185714Y-82362914D01*
X92185714Y-82362914D02*
X92233333Y-82267676D01*
X92233333Y-82267676D02*
X92328571Y-82172438D01*
X92328571Y-82172438D02*
X92471428Y-82124819D01*
X92471428Y-82124819D02*
X92566666Y-82124819D01*
X92566666Y-82124819D02*
X92709523Y-82172438D01*
X92709523Y-82172438D02*
X92757142Y-82220057D01*
X93709523Y-83124819D02*
X93138095Y-83124819D01*
X93423809Y-83124819D02*
X93423809Y-82124819D01*
X93423809Y-82124819D02*
X93328571Y-82267676D01*
X93328571Y-82267676D02*
X93233333Y-82362914D01*
X93233333Y-82362914D02*
X93138095Y-82410533D01*
X94566666Y-82124819D02*
X94376190Y-82124819D01*
X94376190Y-82124819D02*
X94280952Y-82172438D01*
X94280952Y-82172438D02*
X94233333Y-82220057D01*
X94233333Y-82220057D02*
X94138095Y-82362914D01*
X94138095Y-82362914D02*
X94090476Y-82553390D01*
X94090476Y-82553390D02*
X94090476Y-82934342D01*
X94090476Y-82934342D02*
X94138095Y-83029580D01*
X94138095Y-83029580D02*
X94185714Y-83077200D01*
X94185714Y-83077200D02*
X94280952Y-83124819D01*
X94280952Y-83124819D02*
X94471428Y-83124819D01*
X94471428Y-83124819D02*
X94566666Y-83077200D01*
X94566666Y-83077200D02*
X94614285Y-83029580D01*
X94614285Y-83029580D02*
X94661904Y-82934342D01*
X94661904Y-82934342D02*
X94661904Y-82696247D01*
X94661904Y-82696247D02*
X94614285Y-82601009D01*
X94614285Y-82601009D02*
X94566666Y-82553390D01*
X94566666Y-82553390D02*
X94471428Y-82505771D01*
X94471428Y-82505771D02*
X94280952Y-82505771D01*
X94280952Y-82505771D02*
X94185714Y-82553390D01*
X94185714Y-82553390D02*
X94138095Y-82601009D01*
X94138095Y-82601009D02*
X94090476Y-82696247D01*
X125759580Y-96442857D02*
X125807200Y-96490476D01*
X125807200Y-96490476D02*
X125854819Y-96633333D01*
X125854819Y-96633333D02*
X125854819Y-96728571D01*
X125854819Y-96728571D02*
X125807200Y-96871428D01*
X125807200Y-96871428D02*
X125711961Y-96966666D01*
X125711961Y-96966666D02*
X125616723Y-97014285D01*
X125616723Y-97014285D02*
X125426247Y-97061904D01*
X125426247Y-97061904D02*
X125283390Y-97061904D01*
X125283390Y-97061904D02*
X125092914Y-97014285D01*
X125092914Y-97014285D02*
X124997676Y-96966666D01*
X124997676Y-96966666D02*
X124902438Y-96871428D01*
X124902438Y-96871428D02*
X124854819Y-96728571D01*
X124854819Y-96728571D02*
X124854819Y-96633333D01*
X124854819Y-96633333D02*
X124902438Y-96490476D01*
X124902438Y-96490476D02*
X124950057Y-96442857D01*
X124950057Y-96061904D02*
X124902438Y-96014285D01*
X124902438Y-96014285D02*
X124854819Y-95919047D01*
X124854819Y-95919047D02*
X124854819Y-95680952D01*
X124854819Y-95680952D02*
X124902438Y-95585714D01*
X124902438Y-95585714D02*
X124950057Y-95538095D01*
X124950057Y-95538095D02*
X125045295Y-95490476D01*
X125045295Y-95490476D02*
X125140533Y-95490476D01*
X125140533Y-95490476D02*
X125283390Y-95538095D01*
X125283390Y-95538095D02*
X125854819Y-96109523D01*
X125854819Y-96109523D02*
X125854819Y-95490476D01*
X124950057Y-95109523D02*
X124902438Y-95061904D01*
X124902438Y-95061904D02*
X124854819Y-94966666D01*
X124854819Y-94966666D02*
X124854819Y-94728571D01*
X124854819Y-94728571D02*
X124902438Y-94633333D01*
X124902438Y-94633333D02*
X124950057Y-94585714D01*
X124950057Y-94585714D02*
X125045295Y-94538095D01*
X125045295Y-94538095D02*
X125140533Y-94538095D01*
X125140533Y-94538095D02*
X125283390Y-94585714D01*
X125283390Y-94585714D02*
X125854819Y-95157142D01*
X125854819Y-95157142D02*
X125854819Y-94538095D01*
X103632095Y-67654819D02*
X103632095Y-68464342D01*
X103632095Y-68464342D02*
X103679714Y-68559580D01*
X103679714Y-68559580D02*
X103727333Y-68607200D01*
X103727333Y-68607200D02*
X103822571Y-68654819D01*
X103822571Y-68654819D02*
X104013047Y-68654819D01*
X104013047Y-68654819D02*
X104108285Y-68607200D01*
X104108285Y-68607200D02*
X104155904Y-68559580D01*
X104155904Y-68559580D02*
X104203523Y-68464342D01*
X104203523Y-68464342D02*
X104203523Y-67654819D01*
X105203523Y-68654819D02*
X104632095Y-68654819D01*
X104917809Y-68654819D02*
X104917809Y-67654819D01*
X104917809Y-67654819D02*
X104822571Y-67797676D01*
X104822571Y-67797676D02*
X104727333Y-67892914D01*
X104727333Y-67892914D02*
X104632095Y-67940533D01*
X130333333Y-67254819D02*
X130000000Y-66778628D01*
X129761905Y-67254819D02*
X129761905Y-66254819D01*
X129761905Y-66254819D02*
X130142857Y-66254819D01*
X130142857Y-66254819D02*
X130238095Y-66302438D01*
X130238095Y-66302438D02*
X130285714Y-66350057D01*
X130285714Y-66350057D02*
X130333333Y-66445295D01*
X130333333Y-66445295D02*
X130333333Y-66588152D01*
X130333333Y-66588152D02*
X130285714Y-66683390D01*
X130285714Y-66683390D02*
X130238095Y-66731009D01*
X130238095Y-66731009D02*
X130142857Y-66778628D01*
X130142857Y-66778628D02*
X129761905Y-66778628D01*
X131190476Y-66254819D02*
X131000000Y-66254819D01*
X131000000Y-66254819D02*
X130904762Y-66302438D01*
X130904762Y-66302438D02*
X130857143Y-66350057D01*
X130857143Y-66350057D02*
X130761905Y-66492914D01*
X130761905Y-66492914D02*
X130714286Y-66683390D01*
X130714286Y-66683390D02*
X130714286Y-67064342D01*
X130714286Y-67064342D02*
X130761905Y-67159580D01*
X130761905Y-67159580D02*
X130809524Y-67207200D01*
X130809524Y-67207200D02*
X130904762Y-67254819D01*
X130904762Y-67254819D02*
X131095238Y-67254819D01*
X131095238Y-67254819D02*
X131190476Y-67207200D01*
X131190476Y-67207200D02*
X131238095Y-67159580D01*
X131238095Y-67159580D02*
X131285714Y-67064342D01*
X131285714Y-67064342D02*
X131285714Y-66826247D01*
X131285714Y-66826247D02*
X131238095Y-66731009D01*
X131238095Y-66731009D02*
X131190476Y-66683390D01*
X131190476Y-66683390D02*
X131095238Y-66635771D01*
X131095238Y-66635771D02*
X130904762Y-66635771D01*
X130904762Y-66635771D02*
X130809524Y-66683390D01*
X130809524Y-66683390D02*
X130761905Y-66731009D01*
X130761905Y-66731009D02*
X130714286Y-66826247D01*
X96938095Y-96254819D02*
X96938095Y-97064342D01*
X96938095Y-97064342D02*
X96985714Y-97159580D01*
X96985714Y-97159580D02*
X97033333Y-97207200D01*
X97033333Y-97207200D02*
X97128571Y-97254819D01*
X97128571Y-97254819D02*
X97319047Y-97254819D01*
X97319047Y-97254819D02*
X97414285Y-97207200D01*
X97414285Y-97207200D02*
X97461904Y-97159580D01*
X97461904Y-97159580D02*
X97509523Y-97064342D01*
X97509523Y-97064342D02*
X97509523Y-96254819D01*
X97890476Y-96254819D02*
X98557142Y-96254819D01*
X98557142Y-96254819D02*
X98128571Y-97254819D01*
X126238095Y-96054819D02*
X126238095Y-96864342D01*
X126238095Y-96864342D02*
X126285714Y-96959580D01*
X126285714Y-96959580D02*
X126333333Y-97007200D01*
X126333333Y-97007200D02*
X126428571Y-97054819D01*
X126428571Y-97054819D02*
X126619047Y-97054819D01*
X126619047Y-97054819D02*
X126714285Y-97007200D01*
X126714285Y-97007200D02*
X126761904Y-96959580D01*
X126761904Y-96959580D02*
X126809523Y-96864342D01*
X126809523Y-96864342D02*
X126809523Y-96054819D01*
X127714285Y-96054819D02*
X127523809Y-96054819D01*
X127523809Y-96054819D02*
X127428571Y-96102438D01*
X127428571Y-96102438D02*
X127380952Y-96150057D01*
X127380952Y-96150057D02*
X127285714Y-96292914D01*
X127285714Y-96292914D02*
X127238095Y-96483390D01*
X127238095Y-96483390D02*
X127238095Y-96864342D01*
X127238095Y-96864342D02*
X127285714Y-96959580D01*
X127285714Y-96959580D02*
X127333333Y-97007200D01*
X127333333Y-97007200D02*
X127428571Y-97054819D01*
X127428571Y-97054819D02*
X127619047Y-97054819D01*
X127619047Y-97054819D02*
X127714285Y-97007200D01*
X127714285Y-97007200D02*
X127761904Y-96959580D01*
X127761904Y-96959580D02*
X127809523Y-96864342D01*
X127809523Y-96864342D02*
X127809523Y-96626247D01*
X127809523Y-96626247D02*
X127761904Y-96531009D01*
X127761904Y-96531009D02*
X127714285Y-96483390D01*
X127714285Y-96483390D02*
X127619047Y-96435771D01*
X127619047Y-96435771D02*
X127428571Y-96435771D01*
X127428571Y-96435771D02*
X127333333Y-96483390D01*
X127333333Y-96483390D02*
X127285714Y-96531009D01*
X127285714Y-96531009D02*
X127238095Y-96626247D01*
X88734905Y-69949819D02*
X88734905Y-68949819D01*
X88734905Y-68949819D02*
X88973000Y-68949819D01*
X88973000Y-68949819D02*
X89115857Y-68997438D01*
X89115857Y-68997438D02*
X89211095Y-69092676D01*
X89211095Y-69092676D02*
X89258714Y-69187914D01*
X89258714Y-69187914D02*
X89306333Y-69378390D01*
X89306333Y-69378390D02*
X89306333Y-69521247D01*
X89306333Y-69521247D02*
X89258714Y-69711723D01*
X89258714Y-69711723D02*
X89211095Y-69806961D01*
X89211095Y-69806961D02*
X89115857Y-69902200D01*
X89115857Y-69902200D02*
X88973000Y-69949819D01*
X88973000Y-69949819D02*
X88734905Y-69949819D01*
X89639667Y-68949819D02*
X90258714Y-68949819D01*
X90258714Y-68949819D02*
X89925381Y-69330771D01*
X89925381Y-69330771D02*
X90068238Y-69330771D01*
X90068238Y-69330771D02*
X90163476Y-69378390D01*
X90163476Y-69378390D02*
X90211095Y-69426009D01*
X90211095Y-69426009D02*
X90258714Y-69521247D01*
X90258714Y-69521247D02*
X90258714Y-69759342D01*
X90258714Y-69759342D02*
X90211095Y-69854580D01*
X90211095Y-69854580D02*
X90163476Y-69902200D01*
X90163476Y-69902200D02*
X90068238Y-69949819D01*
X90068238Y-69949819D02*
X89782524Y-69949819D01*
X89782524Y-69949819D02*
X89687286Y-69902200D01*
X89687286Y-69902200D02*
X89639667Y-69854580D01*
X89057142Y-83029580D02*
X89009523Y-83077200D01*
X89009523Y-83077200D02*
X88866666Y-83124819D01*
X88866666Y-83124819D02*
X88771428Y-83124819D01*
X88771428Y-83124819D02*
X88628571Y-83077200D01*
X88628571Y-83077200D02*
X88533333Y-82981961D01*
X88533333Y-82981961D02*
X88485714Y-82886723D01*
X88485714Y-82886723D02*
X88438095Y-82696247D01*
X88438095Y-82696247D02*
X88438095Y-82553390D01*
X88438095Y-82553390D02*
X88485714Y-82362914D01*
X88485714Y-82362914D02*
X88533333Y-82267676D01*
X88533333Y-82267676D02*
X88628571Y-82172438D01*
X88628571Y-82172438D02*
X88771428Y-82124819D01*
X88771428Y-82124819D02*
X88866666Y-82124819D01*
X88866666Y-82124819D02*
X89009523Y-82172438D01*
X89009523Y-82172438D02*
X89057142Y-82220057D01*
X90009523Y-83124819D02*
X89438095Y-83124819D01*
X89723809Y-83124819D02*
X89723809Y-82124819D01*
X89723809Y-82124819D02*
X89628571Y-82267676D01*
X89628571Y-82267676D02*
X89533333Y-82362914D01*
X89533333Y-82362914D02*
X89438095Y-82410533D01*
X90914285Y-82124819D02*
X90438095Y-82124819D01*
X90438095Y-82124819D02*
X90390476Y-82601009D01*
X90390476Y-82601009D02*
X90438095Y-82553390D01*
X90438095Y-82553390D02*
X90533333Y-82505771D01*
X90533333Y-82505771D02*
X90771428Y-82505771D01*
X90771428Y-82505771D02*
X90866666Y-82553390D01*
X90866666Y-82553390D02*
X90914285Y-82601009D01*
X90914285Y-82601009D02*
X90961904Y-82696247D01*
X90961904Y-82696247D02*
X90961904Y-82934342D01*
X90961904Y-82934342D02*
X90914285Y-83029580D01*
X90914285Y-83029580D02*
X90866666Y-83077200D01*
X90866666Y-83077200D02*
X90771428Y-83124819D01*
X90771428Y-83124819D02*
X90533333Y-83124819D01*
X90533333Y-83124819D02*
X90438095Y-83077200D01*
X90438095Y-83077200D02*
X90390476Y-83029580D01*
X132238761Y-91863057D02*
X132143523Y-91815438D01*
X132143523Y-91815438D02*
X132048285Y-91720200D01*
X132048285Y-91720200D02*
X131905428Y-91577342D01*
X131905428Y-91577342D02*
X131810190Y-91529723D01*
X131810190Y-91529723D02*
X131714952Y-91529723D01*
X131762571Y-91767819D02*
X131667333Y-91720200D01*
X131667333Y-91720200D02*
X131572095Y-91624961D01*
X131572095Y-91624961D02*
X131524476Y-91434485D01*
X131524476Y-91434485D02*
X131524476Y-91101152D01*
X131524476Y-91101152D02*
X131572095Y-90910676D01*
X131572095Y-90910676D02*
X131667333Y-90815438D01*
X131667333Y-90815438D02*
X131762571Y-90767819D01*
X131762571Y-90767819D02*
X131953047Y-90767819D01*
X131953047Y-90767819D02*
X132048285Y-90815438D01*
X132048285Y-90815438D02*
X132143523Y-90910676D01*
X132143523Y-90910676D02*
X132191142Y-91101152D01*
X132191142Y-91101152D02*
X132191142Y-91434485D01*
X132191142Y-91434485D02*
X132143523Y-91624961D01*
X132143523Y-91624961D02*
X132048285Y-91720200D01*
X132048285Y-91720200D02*
X131953047Y-91767819D01*
X131953047Y-91767819D02*
X131762571Y-91767819D01*
X133143523Y-91767819D02*
X132572095Y-91767819D01*
X132857809Y-91767819D02*
X132857809Y-90767819D01*
X132857809Y-90767819D02*
X132762571Y-90910676D01*
X132762571Y-90910676D02*
X132667333Y-91005914D01*
X132667333Y-91005914D02*
X132572095Y-91053533D01*
X88542905Y-89608819D02*
X88542905Y-88608819D01*
X88542905Y-88608819D02*
X88781000Y-88608819D01*
X88781000Y-88608819D02*
X88923857Y-88656438D01*
X88923857Y-88656438D02*
X89019095Y-88751676D01*
X89019095Y-88751676D02*
X89066714Y-88846914D01*
X89066714Y-88846914D02*
X89114333Y-89037390D01*
X89114333Y-89037390D02*
X89114333Y-89180247D01*
X89114333Y-89180247D02*
X89066714Y-89370723D01*
X89066714Y-89370723D02*
X89019095Y-89465961D01*
X89019095Y-89465961D02*
X88923857Y-89561200D01*
X88923857Y-89561200D02*
X88781000Y-89608819D01*
X88781000Y-89608819D02*
X88542905Y-89608819D01*
X89495286Y-88704057D02*
X89542905Y-88656438D01*
X89542905Y-88656438D02*
X89638143Y-88608819D01*
X89638143Y-88608819D02*
X89876238Y-88608819D01*
X89876238Y-88608819D02*
X89971476Y-88656438D01*
X89971476Y-88656438D02*
X90019095Y-88704057D01*
X90019095Y-88704057D02*
X90066714Y-88799295D01*
X90066714Y-88799295D02*
X90066714Y-88894533D01*
X90066714Y-88894533D02*
X90019095Y-89037390D01*
X90019095Y-89037390D02*
X89447667Y-89608819D01*
X89447667Y-89608819D02*
X90066714Y-89608819D01*
X101433333Y-66924819D02*
X101100000Y-66448628D01*
X100861905Y-66924819D02*
X100861905Y-65924819D01*
X100861905Y-65924819D02*
X101242857Y-65924819D01*
X101242857Y-65924819D02*
X101338095Y-65972438D01*
X101338095Y-65972438D02*
X101385714Y-66020057D01*
X101385714Y-66020057D02*
X101433333Y-66115295D01*
X101433333Y-66115295D02*
X101433333Y-66258152D01*
X101433333Y-66258152D02*
X101385714Y-66353390D01*
X101385714Y-66353390D02*
X101338095Y-66401009D01*
X101338095Y-66401009D02*
X101242857Y-66448628D01*
X101242857Y-66448628D02*
X100861905Y-66448628D01*
X102385714Y-66924819D02*
X101814286Y-66924819D01*
X102100000Y-66924819D02*
X102100000Y-65924819D01*
X102100000Y-65924819D02*
X102004762Y-66067676D01*
X102004762Y-66067676D02*
X101909524Y-66162914D01*
X101909524Y-66162914D02*
X101814286Y-66210533D01*
X91313095Y-98768819D02*
X91313095Y-99578342D01*
X91313095Y-99578342D02*
X91360714Y-99673580D01*
X91360714Y-99673580D02*
X91408333Y-99721200D01*
X91408333Y-99721200D02*
X91503571Y-99768819D01*
X91503571Y-99768819D02*
X91694047Y-99768819D01*
X91694047Y-99768819D02*
X91789285Y-99721200D01*
X91789285Y-99721200D02*
X91836904Y-99673580D01*
X91836904Y-99673580D02*
X91884523Y-99578342D01*
X91884523Y-99578342D02*
X91884523Y-98768819D01*
X92836904Y-98768819D02*
X92360714Y-98768819D01*
X92360714Y-98768819D02*
X92313095Y-99245009D01*
X92313095Y-99245009D02*
X92360714Y-99197390D01*
X92360714Y-99197390D02*
X92455952Y-99149771D01*
X92455952Y-99149771D02*
X92694047Y-99149771D01*
X92694047Y-99149771D02*
X92789285Y-99197390D01*
X92789285Y-99197390D02*
X92836904Y-99245009D01*
X92836904Y-99245009D02*
X92884523Y-99340247D01*
X92884523Y-99340247D02*
X92884523Y-99578342D01*
X92884523Y-99578342D02*
X92836904Y-99673580D01*
X92836904Y-99673580D02*
X92789285Y-99721200D01*
X92789285Y-99721200D02*
X92694047Y-99768819D01*
X92694047Y-99768819D02*
X92455952Y-99768819D01*
X92455952Y-99768819D02*
X92360714Y-99721200D01*
X92360714Y-99721200D02*
X92313095Y-99673580D01*
X119331580Y-71075857D02*
X119379200Y-71123476D01*
X119379200Y-71123476D02*
X119426819Y-71266333D01*
X119426819Y-71266333D02*
X119426819Y-71361571D01*
X119426819Y-71361571D02*
X119379200Y-71504428D01*
X119379200Y-71504428D02*
X119283961Y-71599666D01*
X119283961Y-71599666D02*
X119188723Y-71647285D01*
X119188723Y-71647285D02*
X118998247Y-71694904D01*
X118998247Y-71694904D02*
X118855390Y-71694904D01*
X118855390Y-71694904D02*
X118664914Y-71647285D01*
X118664914Y-71647285D02*
X118569676Y-71599666D01*
X118569676Y-71599666D02*
X118474438Y-71504428D01*
X118474438Y-71504428D02*
X118426819Y-71361571D01*
X118426819Y-71361571D02*
X118426819Y-71266333D01*
X118426819Y-71266333D02*
X118474438Y-71123476D01*
X118474438Y-71123476D02*
X118522057Y-71075857D01*
X119426819Y-70123476D02*
X119426819Y-70694904D01*
X119426819Y-70409190D02*
X118426819Y-70409190D01*
X118426819Y-70409190D02*
X118569676Y-70504428D01*
X118569676Y-70504428D02*
X118664914Y-70599666D01*
X118664914Y-70599666D02*
X118712533Y-70694904D01*
X119426819Y-69171095D02*
X119426819Y-69742523D01*
X119426819Y-69456809D02*
X118426819Y-69456809D01*
X118426819Y-69456809D02*
X118569676Y-69552047D01*
X118569676Y-69552047D02*
X118664914Y-69647285D01*
X118664914Y-69647285D02*
X118712533Y-69742523D01*
X117807580Y-71159666D02*
X117855200Y-71207285D01*
X117855200Y-71207285D02*
X117902819Y-71350142D01*
X117902819Y-71350142D02*
X117902819Y-71445380D01*
X117902819Y-71445380D02*
X117855200Y-71588237D01*
X117855200Y-71588237D02*
X117759961Y-71683475D01*
X117759961Y-71683475D02*
X117664723Y-71731094D01*
X117664723Y-71731094D02*
X117474247Y-71778713D01*
X117474247Y-71778713D02*
X117331390Y-71778713D01*
X117331390Y-71778713D02*
X117140914Y-71731094D01*
X117140914Y-71731094D02*
X117045676Y-71683475D01*
X117045676Y-71683475D02*
X116950438Y-71588237D01*
X116950438Y-71588237D02*
X116902819Y-71445380D01*
X116902819Y-71445380D02*
X116902819Y-71350142D01*
X116902819Y-71350142D02*
X116950438Y-71207285D01*
X116950438Y-71207285D02*
X116998057Y-71159666D01*
X116902819Y-70826332D02*
X116902819Y-70159666D01*
X116902819Y-70159666D02*
X117902819Y-70588237D01*
D13*
G04 #@! TO.C,J1*
X118830000Y-59060000D02*
X118830000Y-60860000D01*
X118830000Y-56960000D02*
X118830000Y-55810000D01*
X109490000Y-59060000D02*
X109490000Y-60860000D01*
X109490000Y-56960000D02*
X109490000Y-55810000D01*
G04 #@! TO.C,C8*
X104730333Y-81760600D02*
X105022867Y-81760600D01*
X104730333Y-82780600D02*
X105022867Y-82780600D01*
G04 #@! TO.C,JP2*
X98090000Y-81552000D02*
X97490000Y-81552000D01*
X96790000Y-80902000D02*
X96790000Y-78102000D01*
X98790000Y-78102000D02*
X98790000Y-80902000D01*
X97490000Y-77452000D02*
X98090000Y-77452000D01*
X96790000Y-80852000D02*
G75*
G03*
X97490000Y-81552000I699999J-1D01*
G01*
X98090000Y-81552000D02*
G75*
G03*
X98790000Y-80852000I1J699999D01*
G01*
X97490000Y-77452000D02*
G75*
G03*
X96790000Y-78152000I0J-700000D01*
G01*
X98790000Y-78152000D02*
G75*
G03*
X98090000Y-77452000I-700000J0D01*
G01*
G04 #@! TO.C,C18*
X134710000Y-98653733D02*
X134710000Y-98946267D01*
X133690000Y-98653733D02*
X133690000Y-98946267D01*
G04 #@! TO.C,R3*
X115301500Y-73787724D02*
X115301500Y-73278276D01*
X116346500Y-73787724D02*
X116346500Y-73278276D01*
G04 #@! TO.C,R4*
X114822500Y-90395276D02*
X114822500Y-90904724D01*
X113777500Y-90395276D02*
X113777500Y-90904724D01*
G04 #@! TO.C,U9*
X90098000Y-58464000D02*
X93858000Y-58464000D01*
X90098000Y-65284000D02*
X93858000Y-65284000D01*
X93858000Y-58464000D02*
X93858000Y-59724000D01*
X93858000Y-65284000D02*
X93858000Y-64024000D01*
X88818000Y-58564000D02*
X88578000Y-58234000D01*
X89058000Y-58234000D01*
X88818000Y-58564000D01*
G36*
X88818000Y-58564000D02*
G01*
X88578000Y-58234000D01*
X89058000Y-58234000D01*
X88818000Y-58564000D01*
G37*
G04 #@! TO.C,C12*
X111762000Y-73259733D02*
X111762000Y-73552267D01*
X110742000Y-73259733D02*
X110742000Y-73552267D01*
G04 #@! TO.C,C2*
X113286000Y-73259733D02*
X113286000Y-73552267D01*
X112266000Y-73259733D02*
X112266000Y-73552267D01*
G04 #@! TO.C,C13*
X115314000Y-88030267D02*
X115314000Y-87737733D01*
X116334000Y-88030267D02*
X116334000Y-87737733D01*
G04 #@! TO.C,C5*
X120034267Y-82298000D02*
X119741733Y-82298000D01*
X120034267Y-81278000D02*
X119741733Y-81278000D01*
G04 #@! TO.C,SW1*
X125160000Y-71550000D02*
X125160000Y-73550000D01*
X126210000Y-70250000D02*
X126660000Y-69800000D01*
X126210000Y-74850000D02*
X126660000Y-75300000D01*
X126660000Y-69800000D02*
X129160000Y-69800000D01*
X126660000Y-75300000D02*
X129160000Y-75300000D01*
X129610000Y-70250000D02*
X129160000Y-69800000D01*
X129610000Y-74850000D02*
X129160000Y-75300000D01*
X130660000Y-71550000D02*
X130660000Y-73550000D01*
G04 #@! TO.C,R9*
X135154724Y-86122500D02*
X134645276Y-86122500D01*
X135154724Y-85077500D02*
X134645276Y-85077500D01*
D14*
G04 #@! TO.C,U4*
X88547200Y-79527600D02*
X95252800Y-79527600D01*
X95252800Y-79527600D02*
X95252800Y-75819200D01*
X88547200Y-75819200D02*
X88547200Y-79527600D01*
X90147400Y-75819200D02*
X88547200Y-75819200D01*
X95252800Y-75819200D02*
X93652600Y-75819200D01*
D13*
G04 #@! TO.C,C3*
X109153733Y-92790000D02*
X109446267Y-92790000D01*
X109153733Y-93810000D02*
X109446267Y-93810000D01*
G04 #@! TO.C,C21*
X105310000Y-98753733D02*
X105310000Y-99046267D01*
X104290000Y-98753733D02*
X104290000Y-99046267D01*
G04 #@! TO.C,J3*
X123370000Y-90055000D02*
X122735000Y-90055000D01*
X123370000Y-89420000D02*
X123370000Y-90055000D01*
G04 #@! TO.C,C4*
X113103733Y-92790000D02*
X113396267Y-92790000D01*
X113103733Y-93810000D02*
X113396267Y-93810000D01*
G04 #@! TO.C,C20*
X133690000Y-103346267D02*
X133690000Y-103053733D01*
X134710000Y-103346267D02*
X134710000Y-103053733D01*
G04 #@! TO.C,C17*
X94690000Y-101596267D02*
X94690000Y-101303733D01*
X95710000Y-101596267D02*
X95710000Y-101303733D01*
G04 #@! TO.C,C23*
X104290000Y-103046267D02*
X104290000Y-102753733D01*
X105310000Y-103046267D02*
X105310000Y-102753733D01*
G04 #@! TO.C,U2*
X108090000Y-84210000D02*
X108090000Y-83560000D01*
X108740000Y-76990000D02*
X108090000Y-76990000D01*
X108740000Y-84210000D02*
X108090000Y-84210000D01*
X114660000Y-76990000D02*
X115310000Y-76990000D01*
X114660000Y-84210000D02*
X115310000Y-84210000D01*
X115310000Y-76990000D02*
X115310000Y-77640000D01*
X115310000Y-84210000D02*
X115310000Y-83560000D01*
G04 #@! TO.C,C6*
X104603333Y-76883800D02*
X104895867Y-76883800D01*
X104603333Y-77903800D02*
X104895867Y-77903800D01*
G04 #@! TO.C,J2*
X124075000Y-62645000D02*
X124075000Y-61375000D01*
X125345000Y-62645000D02*
X124075000Y-62645000D01*
X127505000Y-60332071D02*
X127505000Y-59935000D01*
X128265000Y-60332071D02*
X128265000Y-59935000D01*
X124965000Y-60265000D02*
X124965000Y-59935000D01*
X125725000Y-60265000D02*
X125725000Y-59935000D01*
X124015000Y-59935000D02*
X129215000Y-59935000D01*
X126615000Y-59935000D02*
X126615000Y-57275000D01*
X129215000Y-59935000D02*
X129215000Y-57275000D01*
X124015000Y-57275000D02*
X124015000Y-59935000D01*
X124965000Y-57275000D02*
X124965000Y-51275000D01*
X125025000Y-57275000D02*
X125025000Y-51275000D01*
X125145000Y-57275000D02*
X125145000Y-51275000D01*
X125265000Y-57275000D02*
X125265000Y-51275000D01*
X125385000Y-57275000D02*
X125385000Y-51275000D01*
X125505000Y-57275000D02*
X125505000Y-51275000D01*
X125625000Y-57275000D02*
X125625000Y-51275000D01*
X127505000Y-57275000D02*
X127505000Y-51275000D01*
X129215000Y-57275000D02*
X124015000Y-57275000D01*
X124965000Y-51275000D02*
X125725000Y-51275000D01*
X125725000Y-51275000D02*
X125725000Y-57275000D01*
X127505000Y-51275000D02*
X128265000Y-51275000D01*
X128265000Y-51275000D02*
X128265000Y-57275000D01*
G04 #@! TO.C,Y1*
X113300000Y-92300000D02*
X113300000Y-89000000D01*
X113300000Y-89000000D02*
X109300000Y-89000000D01*
G04 #@! TO.C,C19*
X89746267Y-103710000D02*
X89453733Y-103710000D01*
X89746267Y-102690000D02*
X89453733Y-102690000D01*
G04 #@! TO.C,C9*
X113582667Y-87835200D02*
X113290133Y-87835200D01*
X113582667Y-86815200D02*
X113290133Y-86815200D01*
G04 #@! TO.C,R8*
X135154724Y-83422500D02*
X134645276Y-83422500D01*
X135154724Y-82377500D02*
X134645276Y-82377500D01*
G04 #@! TO.C,R5*
X125045276Y-67577500D02*
X125554724Y-67577500D01*
X125045276Y-68622500D02*
X125554724Y-68622500D01*
G04 #@! TO.C,D1*
X104850000Y-63650000D02*
X97550000Y-63650000D01*
X104850000Y-58150000D02*
X97550000Y-58150000D01*
X97550000Y-58150000D02*
X97550000Y-59300000D01*
G04 #@! TO.C,C24*
X124790000Y-103146267D02*
X124790000Y-102853733D01*
X125810000Y-103146267D02*
X125810000Y-102853733D01*
G04 #@! TO.C,C10*
X119780267Y-77726000D02*
X119487733Y-77726000D01*
X119780267Y-76706000D02*
X119487733Y-76706000D01*
G04 #@! TO.C,U8*
X124285000Y-101100000D02*
X124285000Y-97500000D01*
X124285000Y-101100000D02*
X124285000Y-103300000D01*
X117515000Y-101100000D02*
X117515000Y-98900000D01*
X117515000Y-101100000D02*
X117515000Y-103300000D01*
G04 #@! TO.C,JP1*
X96800000Y-71400000D02*
X96200000Y-71400000D01*
X95500000Y-70700000D02*
X95500000Y-69300000D01*
X97500000Y-69300000D02*
X97500000Y-70700000D01*
X96200000Y-68600000D02*
X96800000Y-68600000D01*
X95500000Y-70700000D02*
G75*
G03*
X96200000Y-71400000I699999J-1D01*
G01*
X96800000Y-71400000D02*
G75*
G03*
X97500000Y-70700000I1J699999D01*
G01*
X96200000Y-68600000D02*
G75*
G03*
X95500000Y-69300000I0J-700000D01*
G01*
X97500000Y-69300000D02*
G75*
G03*
X96800000Y-68600000I-700000J0D01*
G01*
G04 #@! TO.C,R7*
X93854724Y-87522500D02*
X93345276Y-87522500D01*
X93854724Y-86477500D02*
X93345276Y-86477500D01*
G04 #@! TO.C,C14*
X107210000Y-61853733D02*
X107210000Y-62146267D01*
X106190000Y-61853733D02*
X106190000Y-62146267D01*
G04 #@! TO.C,R2*
X113777500Y-73787724D02*
X113777500Y-73278276D01*
X114822500Y-73787724D02*
X114822500Y-73278276D01*
G04 #@! TO.C,C1*
X106953733Y-67390000D02*
X107246267Y-67390000D01*
X106953733Y-68410000D02*
X107246267Y-68410000D01*
G04 #@! TO.C,C16*
X93253733Y-83590000D02*
X93546267Y-83590000D01*
X93253733Y-84610000D02*
X93546267Y-84610000D01*
G04 #@! TO.C,C22*
X125810000Y-98753733D02*
X125810000Y-99046267D01*
X124790000Y-98753733D02*
X124790000Y-99046267D01*
G04 #@! TO.C,U1*
X101575000Y-68975000D02*
X101575000Y-69235000D01*
X101575000Y-69235000D02*
X99900000Y-69235000D01*
X101575000Y-74425000D02*
X101575000Y-74165000D01*
X104300000Y-68975000D02*
X101575000Y-68975000D01*
X104300000Y-68975000D02*
X107025000Y-68975000D01*
X104300000Y-74425000D02*
X101575000Y-74425000D01*
X104300000Y-74425000D02*
X107025000Y-74425000D01*
X107025000Y-68975000D02*
X107025000Y-69235000D01*
X107025000Y-74425000D02*
X107025000Y-74165000D01*
G04 #@! TO.C,R6*
X130285276Y-67577500D02*
X130794724Y-67577500D01*
X130285276Y-68622500D02*
X130794724Y-68622500D01*
G04 #@! TO.C,U7*
X103785000Y-101100000D02*
X103785000Y-97500000D01*
X103785000Y-101100000D02*
X103785000Y-103300000D01*
X97015000Y-101100000D02*
X97015000Y-98900000D01*
X97015000Y-101100000D02*
X97015000Y-103300000D01*
G04 #@! TO.C,U6*
X133185000Y-101000000D02*
X133185000Y-97400000D01*
X133185000Y-101000000D02*
X133185000Y-103200000D01*
X126415000Y-101000000D02*
X126415000Y-98800000D01*
X126415000Y-101000000D02*
X126415000Y-103200000D01*
G04 #@! TO.C,D3*
X87390000Y-70400000D02*
X87390000Y-72400000D01*
X87390000Y-70400000D02*
X91250000Y-70400000D01*
X87390000Y-72400000D02*
X91250000Y-72400000D01*
G04 #@! TO.C,C15*
X89553733Y-83590000D02*
X89846267Y-83590000D01*
X89553733Y-84610000D02*
X89846267Y-84610000D01*
G04 #@! TO.C,Q1*
X136480000Y-91960000D02*
X136480000Y-88800000D01*
X136480000Y-91960000D02*
X135550000Y-91960000D01*
X133320000Y-91960000D02*
X133320000Y-90500000D01*
X133320000Y-91960000D02*
X134250000Y-91960000D01*
G04 #@! TO.C,D2*
X91710000Y-88300000D02*
X91710000Y-86300000D01*
X91710000Y-88300000D02*
X87850000Y-88300000D01*
X91710000Y-86300000D02*
X87850000Y-86300000D01*
G04 #@! TO.C,R1*
X101345276Y-67377500D02*
X101854724Y-67377500D01*
X101345276Y-68422500D02*
X101854724Y-68422500D01*
G04 #@! TO.C,U5*
X93400000Y-102350000D02*
X93400000Y-102250000D01*
X93400000Y-102250000D02*
X93800000Y-102250000D01*
X93400000Y-99950000D02*
X93400000Y-100150000D01*
X93400000Y-99950000D02*
X90800000Y-99950000D01*
X90800000Y-102350000D02*
X93400000Y-102350000D01*
X90800000Y-102150000D02*
X90800000Y-102350000D01*
X90800000Y-99950000D02*
X90800000Y-100150000D01*
G04 #@! TO.C,C11*
X119382000Y-73386733D02*
X119382000Y-73679267D01*
X118362000Y-73386733D02*
X118362000Y-73679267D01*
G04 #@! TO.C,C7*
X117858000Y-73386733D02*
X117858000Y-73679267D01*
X116838000Y-73386733D02*
X116838000Y-73679267D01*
G04 #@! TD*
%LPC*%
D12*
X86823779Y-57654819D02*
X86823779Y-56654819D01*
X87252350Y-57654819D02*
X87252350Y-57131009D01*
X87252350Y-57131009D02*
X87204731Y-57035771D01*
X87204731Y-57035771D02*
X87109493Y-56988152D01*
X87109493Y-56988152D02*
X86966636Y-56988152D01*
X86966636Y-56988152D02*
X86871398Y-57035771D01*
X86871398Y-57035771D02*
X86823779Y-57083390D01*
X87585684Y-56988152D02*
X87966636Y-56988152D01*
X87728541Y-56654819D02*
X87728541Y-57511961D01*
X87728541Y-57511961D02*
X87776160Y-57607200D01*
X87776160Y-57607200D02*
X87871398Y-57654819D01*
X87871398Y-57654819D02*
X87966636Y-57654819D01*
X88157113Y-56988152D02*
X88538065Y-56988152D01*
X88299970Y-56654819D02*
X88299970Y-57511961D01*
X88299970Y-57511961D02*
X88347589Y-57607200D01*
X88347589Y-57607200D02*
X88442827Y-57654819D01*
X88442827Y-57654819D02*
X88538065Y-57654819D01*
X88871399Y-56988152D02*
X88871399Y-57988152D01*
X88871399Y-57035771D02*
X88966637Y-56988152D01*
X88966637Y-56988152D02*
X89157113Y-56988152D01*
X89157113Y-56988152D02*
X89252351Y-57035771D01*
X89252351Y-57035771D02*
X89299970Y-57083390D01*
X89299970Y-57083390D02*
X89347589Y-57178628D01*
X89347589Y-57178628D02*
X89347589Y-57464342D01*
X89347589Y-57464342D02*
X89299970Y-57559580D01*
X89299970Y-57559580D02*
X89252351Y-57607200D01*
X89252351Y-57607200D02*
X89157113Y-57654819D01*
X89157113Y-57654819D02*
X88966637Y-57654819D01*
X88966637Y-57654819D02*
X88871399Y-57607200D01*
X89776161Y-57559580D02*
X89823780Y-57607200D01*
X89823780Y-57607200D02*
X89776161Y-57654819D01*
X89776161Y-57654819D02*
X89728542Y-57607200D01*
X89728542Y-57607200D02*
X89776161Y-57559580D01*
X89776161Y-57559580D02*
X89776161Y-57654819D01*
X89776161Y-57035771D02*
X89823780Y-57083390D01*
X89823780Y-57083390D02*
X89776161Y-57131009D01*
X89776161Y-57131009D02*
X89728542Y-57083390D01*
X89728542Y-57083390D02*
X89776161Y-57035771D01*
X89776161Y-57035771D02*
X89776161Y-57131009D01*
X90966636Y-56607200D02*
X90109494Y-57892914D01*
X92014255Y-56607200D02*
X91157113Y-57892914D01*
X92776160Y-56988152D02*
X92776160Y-57797676D01*
X92776160Y-57797676D02*
X92728541Y-57892914D01*
X92728541Y-57892914D02*
X92680922Y-57940533D01*
X92680922Y-57940533D02*
X92585684Y-57988152D01*
X92585684Y-57988152D02*
X92442827Y-57988152D01*
X92442827Y-57988152D02*
X92347589Y-57940533D01*
X92776160Y-57607200D02*
X92680922Y-57654819D01*
X92680922Y-57654819D02*
X92490446Y-57654819D01*
X92490446Y-57654819D02*
X92395208Y-57607200D01*
X92395208Y-57607200D02*
X92347589Y-57559580D01*
X92347589Y-57559580D02*
X92299970Y-57464342D01*
X92299970Y-57464342D02*
X92299970Y-57178628D01*
X92299970Y-57178628D02*
X92347589Y-57083390D01*
X92347589Y-57083390D02*
X92395208Y-57035771D01*
X92395208Y-57035771D02*
X92490446Y-56988152D01*
X92490446Y-56988152D02*
X92680922Y-56988152D01*
X92680922Y-56988152D02*
X92776160Y-57035771D01*
X93633303Y-57607200D02*
X93538065Y-57654819D01*
X93538065Y-57654819D02*
X93347589Y-57654819D01*
X93347589Y-57654819D02*
X93252351Y-57607200D01*
X93252351Y-57607200D02*
X93204732Y-57511961D01*
X93204732Y-57511961D02*
X93204732Y-57131009D01*
X93204732Y-57131009D02*
X93252351Y-57035771D01*
X93252351Y-57035771D02*
X93347589Y-56988152D01*
X93347589Y-56988152D02*
X93538065Y-56988152D01*
X93538065Y-56988152D02*
X93633303Y-57035771D01*
X93633303Y-57035771D02*
X93680922Y-57131009D01*
X93680922Y-57131009D02*
X93680922Y-57226247D01*
X93680922Y-57226247D02*
X93204732Y-57321485D01*
X94014256Y-56988152D02*
X94538065Y-56988152D01*
X94538065Y-56988152D02*
X94014256Y-57654819D01*
X94014256Y-57654819D02*
X94538065Y-57654819D01*
X94823780Y-56988152D02*
X95347589Y-56988152D01*
X95347589Y-56988152D02*
X94823780Y-57654819D01*
X94823780Y-57654819D02*
X95347589Y-57654819D01*
X95728542Y-57559580D02*
X95776161Y-57607200D01*
X95776161Y-57607200D02*
X95728542Y-57654819D01*
X95728542Y-57654819D02*
X95680923Y-57607200D01*
X95680923Y-57607200D02*
X95728542Y-57559580D01*
X95728542Y-57559580D02*
X95728542Y-57654819D01*
X96347589Y-57654819D02*
X96252351Y-57607200D01*
X96252351Y-57607200D02*
X96204732Y-57559580D01*
X96204732Y-57559580D02*
X96157113Y-57464342D01*
X96157113Y-57464342D02*
X96157113Y-57178628D01*
X96157113Y-57178628D02*
X96204732Y-57083390D01*
X96204732Y-57083390D02*
X96252351Y-57035771D01*
X96252351Y-57035771D02*
X96347589Y-56988152D01*
X96347589Y-56988152D02*
X96490446Y-56988152D01*
X96490446Y-56988152D02*
X96585684Y-57035771D01*
X96585684Y-57035771D02*
X96633303Y-57083390D01*
X96633303Y-57083390D02*
X96680922Y-57178628D01*
X96680922Y-57178628D02*
X96680922Y-57464342D01*
X96680922Y-57464342D02*
X96633303Y-57559580D01*
X96633303Y-57559580D02*
X96585684Y-57607200D01*
X96585684Y-57607200D02*
X96490446Y-57654819D01*
X96490446Y-57654819D02*
X96347589Y-57654819D01*
X97109494Y-57654819D02*
X97109494Y-56988152D01*
X97109494Y-57178628D02*
X97157113Y-57083390D01*
X97157113Y-57083390D02*
X97204732Y-57035771D01*
X97204732Y-57035771D02*
X97299970Y-56988152D01*
X97299970Y-56988152D02*
X97395208Y-56988152D01*
X98157113Y-56988152D02*
X98157113Y-57797676D01*
X98157113Y-57797676D02*
X98109494Y-57892914D01*
X98109494Y-57892914D02*
X98061875Y-57940533D01*
X98061875Y-57940533D02*
X97966637Y-57988152D01*
X97966637Y-57988152D02*
X97823780Y-57988152D01*
X97823780Y-57988152D02*
X97728542Y-57940533D01*
X98157113Y-57607200D02*
X98061875Y-57654819D01*
X98061875Y-57654819D02*
X97871399Y-57654819D01*
X97871399Y-57654819D02*
X97776161Y-57607200D01*
X97776161Y-57607200D02*
X97728542Y-57559580D01*
X97728542Y-57559580D02*
X97680923Y-57464342D01*
X97680923Y-57464342D02*
X97680923Y-57178628D01*
X97680923Y-57178628D02*
X97728542Y-57083390D01*
X97728542Y-57083390D02*
X97776161Y-57035771D01*
X97776161Y-57035771D02*
X97871399Y-56988152D01*
X97871399Y-56988152D02*
X98061875Y-56988152D01*
X98061875Y-56988152D02*
X98157113Y-57035771D01*
G04 #@! TO.C,U3*
G36*
X136416962Y-116783715D02*
G01*
X87116962Y-116783715D01*
X87116962Y-109783715D01*
X136416962Y-109783715D01*
X136416962Y-116783715D01*
G37*
G04 #@! TD*
D15*
G04 #@! TO.C,J1*
X117050000Y-61665000D03*
X111270000Y-61665000D03*
D16*
X117360000Y-62740000D03*
X116560000Y-62740000D03*
D17*
X115410000Y-62740000D03*
X114410000Y-62740000D03*
X113910000Y-62740000D03*
X112910000Y-62740000D03*
D16*
X111760000Y-62740000D03*
X110960000Y-62740000D03*
X110960000Y-62740000D03*
X111760000Y-62740000D03*
D17*
X112410000Y-62740000D03*
X113410000Y-62740000D03*
X114910000Y-62740000D03*
X115910000Y-62740000D03*
D16*
X116560000Y-62740000D03*
X117360000Y-62740000D03*
D18*
X118480000Y-62165000D03*
D19*
X118480000Y-57985000D03*
D18*
X109840000Y-62165000D03*
D19*
X109840000Y-57985000D03*
G04 #@! TD*
D20*
G04 #@! TO.C,C8*
X104014100Y-82270600D03*
X105739100Y-82270600D03*
G04 #@! TD*
D21*
G04 #@! TO.C,JP2*
X97790000Y-80802000D03*
D22*
X97790000Y-78202000D03*
G04 #@! TD*
D23*
G04 #@! TO.C,C18*
X134200000Y-97937500D03*
X134200000Y-99662500D03*
G04 #@! TD*
D24*
G04 #@! TO.C,R3*
X115824000Y-74445500D03*
X115824000Y-72620500D03*
G04 #@! TD*
D25*
G04 #@! TO.C,R4*
X114300000Y-89737500D03*
X114300000Y-91562500D03*
G04 #@! TD*
D26*
G04 #@! TO.C,U9*
X88798000Y-59574000D03*
X88798000Y-61874000D03*
D27*
X95098000Y-61874000D03*
D26*
X88798000Y-64174000D03*
G04 #@! TD*
D23*
G04 #@! TO.C,C12*
X111252000Y-72543500D03*
X111252000Y-74268500D03*
G04 #@! TD*
G04 #@! TO.C,C2*
X112776000Y-72543500D03*
X112776000Y-74268500D03*
G04 #@! TD*
D28*
G04 #@! TO.C,C13*
X115824000Y-88746500D03*
X115824000Y-87021500D03*
G04 #@! TD*
D29*
G04 #@! TO.C,U3*
X88266962Y-109283715D03*
X90016962Y-109283715D03*
X91516962Y-109283715D03*
X93016962Y-109283715D03*
X94516962Y-109283715D03*
X96016962Y-109283715D03*
X97516962Y-109283715D03*
X99016962Y-109283715D03*
X100516962Y-109283715D03*
X102016962Y-109283715D03*
X103516962Y-109283715D03*
X105016962Y-109283715D03*
X106516962Y-109283715D03*
X108016962Y-109283715D03*
X109516962Y-109283715D03*
X111016962Y-109283715D03*
X112516962Y-109283715D03*
X114016962Y-109283715D03*
X115516962Y-109283715D03*
X117016962Y-109283715D03*
X118516962Y-109283715D03*
X120016962Y-109283715D03*
X121516962Y-109283715D03*
X123016962Y-109283715D03*
X124516962Y-109283715D03*
X126016962Y-109283715D03*
X127516962Y-109283715D03*
X129016962Y-109283715D03*
X130516962Y-109283715D03*
X132016962Y-109283715D03*
X133516962Y-109283715D03*
X135266962Y-109283715D03*
G04 #@! TD*
D30*
G04 #@! TO.C,C5*
X120750500Y-81788000D03*
X119025500Y-81788000D03*
G04 #@! TD*
D31*
G04 #@! TO.C,SW1*
X124760000Y-70650000D03*
X131060000Y-70650000D03*
X124760000Y-74450000D03*
X131060000Y-74450000D03*
G04 #@! TD*
D32*
G04 #@! TO.C,R9*
X135812500Y-85600000D03*
X133987500Y-85600000D03*
G04 #@! TD*
D33*
G04 #@! TO.C,U4*
X89360000Y-80873800D03*
X90630000Y-80873800D03*
X91900000Y-80873800D03*
X93170000Y-80873800D03*
X94440000Y-80873800D03*
D34*
X91900000Y-74600000D03*
G04 #@! TD*
D20*
G04 #@! TO.C,C3*
X108437500Y-93300000D03*
X110162500Y-93300000D03*
G04 #@! TD*
D23*
G04 #@! TO.C,C21*
X104800000Y-98037500D03*
X104800000Y-99762500D03*
G04 #@! TD*
D35*
G04 #@! TO.C,J3*
X119560000Y-90690000D03*
D36*
X122100000Y-90690000D03*
D35*
X124640000Y-90690000D03*
X119560000Y-87515000D03*
X124640000Y-87515000D03*
D36*
X121084000Y-85610000D03*
X123116000Y-85610000D03*
D37*
X122735000Y-89420000D03*
X121465000Y-89420000D03*
X122735000Y-88150000D03*
X121465000Y-88150000D03*
X122735000Y-86880000D03*
X121465000Y-86880000D03*
G04 #@! TD*
D38*
G04 #@! TO.C,FID2*
X92100000Y-96100000D03*
G04 #@! TD*
D20*
G04 #@! TO.C,C4*
X112387500Y-93300000D03*
X114112500Y-93300000D03*
G04 #@! TD*
D28*
G04 #@! TO.C,C20*
X134200000Y-104062500D03*
X134200000Y-102337500D03*
G04 #@! TD*
G04 #@! TO.C,C17*
X95200000Y-102312500D03*
X95200000Y-100587500D03*
G04 #@! TD*
G04 #@! TO.C,C23*
X104800000Y-103762500D03*
X104800000Y-102037500D03*
G04 #@! TD*
D39*
G04 #@! TO.C,*
X111770000Y-101359673D03*
G04 #@! TD*
D40*
G04 #@! TO.C,U2*
X108262500Y-78000000D03*
X108262500Y-78400000D03*
X108262500Y-78800000D03*
X108262500Y-79200000D03*
X108262500Y-79600000D03*
X108262500Y-80000000D03*
X108262500Y-80400000D03*
X108262500Y-80800000D03*
X108262500Y-81200000D03*
X108262500Y-81600000D03*
X108262500Y-82000000D03*
X108262500Y-82400000D03*
X108262500Y-82800000D03*
X108262500Y-83200000D03*
D41*
X109100000Y-84037500D03*
X109500000Y-84037500D03*
X109900000Y-84037500D03*
X110300000Y-84037500D03*
X110700000Y-84037500D03*
X111100000Y-84037500D03*
X111500000Y-84037500D03*
X111900000Y-84037500D03*
X112300000Y-84037500D03*
X112700000Y-84037500D03*
X113100000Y-84037500D03*
X113500000Y-84037500D03*
X113900000Y-84037500D03*
X114300000Y-84037500D03*
D40*
X115137500Y-83200000D03*
X115137500Y-82800000D03*
X115137500Y-82400000D03*
X115137500Y-82000000D03*
X115137500Y-81600000D03*
X115137500Y-81200000D03*
X115137500Y-80800000D03*
X115137500Y-80400000D03*
X115137500Y-80000000D03*
X115137500Y-79600000D03*
X115137500Y-79200000D03*
X115137500Y-78800000D03*
X115137500Y-78400000D03*
X115137500Y-78000000D03*
D41*
X114300000Y-77162500D03*
X113900000Y-77162500D03*
X113500000Y-77162500D03*
X113100000Y-77162500D03*
X112700000Y-77162500D03*
X112300000Y-77162500D03*
X111900000Y-77162500D03*
X111500000Y-77162500D03*
X111100000Y-77162500D03*
X110700000Y-77162500D03*
X110300000Y-77162500D03*
X109900000Y-77162500D03*
X109500000Y-77162500D03*
X109100000Y-77162500D03*
D42*
X111700000Y-80600000D03*
G04 #@! TD*
D20*
G04 #@! TO.C,C6*
X103887100Y-77393800D03*
X105612100Y-77393800D03*
G04 #@! TD*
D38*
G04 #@! TO.C,FID1*
X93726000Y-67818000D03*
G04 #@! TD*
D43*
G04 #@! TO.C,J2*
X125345000Y-61375000D03*
D44*
X127885000Y-61375000D03*
G04 #@! TD*
D45*
G04 #@! TO.C,Y1*
X112400000Y-89800000D03*
X110200000Y-89800000D03*
X110200000Y-91500000D03*
X112400000Y-91500000D03*
G04 #@! TD*
D30*
G04 #@! TO.C,C19*
X90462500Y-103200000D03*
X88737500Y-103200000D03*
G04 #@! TD*
G04 #@! TO.C,C9*
X114298900Y-87325200D03*
X112573900Y-87325200D03*
G04 #@! TD*
D32*
G04 #@! TO.C,R8*
X135812500Y-82900000D03*
X133987500Y-82900000D03*
G04 #@! TD*
D46*
G04 #@! TO.C,R5*
X124387500Y-68100000D03*
X126212500Y-68100000D03*
G04 #@! TD*
D47*
G04 #@! TO.C,D1*
X103650000Y-62550000D03*
X103650000Y-59250000D03*
X98750000Y-59250000D03*
X98750000Y-62550000D03*
G04 #@! TD*
D28*
G04 #@! TO.C,C24*
X125300000Y-103862500D03*
X125300000Y-102137500D03*
G04 #@! TD*
D30*
G04 #@! TO.C,C10*
X120496500Y-77216000D03*
X118771500Y-77216000D03*
G04 #@! TD*
D48*
G04 #@! TO.C,U8*
X123825000Y-98237500D03*
X123175000Y-98237500D03*
X122525000Y-98237500D03*
X121875000Y-98237500D03*
X121225000Y-98237500D03*
X120575000Y-98237500D03*
X119925000Y-98237500D03*
X119275000Y-98237500D03*
X118625000Y-98237500D03*
X117975000Y-98237500D03*
X117975000Y-103962500D03*
X118625000Y-103962500D03*
X119275000Y-103962500D03*
X119925000Y-103962500D03*
X120575000Y-103962500D03*
X121225000Y-103962500D03*
X121875000Y-103962500D03*
X122525000Y-103962500D03*
X123175000Y-103962500D03*
X123825000Y-103962500D03*
G04 #@! TD*
D49*
G04 #@! TO.C,JP1*
X96500000Y-70650000D03*
D50*
X96500000Y-69350000D03*
G04 #@! TD*
D32*
G04 #@! TO.C,R7*
X94512500Y-87000000D03*
X92687500Y-87000000D03*
G04 #@! TD*
D23*
G04 #@! TO.C,C14*
X106700000Y-61137500D03*
X106700000Y-62862500D03*
G04 #@! TD*
D24*
G04 #@! TO.C,R2*
X114300000Y-74445500D03*
X114300000Y-72620500D03*
G04 #@! TD*
D20*
G04 #@! TO.C,C1*
X106237500Y-67900000D03*
X107962500Y-67900000D03*
G04 #@! TD*
D38*
G04 #@! TO.C,FID3*
X131500000Y-64000000D03*
G04 #@! TD*
D20*
G04 #@! TO.C,C16*
X92537500Y-84100000D03*
X94262500Y-84100000D03*
G04 #@! TD*
D23*
G04 #@! TO.C,C22*
X125300000Y-98037500D03*
X125300000Y-99762500D03*
G04 #@! TD*
D51*
G04 #@! TO.C,U1*
X100700000Y-69795000D03*
X100700000Y-71065000D03*
X100700000Y-72335000D03*
X100700000Y-73605000D03*
X107900000Y-73605000D03*
X107900000Y-72335000D03*
X107900000Y-71065000D03*
X107900000Y-69795000D03*
G04 #@! TD*
D46*
G04 #@! TO.C,R6*
X129627500Y-68100000D03*
X131452500Y-68100000D03*
G04 #@! TD*
D48*
G04 #@! TO.C,U7*
X103325000Y-98237500D03*
X102675000Y-98237500D03*
X102025000Y-98237500D03*
X101375000Y-98237500D03*
X100725000Y-98237500D03*
X100075000Y-98237500D03*
X99425000Y-98237500D03*
X98775000Y-98237500D03*
X98125000Y-98237500D03*
X97475000Y-98237500D03*
X97475000Y-103962500D03*
X98125000Y-103962500D03*
X98775000Y-103962500D03*
X99425000Y-103962500D03*
X100075000Y-103962500D03*
X100725000Y-103962500D03*
X101375000Y-103962500D03*
X102025000Y-103962500D03*
X102675000Y-103962500D03*
X103325000Y-103962500D03*
G04 #@! TD*
G04 #@! TO.C,U6*
X132725000Y-98137500D03*
X132075000Y-98137500D03*
X131425000Y-98137500D03*
X130775000Y-98137500D03*
X130125000Y-98137500D03*
X129475000Y-98137500D03*
X128825000Y-98137500D03*
X128175000Y-98137500D03*
X127525000Y-98137500D03*
X126875000Y-98137500D03*
X126875000Y-103862500D03*
X127525000Y-103862500D03*
X128175000Y-103862500D03*
X128825000Y-103862500D03*
X129475000Y-103862500D03*
X130125000Y-103862500D03*
X130775000Y-103862500D03*
X131425000Y-103862500D03*
X132075000Y-103862500D03*
X132725000Y-103862500D03*
G04 #@! TD*
D52*
G04 #@! TO.C,D3*
X88200000Y-71400000D03*
X91000000Y-71400000D03*
G04 #@! TD*
D20*
G04 #@! TO.C,C15*
X88837500Y-84100000D03*
X90562500Y-84100000D03*
G04 #@! TD*
D53*
G04 #@! TO.C,Q1*
X135850000Y-89700000D03*
X133950000Y-89700000D03*
X134900000Y-92700000D03*
G04 #@! TD*
D54*
G04 #@! TO.C,D2*
X90900000Y-87300000D03*
X88100000Y-87300000D03*
G04 #@! TD*
D46*
G04 #@! TO.C,R1*
X100687500Y-67900000D03*
X102512500Y-67900000D03*
G04 #@! TD*
D55*
G04 #@! TO.C,U5*
X93650000Y-101900000D03*
X93650000Y-101400000D03*
X93650000Y-100900000D03*
X93650000Y-100400000D03*
X90550000Y-100400000D03*
X90550000Y-100900000D03*
X90550000Y-101400000D03*
X90550000Y-101900000D03*
G04 #@! TD*
D23*
G04 #@! TO.C,C11*
X118872000Y-72670500D03*
X118872000Y-74395500D03*
G04 #@! TD*
G04 #@! TO.C,C7*
X117348000Y-72670500D03*
X117348000Y-74395500D03*
G04 #@! TD*
%LPD*%
M02*
