M48
; DRILL file {KiCad 7.0.11} date Sat Feb 24 15:32:20 2024
; FORMAT={-:-/ absolute / inch / decimal}
; #@! TF.CreationDate,2024-02-24T15:32:20+03:00
; #@! TF.GenerationSoftware,Kicad,Pcbnew,7.0.11
; #@! TF.FileFunction,Plated,1,2,PTH
FMAT,2
INCH
; #@! TA.AperFunction,Plated,PTH,ViaDrill
T1C0.0118
; #@! TA.AperFunction,Plated,PTH,ComponentDrill
T2C0.0236
; #@! TA.AperFunction,Plated,PTH,ComponentDrill
T3C0.0394
%
G90
G05
T1
X3.3819Y-2.2126
X3.3819Y-2.2913
X3.3819Y-2.3701
X3.3819Y-2.4488
X3.3819Y-2.5276
X3.3819Y-2.6063
X3.3819Y-2.685
X3.3819Y-2.7638
X3.3819Y-2.8425
X3.3819Y-2.9213
X3.3819Y-3.0
X3.3819Y-3.0787
X3.3819Y-3.1575
X3.3819Y-3.2362
X3.3819Y-3.315
X3.3819Y-3.3937
X3.3819Y-3.4724
X3.3819Y-3.5512
X3.3819Y-3.6299
X3.3819Y-3.7087
X3.3819Y-3.7874
X3.3819Y-3.8661
X3.3819Y-3.9449
X3.3819Y-4.0236
X3.3819Y-4.1024
X3.3819Y-4.1811
X3.44Y-2.69
X3.4606Y-2.2126
X3.475Y-4.1966
X3.4753Y-4.16
X3.4961Y-3.2638
X3.5236Y-4.0197
X3.535Y-2.87
X3.5394Y-2.2126
X3.58Y-2.92
X3.58Y-2.955
X3.5827Y-2.685
X3.5827Y-2.7283
X3.615Y-2.92
X3.615Y-2.955
X3.6181Y-2.2126
X3.6181Y-3.0157
X3.6181Y-3.0984
X3.626Y-4.1929
X3.6299Y-3.7087
X3.6299Y-3.8622
X3.6299Y-3.998
X3.6417Y-3.3622
X3.6496Y-3.4724
X3.6496Y-3.5157
X3.65Y-2.92
X3.65Y-2.955
X3.6772Y-3.0472
X3.689Y-4.1496
X3.69Y-2.82
X3.6969Y-2.2126
X3.72Y-2.38
X3.72Y-2.42
X3.72Y-2.455
X3.72Y-2.49
X3.7205Y-3.0591
X3.7244Y-4.1929
X3.73Y-4.09
X3.748Y-3.9154
X3.752Y-4.1496
X3.765Y-2.38
X3.765Y-2.42
X3.765Y-2.455
X3.765Y-2.49
X3.77Y-3.12
X3.7717Y-3.5591
X3.7717Y-3.6024
X3.775Y-3.86
X3.7756Y-2.2126
X3.8031Y-3.7008
X3.8071Y-2.6732
X3.8189Y-4.1496
X3.8386Y-3.685
X3.8543Y-2.2126
X3.865Y-2.685
X3.88Y-3.975
X3.8898Y-2.5984
X3.91Y-3.1
X3.9331Y-2.2126
X3.9331Y-2.3346
X3.9488Y-2.5945
X3.955Y-3.98
X3.9646Y-2.9409
X3.995Y-2.335
X4.0118Y-2.2126
X4.0433Y-3.9213
X4.0433Y-3.9724
X4.0433Y-4.0433
X4.0512Y-3.063
X4.0551Y-3.2598
X4.0906Y-2.2126
X4.1142Y-2.8228
X4.1181Y-2.689
X4.1496Y-4.1457
X4.155Y-2.3
X4.1654Y-3.8583
X4.1693Y-2.2126
X4.1811Y-2.748
X4.2008Y-2.3661
X4.2008Y-3.063
X4.2008Y-3.2222
X4.205Y-3.975
X4.2087Y-2.2795
X4.2205Y-4.1929
X4.2441Y-3.5433
X4.248Y-2.2126
X4.264Y-3.337
X4.275Y-3.855
X4.3Y-3.71
X4.3268Y-2.2126
X4.3386Y-3.2677
X4.345Y-2.51
X4.3543Y-3.1299
X4.3543Y-3.1772
X4.3543Y-3.2205
X4.3839Y-3.4902
X4.3898Y-3.0827
X4.3976Y-3.1299
X4.3976Y-3.1772
X4.3976Y-3.2205
X4.3979Y-2.5143
X4.4016Y-2.8071
X4.4055Y-2.2126
X4.415Y-3.405
X4.4252Y-3.7106
X4.437Y-2.6181
X4.4409Y-2.2717
X4.4409Y-2.7087
X4.4409Y-3.0787
X4.4409Y-3.1299
X4.4409Y-3.1772
X4.4409Y-3.2205
X4.4488Y-3.2638
X4.4702Y-3.3526
X4.4764Y-3.0906
X4.4823Y-3.2657
X4.4843Y-2.2126
X4.4961Y-3.378
X4.516Y-3.474
X4.5236Y-2.2717
X4.525Y-3.86
X4.5315Y-3.0394
X4.561Y-3.38
X4.563Y-2.2126
X4.57Y-3.54
X4.58Y-3.93
X4.59Y-3.985
X4.5908Y-2.5143
X4.6024Y-2.6181
X4.6024Y-2.7087
X4.6063Y-2.8189
X4.6244Y-3.2126
X4.626Y-3.0039
X4.63Y-3.06
X4.63Y-4.12
X4.6417Y-2.2126
X4.6419Y-2.5143
X4.6457Y-3.5079
X4.6457Y-3.9173
X4.6654Y-2.8189
X4.6732Y-3.937
X4.7205Y-2.2126
X4.75Y-2.99
X4.7559Y-3.6476
X4.7677Y-3.937
X4.7706Y-4.1496
X4.7717Y-4.189
X4.7992Y-2.2126
X4.7992Y-2.2874
X4.8228Y-4.1496
X4.8346Y-2.835
X4.835Y-3.67
X4.8425Y-3.6142
X4.8504Y-3.9213
X4.8504Y-4.0354
X4.8543Y-3.2126
X4.874Y-4.1496
X4.878Y-2.2126
X4.878Y-2.8504
X4.8858Y-2.5709
X4.9016Y-3.3622
X4.9134Y-3.0276
X4.9331Y-3.8189
X4.9331Y-4.1457
X4.935Y-3.695
X4.9567Y-2.2126
X4.9567Y-2.2874
X4.9606Y-3.5079
X4.9715Y-2.9314
X4.9843Y-4.1457
X4.9921Y-3.0906
X4.9921Y-3.5315
X5.0197Y-3.0669
X5.0354Y-2.2126
X5.0354Y-2.2835
X5.0354Y-3.9724
X5.0955Y-4.1496
X5.0997Y-2.9311
X5.1Y-3.975
X5.1142Y-2.2126
X5.1142Y-2.2835
X5.1142Y-2.5709
X5.1144Y-4.1748
X5.1457Y-3.0276
X5.1466Y-4.1496
X5.1693Y-3.9724
X5.1929Y-2.2126
X5.1929Y-2.2835
X5.1969Y-2.3976
X5.2008Y-3.9134
X5.2008Y-4.0354
X5.2165Y-2.6811
X5.2244Y-4.1496
X5.255Y-3.705
X5.2579Y-2.3189
X5.2737Y-3.45
X5.2835Y-3.8071
X5.2835Y-4.1496
X5.31Y-4.26
X5.315Y-2.3976
X5.315Y-2.4882
X5.315Y-2.5669
X5.315Y-2.6614
X5.315Y-2.7441
X5.315Y-2.8228
X5.315Y-2.9016
X5.315Y-2.9803
X5.315Y-3.063
X5.315Y-3.1378
X5.3268Y-3.9724
X5.35Y-4.25
X5.3701Y-2.3189
X5.4213Y-2.3701
X5.4213Y-2.4488
X5.4213Y-2.5276
X5.4213Y-2.6063
X5.4213Y-2.685
X5.4213Y-2.7638
X5.4213Y-2.8425
X5.4213Y-2.9213
X5.4213Y-3.0
X5.4213Y-3.0787
X5.4213Y-3.1575
X5.4213Y-3.2362
X5.4213Y-3.315
X5.4213Y-3.3937
X5.4213Y-3.4724
X5.4213Y-3.5512
X5.4213Y-3.6299
X5.4213Y-3.7087
X5.4213Y-3.7874
X5.4213Y-3.8661
X5.4213Y-3.9449
X5.4213Y-4.0236
X5.4213Y-4.1024
X5.4213Y-4.1811
T2
X3.4751Y-4.3025
X3.544Y-4.3025
X3.603Y-4.3025
X3.6621Y-4.3025
X3.7211Y-4.3025
X3.7802Y-4.3025
X3.8393Y-4.3025
X3.8983Y-4.3025
X3.9574Y-4.3025
X4.0164Y-4.3025
X4.0755Y-4.3025
X4.1345Y-4.3025
X4.1936Y-4.3025
X4.2526Y-4.3025
X4.3117Y-4.3025
X4.3707Y-4.3025
X4.4298Y-4.3025
X4.4889Y-4.3025
X4.5479Y-4.3025
X4.607Y-4.3025
X4.666Y-4.3025
X4.7251Y-4.3025
X4.7841Y-4.3025
X4.8432Y-4.3025
X4.9022Y-4.3025
X4.9613Y-4.3025
X5.0204Y-4.3025
X5.0794Y-4.3025
X5.1385Y-4.3025
X5.1975Y-4.3025
X5.2566Y-4.3025
X5.3255Y-4.3025
T3
X4.9348Y-2.4163
X5.0348Y-2.4163
T2
G00X4.3244Y-2.2986
M15
G01X4.3244Y-2.2671
M16
G05
G00X4.3244Y-2.4691
M15
G01X4.3244Y-2.4258
M16
G05
G00X4.6646Y-2.2986
M15
G01X4.6646Y-2.2671
M16
G05
G00X4.6646Y-2.4691
M15
G01X4.6646Y-2.4258
M16
G05
M30
