%TF.GenerationSoftware,KiCad,Pcbnew,7.0.11*%
%TF.CreationDate,2024-02-24T15:32:22+03:00*%
%TF.ProjectId,GameboyCartridgeV1.1,47616d65-626f-4794-9361-727472696467,rev?*%
%TF.SameCoordinates,Original*%
%TF.FileFunction,Drillmap*%
%TF.FilePolarity,Positive*%
%FSLAX45Y45*%
G04 Gerber Fmt 4.5, Leading zero omitted, Abs format (unit mm)*
G04 Created by KiCad (PCBNEW 7.0.11) date 2024-02-24 15:32:22*
%MOMM*%
%LPD*%
G01*
G04 APERTURE LIST*
%ADD10C,0.150000*%
%ADD11C,0.200000*%
%ADD12C,0.100000*%
G04 APERTURE END LIST*
D10*
X13637000Y-10670000D02*
X13820000Y-10670000D01*
X8540000Y-10670000D02*
X8540000Y-5570967D01*
X8717000Y-10670000D02*
X8540000Y-10670000D01*
X8540000Y-5570967D02*
X13347000Y-5570967D01*
X13820000Y-10670000D02*
X13820000Y-5830967D01*
X13637000Y-11690000D02*
X13637000Y-10670000D01*
X8717000Y-11690000D02*
X13637000Y-11690000D01*
X8717000Y-11690000D02*
X8717000Y-10670000D01*
X13820000Y-5830967D02*
X13347000Y-5830967D01*
X13347000Y-5570967D02*
X13347000Y-5830967D01*
D11*
D12*
X8575000Y-5605000D02*
X8605000Y-5635000D01*
X8605000Y-5605000D02*
X8575000Y-5635000D01*
X8575000Y-5805000D02*
X8605000Y-5835000D01*
X8605000Y-5805000D02*
X8575000Y-5835000D01*
X8575000Y-6005000D02*
X8605000Y-6035000D01*
X8605000Y-6005000D02*
X8575000Y-6035000D01*
X8575000Y-6205000D02*
X8605000Y-6235000D01*
X8605000Y-6205000D02*
X8575000Y-6235000D01*
X8575000Y-6405000D02*
X8605000Y-6435000D01*
X8605000Y-6405000D02*
X8575000Y-6435000D01*
X8575000Y-6605000D02*
X8605000Y-6635000D01*
X8605000Y-6605000D02*
X8575000Y-6635000D01*
X8575000Y-6805000D02*
X8605000Y-6835000D01*
X8605000Y-6805000D02*
X8575000Y-6835000D01*
X8575000Y-7005000D02*
X8605000Y-7035000D01*
X8605000Y-7005000D02*
X8575000Y-7035000D01*
X8575000Y-7205000D02*
X8605000Y-7235000D01*
X8605000Y-7205000D02*
X8575000Y-7235000D01*
X8575000Y-7405000D02*
X8605000Y-7435000D01*
X8605000Y-7405000D02*
X8575000Y-7435000D01*
X8575000Y-7605000D02*
X8605000Y-7635000D01*
X8605000Y-7605000D02*
X8575000Y-7635000D01*
X8575000Y-7805000D02*
X8605000Y-7835000D01*
X8605000Y-7805000D02*
X8575000Y-7835000D01*
X8575000Y-8005000D02*
X8605000Y-8035000D01*
X8605000Y-8005000D02*
X8575000Y-8035000D01*
X8575000Y-8205000D02*
X8605000Y-8235000D01*
X8605000Y-8205000D02*
X8575000Y-8235000D01*
X8575000Y-8405000D02*
X8605000Y-8435000D01*
X8605000Y-8405000D02*
X8575000Y-8435000D01*
X8575000Y-8605000D02*
X8605000Y-8635000D01*
X8605000Y-8605000D02*
X8575000Y-8635000D01*
X8575000Y-8805000D02*
X8605000Y-8835000D01*
X8605000Y-8805000D02*
X8575000Y-8835000D01*
X8575000Y-9005000D02*
X8605000Y-9035000D01*
X8605000Y-9005000D02*
X8575000Y-9035000D01*
X8575000Y-9205000D02*
X8605000Y-9235000D01*
X8605000Y-9205000D02*
X8575000Y-9235000D01*
X8575000Y-9405000D02*
X8605000Y-9435000D01*
X8605000Y-9405000D02*
X8575000Y-9435000D01*
X8575000Y-9605000D02*
X8605000Y-9635000D01*
X8605000Y-9605000D02*
X8575000Y-9635000D01*
X8575000Y-9805000D02*
X8605000Y-9835000D01*
X8605000Y-9805000D02*
X8575000Y-9835000D01*
X8575000Y-10005000D02*
X8605000Y-10035000D01*
X8605000Y-10005000D02*
X8575000Y-10035000D01*
X8575000Y-10205000D02*
X8605000Y-10235000D01*
X8605000Y-10205000D02*
X8575000Y-10235000D01*
X8575000Y-10405000D02*
X8605000Y-10435000D01*
X8605000Y-10405000D02*
X8575000Y-10435000D01*
X8575000Y-10605000D02*
X8605000Y-10635000D01*
X8605000Y-10605000D02*
X8575000Y-10635000D01*
X8722600Y-6817600D02*
X8752600Y-6847600D01*
X8752600Y-6817600D02*
X8722600Y-6847600D01*
X8775000Y-5605000D02*
X8805000Y-5635000D01*
X8805000Y-5605000D02*
X8775000Y-5635000D01*
X8811511Y-10644480D02*
X8841511Y-10674480D01*
X8841511Y-10644480D02*
X8811511Y-10674480D01*
X8812253Y-10551338D02*
X8842253Y-10581338D01*
X8842253Y-10551338D02*
X8812253Y-10581338D01*
X8865000Y-8275000D02*
X8895000Y-8305000D01*
X8895000Y-8275000D02*
X8865000Y-8305000D01*
X8935000Y-10195000D02*
X8965000Y-10225000D01*
X8965000Y-10195000D02*
X8935000Y-10225000D01*
X8963900Y-7274800D02*
X8993900Y-7304800D01*
X8993900Y-7274800D02*
X8963900Y-7304800D01*
X8975000Y-5605000D02*
X9005000Y-5635000D01*
X9005000Y-5605000D02*
X8975000Y-5635000D01*
X9078200Y-7401800D02*
X9108200Y-7431800D01*
X9108200Y-7401800D02*
X9078200Y-7431800D01*
X9078200Y-7490700D02*
X9108200Y-7520700D01*
X9108200Y-7490700D02*
X9078200Y-7520700D01*
X9085000Y-6805000D02*
X9115000Y-6835000D01*
X9115000Y-6805000D02*
X9085000Y-6835000D01*
X9085000Y-6915000D02*
X9115000Y-6945000D01*
X9115000Y-6915000D02*
X9085000Y-6945000D01*
X9167100Y-7401800D02*
X9197100Y-7431800D01*
X9197100Y-7401800D02*
X9167100Y-7431800D01*
X9167100Y-7490700D02*
X9197100Y-7520700D01*
X9197100Y-7490700D02*
X9167100Y-7520700D01*
X9175000Y-5605000D02*
X9205000Y-5635000D01*
X9205000Y-5605000D02*
X9175000Y-5635000D01*
X9175000Y-7645000D02*
X9205000Y-7675000D01*
X9205000Y-7645000D02*
X9175000Y-7675000D01*
X9175000Y-7855000D02*
X9205000Y-7885000D01*
X9205000Y-7855000D02*
X9175000Y-7885000D01*
X9195000Y-10635000D02*
X9225000Y-10665000D01*
X9225000Y-10635000D02*
X9195000Y-10665000D01*
X9205000Y-9405000D02*
X9235000Y-9435000D01*
X9235000Y-9405000D02*
X9205000Y-9435000D01*
X9205000Y-9795000D02*
X9235000Y-9825000D01*
X9235000Y-9795000D02*
X9205000Y-9825000D01*
X9205000Y-10140000D02*
X9235000Y-10170000D01*
X9235000Y-10140000D02*
X9205000Y-10170000D01*
X9235000Y-8525000D02*
X9265000Y-8555000D01*
X9265000Y-8525000D02*
X9235000Y-8555000D01*
X9255000Y-8805000D02*
X9285000Y-8835000D01*
X9285000Y-8805000D02*
X9255000Y-8835000D01*
X9255000Y-8915000D02*
X9285000Y-8945000D01*
X9285000Y-8915000D02*
X9255000Y-8945000D01*
X9256000Y-7401800D02*
X9286000Y-7431800D01*
X9286000Y-7401800D02*
X9256000Y-7431800D01*
X9256000Y-7490700D02*
X9286000Y-7520700D01*
X9286000Y-7490700D02*
X9256000Y-7520700D01*
X9325000Y-7725000D02*
X9355000Y-7755000D01*
X9355000Y-7725000D02*
X9325000Y-7755000D01*
X9355000Y-10525000D02*
X9385000Y-10555000D01*
X9385000Y-10525000D02*
X9355000Y-10555000D01*
X9357600Y-7147800D02*
X9387600Y-7177800D01*
X9387600Y-7147800D02*
X9357600Y-7177800D01*
X9375000Y-5605000D02*
X9405000Y-5635000D01*
X9405000Y-5605000D02*
X9375000Y-5635000D01*
X9433800Y-6030200D02*
X9463800Y-6060200D01*
X9463800Y-6030200D02*
X9433800Y-6060200D01*
X9433800Y-6131800D02*
X9463800Y-6161800D01*
X9463800Y-6131800D02*
X9433800Y-6161800D01*
X9433800Y-6220700D02*
X9463800Y-6250700D01*
X9463800Y-6220700D02*
X9433800Y-6250700D01*
X9433800Y-6309600D02*
X9463800Y-6339600D01*
X9463800Y-6309600D02*
X9433800Y-6339600D01*
X9435000Y-7755000D02*
X9465000Y-7785000D01*
X9465000Y-7755000D02*
X9435000Y-7785000D01*
X9445000Y-10635000D02*
X9475000Y-10665000D01*
X9475000Y-10635000D02*
X9445000Y-10665000D01*
X9459200Y-10373600D02*
X9489200Y-10403600D01*
X9489200Y-10373600D02*
X9459200Y-10403600D01*
X9505000Y-9930000D02*
X9535000Y-9960000D01*
X9535000Y-9930000D02*
X9505000Y-9960000D01*
X9515000Y-10525000D02*
X9545000Y-10555000D01*
X9545000Y-10525000D02*
X9515000Y-10555000D01*
X9548100Y-6030200D02*
X9578100Y-6060200D01*
X9578100Y-6030200D02*
X9548100Y-6060200D01*
X9548100Y-6131800D02*
X9578100Y-6161800D01*
X9578100Y-6131800D02*
X9548100Y-6161800D01*
X9548100Y-6220700D02*
X9578100Y-6250700D01*
X9578100Y-6220700D02*
X9548100Y-6250700D01*
X9548100Y-6309600D02*
X9578100Y-6339600D01*
X9578100Y-6309600D02*
X9548100Y-6339600D01*
X9560800Y-7909800D02*
X9590800Y-7939800D01*
X9590800Y-7909800D02*
X9560800Y-7939800D01*
X9565000Y-9025000D02*
X9595000Y-9055000D01*
X9595000Y-9025000D02*
X9565000Y-9055000D01*
X9565000Y-9135000D02*
X9595000Y-9165000D01*
X9595000Y-9135000D02*
X9565000Y-9165000D01*
X9573500Y-9789400D02*
X9603500Y-9819400D01*
X9603500Y-9789400D02*
X9573500Y-9819400D01*
X9575000Y-5605000D02*
X9605000Y-5635000D01*
X9605000Y-5605000D02*
X9575000Y-5635000D01*
X9645000Y-9385000D02*
X9675000Y-9415000D01*
X9675000Y-9385000D02*
X9645000Y-9415000D01*
X9655000Y-6775000D02*
X9685000Y-6805000D01*
X9685000Y-6775000D02*
X9655000Y-6805000D01*
X9685000Y-10525000D02*
X9715000Y-10555000D01*
X9715000Y-10525000D02*
X9685000Y-10555000D01*
X9735000Y-9345000D02*
X9765000Y-9375000D01*
X9765000Y-9345000D02*
X9735000Y-9375000D01*
X9775000Y-5605000D02*
X9805000Y-5635000D01*
X9805000Y-5605000D02*
X9775000Y-5635000D01*
X9802100Y-6804900D02*
X9832100Y-6834900D01*
X9832100Y-6804900D02*
X9802100Y-6834900D01*
X9840200Y-10081500D02*
X9870200Y-10111500D01*
X9870200Y-10081500D02*
X9840200Y-10111500D01*
X9865000Y-6585000D02*
X9895000Y-6615000D01*
X9895000Y-6585000D02*
X9865000Y-6615000D01*
X9916400Y-7859000D02*
X9946400Y-7889000D01*
X9946400Y-7859000D02*
X9916400Y-7889000D01*
X9975000Y-5605000D02*
X10005000Y-5635000D01*
X10005000Y-5605000D02*
X9975000Y-5635000D01*
X9975000Y-5915000D02*
X10005000Y-5945000D01*
X10005000Y-5915000D02*
X9975000Y-5945000D01*
X10015000Y-6575000D02*
X10045000Y-6605000D01*
X10045000Y-6575000D02*
X10015000Y-6605000D01*
X10030700Y-10094200D02*
X10060700Y-10124200D01*
X10060700Y-10094200D02*
X10030700Y-10124200D01*
X10055000Y-7455000D02*
X10085000Y-7485000D01*
X10085000Y-7455000D02*
X10055000Y-7485000D01*
X10132300Y-5915900D02*
X10162300Y-5945900D01*
X10162300Y-5915900D02*
X10132300Y-5945900D01*
X10175000Y-5605000D02*
X10205000Y-5635000D01*
X10205000Y-5605000D02*
X10175000Y-5635000D01*
X10255000Y-9945000D02*
X10285000Y-9975000D01*
X10285000Y-9945000D02*
X10255000Y-9975000D01*
X10255000Y-10075000D02*
X10285000Y-10105000D01*
X10285000Y-10075000D02*
X10255000Y-10105000D01*
X10255000Y-10255000D02*
X10285000Y-10285000D01*
X10285000Y-10255000D02*
X10255000Y-10285000D01*
X10275000Y-7765000D02*
X10305000Y-7795000D01*
X10305000Y-7765000D02*
X10275000Y-7795000D01*
X10285000Y-8265000D02*
X10315000Y-8295000D01*
X10315000Y-8265000D02*
X10285000Y-8295000D01*
X10375000Y-5605000D02*
X10405000Y-5635000D01*
X10405000Y-5605000D02*
X10375000Y-5635000D01*
X10435000Y-7155000D02*
X10465000Y-7185000D01*
X10465000Y-7155000D02*
X10435000Y-7185000D01*
X10445000Y-6815000D02*
X10475000Y-6845000D01*
X10475000Y-6815000D02*
X10445000Y-6845000D01*
X10525000Y-10515000D02*
X10555000Y-10545000D01*
X10555000Y-10515000D02*
X10525000Y-10545000D01*
X10538700Y-5827000D02*
X10568700Y-5857000D01*
X10568700Y-5827000D02*
X10538700Y-5857000D01*
X10565000Y-9785000D02*
X10595000Y-9815000D01*
X10595000Y-9785000D02*
X10565000Y-9815000D01*
X10575000Y-5605000D02*
X10605000Y-5635000D01*
X10605000Y-5605000D02*
X10575000Y-5635000D01*
X10605000Y-6965000D02*
X10635000Y-6995000D01*
X10635000Y-6965000D02*
X10605000Y-6995000D01*
X10655000Y-5995000D02*
X10685000Y-6025000D01*
X10685000Y-5995000D02*
X10655000Y-6025000D01*
X10655000Y-7765000D02*
X10685000Y-7795000D01*
X10685000Y-7765000D02*
X10655000Y-7795000D01*
X10655085Y-8169465D02*
X10685085Y-8199465D01*
X10685085Y-8169465D02*
X10655085Y-8199465D01*
X10665700Y-10081500D02*
X10695700Y-10111500D01*
X10695700Y-10081500D02*
X10665700Y-10111500D01*
X10675000Y-5775000D02*
X10705000Y-5805000D01*
X10705000Y-5775000D02*
X10675000Y-5805000D01*
X10705000Y-10635000D02*
X10735000Y-10665000D01*
X10735000Y-10635000D02*
X10705000Y-10665000D01*
X10765000Y-8985000D02*
X10795000Y-9015000D01*
X10795000Y-8985000D02*
X10765000Y-9015000D01*
X10775000Y-5605000D02*
X10805000Y-5635000D01*
X10805000Y-5605000D02*
X10775000Y-5635000D01*
X10815560Y-8460980D02*
X10845560Y-8490980D01*
X10845560Y-8460980D02*
X10815560Y-8490980D01*
X10843500Y-9776700D02*
X10873500Y-9806700D01*
X10873500Y-9776700D02*
X10843500Y-9806700D01*
X10907000Y-9408400D02*
X10937000Y-9438400D01*
X10937000Y-9408400D02*
X10907000Y-9438400D01*
X10975000Y-5605000D02*
X11005000Y-5635000D01*
X11005000Y-5605000D02*
X10975000Y-5635000D01*
X11005000Y-8285000D02*
X11035000Y-8315000D01*
X11035000Y-8285000D02*
X11005000Y-8315000D01*
X11021300Y-6360400D02*
X11051300Y-6390400D01*
X11051300Y-6360400D02*
X11021300Y-6390400D01*
X11045000Y-7935000D02*
X11075000Y-7965000D01*
X11075000Y-7935000D02*
X11045000Y-7965000D01*
X11045000Y-8055000D02*
X11075000Y-8085000D01*
X11075000Y-8055000D02*
X11045000Y-8085000D01*
X11045000Y-8165000D02*
X11075000Y-8195000D01*
X11075000Y-8165000D02*
X11045000Y-8195000D01*
X11120000Y-8850000D02*
X11150000Y-8880000D01*
X11150000Y-8850000D02*
X11120000Y-8880000D01*
X11135000Y-7815000D02*
X11165000Y-7845000D01*
X11165000Y-7815000D02*
X11135000Y-7845000D01*
X11155000Y-7935000D02*
X11185000Y-7965000D01*
X11185000Y-7935000D02*
X11155000Y-7965000D01*
X11155000Y-8055000D02*
X11185000Y-8085000D01*
X11185000Y-8055000D02*
X11155000Y-8085000D01*
X11155000Y-8165000D02*
X11185000Y-8195000D01*
X11185000Y-8165000D02*
X11155000Y-8195000D01*
X11155547Y-6371448D02*
X11185547Y-6401448D01*
X11185547Y-6371448D02*
X11155547Y-6401448D01*
X11165000Y-7115000D02*
X11195000Y-7145000D01*
X11195000Y-7115000D02*
X11165000Y-7145000D01*
X11175000Y-5605000D02*
X11205000Y-5635000D01*
X11205000Y-5605000D02*
X11175000Y-5635000D01*
X11199100Y-8633700D02*
X11229100Y-8663700D01*
X11229100Y-8633700D02*
X11199100Y-8663700D01*
X11225000Y-9410000D02*
X11255000Y-9440000D01*
X11255000Y-9410000D02*
X11225000Y-9440000D01*
X11255000Y-6635000D02*
X11285000Y-6665000D01*
X11285000Y-6635000D02*
X11255000Y-6665000D01*
X11265000Y-5755000D02*
X11295000Y-5785000D01*
X11295000Y-5755000D02*
X11265000Y-5785000D01*
X11265000Y-6865000D02*
X11295000Y-6895000D01*
X11295000Y-6865000D02*
X11265000Y-6895000D01*
X11265000Y-7805000D02*
X11295000Y-7835000D01*
X11295000Y-7805000D02*
X11265000Y-7835000D01*
X11265000Y-7935000D02*
X11295000Y-7965000D01*
X11295000Y-7935000D02*
X11265000Y-7965000D01*
X11265000Y-8055000D02*
X11295000Y-8085000D01*
X11295000Y-8055000D02*
X11265000Y-8085000D01*
X11265000Y-8165000D02*
X11295000Y-8195000D01*
X11295000Y-8165000D02*
X11265000Y-8195000D01*
X11285000Y-8275000D02*
X11315000Y-8305000D01*
X11315000Y-8275000D02*
X11285000Y-8305000D01*
X11339347Y-8500697D02*
X11369347Y-8530697D01*
X11369347Y-8500697D02*
X11339347Y-8530697D01*
X11355000Y-7835000D02*
X11385000Y-7865000D01*
X11385000Y-7835000D02*
X11355000Y-7865000D01*
X11370000Y-8280000D02*
X11400000Y-8310000D01*
X11400000Y-8280000D02*
X11370000Y-8310000D01*
X11375000Y-5605000D02*
X11405000Y-5635000D01*
X11405000Y-5605000D02*
X11375000Y-5635000D01*
X11405000Y-8565050D02*
X11435000Y-8595050D01*
X11435000Y-8565050D02*
X11405000Y-8595050D01*
X11455640Y-8808960D02*
X11485640Y-8838960D01*
X11485640Y-8808960D02*
X11455640Y-8838960D01*
X11475000Y-5755000D02*
X11505000Y-5785000D01*
X11505000Y-5755000D02*
X11475000Y-5785000D01*
X11478500Y-9789400D02*
X11508500Y-9819400D01*
X11508500Y-9789400D02*
X11478500Y-9819400D01*
X11495000Y-7705000D02*
X11525000Y-7735000D01*
X11525000Y-7705000D02*
X11495000Y-7735000D01*
X11569940Y-8570200D02*
X11599940Y-8600200D01*
X11599940Y-8570200D02*
X11569940Y-8600200D01*
X11575000Y-5605000D02*
X11605000Y-5635000D01*
X11605000Y-5605000D02*
X11575000Y-5635000D01*
X11592800Y-8976600D02*
X11622800Y-9006600D01*
X11622800Y-8976600D02*
X11592800Y-9006600D01*
X11618200Y-9967200D02*
X11648200Y-9997200D01*
X11648200Y-9967200D02*
X11618200Y-9997200D01*
X11643600Y-10106900D02*
X11673600Y-10136900D01*
X11673600Y-10106900D02*
X11643600Y-10136900D01*
X11645547Y-6371448D02*
X11675547Y-6401448D01*
X11675547Y-6371448D02*
X11645547Y-6401448D01*
X11675000Y-6635000D02*
X11705000Y-6665000D01*
X11705000Y-6635000D02*
X11675000Y-6665000D01*
X11675000Y-6865000D02*
X11705000Y-6895000D01*
X11705000Y-6865000D02*
X11675000Y-6895000D01*
X11685000Y-7145000D02*
X11715000Y-7175000D01*
X11715000Y-7145000D02*
X11685000Y-7175000D01*
X11731000Y-8145000D02*
X11761000Y-8175000D01*
X11761000Y-8145000D02*
X11731000Y-8175000D01*
X11735000Y-7615000D02*
X11765000Y-7645000D01*
X11765000Y-7615000D02*
X11735000Y-7645000D01*
X11745200Y-7757400D02*
X11775200Y-7787400D01*
X11775200Y-7757400D02*
X11745200Y-7787400D01*
X11745200Y-10449800D02*
X11775200Y-10479800D01*
X11775200Y-10449800D02*
X11745200Y-10479800D01*
X11775000Y-5605000D02*
X11805000Y-5635000D01*
X11805000Y-5605000D02*
X11775000Y-5635000D01*
X11775547Y-6371448D02*
X11805547Y-6401448D01*
X11805547Y-6371448D02*
X11775547Y-6401448D01*
X11785000Y-8895000D02*
X11815000Y-8925000D01*
X11815000Y-8895000D02*
X11785000Y-8925000D01*
X11785000Y-9935000D02*
X11815000Y-9965000D01*
X11815000Y-9935000D02*
X11785000Y-9965000D01*
X11835000Y-7145000D02*
X11865000Y-7175000D01*
X11865000Y-7145000D02*
X11835000Y-7175000D01*
X11855000Y-9985000D02*
X11885000Y-10015000D01*
X11885000Y-9985000D02*
X11855000Y-10015000D01*
X11975000Y-5605000D02*
X12005000Y-5635000D01*
X12005000Y-5605000D02*
X11975000Y-5635000D01*
X12050000Y-7579600D02*
X12080000Y-7609600D01*
X12080000Y-7579600D02*
X12050000Y-7609600D01*
X12065000Y-9250000D02*
X12095000Y-9280000D01*
X12095000Y-9250000D02*
X12065000Y-9280000D01*
X12095000Y-9985000D02*
X12125000Y-10015000D01*
X12125000Y-9985000D02*
X12095000Y-10015000D01*
X12102450Y-10525000D02*
X12132450Y-10555000D01*
X12132450Y-10525000D02*
X12102450Y-10555000D01*
X12105000Y-10625000D02*
X12135000Y-10655000D01*
X12135000Y-10625000D02*
X12105000Y-10655000D01*
X12175000Y-5605000D02*
X12205000Y-5635000D01*
X12205000Y-5605000D02*
X12175000Y-5635000D01*
X12175000Y-5795000D02*
X12205000Y-5825000D01*
X12205000Y-5795000D02*
X12175000Y-5825000D01*
X12235000Y-10525000D02*
X12265000Y-10555000D01*
X12265000Y-10525000D02*
X12235000Y-10555000D01*
X12265000Y-7185900D02*
X12295000Y-7215900D01*
X12295000Y-7185900D02*
X12265000Y-7215900D01*
X12265900Y-9306800D02*
X12295900Y-9336800D01*
X12295900Y-9306800D02*
X12265900Y-9336800D01*
X12285000Y-9165000D02*
X12315000Y-9195000D01*
X12315000Y-9165000D02*
X12285000Y-9195000D01*
X12305000Y-9945000D02*
X12335000Y-9975000D01*
X12335000Y-9945000D02*
X12305000Y-9975000D01*
X12305000Y-10235000D02*
X12335000Y-10265000D01*
X12335000Y-10235000D02*
X12305000Y-10265000D01*
X12315000Y-8145000D02*
X12345000Y-8175000D01*
X12345000Y-8145000D02*
X12315000Y-8175000D01*
X12365000Y-10525000D02*
X12395000Y-10555000D01*
X12395000Y-10525000D02*
X12365000Y-10555000D01*
X12375000Y-5605000D02*
X12405000Y-5635000D01*
X12405000Y-5605000D02*
X12375000Y-5635000D01*
X12375000Y-7225000D02*
X12405000Y-7255000D01*
X12405000Y-7225000D02*
X12375000Y-7255000D01*
X12395000Y-6515000D02*
X12425000Y-6545000D01*
X12425000Y-6515000D02*
X12395000Y-6545000D01*
X12435000Y-8525000D02*
X12465000Y-8555000D01*
X12465000Y-8525000D02*
X12435000Y-8555000D01*
X12465000Y-7675000D02*
X12495000Y-7705000D01*
X12495000Y-7675000D02*
X12465000Y-7705000D01*
X12515000Y-9685000D02*
X12545000Y-9715000D01*
X12545000Y-9685000D02*
X12515000Y-9715000D01*
X12515000Y-10515000D02*
X12545000Y-10545000D01*
X12545000Y-10515000D02*
X12515000Y-10545000D01*
X12519900Y-9370300D02*
X12549900Y-9400300D01*
X12549900Y-9370300D02*
X12519900Y-9400300D01*
X12575000Y-5605000D02*
X12605000Y-5635000D01*
X12605000Y-5605000D02*
X12575000Y-5635000D01*
X12575000Y-5795000D02*
X12605000Y-5825000D01*
X12605000Y-5795000D02*
X12575000Y-5825000D01*
X12585000Y-8895000D02*
X12615000Y-8925000D01*
X12615000Y-8895000D02*
X12585000Y-8925000D01*
X12612584Y-7430644D02*
X12642584Y-7460644D01*
X12642584Y-7430644D02*
X12612584Y-7460644D01*
X12645000Y-10515000D02*
X12675000Y-10545000D01*
X12675000Y-10515000D02*
X12645000Y-10545000D01*
X12665000Y-7835000D02*
X12695000Y-7865000D01*
X12695000Y-7835000D02*
X12665000Y-7865000D01*
X12665000Y-8955000D02*
X12695000Y-8985000D01*
X12695000Y-8955000D02*
X12665000Y-8985000D01*
X12735000Y-7775000D02*
X12765000Y-7805000D01*
X12765000Y-7775000D02*
X12735000Y-7805000D01*
X12775000Y-5605000D02*
X12805000Y-5635000D01*
X12805000Y-5605000D02*
X12775000Y-5635000D01*
X12775000Y-5785000D02*
X12805000Y-5815000D01*
X12805000Y-5785000D02*
X12775000Y-5815000D01*
X12775000Y-10075000D02*
X12805000Y-10105000D01*
X12805000Y-10075000D02*
X12775000Y-10105000D01*
X12927450Y-10525000D02*
X12957450Y-10555000D01*
X12957450Y-10525000D02*
X12927450Y-10555000D01*
X12938226Y-7430079D02*
X12968226Y-7460079D01*
X12968226Y-7430079D02*
X12938226Y-7460079D01*
X12939000Y-10081500D02*
X12969000Y-10111500D01*
X12969000Y-10081500D02*
X12939000Y-10111500D01*
X12975000Y-5605000D02*
X13005000Y-5635000D01*
X13005000Y-5605000D02*
X12975000Y-5635000D01*
X12975000Y-5785000D02*
X13005000Y-5815000D01*
X13005000Y-5785000D02*
X12975000Y-5815000D01*
X12975000Y-6515000D02*
X13005000Y-6545000D01*
X13005000Y-6515000D02*
X12975000Y-6545000D01*
X12975461Y-10588930D02*
X13005461Y-10618930D01*
X13005461Y-10588930D02*
X12975461Y-10618930D01*
X13055000Y-7675000D02*
X13085000Y-7705000D01*
X13085000Y-7675000D02*
X13055000Y-7705000D01*
X13057450Y-10525000D02*
X13087450Y-10555000D01*
X13087450Y-10525000D02*
X13057450Y-10555000D01*
X13115000Y-10075000D02*
X13145000Y-10105000D01*
X13145000Y-10075000D02*
X13115000Y-10105000D01*
X13175000Y-5605000D02*
X13205000Y-5635000D01*
X13205000Y-5605000D02*
X13175000Y-5635000D01*
X13175000Y-5785000D02*
X13205000Y-5815000D01*
X13205000Y-5785000D02*
X13175000Y-5815000D01*
X13185000Y-6075000D02*
X13215000Y-6105000D01*
X13215000Y-6075000D02*
X13185000Y-6105000D01*
X13195000Y-9925000D02*
X13225000Y-9955000D01*
X13225000Y-9925000D02*
X13195000Y-9955000D01*
X13195000Y-10235000D02*
X13225000Y-10265000D01*
X13225000Y-10235000D02*
X13195000Y-10265000D01*
X13235000Y-6795000D02*
X13265000Y-6825000D01*
X13265000Y-6795000D02*
X13235000Y-6825000D01*
X13255000Y-10525000D02*
X13285000Y-10555000D01*
X13285000Y-10525000D02*
X13255000Y-10555000D01*
X13332700Y-9395700D02*
X13362700Y-9425700D01*
X13362700Y-9395700D02*
X13332700Y-9425700D01*
X13340000Y-5875000D02*
X13370000Y-5905000D01*
X13370000Y-5875000D02*
X13340000Y-5905000D01*
X13380302Y-8748057D02*
X13410302Y-8778057D01*
X13410302Y-8748057D02*
X13380302Y-8778057D01*
X13405000Y-9655000D02*
X13435000Y-9685000D01*
X13435000Y-9655000D02*
X13405000Y-9685000D01*
X13405000Y-10525000D02*
X13435000Y-10555000D01*
X13435000Y-10525000D02*
X13405000Y-10555000D01*
X13472400Y-10805400D02*
X13502400Y-10835400D01*
X13502400Y-10805400D02*
X13472400Y-10835400D01*
X13485000Y-6075000D02*
X13515000Y-6105000D01*
X13515000Y-6075000D02*
X13485000Y-6105000D01*
X13485000Y-6305000D02*
X13515000Y-6335000D01*
X13515000Y-6305000D02*
X13485000Y-6335000D01*
X13485000Y-6505000D02*
X13515000Y-6535000D01*
X13515000Y-6505000D02*
X13485000Y-6535000D01*
X13485000Y-6745000D02*
X13515000Y-6775000D01*
X13515000Y-6745000D02*
X13485000Y-6775000D01*
X13485000Y-6955000D02*
X13515000Y-6985000D01*
X13515000Y-6955000D02*
X13485000Y-6985000D01*
X13485000Y-7155000D02*
X13515000Y-7185000D01*
X13515000Y-7155000D02*
X13485000Y-7185000D01*
X13485000Y-7355000D02*
X13515000Y-7385000D01*
X13515000Y-7355000D02*
X13485000Y-7385000D01*
X13485000Y-7555000D02*
X13515000Y-7585000D01*
X13515000Y-7555000D02*
X13485000Y-7585000D01*
X13485000Y-7765000D02*
X13515000Y-7795000D01*
X13515000Y-7765000D02*
X13485000Y-7795000D01*
X13485000Y-7955000D02*
X13515000Y-7985000D01*
X13515000Y-7955000D02*
X13485000Y-7985000D01*
X13515000Y-10075000D02*
X13545000Y-10105000D01*
X13545000Y-10075000D02*
X13515000Y-10105000D01*
X13574000Y-10780000D02*
X13604000Y-10810000D01*
X13604000Y-10780000D02*
X13574000Y-10810000D01*
X13625000Y-5875000D02*
X13655000Y-5905000D01*
X13655000Y-5875000D02*
X13625000Y-5905000D01*
X13755000Y-6005000D02*
X13785000Y-6035000D01*
X13785000Y-6005000D02*
X13755000Y-6035000D01*
X13755000Y-6205000D02*
X13785000Y-6235000D01*
X13785000Y-6205000D02*
X13755000Y-6235000D01*
X13755000Y-6405000D02*
X13785000Y-6435000D01*
X13785000Y-6405000D02*
X13755000Y-6435000D01*
X13755000Y-6605000D02*
X13785000Y-6635000D01*
X13785000Y-6605000D02*
X13755000Y-6635000D01*
X13755000Y-6805000D02*
X13785000Y-6835000D01*
X13785000Y-6805000D02*
X13755000Y-6835000D01*
X13755000Y-7005000D02*
X13785000Y-7035000D01*
X13785000Y-7005000D02*
X13755000Y-7035000D01*
X13755000Y-7205000D02*
X13785000Y-7235000D01*
X13785000Y-7205000D02*
X13755000Y-7235000D01*
X13755000Y-7405000D02*
X13785000Y-7435000D01*
X13785000Y-7405000D02*
X13755000Y-7435000D01*
X13755000Y-7605000D02*
X13785000Y-7635000D01*
X13785000Y-7605000D02*
X13755000Y-7635000D01*
X13755000Y-7805000D02*
X13785000Y-7835000D01*
X13785000Y-7805000D02*
X13755000Y-7835000D01*
X13755000Y-8005000D02*
X13785000Y-8035000D01*
X13785000Y-8005000D02*
X13755000Y-8035000D01*
X13755000Y-8205000D02*
X13785000Y-8235000D01*
X13785000Y-8205000D02*
X13755000Y-8235000D01*
X13755000Y-8405000D02*
X13785000Y-8435000D01*
X13785000Y-8405000D02*
X13755000Y-8435000D01*
X13755000Y-8605000D02*
X13785000Y-8635000D01*
X13785000Y-8605000D02*
X13755000Y-8635000D01*
X13755000Y-8805000D02*
X13785000Y-8835000D01*
X13785000Y-8805000D02*
X13755000Y-8835000D01*
X13755000Y-9005000D02*
X13785000Y-9035000D01*
X13785000Y-9005000D02*
X13755000Y-9035000D01*
X13755000Y-9205000D02*
X13785000Y-9235000D01*
X13785000Y-9205000D02*
X13755000Y-9235000D01*
X13755000Y-9405000D02*
X13785000Y-9435000D01*
X13785000Y-9405000D02*
X13755000Y-9435000D01*
X13755000Y-9605000D02*
X13785000Y-9635000D01*
X13785000Y-9605000D02*
X13755000Y-9635000D01*
X13755000Y-9805000D02*
X13785000Y-9835000D01*
X13785000Y-9805000D02*
X13755000Y-9835000D01*
X13755000Y-10005000D02*
X13785000Y-10035000D01*
X13785000Y-10005000D02*
X13755000Y-10035000D01*
X13755000Y-10205000D02*
X13785000Y-10235000D01*
X13785000Y-10205000D02*
X13755000Y-10235000D01*
X13755000Y-10405000D02*
X13785000Y-10435000D01*
X13785000Y-10405000D02*
X13755000Y-10435000D01*
X13755000Y-10605000D02*
X13785000Y-10635000D01*
X13785000Y-10605000D02*
X13755000Y-10635000D01*
X8856696Y-10928372D02*
G75*
G03*
X8796696Y-10928372I-30000J0D01*
G01*
X8796696Y-10928372D02*
G75*
G03*
X8856696Y-10928372I30000J0D01*
G01*
X9031696Y-10928372D02*
G75*
G03*
X8971696Y-10928372I-30000J0D01*
G01*
X8971696Y-10928372D02*
G75*
G03*
X9031696Y-10928372I30000J0D01*
G01*
X9181696Y-10928372D02*
G75*
G03*
X9121696Y-10928372I-30000J0D01*
G01*
X9121696Y-10928372D02*
G75*
G03*
X9181696Y-10928372I30000J0D01*
G01*
X9331696Y-10928372D02*
G75*
G03*
X9271696Y-10928372I-30000J0D01*
G01*
X9271696Y-10928372D02*
G75*
G03*
X9331696Y-10928372I30000J0D01*
G01*
X9481696Y-10928372D02*
G75*
G03*
X9421696Y-10928372I-30000J0D01*
G01*
X9421696Y-10928372D02*
G75*
G03*
X9481696Y-10928372I30000J0D01*
G01*
X9631696Y-10928372D02*
G75*
G03*
X9571696Y-10928372I-30000J0D01*
G01*
X9571696Y-10928372D02*
G75*
G03*
X9631696Y-10928372I30000J0D01*
G01*
X9781696Y-10928372D02*
G75*
G03*
X9721696Y-10928372I-30000J0D01*
G01*
X9721696Y-10928372D02*
G75*
G03*
X9781696Y-10928372I30000J0D01*
G01*
X9931696Y-10928372D02*
G75*
G03*
X9871696Y-10928372I-30000J0D01*
G01*
X9871696Y-10928372D02*
G75*
G03*
X9931696Y-10928372I30000J0D01*
G01*
X10081696Y-10928372D02*
G75*
G03*
X10021696Y-10928372I-30000J0D01*
G01*
X10021696Y-10928372D02*
G75*
G03*
X10081696Y-10928372I30000J0D01*
G01*
X10231696Y-10928372D02*
G75*
G03*
X10171696Y-10928372I-30000J0D01*
G01*
X10171696Y-10928372D02*
G75*
G03*
X10231696Y-10928372I30000J0D01*
G01*
X10381696Y-10928372D02*
G75*
G03*
X10321696Y-10928372I-30000J0D01*
G01*
X10321696Y-10928372D02*
G75*
G03*
X10381696Y-10928372I30000J0D01*
G01*
X10531696Y-10928372D02*
G75*
G03*
X10471696Y-10928372I-30000J0D01*
G01*
X10471696Y-10928372D02*
G75*
G03*
X10531696Y-10928372I30000J0D01*
G01*
X10681696Y-10928372D02*
G75*
G03*
X10621696Y-10928372I-30000J0D01*
G01*
X10621696Y-10928372D02*
G75*
G03*
X10681696Y-10928372I30000J0D01*
G01*
X10831696Y-10928372D02*
G75*
G03*
X10771696Y-10928372I-30000J0D01*
G01*
X10771696Y-10928372D02*
G75*
G03*
X10831696Y-10928372I30000J0D01*
G01*
X10981696Y-10928372D02*
G75*
G03*
X10921696Y-10928372I-30000J0D01*
G01*
X10921696Y-10928372D02*
G75*
G03*
X10981696Y-10928372I30000J0D01*
G01*
X11014000Y-5798500D02*
G75*
G03*
X10954000Y-5798500I-30000J0D01*
G01*
X10954000Y-5798500D02*
G75*
G03*
X11014000Y-5798500I30000J0D01*
G01*
X11014000Y-5838500D02*
X11014000Y-5758500D01*
X11014000Y-5758500D02*
G75*
G03*
X10954000Y-5758500I-30000J0D01*
G01*
X10954000Y-5758500D02*
X10954000Y-5838500D01*
X10954000Y-5838500D02*
G75*
G03*
X11014000Y-5838500I30000J0D01*
G01*
X11014000Y-6216500D02*
G75*
G03*
X10954000Y-6216500I-30000J0D01*
G01*
X10954000Y-6216500D02*
G75*
G03*
X11014000Y-6216500I30000J0D01*
G01*
X11014000Y-6271500D02*
X11014000Y-6161500D01*
X11014000Y-6161500D02*
G75*
G03*
X10954000Y-6161500I-30000J0D01*
G01*
X10954000Y-6161500D02*
X10954000Y-6271500D01*
X10954000Y-6271500D02*
G75*
G03*
X11014000Y-6271500I30000J0D01*
G01*
X11131696Y-10928372D02*
G75*
G03*
X11071696Y-10928372I-30000J0D01*
G01*
X11071696Y-10928372D02*
G75*
G03*
X11131696Y-10928372I30000J0D01*
G01*
X11281696Y-10928372D02*
G75*
G03*
X11221696Y-10928372I-30000J0D01*
G01*
X11221696Y-10928372D02*
G75*
G03*
X11281696Y-10928372I30000J0D01*
G01*
X11431696Y-10928372D02*
G75*
G03*
X11371696Y-10928372I-30000J0D01*
G01*
X11371696Y-10928372D02*
G75*
G03*
X11431696Y-10928372I30000J0D01*
G01*
X11581696Y-10928372D02*
G75*
G03*
X11521696Y-10928372I-30000J0D01*
G01*
X11521696Y-10928372D02*
G75*
G03*
X11581696Y-10928372I30000J0D01*
G01*
X11731696Y-10928372D02*
G75*
G03*
X11671696Y-10928372I-30000J0D01*
G01*
X11671696Y-10928372D02*
G75*
G03*
X11731696Y-10928372I30000J0D01*
G01*
X11878000Y-5798500D02*
G75*
G03*
X11818000Y-5798500I-30000J0D01*
G01*
X11818000Y-5798500D02*
G75*
G03*
X11878000Y-5798500I30000J0D01*
G01*
X11878000Y-5838500D02*
X11878000Y-5758500D01*
X11878000Y-5758500D02*
G75*
G03*
X11818000Y-5758500I-30000J0D01*
G01*
X11818000Y-5758500D02*
X11818000Y-5838500D01*
X11818000Y-5838500D02*
G75*
G03*
X11878000Y-5838500I30000J0D01*
G01*
X11878000Y-6216500D02*
G75*
G03*
X11818000Y-6216500I-30000J0D01*
G01*
X11818000Y-6216500D02*
G75*
G03*
X11878000Y-6216500I30000J0D01*
G01*
X11878000Y-6271500D02*
X11878000Y-6161500D01*
X11878000Y-6161500D02*
G75*
G03*
X11818000Y-6161500I-30000J0D01*
G01*
X11818000Y-6161500D02*
X11818000Y-6271500D01*
X11818000Y-6271500D02*
G75*
G03*
X11878000Y-6271500I30000J0D01*
G01*
X11881696Y-10928372D02*
G75*
G03*
X11821696Y-10928372I-30000J0D01*
G01*
X11821696Y-10928372D02*
G75*
G03*
X11881696Y-10928372I30000J0D01*
G01*
X12031696Y-10928372D02*
G75*
G03*
X11971696Y-10928372I-30000J0D01*
G01*
X11971696Y-10928372D02*
G75*
G03*
X12031696Y-10928372I30000J0D01*
G01*
X12181696Y-10928372D02*
G75*
G03*
X12121696Y-10928372I-30000J0D01*
G01*
X12121696Y-10928372D02*
G75*
G03*
X12181696Y-10928372I30000J0D01*
G01*
X12331696Y-10928372D02*
G75*
G03*
X12271696Y-10928372I-30000J0D01*
G01*
X12271696Y-10928372D02*
G75*
G03*
X12331696Y-10928372I30000J0D01*
G01*
X12481696Y-10928372D02*
G75*
G03*
X12421696Y-10928372I-30000J0D01*
G01*
X12421696Y-10928372D02*
G75*
G03*
X12481696Y-10928372I30000J0D01*
G01*
X12631696Y-10928372D02*
G75*
G03*
X12571696Y-10928372I-30000J0D01*
G01*
X12571696Y-10928372D02*
G75*
G03*
X12631696Y-10928372I30000J0D01*
G01*
X12781696Y-10928372D02*
G75*
G03*
X12721696Y-10928372I-30000J0D01*
G01*
X12721696Y-10928372D02*
G75*
G03*
X12781696Y-10928372I30000J0D01*
G01*
X12931696Y-10928372D02*
G75*
G03*
X12871696Y-10928372I-30000J0D01*
G01*
X12871696Y-10928372D02*
G75*
G03*
X12931696Y-10928372I30000J0D01*
G01*
X13081696Y-10928372D02*
G75*
G03*
X13021696Y-10928372I-30000J0D01*
G01*
X13021696Y-10928372D02*
G75*
G03*
X13081696Y-10928372I30000J0D01*
G01*
X13231696Y-10928372D02*
G75*
G03*
X13171696Y-10928372I-30000J0D01*
G01*
X13171696Y-10928372D02*
G75*
G03*
X13231696Y-10928372I30000J0D01*
G01*
X13381696Y-10928372D02*
G75*
G03*
X13321696Y-10928372I-30000J0D01*
G01*
X13321696Y-10928372D02*
G75*
G03*
X13381696Y-10928372I30000J0D01*
G01*
X13556696Y-10928372D02*
G75*
G03*
X13496696Y-10928372I-30000J0D01*
G01*
X13496696Y-10928372D02*
G75*
G03*
X13556696Y-10928372I30000J0D01*
G01*
X12534500Y-6087500D02*
X12534500Y-6187500D01*
X12484500Y-6137500D02*
X12584500Y-6137500D01*
X12788500Y-6087500D02*
X12788500Y-6187500D01*
X12738500Y-6137500D02*
X12838500Y-6137500D01*
D11*
X8793277Y-12008984D02*
X8793277Y-11808984D01*
X8793277Y-11808984D02*
X8840896Y-11808984D01*
X8840896Y-11808984D02*
X8869467Y-11818508D01*
X8869467Y-11818508D02*
X8888515Y-11837555D01*
X8888515Y-11837555D02*
X8898039Y-11856603D01*
X8898039Y-11856603D02*
X8907563Y-11894698D01*
X8907563Y-11894698D02*
X8907563Y-11923269D01*
X8907563Y-11923269D02*
X8898039Y-11961365D01*
X8898039Y-11961365D02*
X8888515Y-11980412D01*
X8888515Y-11980412D02*
X8869467Y-11999460D01*
X8869467Y-11999460D02*
X8840896Y-12008984D01*
X8840896Y-12008984D02*
X8793277Y-12008984D01*
X8993277Y-12008984D02*
X8993277Y-11875650D01*
X8993277Y-11913746D02*
X9002801Y-11894698D01*
X9002801Y-11894698D02*
X9012324Y-11885174D01*
X9012324Y-11885174D02*
X9031372Y-11875650D01*
X9031372Y-11875650D02*
X9050420Y-11875650D01*
X9117086Y-12008984D02*
X9117086Y-11875650D01*
X9117086Y-11808984D02*
X9107563Y-11818508D01*
X9107563Y-11818508D02*
X9117086Y-11828031D01*
X9117086Y-11828031D02*
X9126610Y-11818508D01*
X9126610Y-11818508D02*
X9117086Y-11808984D01*
X9117086Y-11808984D02*
X9117086Y-11828031D01*
X9240896Y-12008984D02*
X9221848Y-11999460D01*
X9221848Y-11999460D02*
X9212324Y-11980412D01*
X9212324Y-11980412D02*
X9212324Y-11808984D01*
X9345658Y-12008984D02*
X9326610Y-11999460D01*
X9326610Y-11999460D02*
X9317086Y-11980412D01*
X9317086Y-11980412D02*
X9317086Y-11808984D01*
X9574229Y-12008984D02*
X9574229Y-11808984D01*
X9574229Y-11808984D02*
X9640896Y-11951841D01*
X9640896Y-11951841D02*
X9707563Y-11808984D01*
X9707563Y-11808984D02*
X9707563Y-12008984D01*
X9888515Y-12008984D02*
X9888515Y-11904222D01*
X9888515Y-11904222D02*
X9878991Y-11885174D01*
X9878991Y-11885174D02*
X9859944Y-11875650D01*
X9859944Y-11875650D02*
X9821848Y-11875650D01*
X9821848Y-11875650D02*
X9802801Y-11885174D01*
X9888515Y-11999460D02*
X9869467Y-12008984D01*
X9869467Y-12008984D02*
X9821848Y-12008984D01*
X9821848Y-12008984D02*
X9802801Y-11999460D01*
X9802801Y-11999460D02*
X9793277Y-11980412D01*
X9793277Y-11980412D02*
X9793277Y-11961365D01*
X9793277Y-11961365D02*
X9802801Y-11942317D01*
X9802801Y-11942317D02*
X9821848Y-11932793D01*
X9821848Y-11932793D02*
X9869467Y-11932793D01*
X9869467Y-11932793D02*
X9888515Y-11923269D01*
X9983753Y-11875650D02*
X9983753Y-12075650D01*
X9983753Y-11885174D02*
X10002801Y-11875650D01*
X10002801Y-11875650D02*
X10040896Y-11875650D01*
X10040896Y-11875650D02*
X10059944Y-11885174D01*
X10059944Y-11885174D02*
X10069467Y-11894698D01*
X10069467Y-11894698D02*
X10078991Y-11913746D01*
X10078991Y-11913746D02*
X10078991Y-11970888D01*
X10078991Y-11970888D02*
X10069467Y-11989936D01*
X10069467Y-11989936D02*
X10059944Y-11999460D01*
X10059944Y-11999460D02*
X10040896Y-12008984D01*
X10040896Y-12008984D02*
X10002801Y-12008984D01*
X10002801Y-12008984D02*
X9983753Y-11999460D01*
X10164705Y-11989936D02*
X10174229Y-11999460D01*
X10174229Y-11999460D02*
X10164705Y-12008984D01*
X10164705Y-12008984D02*
X10155182Y-11999460D01*
X10155182Y-11999460D02*
X10164705Y-11989936D01*
X10164705Y-11989936D02*
X10164705Y-12008984D01*
X10164705Y-11885174D02*
X10174229Y-11894698D01*
X10174229Y-11894698D02*
X10164705Y-11904222D01*
X10164705Y-11904222D02*
X10155182Y-11894698D01*
X10155182Y-11894698D02*
X10164705Y-11885174D01*
X10164705Y-11885174D02*
X10164705Y-11904222D01*
D12*
X8502500Y-12322500D02*
X8532500Y-12352500D01*
X8532500Y-12322500D02*
X8502500Y-12352500D01*
D11*
X8831372Y-12228984D02*
X8850420Y-12228984D01*
X8850420Y-12228984D02*
X8869467Y-12238508D01*
X8869467Y-12238508D02*
X8878991Y-12248031D01*
X8878991Y-12248031D02*
X8888515Y-12267079D01*
X8888515Y-12267079D02*
X8898039Y-12305174D01*
X8898039Y-12305174D02*
X8898039Y-12352793D01*
X8898039Y-12352793D02*
X8888515Y-12390888D01*
X8888515Y-12390888D02*
X8878991Y-12409936D01*
X8878991Y-12409936D02*
X8869467Y-12419460D01*
X8869467Y-12419460D02*
X8850420Y-12428984D01*
X8850420Y-12428984D02*
X8831372Y-12428984D01*
X8831372Y-12428984D02*
X8812324Y-12419460D01*
X8812324Y-12419460D02*
X8802801Y-12409936D01*
X8802801Y-12409936D02*
X8793277Y-12390888D01*
X8793277Y-12390888D02*
X8783753Y-12352793D01*
X8783753Y-12352793D02*
X8783753Y-12305174D01*
X8783753Y-12305174D02*
X8793277Y-12267079D01*
X8793277Y-12267079D02*
X8802801Y-12248031D01*
X8802801Y-12248031D02*
X8812324Y-12238508D01*
X8812324Y-12238508D02*
X8831372Y-12228984D01*
X8983753Y-12409936D02*
X8993277Y-12419460D01*
X8993277Y-12419460D02*
X8983753Y-12428984D01*
X8983753Y-12428984D02*
X8974229Y-12419460D01*
X8974229Y-12419460D02*
X8983753Y-12409936D01*
X8983753Y-12409936D02*
X8983753Y-12428984D01*
X9059944Y-12228984D02*
X9183753Y-12228984D01*
X9183753Y-12228984D02*
X9117086Y-12305174D01*
X9117086Y-12305174D02*
X9145658Y-12305174D01*
X9145658Y-12305174D02*
X9164705Y-12314698D01*
X9164705Y-12314698D02*
X9174229Y-12324222D01*
X9174229Y-12324222D02*
X9183753Y-12343269D01*
X9183753Y-12343269D02*
X9183753Y-12390888D01*
X9183753Y-12390888D02*
X9174229Y-12409936D01*
X9174229Y-12409936D02*
X9164705Y-12419460D01*
X9164705Y-12419460D02*
X9145658Y-12428984D01*
X9145658Y-12428984D02*
X9088515Y-12428984D01*
X9088515Y-12428984D02*
X9069467Y-12419460D01*
X9069467Y-12419460D02*
X9059944Y-12409936D01*
X9307563Y-12228984D02*
X9326610Y-12228984D01*
X9326610Y-12228984D02*
X9345658Y-12238508D01*
X9345658Y-12238508D02*
X9355182Y-12248031D01*
X9355182Y-12248031D02*
X9364705Y-12267079D01*
X9364705Y-12267079D02*
X9374229Y-12305174D01*
X9374229Y-12305174D02*
X9374229Y-12352793D01*
X9374229Y-12352793D02*
X9364705Y-12390888D01*
X9364705Y-12390888D02*
X9355182Y-12409936D01*
X9355182Y-12409936D02*
X9345658Y-12419460D01*
X9345658Y-12419460D02*
X9326610Y-12428984D01*
X9326610Y-12428984D02*
X9307563Y-12428984D01*
X9307563Y-12428984D02*
X9288515Y-12419460D01*
X9288515Y-12419460D02*
X9278991Y-12409936D01*
X9278991Y-12409936D02*
X9269467Y-12390888D01*
X9269467Y-12390888D02*
X9259944Y-12352793D01*
X9259944Y-12352793D02*
X9259944Y-12305174D01*
X9259944Y-12305174D02*
X9269467Y-12267079D01*
X9269467Y-12267079D02*
X9278991Y-12248031D01*
X9278991Y-12248031D02*
X9288515Y-12238508D01*
X9288515Y-12238508D02*
X9307563Y-12228984D01*
X9498039Y-12228984D02*
X9517086Y-12228984D01*
X9517086Y-12228984D02*
X9536134Y-12238508D01*
X9536134Y-12238508D02*
X9545658Y-12248031D01*
X9545658Y-12248031D02*
X9555182Y-12267079D01*
X9555182Y-12267079D02*
X9564705Y-12305174D01*
X9564705Y-12305174D02*
X9564705Y-12352793D01*
X9564705Y-12352793D02*
X9555182Y-12390888D01*
X9555182Y-12390888D02*
X9545658Y-12409936D01*
X9545658Y-12409936D02*
X9536134Y-12419460D01*
X9536134Y-12419460D02*
X9517086Y-12428984D01*
X9517086Y-12428984D02*
X9498039Y-12428984D01*
X9498039Y-12428984D02*
X9478991Y-12419460D01*
X9478991Y-12419460D02*
X9469467Y-12409936D01*
X9469467Y-12409936D02*
X9459944Y-12390888D01*
X9459944Y-12390888D02*
X9450420Y-12352793D01*
X9450420Y-12352793D02*
X9450420Y-12305174D01*
X9450420Y-12305174D02*
X9459944Y-12267079D01*
X9459944Y-12267079D02*
X9469467Y-12248031D01*
X9469467Y-12248031D02*
X9478991Y-12238508D01*
X9478991Y-12238508D02*
X9498039Y-12228984D01*
X9650420Y-12428984D02*
X9650420Y-12295650D01*
X9650420Y-12314698D02*
X9659944Y-12305174D01*
X9659944Y-12305174D02*
X9678991Y-12295650D01*
X9678991Y-12295650D02*
X9707563Y-12295650D01*
X9707563Y-12295650D02*
X9726610Y-12305174D01*
X9726610Y-12305174D02*
X9736134Y-12324222D01*
X9736134Y-12324222D02*
X9736134Y-12428984D01*
X9736134Y-12324222D02*
X9745658Y-12305174D01*
X9745658Y-12305174D02*
X9764705Y-12295650D01*
X9764705Y-12295650D02*
X9793277Y-12295650D01*
X9793277Y-12295650D02*
X9812325Y-12305174D01*
X9812325Y-12305174D02*
X9821848Y-12324222D01*
X9821848Y-12324222D02*
X9821848Y-12428984D01*
X9917086Y-12428984D02*
X9917086Y-12295650D01*
X9917086Y-12314698D02*
X9926610Y-12305174D01*
X9926610Y-12305174D02*
X9945658Y-12295650D01*
X9945658Y-12295650D02*
X9974229Y-12295650D01*
X9974229Y-12295650D02*
X9993277Y-12305174D01*
X9993277Y-12305174D02*
X10002801Y-12324222D01*
X10002801Y-12324222D02*
X10002801Y-12428984D01*
X10002801Y-12324222D02*
X10012325Y-12305174D01*
X10012325Y-12305174D02*
X10031372Y-12295650D01*
X10031372Y-12295650D02*
X10059944Y-12295650D01*
X10059944Y-12295650D02*
X10078991Y-12305174D01*
X10078991Y-12305174D02*
X10088515Y-12324222D01*
X10088515Y-12324222D02*
X10088515Y-12428984D01*
X10478991Y-12219460D02*
X10307563Y-12476603D01*
X10736134Y-12228984D02*
X10755182Y-12228984D01*
X10755182Y-12228984D02*
X10774229Y-12238508D01*
X10774229Y-12238508D02*
X10783753Y-12248031D01*
X10783753Y-12248031D02*
X10793277Y-12267079D01*
X10793277Y-12267079D02*
X10802801Y-12305174D01*
X10802801Y-12305174D02*
X10802801Y-12352793D01*
X10802801Y-12352793D02*
X10793277Y-12390888D01*
X10793277Y-12390888D02*
X10783753Y-12409936D01*
X10783753Y-12409936D02*
X10774229Y-12419460D01*
X10774229Y-12419460D02*
X10755182Y-12428984D01*
X10755182Y-12428984D02*
X10736134Y-12428984D01*
X10736134Y-12428984D02*
X10717087Y-12419460D01*
X10717087Y-12419460D02*
X10707563Y-12409936D01*
X10707563Y-12409936D02*
X10698039Y-12390888D01*
X10698039Y-12390888D02*
X10688515Y-12352793D01*
X10688515Y-12352793D02*
X10688515Y-12305174D01*
X10688515Y-12305174D02*
X10698039Y-12267079D01*
X10698039Y-12267079D02*
X10707563Y-12248031D01*
X10707563Y-12248031D02*
X10717087Y-12238508D01*
X10717087Y-12238508D02*
X10736134Y-12228984D01*
X10888515Y-12409936D02*
X10898039Y-12419460D01*
X10898039Y-12419460D02*
X10888515Y-12428984D01*
X10888515Y-12428984D02*
X10878991Y-12419460D01*
X10878991Y-12419460D02*
X10888515Y-12409936D01*
X10888515Y-12409936D02*
X10888515Y-12428984D01*
X11021848Y-12228984D02*
X11040896Y-12228984D01*
X11040896Y-12228984D02*
X11059944Y-12238508D01*
X11059944Y-12238508D02*
X11069468Y-12248031D01*
X11069468Y-12248031D02*
X11078991Y-12267079D01*
X11078991Y-12267079D02*
X11088515Y-12305174D01*
X11088515Y-12305174D02*
X11088515Y-12352793D01*
X11088515Y-12352793D02*
X11078991Y-12390888D01*
X11078991Y-12390888D02*
X11069468Y-12409936D01*
X11069468Y-12409936D02*
X11059944Y-12419460D01*
X11059944Y-12419460D02*
X11040896Y-12428984D01*
X11040896Y-12428984D02*
X11021848Y-12428984D01*
X11021848Y-12428984D02*
X11002801Y-12419460D01*
X11002801Y-12419460D02*
X10993277Y-12409936D01*
X10993277Y-12409936D02*
X10983753Y-12390888D01*
X10983753Y-12390888D02*
X10974229Y-12352793D01*
X10974229Y-12352793D02*
X10974229Y-12305174D01*
X10974229Y-12305174D02*
X10983753Y-12267079D01*
X10983753Y-12267079D02*
X10993277Y-12248031D01*
X10993277Y-12248031D02*
X11002801Y-12238508D01*
X11002801Y-12238508D02*
X11021848Y-12228984D01*
X11278991Y-12428984D02*
X11164706Y-12428984D01*
X11221848Y-12428984D02*
X11221848Y-12228984D01*
X11221848Y-12228984D02*
X11202801Y-12257555D01*
X11202801Y-12257555D02*
X11183753Y-12276603D01*
X11183753Y-12276603D02*
X11164706Y-12286127D01*
X11469467Y-12428984D02*
X11355182Y-12428984D01*
X11412325Y-12428984D02*
X11412325Y-12228984D01*
X11412325Y-12228984D02*
X11393277Y-12257555D01*
X11393277Y-12257555D02*
X11374229Y-12276603D01*
X11374229Y-12276603D02*
X11355182Y-12286127D01*
X11583753Y-12314698D02*
X11564706Y-12305174D01*
X11564706Y-12305174D02*
X11555182Y-12295650D01*
X11555182Y-12295650D02*
X11545658Y-12276603D01*
X11545658Y-12276603D02*
X11545658Y-12267079D01*
X11545658Y-12267079D02*
X11555182Y-12248031D01*
X11555182Y-12248031D02*
X11564706Y-12238508D01*
X11564706Y-12238508D02*
X11583753Y-12228984D01*
X11583753Y-12228984D02*
X11621848Y-12228984D01*
X11621848Y-12228984D02*
X11640896Y-12238508D01*
X11640896Y-12238508D02*
X11650420Y-12248031D01*
X11650420Y-12248031D02*
X11659944Y-12267079D01*
X11659944Y-12267079D02*
X11659944Y-12276603D01*
X11659944Y-12276603D02*
X11650420Y-12295650D01*
X11650420Y-12295650D02*
X11640896Y-12305174D01*
X11640896Y-12305174D02*
X11621848Y-12314698D01*
X11621848Y-12314698D02*
X11583753Y-12314698D01*
X11583753Y-12314698D02*
X11564706Y-12324222D01*
X11564706Y-12324222D02*
X11555182Y-12333746D01*
X11555182Y-12333746D02*
X11545658Y-12352793D01*
X11545658Y-12352793D02*
X11545658Y-12390888D01*
X11545658Y-12390888D02*
X11555182Y-12409936D01*
X11555182Y-12409936D02*
X11564706Y-12419460D01*
X11564706Y-12419460D02*
X11583753Y-12428984D01*
X11583753Y-12428984D02*
X11621848Y-12428984D01*
X11621848Y-12428984D02*
X11640896Y-12419460D01*
X11640896Y-12419460D02*
X11650420Y-12409936D01*
X11650420Y-12409936D02*
X11659944Y-12390888D01*
X11659944Y-12390888D02*
X11659944Y-12352793D01*
X11659944Y-12352793D02*
X11650420Y-12333746D01*
X11650420Y-12333746D02*
X11640896Y-12324222D01*
X11640896Y-12324222D02*
X11621848Y-12314698D01*
X11736134Y-12228984D02*
X11736134Y-12267079D01*
X11812325Y-12228984D02*
X11812325Y-12267079D01*
X12107563Y-12505174D02*
X12098039Y-12495650D01*
X12098039Y-12495650D02*
X12078991Y-12467079D01*
X12078991Y-12467079D02*
X12069468Y-12448031D01*
X12069468Y-12448031D02*
X12059944Y-12419460D01*
X12059944Y-12419460D02*
X12050420Y-12371841D01*
X12050420Y-12371841D02*
X12050420Y-12333746D01*
X12050420Y-12333746D02*
X12059944Y-12286127D01*
X12059944Y-12286127D02*
X12069468Y-12257555D01*
X12069468Y-12257555D02*
X12078991Y-12238508D01*
X12078991Y-12238508D02*
X12098039Y-12209936D01*
X12098039Y-12209936D02*
X12107563Y-12200412D01*
X12174229Y-12248031D02*
X12183753Y-12238508D01*
X12183753Y-12238508D02*
X12202801Y-12228984D01*
X12202801Y-12228984D02*
X12250420Y-12228984D01*
X12250420Y-12228984D02*
X12269468Y-12238508D01*
X12269468Y-12238508D02*
X12278991Y-12248031D01*
X12278991Y-12248031D02*
X12288515Y-12267079D01*
X12288515Y-12267079D02*
X12288515Y-12286127D01*
X12288515Y-12286127D02*
X12278991Y-12314698D01*
X12278991Y-12314698D02*
X12164706Y-12428984D01*
X12164706Y-12428984D02*
X12288515Y-12428984D01*
X12459944Y-12228984D02*
X12421848Y-12228984D01*
X12421848Y-12228984D02*
X12402801Y-12238508D01*
X12402801Y-12238508D02*
X12393277Y-12248031D01*
X12393277Y-12248031D02*
X12374229Y-12276603D01*
X12374229Y-12276603D02*
X12364706Y-12314698D01*
X12364706Y-12314698D02*
X12364706Y-12390888D01*
X12364706Y-12390888D02*
X12374229Y-12409936D01*
X12374229Y-12409936D02*
X12383753Y-12419460D01*
X12383753Y-12419460D02*
X12402801Y-12428984D01*
X12402801Y-12428984D02*
X12440896Y-12428984D01*
X12440896Y-12428984D02*
X12459944Y-12419460D01*
X12459944Y-12419460D02*
X12469468Y-12409936D01*
X12469468Y-12409936D02*
X12478991Y-12390888D01*
X12478991Y-12390888D02*
X12478991Y-12343269D01*
X12478991Y-12343269D02*
X12469468Y-12324222D01*
X12469468Y-12324222D02*
X12459944Y-12314698D01*
X12459944Y-12314698D02*
X12440896Y-12305174D01*
X12440896Y-12305174D02*
X12402801Y-12305174D01*
X12402801Y-12305174D02*
X12383753Y-12314698D01*
X12383753Y-12314698D02*
X12374229Y-12324222D01*
X12374229Y-12324222D02*
X12364706Y-12343269D01*
X12669468Y-12428984D02*
X12555182Y-12428984D01*
X12612325Y-12428984D02*
X12612325Y-12228984D01*
X12612325Y-12228984D02*
X12593277Y-12257555D01*
X12593277Y-12257555D02*
X12574229Y-12276603D01*
X12574229Y-12276603D02*
X12555182Y-12286127D01*
X12907563Y-12428984D02*
X12907563Y-12228984D01*
X12993277Y-12428984D02*
X12993277Y-12324222D01*
X12993277Y-12324222D02*
X12983753Y-12305174D01*
X12983753Y-12305174D02*
X12964706Y-12295650D01*
X12964706Y-12295650D02*
X12936134Y-12295650D01*
X12936134Y-12295650D02*
X12917087Y-12305174D01*
X12917087Y-12305174D02*
X12907563Y-12314698D01*
X13117087Y-12428984D02*
X13098039Y-12419460D01*
X13098039Y-12419460D02*
X13088515Y-12409936D01*
X13088515Y-12409936D02*
X13078991Y-12390888D01*
X13078991Y-12390888D02*
X13078991Y-12333746D01*
X13078991Y-12333746D02*
X13088515Y-12314698D01*
X13088515Y-12314698D02*
X13098039Y-12305174D01*
X13098039Y-12305174D02*
X13117087Y-12295650D01*
X13117087Y-12295650D02*
X13145658Y-12295650D01*
X13145658Y-12295650D02*
X13164706Y-12305174D01*
X13164706Y-12305174D02*
X13174230Y-12314698D01*
X13174230Y-12314698D02*
X13183753Y-12333746D01*
X13183753Y-12333746D02*
X13183753Y-12390888D01*
X13183753Y-12390888D02*
X13174230Y-12409936D01*
X13174230Y-12409936D02*
X13164706Y-12419460D01*
X13164706Y-12419460D02*
X13145658Y-12428984D01*
X13145658Y-12428984D02*
X13117087Y-12428984D01*
X13298039Y-12428984D02*
X13278991Y-12419460D01*
X13278991Y-12419460D02*
X13269468Y-12400412D01*
X13269468Y-12400412D02*
X13269468Y-12228984D01*
X13450420Y-12419460D02*
X13431372Y-12428984D01*
X13431372Y-12428984D02*
X13393277Y-12428984D01*
X13393277Y-12428984D02*
X13374230Y-12419460D01*
X13374230Y-12419460D02*
X13364706Y-12400412D01*
X13364706Y-12400412D02*
X13364706Y-12324222D01*
X13364706Y-12324222D02*
X13374230Y-12305174D01*
X13374230Y-12305174D02*
X13393277Y-12295650D01*
X13393277Y-12295650D02*
X13431372Y-12295650D01*
X13431372Y-12295650D02*
X13450420Y-12305174D01*
X13450420Y-12305174D02*
X13459944Y-12324222D01*
X13459944Y-12324222D02*
X13459944Y-12343269D01*
X13459944Y-12343269D02*
X13364706Y-12362317D01*
X13536134Y-12419460D02*
X13555182Y-12428984D01*
X13555182Y-12428984D02*
X13593277Y-12428984D01*
X13593277Y-12428984D02*
X13612325Y-12419460D01*
X13612325Y-12419460D02*
X13621849Y-12400412D01*
X13621849Y-12400412D02*
X13621849Y-12390888D01*
X13621849Y-12390888D02*
X13612325Y-12371841D01*
X13612325Y-12371841D02*
X13593277Y-12362317D01*
X13593277Y-12362317D02*
X13564706Y-12362317D01*
X13564706Y-12362317D02*
X13545658Y-12352793D01*
X13545658Y-12352793D02*
X13536134Y-12333746D01*
X13536134Y-12333746D02*
X13536134Y-12324222D01*
X13536134Y-12324222D02*
X13545658Y-12305174D01*
X13545658Y-12305174D02*
X13564706Y-12295650D01*
X13564706Y-12295650D02*
X13593277Y-12295650D01*
X13593277Y-12295650D02*
X13612325Y-12305174D01*
X13688515Y-12505174D02*
X13698039Y-12495650D01*
X13698039Y-12495650D02*
X13717087Y-12467079D01*
X13717087Y-12467079D02*
X13726611Y-12448031D01*
X13726611Y-12448031D02*
X13736134Y-12419460D01*
X13736134Y-12419460D02*
X13745658Y-12371841D01*
X13745658Y-12371841D02*
X13745658Y-12333746D01*
X13745658Y-12333746D02*
X13736134Y-12286127D01*
X13736134Y-12286127D02*
X13726611Y-12257555D01*
X13726611Y-12257555D02*
X13717087Y-12238508D01*
X13717087Y-12238508D02*
X13698039Y-12209936D01*
X13698039Y-12209936D02*
X13688515Y-12200412D01*
D12*
X8532500Y-12601500D02*
G75*
G03*
X8472500Y-12601500I-30000J0D01*
G01*
X8472500Y-12601500D02*
G75*
G03*
X8532500Y-12601500I30000J0D01*
G01*
D11*
X8831372Y-12492984D02*
X8850420Y-12492984D01*
X8850420Y-12492984D02*
X8869467Y-12502508D01*
X8869467Y-12502508D02*
X8878991Y-12512031D01*
X8878991Y-12512031D02*
X8888515Y-12531079D01*
X8888515Y-12531079D02*
X8898039Y-12569174D01*
X8898039Y-12569174D02*
X8898039Y-12616793D01*
X8898039Y-12616793D02*
X8888515Y-12654888D01*
X8888515Y-12654888D02*
X8878991Y-12673936D01*
X8878991Y-12673936D02*
X8869467Y-12683460D01*
X8869467Y-12683460D02*
X8850420Y-12692984D01*
X8850420Y-12692984D02*
X8831372Y-12692984D01*
X8831372Y-12692984D02*
X8812324Y-12683460D01*
X8812324Y-12683460D02*
X8802801Y-12673936D01*
X8802801Y-12673936D02*
X8793277Y-12654888D01*
X8793277Y-12654888D02*
X8783753Y-12616793D01*
X8783753Y-12616793D02*
X8783753Y-12569174D01*
X8783753Y-12569174D02*
X8793277Y-12531079D01*
X8793277Y-12531079D02*
X8802801Y-12512031D01*
X8802801Y-12512031D02*
X8812324Y-12502508D01*
X8812324Y-12502508D02*
X8831372Y-12492984D01*
X8983753Y-12673936D02*
X8993277Y-12683460D01*
X8993277Y-12683460D02*
X8983753Y-12692984D01*
X8983753Y-12692984D02*
X8974229Y-12683460D01*
X8974229Y-12683460D02*
X8983753Y-12673936D01*
X8983753Y-12673936D02*
X8983753Y-12692984D01*
X9164705Y-12492984D02*
X9126610Y-12492984D01*
X9126610Y-12492984D02*
X9107563Y-12502508D01*
X9107563Y-12502508D02*
X9098039Y-12512031D01*
X9098039Y-12512031D02*
X9078991Y-12540603D01*
X9078991Y-12540603D02*
X9069467Y-12578698D01*
X9069467Y-12578698D02*
X9069467Y-12654888D01*
X9069467Y-12654888D02*
X9078991Y-12673936D01*
X9078991Y-12673936D02*
X9088515Y-12683460D01*
X9088515Y-12683460D02*
X9107563Y-12692984D01*
X9107563Y-12692984D02*
X9145658Y-12692984D01*
X9145658Y-12692984D02*
X9164705Y-12683460D01*
X9164705Y-12683460D02*
X9174229Y-12673936D01*
X9174229Y-12673936D02*
X9183753Y-12654888D01*
X9183753Y-12654888D02*
X9183753Y-12607269D01*
X9183753Y-12607269D02*
X9174229Y-12588222D01*
X9174229Y-12588222D02*
X9164705Y-12578698D01*
X9164705Y-12578698D02*
X9145658Y-12569174D01*
X9145658Y-12569174D02*
X9107563Y-12569174D01*
X9107563Y-12569174D02*
X9088515Y-12578698D01*
X9088515Y-12578698D02*
X9078991Y-12588222D01*
X9078991Y-12588222D02*
X9069467Y-12607269D01*
X9307563Y-12492984D02*
X9326610Y-12492984D01*
X9326610Y-12492984D02*
X9345658Y-12502508D01*
X9345658Y-12502508D02*
X9355182Y-12512031D01*
X9355182Y-12512031D02*
X9364705Y-12531079D01*
X9364705Y-12531079D02*
X9374229Y-12569174D01*
X9374229Y-12569174D02*
X9374229Y-12616793D01*
X9374229Y-12616793D02*
X9364705Y-12654888D01*
X9364705Y-12654888D02*
X9355182Y-12673936D01*
X9355182Y-12673936D02*
X9345658Y-12683460D01*
X9345658Y-12683460D02*
X9326610Y-12692984D01*
X9326610Y-12692984D02*
X9307563Y-12692984D01*
X9307563Y-12692984D02*
X9288515Y-12683460D01*
X9288515Y-12683460D02*
X9278991Y-12673936D01*
X9278991Y-12673936D02*
X9269467Y-12654888D01*
X9269467Y-12654888D02*
X9259944Y-12616793D01*
X9259944Y-12616793D02*
X9259944Y-12569174D01*
X9259944Y-12569174D02*
X9269467Y-12531079D01*
X9269467Y-12531079D02*
X9278991Y-12512031D01*
X9278991Y-12512031D02*
X9288515Y-12502508D01*
X9288515Y-12502508D02*
X9307563Y-12492984D01*
X9498039Y-12492984D02*
X9517086Y-12492984D01*
X9517086Y-12492984D02*
X9536134Y-12502508D01*
X9536134Y-12502508D02*
X9545658Y-12512031D01*
X9545658Y-12512031D02*
X9555182Y-12531079D01*
X9555182Y-12531079D02*
X9564705Y-12569174D01*
X9564705Y-12569174D02*
X9564705Y-12616793D01*
X9564705Y-12616793D02*
X9555182Y-12654888D01*
X9555182Y-12654888D02*
X9545658Y-12673936D01*
X9545658Y-12673936D02*
X9536134Y-12683460D01*
X9536134Y-12683460D02*
X9517086Y-12692984D01*
X9517086Y-12692984D02*
X9498039Y-12692984D01*
X9498039Y-12692984D02*
X9478991Y-12683460D01*
X9478991Y-12683460D02*
X9469467Y-12673936D01*
X9469467Y-12673936D02*
X9459944Y-12654888D01*
X9459944Y-12654888D02*
X9450420Y-12616793D01*
X9450420Y-12616793D02*
X9450420Y-12569174D01*
X9450420Y-12569174D02*
X9459944Y-12531079D01*
X9459944Y-12531079D02*
X9469467Y-12512031D01*
X9469467Y-12512031D02*
X9478991Y-12502508D01*
X9478991Y-12502508D02*
X9498039Y-12492984D01*
X9650420Y-12692984D02*
X9650420Y-12559650D01*
X9650420Y-12578698D02*
X9659944Y-12569174D01*
X9659944Y-12569174D02*
X9678991Y-12559650D01*
X9678991Y-12559650D02*
X9707563Y-12559650D01*
X9707563Y-12559650D02*
X9726610Y-12569174D01*
X9726610Y-12569174D02*
X9736134Y-12588222D01*
X9736134Y-12588222D02*
X9736134Y-12692984D01*
X9736134Y-12588222D02*
X9745658Y-12569174D01*
X9745658Y-12569174D02*
X9764705Y-12559650D01*
X9764705Y-12559650D02*
X9793277Y-12559650D01*
X9793277Y-12559650D02*
X9812325Y-12569174D01*
X9812325Y-12569174D02*
X9821848Y-12588222D01*
X9821848Y-12588222D02*
X9821848Y-12692984D01*
X9917086Y-12692984D02*
X9917086Y-12559650D01*
X9917086Y-12578698D02*
X9926610Y-12569174D01*
X9926610Y-12569174D02*
X9945658Y-12559650D01*
X9945658Y-12559650D02*
X9974229Y-12559650D01*
X9974229Y-12559650D02*
X9993277Y-12569174D01*
X9993277Y-12569174D02*
X10002801Y-12588222D01*
X10002801Y-12588222D02*
X10002801Y-12692984D01*
X10002801Y-12588222D02*
X10012325Y-12569174D01*
X10012325Y-12569174D02*
X10031372Y-12559650D01*
X10031372Y-12559650D02*
X10059944Y-12559650D01*
X10059944Y-12559650D02*
X10078991Y-12569174D01*
X10078991Y-12569174D02*
X10088515Y-12588222D01*
X10088515Y-12588222D02*
X10088515Y-12692984D01*
X10478991Y-12483460D02*
X10307563Y-12740603D01*
X10736134Y-12492984D02*
X10755182Y-12492984D01*
X10755182Y-12492984D02*
X10774229Y-12502508D01*
X10774229Y-12502508D02*
X10783753Y-12512031D01*
X10783753Y-12512031D02*
X10793277Y-12531079D01*
X10793277Y-12531079D02*
X10802801Y-12569174D01*
X10802801Y-12569174D02*
X10802801Y-12616793D01*
X10802801Y-12616793D02*
X10793277Y-12654888D01*
X10793277Y-12654888D02*
X10783753Y-12673936D01*
X10783753Y-12673936D02*
X10774229Y-12683460D01*
X10774229Y-12683460D02*
X10755182Y-12692984D01*
X10755182Y-12692984D02*
X10736134Y-12692984D01*
X10736134Y-12692984D02*
X10717087Y-12683460D01*
X10717087Y-12683460D02*
X10707563Y-12673936D01*
X10707563Y-12673936D02*
X10698039Y-12654888D01*
X10698039Y-12654888D02*
X10688515Y-12616793D01*
X10688515Y-12616793D02*
X10688515Y-12569174D01*
X10688515Y-12569174D02*
X10698039Y-12531079D01*
X10698039Y-12531079D02*
X10707563Y-12512031D01*
X10707563Y-12512031D02*
X10717087Y-12502508D01*
X10717087Y-12502508D02*
X10736134Y-12492984D01*
X10888515Y-12673936D02*
X10898039Y-12683460D01*
X10898039Y-12683460D02*
X10888515Y-12692984D01*
X10888515Y-12692984D02*
X10878991Y-12683460D01*
X10878991Y-12683460D02*
X10888515Y-12673936D01*
X10888515Y-12673936D02*
X10888515Y-12692984D01*
X11021848Y-12492984D02*
X11040896Y-12492984D01*
X11040896Y-12492984D02*
X11059944Y-12502508D01*
X11059944Y-12502508D02*
X11069468Y-12512031D01*
X11069468Y-12512031D02*
X11078991Y-12531079D01*
X11078991Y-12531079D02*
X11088515Y-12569174D01*
X11088515Y-12569174D02*
X11088515Y-12616793D01*
X11088515Y-12616793D02*
X11078991Y-12654888D01*
X11078991Y-12654888D02*
X11069468Y-12673936D01*
X11069468Y-12673936D02*
X11059944Y-12683460D01*
X11059944Y-12683460D02*
X11040896Y-12692984D01*
X11040896Y-12692984D02*
X11021848Y-12692984D01*
X11021848Y-12692984D02*
X11002801Y-12683460D01*
X11002801Y-12683460D02*
X10993277Y-12673936D01*
X10993277Y-12673936D02*
X10983753Y-12654888D01*
X10983753Y-12654888D02*
X10974229Y-12616793D01*
X10974229Y-12616793D02*
X10974229Y-12569174D01*
X10974229Y-12569174D02*
X10983753Y-12531079D01*
X10983753Y-12531079D02*
X10993277Y-12512031D01*
X10993277Y-12512031D02*
X11002801Y-12502508D01*
X11002801Y-12502508D02*
X11021848Y-12492984D01*
X11164706Y-12512031D02*
X11174229Y-12502508D01*
X11174229Y-12502508D02*
X11193277Y-12492984D01*
X11193277Y-12492984D02*
X11240896Y-12492984D01*
X11240896Y-12492984D02*
X11259944Y-12502508D01*
X11259944Y-12502508D02*
X11269467Y-12512031D01*
X11269467Y-12512031D02*
X11278991Y-12531079D01*
X11278991Y-12531079D02*
X11278991Y-12550127D01*
X11278991Y-12550127D02*
X11269467Y-12578698D01*
X11269467Y-12578698D02*
X11155182Y-12692984D01*
X11155182Y-12692984D02*
X11278991Y-12692984D01*
X11345658Y-12492984D02*
X11469467Y-12492984D01*
X11469467Y-12492984D02*
X11402801Y-12569174D01*
X11402801Y-12569174D02*
X11431372Y-12569174D01*
X11431372Y-12569174D02*
X11450420Y-12578698D01*
X11450420Y-12578698D02*
X11459944Y-12588222D01*
X11459944Y-12588222D02*
X11469467Y-12607269D01*
X11469467Y-12607269D02*
X11469467Y-12654888D01*
X11469467Y-12654888D02*
X11459944Y-12673936D01*
X11459944Y-12673936D02*
X11450420Y-12683460D01*
X11450420Y-12683460D02*
X11431372Y-12692984D01*
X11431372Y-12692984D02*
X11374229Y-12692984D01*
X11374229Y-12692984D02*
X11355182Y-12683460D01*
X11355182Y-12683460D02*
X11345658Y-12673936D01*
X11640896Y-12492984D02*
X11602801Y-12492984D01*
X11602801Y-12492984D02*
X11583753Y-12502508D01*
X11583753Y-12502508D02*
X11574229Y-12512031D01*
X11574229Y-12512031D02*
X11555182Y-12540603D01*
X11555182Y-12540603D02*
X11545658Y-12578698D01*
X11545658Y-12578698D02*
X11545658Y-12654888D01*
X11545658Y-12654888D02*
X11555182Y-12673936D01*
X11555182Y-12673936D02*
X11564706Y-12683460D01*
X11564706Y-12683460D02*
X11583753Y-12692984D01*
X11583753Y-12692984D02*
X11621848Y-12692984D01*
X11621848Y-12692984D02*
X11640896Y-12683460D01*
X11640896Y-12683460D02*
X11650420Y-12673936D01*
X11650420Y-12673936D02*
X11659944Y-12654888D01*
X11659944Y-12654888D02*
X11659944Y-12607269D01*
X11659944Y-12607269D02*
X11650420Y-12588222D01*
X11650420Y-12588222D02*
X11640896Y-12578698D01*
X11640896Y-12578698D02*
X11621848Y-12569174D01*
X11621848Y-12569174D02*
X11583753Y-12569174D01*
X11583753Y-12569174D02*
X11564706Y-12578698D01*
X11564706Y-12578698D02*
X11555182Y-12588222D01*
X11555182Y-12588222D02*
X11545658Y-12607269D01*
X11736134Y-12492984D02*
X11736134Y-12531079D01*
X11812325Y-12492984D02*
X11812325Y-12531079D01*
X12107563Y-12769174D02*
X12098039Y-12759650D01*
X12098039Y-12759650D02*
X12078991Y-12731079D01*
X12078991Y-12731079D02*
X12069468Y-12712031D01*
X12069468Y-12712031D02*
X12059944Y-12683460D01*
X12059944Y-12683460D02*
X12050420Y-12635841D01*
X12050420Y-12635841D02*
X12050420Y-12597746D01*
X12050420Y-12597746D02*
X12059944Y-12550127D01*
X12059944Y-12550127D02*
X12069468Y-12521555D01*
X12069468Y-12521555D02*
X12078991Y-12502508D01*
X12078991Y-12502508D02*
X12098039Y-12473936D01*
X12098039Y-12473936D02*
X12107563Y-12464412D01*
X12164706Y-12492984D02*
X12288515Y-12492984D01*
X12288515Y-12492984D02*
X12221848Y-12569174D01*
X12221848Y-12569174D02*
X12250420Y-12569174D01*
X12250420Y-12569174D02*
X12269468Y-12578698D01*
X12269468Y-12578698D02*
X12278991Y-12588222D01*
X12278991Y-12588222D02*
X12288515Y-12607269D01*
X12288515Y-12607269D02*
X12288515Y-12654888D01*
X12288515Y-12654888D02*
X12278991Y-12673936D01*
X12278991Y-12673936D02*
X12269468Y-12683460D01*
X12269468Y-12683460D02*
X12250420Y-12692984D01*
X12250420Y-12692984D02*
X12193277Y-12692984D01*
X12193277Y-12692984D02*
X12174229Y-12683460D01*
X12174229Y-12683460D02*
X12164706Y-12673936D01*
X12364706Y-12512031D02*
X12374229Y-12502508D01*
X12374229Y-12502508D02*
X12393277Y-12492984D01*
X12393277Y-12492984D02*
X12440896Y-12492984D01*
X12440896Y-12492984D02*
X12459944Y-12502508D01*
X12459944Y-12502508D02*
X12469468Y-12512031D01*
X12469468Y-12512031D02*
X12478991Y-12531079D01*
X12478991Y-12531079D02*
X12478991Y-12550127D01*
X12478991Y-12550127D02*
X12469468Y-12578698D01*
X12469468Y-12578698D02*
X12355182Y-12692984D01*
X12355182Y-12692984D02*
X12478991Y-12692984D01*
X12717087Y-12692984D02*
X12717087Y-12492984D01*
X12802801Y-12692984D02*
X12802801Y-12588222D01*
X12802801Y-12588222D02*
X12793277Y-12569174D01*
X12793277Y-12569174D02*
X12774230Y-12559650D01*
X12774230Y-12559650D02*
X12745658Y-12559650D01*
X12745658Y-12559650D02*
X12726610Y-12569174D01*
X12726610Y-12569174D02*
X12717087Y-12578698D01*
X12926610Y-12692984D02*
X12907563Y-12683460D01*
X12907563Y-12683460D02*
X12898039Y-12673936D01*
X12898039Y-12673936D02*
X12888515Y-12654888D01*
X12888515Y-12654888D02*
X12888515Y-12597746D01*
X12888515Y-12597746D02*
X12898039Y-12578698D01*
X12898039Y-12578698D02*
X12907563Y-12569174D01*
X12907563Y-12569174D02*
X12926610Y-12559650D01*
X12926610Y-12559650D02*
X12955182Y-12559650D01*
X12955182Y-12559650D02*
X12974230Y-12569174D01*
X12974230Y-12569174D02*
X12983753Y-12578698D01*
X12983753Y-12578698D02*
X12993277Y-12597746D01*
X12993277Y-12597746D02*
X12993277Y-12654888D01*
X12993277Y-12654888D02*
X12983753Y-12673936D01*
X12983753Y-12673936D02*
X12974230Y-12683460D01*
X12974230Y-12683460D02*
X12955182Y-12692984D01*
X12955182Y-12692984D02*
X12926610Y-12692984D01*
X13107563Y-12692984D02*
X13088515Y-12683460D01*
X13088515Y-12683460D02*
X13078991Y-12664412D01*
X13078991Y-12664412D02*
X13078991Y-12492984D01*
X13259944Y-12683460D02*
X13240896Y-12692984D01*
X13240896Y-12692984D02*
X13202801Y-12692984D01*
X13202801Y-12692984D02*
X13183753Y-12683460D01*
X13183753Y-12683460D02*
X13174230Y-12664412D01*
X13174230Y-12664412D02*
X13174230Y-12588222D01*
X13174230Y-12588222D02*
X13183753Y-12569174D01*
X13183753Y-12569174D02*
X13202801Y-12559650D01*
X13202801Y-12559650D02*
X13240896Y-12559650D01*
X13240896Y-12559650D02*
X13259944Y-12569174D01*
X13259944Y-12569174D02*
X13269468Y-12588222D01*
X13269468Y-12588222D02*
X13269468Y-12607269D01*
X13269468Y-12607269D02*
X13174230Y-12626317D01*
X13345658Y-12683460D02*
X13364706Y-12692984D01*
X13364706Y-12692984D02*
X13402801Y-12692984D01*
X13402801Y-12692984D02*
X13421849Y-12683460D01*
X13421849Y-12683460D02*
X13431372Y-12664412D01*
X13431372Y-12664412D02*
X13431372Y-12654888D01*
X13431372Y-12654888D02*
X13421849Y-12635841D01*
X13421849Y-12635841D02*
X13402801Y-12626317D01*
X13402801Y-12626317D02*
X13374230Y-12626317D01*
X13374230Y-12626317D02*
X13355182Y-12616793D01*
X13355182Y-12616793D02*
X13345658Y-12597746D01*
X13345658Y-12597746D02*
X13345658Y-12588222D01*
X13345658Y-12588222D02*
X13355182Y-12569174D01*
X13355182Y-12569174D02*
X13374230Y-12559650D01*
X13374230Y-12559650D02*
X13402801Y-12559650D01*
X13402801Y-12559650D02*
X13421849Y-12569174D01*
X13669468Y-12616793D02*
X13821849Y-12616793D01*
X13745658Y-12692984D02*
X13745658Y-12540603D01*
X14155182Y-12559650D02*
X14155182Y-12692984D01*
X14107563Y-12483460D02*
X14059944Y-12626317D01*
X14059944Y-12626317D02*
X14183753Y-12626317D01*
X14402801Y-12683460D02*
X14421849Y-12692984D01*
X14421849Y-12692984D02*
X14459944Y-12692984D01*
X14459944Y-12692984D02*
X14478992Y-12683460D01*
X14478992Y-12683460D02*
X14488515Y-12664412D01*
X14488515Y-12664412D02*
X14488515Y-12654888D01*
X14488515Y-12654888D02*
X14478992Y-12635841D01*
X14478992Y-12635841D02*
X14459944Y-12626317D01*
X14459944Y-12626317D02*
X14431373Y-12626317D01*
X14431373Y-12626317D02*
X14412325Y-12616793D01*
X14412325Y-12616793D02*
X14402801Y-12597746D01*
X14402801Y-12597746D02*
X14402801Y-12588222D01*
X14402801Y-12588222D02*
X14412325Y-12569174D01*
X14412325Y-12569174D02*
X14431373Y-12559650D01*
X14431373Y-12559650D02*
X14459944Y-12559650D01*
X14459944Y-12559650D02*
X14478992Y-12569174D01*
X14602801Y-12692984D02*
X14583754Y-12683460D01*
X14583754Y-12683460D02*
X14574230Y-12664412D01*
X14574230Y-12664412D02*
X14574230Y-12492984D01*
X14707563Y-12692984D02*
X14688515Y-12683460D01*
X14688515Y-12683460D02*
X14678992Y-12673936D01*
X14678992Y-12673936D02*
X14669468Y-12654888D01*
X14669468Y-12654888D02*
X14669468Y-12597746D01*
X14669468Y-12597746D02*
X14678992Y-12578698D01*
X14678992Y-12578698D02*
X14688515Y-12569174D01*
X14688515Y-12569174D02*
X14707563Y-12559650D01*
X14707563Y-12559650D02*
X14736135Y-12559650D01*
X14736135Y-12559650D02*
X14755182Y-12569174D01*
X14755182Y-12569174D02*
X14764706Y-12578698D01*
X14764706Y-12578698D02*
X14774230Y-12597746D01*
X14774230Y-12597746D02*
X14774230Y-12654888D01*
X14774230Y-12654888D02*
X14764706Y-12673936D01*
X14764706Y-12673936D02*
X14755182Y-12683460D01*
X14755182Y-12683460D02*
X14736135Y-12692984D01*
X14736135Y-12692984D02*
X14707563Y-12692984D01*
X14831373Y-12559650D02*
X14907563Y-12559650D01*
X14859944Y-12492984D02*
X14859944Y-12664412D01*
X14859944Y-12664412D02*
X14869468Y-12683460D01*
X14869468Y-12683460D02*
X14888515Y-12692984D01*
X14888515Y-12692984D02*
X14907563Y-12692984D01*
X14964706Y-12683460D02*
X14983754Y-12692984D01*
X14983754Y-12692984D02*
X15021849Y-12692984D01*
X15021849Y-12692984D02*
X15040896Y-12683460D01*
X15040896Y-12683460D02*
X15050420Y-12664412D01*
X15050420Y-12664412D02*
X15050420Y-12654888D01*
X15050420Y-12654888D02*
X15040896Y-12635841D01*
X15040896Y-12635841D02*
X15021849Y-12626317D01*
X15021849Y-12626317D02*
X14993277Y-12626317D01*
X14993277Y-12626317D02*
X14974230Y-12616793D01*
X14974230Y-12616793D02*
X14964706Y-12597746D01*
X14964706Y-12597746D02*
X14964706Y-12588222D01*
X14964706Y-12588222D02*
X14974230Y-12569174D01*
X14974230Y-12569174D02*
X14993277Y-12559650D01*
X14993277Y-12559650D02*
X15021849Y-12559650D01*
X15021849Y-12559650D02*
X15040896Y-12569174D01*
X15117087Y-12769174D02*
X15126611Y-12759650D01*
X15126611Y-12759650D02*
X15145658Y-12731079D01*
X15145658Y-12731079D02*
X15155182Y-12712031D01*
X15155182Y-12712031D02*
X15164706Y-12683460D01*
X15164706Y-12683460D02*
X15174230Y-12635841D01*
X15174230Y-12635841D02*
X15174230Y-12597746D01*
X15174230Y-12597746D02*
X15164706Y-12550127D01*
X15164706Y-12550127D02*
X15155182Y-12521555D01*
X15155182Y-12521555D02*
X15145658Y-12502508D01*
X15145658Y-12502508D02*
X15126611Y-12473936D01*
X15126611Y-12473936D02*
X15117087Y-12464412D01*
D12*
X8482500Y-12815500D02*
X8482500Y-12915500D01*
X8432500Y-12865500D02*
X8532500Y-12865500D01*
D11*
X8898039Y-12956984D02*
X8783753Y-12956984D01*
X8840896Y-12956984D02*
X8840896Y-12756984D01*
X8840896Y-12756984D02*
X8821848Y-12785555D01*
X8821848Y-12785555D02*
X8802801Y-12804603D01*
X8802801Y-12804603D02*
X8783753Y-12814127D01*
X8983753Y-12937936D02*
X8993277Y-12947460D01*
X8993277Y-12947460D02*
X8983753Y-12956984D01*
X8983753Y-12956984D02*
X8974229Y-12947460D01*
X8974229Y-12947460D02*
X8983753Y-12937936D01*
X8983753Y-12937936D02*
X8983753Y-12956984D01*
X9117086Y-12756984D02*
X9136134Y-12756984D01*
X9136134Y-12756984D02*
X9155182Y-12766508D01*
X9155182Y-12766508D02*
X9164705Y-12776031D01*
X9164705Y-12776031D02*
X9174229Y-12795079D01*
X9174229Y-12795079D02*
X9183753Y-12833174D01*
X9183753Y-12833174D02*
X9183753Y-12880793D01*
X9183753Y-12880793D02*
X9174229Y-12918888D01*
X9174229Y-12918888D02*
X9164705Y-12937936D01*
X9164705Y-12937936D02*
X9155182Y-12947460D01*
X9155182Y-12947460D02*
X9136134Y-12956984D01*
X9136134Y-12956984D02*
X9117086Y-12956984D01*
X9117086Y-12956984D02*
X9098039Y-12947460D01*
X9098039Y-12947460D02*
X9088515Y-12937936D01*
X9088515Y-12937936D02*
X9078991Y-12918888D01*
X9078991Y-12918888D02*
X9069467Y-12880793D01*
X9069467Y-12880793D02*
X9069467Y-12833174D01*
X9069467Y-12833174D02*
X9078991Y-12795079D01*
X9078991Y-12795079D02*
X9088515Y-12776031D01*
X9088515Y-12776031D02*
X9098039Y-12766508D01*
X9098039Y-12766508D02*
X9117086Y-12756984D01*
X9307563Y-12756984D02*
X9326610Y-12756984D01*
X9326610Y-12756984D02*
X9345658Y-12766508D01*
X9345658Y-12766508D02*
X9355182Y-12776031D01*
X9355182Y-12776031D02*
X9364705Y-12795079D01*
X9364705Y-12795079D02*
X9374229Y-12833174D01*
X9374229Y-12833174D02*
X9374229Y-12880793D01*
X9374229Y-12880793D02*
X9364705Y-12918888D01*
X9364705Y-12918888D02*
X9355182Y-12937936D01*
X9355182Y-12937936D02*
X9345658Y-12947460D01*
X9345658Y-12947460D02*
X9326610Y-12956984D01*
X9326610Y-12956984D02*
X9307563Y-12956984D01*
X9307563Y-12956984D02*
X9288515Y-12947460D01*
X9288515Y-12947460D02*
X9278991Y-12937936D01*
X9278991Y-12937936D02*
X9269467Y-12918888D01*
X9269467Y-12918888D02*
X9259944Y-12880793D01*
X9259944Y-12880793D02*
X9259944Y-12833174D01*
X9259944Y-12833174D02*
X9269467Y-12795079D01*
X9269467Y-12795079D02*
X9278991Y-12776031D01*
X9278991Y-12776031D02*
X9288515Y-12766508D01*
X9288515Y-12766508D02*
X9307563Y-12756984D01*
X9498039Y-12756984D02*
X9517086Y-12756984D01*
X9517086Y-12756984D02*
X9536134Y-12766508D01*
X9536134Y-12766508D02*
X9545658Y-12776031D01*
X9545658Y-12776031D02*
X9555182Y-12795079D01*
X9555182Y-12795079D02*
X9564705Y-12833174D01*
X9564705Y-12833174D02*
X9564705Y-12880793D01*
X9564705Y-12880793D02*
X9555182Y-12918888D01*
X9555182Y-12918888D02*
X9545658Y-12937936D01*
X9545658Y-12937936D02*
X9536134Y-12947460D01*
X9536134Y-12947460D02*
X9517086Y-12956984D01*
X9517086Y-12956984D02*
X9498039Y-12956984D01*
X9498039Y-12956984D02*
X9478991Y-12947460D01*
X9478991Y-12947460D02*
X9469467Y-12937936D01*
X9469467Y-12937936D02*
X9459944Y-12918888D01*
X9459944Y-12918888D02*
X9450420Y-12880793D01*
X9450420Y-12880793D02*
X9450420Y-12833174D01*
X9450420Y-12833174D02*
X9459944Y-12795079D01*
X9459944Y-12795079D02*
X9469467Y-12776031D01*
X9469467Y-12776031D02*
X9478991Y-12766508D01*
X9478991Y-12766508D02*
X9498039Y-12756984D01*
X9650420Y-12956984D02*
X9650420Y-12823650D01*
X9650420Y-12842698D02*
X9659944Y-12833174D01*
X9659944Y-12833174D02*
X9678991Y-12823650D01*
X9678991Y-12823650D02*
X9707563Y-12823650D01*
X9707563Y-12823650D02*
X9726610Y-12833174D01*
X9726610Y-12833174D02*
X9736134Y-12852222D01*
X9736134Y-12852222D02*
X9736134Y-12956984D01*
X9736134Y-12852222D02*
X9745658Y-12833174D01*
X9745658Y-12833174D02*
X9764705Y-12823650D01*
X9764705Y-12823650D02*
X9793277Y-12823650D01*
X9793277Y-12823650D02*
X9812325Y-12833174D01*
X9812325Y-12833174D02*
X9821848Y-12852222D01*
X9821848Y-12852222D02*
X9821848Y-12956984D01*
X9917086Y-12956984D02*
X9917086Y-12823650D01*
X9917086Y-12842698D02*
X9926610Y-12833174D01*
X9926610Y-12833174D02*
X9945658Y-12823650D01*
X9945658Y-12823650D02*
X9974229Y-12823650D01*
X9974229Y-12823650D02*
X9993277Y-12833174D01*
X9993277Y-12833174D02*
X10002801Y-12852222D01*
X10002801Y-12852222D02*
X10002801Y-12956984D01*
X10002801Y-12852222D02*
X10012325Y-12833174D01*
X10012325Y-12833174D02*
X10031372Y-12823650D01*
X10031372Y-12823650D02*
X10059944Y-12823650D01*
X10059944Y-12823650D02*
X10078991Y-12833174D01*
X10078991Y-12833174D02*
X10088515Y-12852222D01*
X10088515Y-12852222D02*
X10088515Y-12956984D01*
X10478991Y-12747460D02*
X10307563Y-13004603D01*
X10736134Y-12756984D02*
X10755182Y-12756984D01*
X10755182Y-12756984D02*
X10774229Y-12766508D01*
X10774229Y-12766508D02*
X10783753Y-12776031D01*
X10783753Y-12776031D02*
X10793277Y-12795079D01*
X10793277Y-12795079D02*
X10802801Y-12833174D01*
X10802801Y-12833174D02*
X10802801Y-12880793D01*
X10802801Y-12880793D02*
X10793277Y-12918888D01*
X10793277Y-12918888D02*
X10783753Y-12937936D01*
X10783753Y-12937936D02*
X10774229Y-12947460D01*
X10774229Y-12947460D02*
X10755182Y-12956984D01*
X10755182Y-12956984D02*
X10736134Y-12956984D01*
X10736134Y-12956984D02*
X10717087Y-12947460D01*
X10717087Y-12947460D02*
X10707563Y-12937936D01*
X10707563Y-12937936D02*
X10698039Y-12918888D01*
X10698039Y-12918888D02*
X10688515Y-12880793D01*
X10688515Y-12880793D02*
X10688515Y-12833174D01*
X10688515Y-12833174D02*
X10698039Y-12795079D01*
X10698039Y-12795079D02*
X10707563Y-12776031D01*
X10707563Y-12776031D02*
X10717087Y-12766508D01*
X10717087Y-12766508D02*
X10736134Y-12756984D01*
X10888515Y-12937936D02*
X10898039Y-12947460D01*
X10898039Y-12947460D02*
X10888515Y-12956984D01*
X10888515Y-12956984D02*
X10878991Y-12947460D01*
X10878991Y-12947460D02*
X10888515Y-12937936D01*
X10888515Y-12937936D02*
X10888515Y-12956984D01*
X11021848Y-12756984D02*
X11040896Y-12756984D01*
X11040896Y-12756984D02*
X11059944Y-12766508D01*
X11059944Y-12766508D02*
X11069468Y-12776031D01*
X11069468Y-12776031D02*
X11078991Y-12795079D01*
X11078991Y-12795079D02*
X11088515Y-12833174D01*
X11088515Y-12833174D02*
X11088515Y-12880793D01*
X11088515Y-12880793D02*
X11078991Y-12918888D01*
X11078991Y-12918888D02*
X11069468Y-12937936D01*
X11069468Y-12937936D02*
X11059944Y-12947460D01*
X11059944Y-12947460D02*
X11040896Y-12956984D01*
X11040896Y-12956984D02*
X11021848Y-12956984D01*
X11021848Y-12956984D02*
X11002801Y-12947460D01*
X11002801Y-12947460D02*
X10993277Y-12937936D01*
X10993277Y-12937936D02*
X10983753Y-12918888D01*
X10983753Y-12918888D02*
X10974229Y-12880793D01*
X10974229Y-12880793D02*
X10974229Y-12833174D01*
X10974229Y-12833174D02*
X10983753Y-12795079D01*
X10983753Y-12795079D02*
X10993277Y-12776031D01*
X10993277Y-12776031D02*
X11002801Y-12766508D01*
X11002801Y-12766508D02*
X11021848Y-12756984D01*
X11155182Y-12756984D02*
X11278991Y-12756984D01*
X11278991Y-12756984D02*
X11212325Y-12833174D01*
X11212325Y-12833174D02*
X11240896Y-12833174D01*
X11240896Y-12833174D02*
X11259944Y-12842698D01*
X11259944Y-12842698D02*
X11269467Y-12852222D01*
X11269467Y-12852222D02*
X11278991Y-12871269D01*
X11278991Y-12871269D02*
X11278991Y-12918888D01*
X11278991Y-12918888D02*
X11269467Y-12937936D01*
X11269467Y-12937936D02*
X11259944Y-12947460D01*
X11259944Y-12947460D02*
X11240896Y-12956984D01*
X11240896Y-12956984D02*
X11183753Y-12956984D01*
X11183753Y-12956984D02*
X11164706Y-12947460D01*
X11164706Y-12947460D02*
X11155182Y-12937936D01*
X11374229Y-12956984D02*
X11412325Y-12956984D01*
X11412325Y-12956984D02*
X11431372Y-12947460D01*
X11431372Y-12947460D02*
X11440896Y-12937936D01*
X11440896Y-12937936D02*
X11459944Y-12909365D01*
X11459944Y-12909365D02*
X11469467Y-12871269D01*
X11469467Y-12871269D02*
X11469467Y-12795079D01*
X11469467Y-12795079D02*
X11459944Y-12776031D01*
X11459944Y-12776031D02*
X11450420Y-12766508D01*
X11450420Y-12766508D02*
X11431372Y-12756984D01*
X11431372Y-12756984D02*
X11393277Y-12756984D01*
X11393277Y-12756984D02*
X11374229Y-12766508D01*
X11374229Y-12766508D02*
X11364706Y-12776031D01*
X11364706Y-12776031D02*
X11355182Y-12795079D01*
X11355182Y-12795079D02*
X11355182Y-12842698D01*
X11355182Y-12842698D02*
X11364706Y-12861746D01*
X11364706Y-12861746D02*
X11374229Y-12871269D01*
X11374229Y-12871269D02*
X11393277Y-12880793D01*
X11393277Y-12880793D02*
X11431372Y-12880793D01*
X11431372Y-12880793D02*
X11450420Y-12871269D01*
X11450420Y-12871269D02*
X11459944Y-12861746D01*
X11459944Y-12861746D02*
X11469467Y-12842698D01*
X11640896Y-12823650D02*
X11640896Y-12956984D01*
X11593277Y-12747460D02*
X11545658Y-12890317D01*
X11545658Y-12890317D02*
X11669467Y-12890317D01*
X11736134Y-12756984D02*
X11736134Y-12795079D01*
X11812325Y-12756984D02*
X11812325Y-12795079D01*
X12107563Y-13033174D02*
X12098039Y-13023650D01*
X12098039Y-13023650D02*
X12078991Y-12995079D01*
X12078991Y-12995079D02*
X12069468Y-12976031D01*
X12069468Y-12976031D02*
X12059944Y-12947460D01*
X12059944Y-12947460D02*
X12050420Y-12899841D01*
X12050420Y-12899841D02*
X12050420Y-12861746D01*
X12050420Y-12861746D02*
X12059944Y-12814127D01*
X12059944Y-12814127D02*
X12069468Y-12785555D01*
X12069468Y-12785555D02*
X12078991Y-12766508D01*
X12078991Y-12766508D02*
X12098039Y-12737936D01*
X12098039Y-12737936D02*
X12107563Y-12728412D01*
X12174229Y-12776031D02*
X12183753Y-12766508D01*
X12183753Y-12766508D02*
X12202801Y-12756984D01*
X12202801Y-12756984D02*
X12250420Y-12756984D01*
X12250420Y-12756984D02*
X12269468Y-12766508D01*
X12269468Y-12766508D02*
X12278991Y-12776031D01*
X12278991Y-12776031D02*
X12288515Y-12795079D01*
X12288515Y-12795079D02*
X12288515Y-12814127D01*
X12288515Y-12814127D02*
X12278991Y-12842698D01*
X12278991Y-12842698D02*
X12164706Y-12956984D01*
X12164706Y-12956984D02*
X12288515Y-12956984D01*
X12526610Y-12956984D02*
X12526610Y-12756984D01*
X12612325Y-12956984D02*
X12612325Y-12852222D01*
X12612325Y-12852222D02*
X12602801Y-12833174D01*
X12602801Y-12833174D02*
X12583753Y-12823650D01*
X12583753Y-12823650D02*
X12555182Y-12823650D01*
X12555182Y-12823650D02*
X12536134Y-12833174D01*
X12536134Y-12833174D02*
X12526610Y-12842698D01*
X12736134Y-12956984D02*
X12717087Y-12947460D01*
X12717087Y-12947460D02*
X12707563Y-12937936D01*
X12707563Y-12937936D02*
X12698039Y-12918888D01*
X12698039Y-12918888D02*
X12698039Y-12861746D01*
X12698039Y-12861746D02*
X12707563Y-12842698D01*
X12707563Y-12842698D02*
X12717087Y-12833174D01*
X12717087Y-12833174D02*
X12736134Y-12823650D01*
X12736134Y-12823650D02*
X12764706Y-12823650D01*
X12764706Y-12823650D02*
X12783753Y-12833174D01*
X12783753Y-12833174D02*
X12793277Y-12842698D01*
X12793277Y-12842698D02*
X12802801Y-12861746D01*
X12802801Y-12861746D02*
X12802801Y-12918888D01*
X12802801Y-12918888D02*
X12793277Y-12937936D01*
X12793277Y-12937936D02*
X12783753Y-12947460D01*
X12783753Y-12947460D02*
X12764706Y-12956984D01*
X12764706Y-12956984D02*
X12736134Y-12956984D01*
X12917087Y-12956984D02*
X12898039Y-12947460D01*
X12898039Y-12947460D02*
X12888515Y-12928412D01*
X12888515Y-12928412D02*
X12888515Y-12756984D01*
X13069468Y-12947460D02*
X13050420Y-12956984D01*
X13050420Y-12956984D02*
X13012325Y-12956984D01*
X13012325Y-12956984D02*
X12993277Y-12947460D01*
X12993277Y-12947460D02*
X12983753Y-12928412D01*
X12983753Y-12928412D02*
X12983753Y-12852222D01*
X12983753Y-12852222D02*
X12993277Y-12833174D01*
X12993277Y-12833174D02*
X13012325Y-12823650D01*
X13012325Y-12823650D02*
X13050420Y-12823650D01*
X13050420Y-12823650D02*
X13069468Y-12833174D01*
X13069468Y-12833174D02*
X13078991Y-12852222D01*
X13078991Y-12852222D02*
X13078991Y-12871269D01*
X13078991Y-12871269D02*
X12983753Y-12890317D01*
X13155182Y-12947460D02*
X13174230Y-12956984D01*
X13174230Y-12956984D02*
X13212325Y-12956984D01*
X13212325Y-12956984D02*
X13231372Y-12947460D01*
X13231372Y-12947460D02*
X13240896Y-12928412D01*
X13240896Y-12928412D02*
X13240896Y-12918888D01*
X13240896Y-12918888D02*
X13231372Y-12899841D01*
X13231372Y-12899841D02*
X13212325Y-12890317D01*
X13212325Y-12890317D02*
X13183753Y-12890317D01*
X13183753Y-12890317D02*
X13164706Y-12880793D01*
X13164706Y-12880793D02*
X13155182Y-12861746D01*
X13155182Y-12861746D02*
X13155182Y-12852222D01*
X13155182Y-12852222D02*
X13164706Y-12833174D01*
X13164706Y-12833174D02*
X13183753Y-12823650D01*
X13183753Y-12823650D02*
X13212325Y-12823650D01*
X13212325Y-12823650D02*
X13231372Y-12833174D01*
X13307563Y-13033174D02*
X13317087Y-13023650D01*
X13317087Y-13023650D02*
X13336134Y-12995079D01*
X13336134Y-12995079D02*
X13345658Y-12976031D01*
X13345658Y-12976031D02*
X13355182Y-12947460D01*
X13355182Y-12947460D02*
X13364706Y-12899841D01*
X13364706Y-12899841D02*
X13364706Y-12861746D01*
X13364706Y-12861746D02*
X13355182Y-12814127D01*
X13355182Y-12814127D02*
X13345658Y-12785555D01*
X13345658Y-12785555D02*
X13336134Y-12766508D01*
X13336134Y-12766508D02*
X13317087Y-12737936D01*
X13317087Y-12737936D02*
X13307563Y-12728412D01*
M02*
